<svg width="33" height="33" viewBox="0 0 33 33" fill="none" xmlns="http://www.w3.org/2000/svg">
<path fill-rule="evenodd" clip-rule="evenodd" d="M0.503906 16.9111C0.503906 8.10909 7.6816 0.973633 16.5357 0.973633C25.3899 0.973633 32.5676 8.10909 32.5676 16.9111C32.5676 25.7132 25.3899 32.8486 16.5357 32.8486C7.6816 32.8486 0.503906 25.7132 0.503906 16.9111Z" fill="#F68634"/>
<path fill-rule="evenodd" clip-rule="evenodd" d="M18.2996 13.0557C18.2996 12.1167 17.5037 11.353 16.5252 11.353C15.5476 11.353 14.7508 12.1167 14.7508 13.0557C14.7508 13.9941 15.5476 14.7578 16.5252 14.7578C17.5037 14.7578 18.2996 13.9941 18.2996 13.0557ZM20.8103 13.0557C20.8103 15.3232 18.8885 17.1675 16.5252 17.1675C14.1609 17.1675 12.239 15.3232 12.239 13.0557C12.239 10.7876 14.1609 8.94287 16.5252 8.94287C18.8885 8.94287 20.8103 10.7876 20.8103 13.0557ZM20.7586 19.5356C19.9842 20.0024 19.1424 20.3335 18.2703 20.5244L20.6658 22.8237C21.157 23.2939 21.157 24.0571 20.6658 24.5278C20.1756 24.998 19.3806 24.998 18.8914 24.5278L16.5359 22.2681L14.1814 24.5278C13.9363 24.7627 13.615 24.8804 13.2937 24.8804C12.9724 24.8804 12.6512 24.7627 12.406 24.5278C11.9158 24.0571 11.9158 23.2944 12.4051 22.8237L14.8015 20.5244C14.3367 20.4229 13.8806 20.2812 13.4392 20.1006C13.0515 19.9419 12.6746 19.7534 12.3123 19.5356C11.7263 19.1807 11.5506 18.437 11.9197 17.874C12.2879 17.3101 13.0633 17.1401 13.6502 17.4951C15.4051 18.5542 17.6648 18.5542 19.4207 17.4951C20.0086 17.1401 20.783 17.3101 21.1521 17.874C21.5222 18.4365 21.3455 19.1807 20.7586 19.5356Z" fill="white"/>
</svg>
