<svg width="33" height="33" viewBox="0 0 33 33" fill="none" xmlns="http://www.w3.org/2000/svg">
<path fill-rule="evenodd" clip-rule="evenodd" d="M0 16.9111C0 8.10909 7.1777 0.973633 16.0318 0.973633C24.886 0.973633 32.0637 8.10909 32.0637 16.9111C32.0637 25.7132 24.886 32.8486 16.0318 32.8486C7.1777 32.8486 0 25.7132 0 16.9111Z" fill="#4C6C91"/>
<path fill-rule="evenodd" clip-rule="evenodd" d="M16.8704 22.1413C16.8704 22.1413 17.179 22.1079 17.3371 21.9422C17.4818 21.7904 17.4768 21.5039 17.4768 21.5039C17.4768 21.5039 17.4575 20.1662 18.094 19.9687C18.7213 19.7745 19.5268 21.2623 20.3816 21.8345C21.0273 22.267 21.5174 22.1724 21.5174 22.1724L23.8016 22.1413C23.8016 22.1413 24.996 22.0695 24.4297 21.153C24.3829 21.0779 24.0993 20.4747 22.7318 19.2358C21.2991 17.9389 21.4915 18.1486 23.2161 15.905C24.2666 14.5387 24.6865 13.7046 24.5552 13.3479C24.4306 13.0068 23.6577 13.0974 23.6577 13.0974L21.0867 13.1129C21.0867 13.1129 20.896 13.0876 20.7546 13.17C20.6166 13.2508 20.5271 13.4394 20.5271 13.4394C20.5271 13.4394 20.1206 14.4963 19.5778 15.3957C18.4328 17.2925 17.9753 17.3929 17.7879 17.2753C17.3522 17.0003 17.4609 16.1719 17.4609 15.5834C17.4609 13.7446 17.7469 12.9782 16.9047 12.7799C16.6253 12.7138 16.4196 12.6705 15.7045 12.6632C14.7869 12.6542 14.0108 12.6664 13.5708 12.8762C13.2781 13.0158 13.0523 13.3275 13.1903 13.3455C13.3601 13.3675 13.7448 13.4467 13.9489 13.7177C14.2123 14.0678 14.2031 14.853 14.2031 14.853C14.2031 14.853 14.3545 17.0174 13.8494 17.286C13.5031 17.4704 13.028 17.0942 12.0068 15.3729C11.484 14.4914 11.0893 13.5169 11.0893 13.5169C11.0893 13.5169 11.0131 13.3349 10.8768 13.2369C10.712 13.1186 10.482 13.0819 10.482 13.0819L8.03893 13.0974C8.03893 13.0974 7.67176 13.1072 7.5371 13.2631C7.41749 13.401 7.5279 13.6875 7.5279 13.6875C7.5279 13.6875 9.44073 18.0548 11.607 20.256C13.5934 22.2736 15.8483 22.1413 15.8483 22.1413H16.8704Z" fill="white"/>
</svg>
