<svg width="431" height="201" viewBox="0 0 431 201" fill="none" xmlns="http://www.w3.org/2000/svg">
<g filter="url(#filter0_d)">
<circle cx="83.5" cy="17.5" r="3.5" transform="scale(1 -1)" fill="#36DFB6" style="mix-blend-mode:multiply"/>
</g>
<circle cx="106" cy="46" r="45.5" stroke="#3688DF" stroke-opacity="0.14"/>
<path d="M189.448 24.824C189.896 24.824 190.301 24.9093 190.664 25.08C191.037 25.24 191.325 25.464 191.528 25.752C191.741 26.0293 191.848 26.344 191.848 26.696C191.848 26.9413 191.784 27.1333 191.656 27.272C191.528 27.4107 191.357 27.48 191.144 27.48C190.931 27.48 190.765 27.4107 190.648 27.272C190.541 27.1333 190.488 26.9893 190.488 26.84C190.488 26.584 190.557 26.3813 190.696 26.232C190.643 25.944 190.499 25.7307 190.264 25.592C190.04 25.4533 189.763 25.384 189.432 25.384C188.589 25.384 187.976 25.7787 187.592 26.568C187.219 27.3573 187.032 28.2693 187.032 29.304C187.032 30.3707 187.203 31.1547 187.544 31.656C187.896 32.1467 188.376 32.392 188.984 32.392C189.453 32.392 189.907 32.2373 190.344 31.928C190.781 31.608 191.144 31.0907 191.432 30.376L191.992 30.648C191.608 31.5333 191.133 32.1787 190.568 32.584C190.003 32.9787 189.384 33.176 188.712 33.176C187.741 33.176 186.984 32.888 186.44 32.312C185.896 31.7253 185.624 30.8453 185.624 29.672C185.624 28.9253 185.763 28.1787 186.04 27.432C186.328 26.6853 186.76 26.0667 187.336 25.576C187.912 25.0747 188.616 24.824 189.448 24.824ZM197.075 24.824C197.715 24.824 198.248 24.9733 198.675 25.272C199.101 25.5707 199.315 26.0347 199.315 26.664C199.315 27.4533 198.84 28.0667 197.891 28.504C196.941 28.9413 195.843 29.2293 194.595 29.368C194.595 30.3707 194.744 31.1227 195.043 31.624C195.341 32.1253 195.8 32.376 196.419 32.376C196.909 32.376 197.384 32.216 197.843 31.896C198.301 31.5653 198.701 31.08 199.043 30.44L199.571 30.744C199.123 31.5867 198.621 32.2053 198.067 32.6C197.512 32.984 196.872 33.176 196.147 33.176C195.165 33.176 194.424 32.872 193.923 32.264C193.432 31.6453 193.187 30.7973 193.187 29.72C193.187 28.856 193.331 28.056 193.618 27.32C193.917 26.5733 194.36 25.9707 194.947 25.512C195.533 25.0533 196.243 24.824 197.075 24.824ZM196.851 25.368C196.168 25.368 195.64 25.6987 195.267 26.36C194.893 27.0213 194.675 27.832 194.611 28.792C195.539 28.664 196.333 28.408 196.995 28.024C197.656 27.64 197.987 27.16 197.987 26.584C197.987 26.232 197.885 25.944 197.683 25.72C197.491 25.4853 197.213 25.368 196.851 25.368ZM209.003 31.368C208.897 31.88 208.694 32.312 208.396 32.664C208.097 33.0053 207.697 33.176 207.196 33.176C206.801 33.176 206.497 33.0267 206.284 32.728C206.081 32.4293 205.948 31.88 205.884 31.08C205.82 30.3333 205.697 29.816 205.516 29.528C205.334 29.24 205.052 29.096 204.668 29.096L203.34 29.112C203.158 30.52 203.078 31.5227 203.1 32.12C203.1 32.28 203.11 32.5733 203.132 33H201.804L201.788 32.808L201.804 32.584C201.804 31.9973 201.905 30.904 202.108 29.304C202.204 28.4827 202.289 27.8427 202.364 27.384C202.428 26.8613 202.46 26.504 202.46 26.312C202.46 26.0987 202.433 25.9333 202.38 25.816C202.326 25.688 202.214 25.624 202.044 25.624C201.841 25.624 201.628 25.752 201.404 26.008C201.19 26.264 201.004 26.6533 200.844 27.176L200.396 27.08C200.46 26.7813 200.582 26.456 200.764 26.104C200.945 25.752 201.185 25.4533 201.484 25.208C201.782 24.952 202.129 24.824 202.524 24.824C202.94 24.824 203.233 24.9413 203.404 25.176C203.585 25.4107 203.676 25.768 203.676 26.248C203.676 26.5147 203.638 26.92 203.564 27.464L203.404 28.648H203.916C204.385 28.648 204.753 28.52 205.02 28.264C205.297 28.008 205.558 27.56 205.804 26.92C206.081 26.152 206.374 25.6133 206.684 25.304C207.004 24.984 207.409 24.824 207.9 24.824C208.177 24.824 208.396 24.904 208.556 25.064C208.716 25.224 208.796 25.4373 208.796 25.704C208.796 25.928 208.726 26.12 208.588 26.28C208.46 26.44 208.278 26.52 208.044 26.52C207.777 26.52 207.569 26.4613 207.42 26.344C207.27 26.2267 207.185 26.0613 207.164 25.848C207.014 25.944 206.881 26.088 206.764 26.28C206.646 26.472 206.513 26.776 206.364 27.192C206.225 27.576 206.054 27.9067 205.852 28.184C205.649 28.4613 205.425 28.664 205.18 28.792C206.332 28.824 206.972 29.4533 207.1 30.68C207.164 31.3093 207.238 31.736 207.324 31.96C207.42 32.1733 207.59 32.28 207.836 32.28C207.996 32.28 208.134 32.2053 208.252 32.056C208.369 31.896 208.47 31.64 208.556 31.288L209.003 31.368ZM215.551 24.824C215.999 24.824 216.324 25.0213 216.527 25.416C216.73 25.8107 216.831 26.296 216.831 26.872C216.831 27.8427 216.639 28.8613 216.255 29.928C215.871 30.984 215.354 32.0987 214.703 33.272C213.935 34.68 213.204 35.7093 212.511 36.36C211.818 37.0107 211.14 37.336 210.479 37.336C210.095 37.336 209.78 37.24 209.535 37.048C209.3 36.856 209.183 36.616 209.183 36.328C209.183 36.104 209.252 35.9227 209.391 35.784C209.53 35.656 209.679 35.592 209.839 35.592C210.063 35.592 210.234 35.6613 210.351 35.8C210.479 35.9493 210.538 36.1573 210.527 36.424C210.676 36.4987 210.794 36.536 210.879 36.536C211.284 36.5573 211.716 36.3013 212.175 35.768C212.644 35.2347 213.028 34.712 213.327 34.2C213.135 32.888 212.868 31.5653 212.527 30.232C212.186 28.8987 211.802 27.7147 211.375 26.68C211.247 26.4027 211.135 26.2 211.039 26.072C210.943 25.9333 210.81 25.864 210.639 25.864C210.458 25.864 210.308 25.976 210.191 26.2C210.084 26.424 210.031 26.728 210.031 27.112C210.031 27.2933 210.036 27.432 210.047 27.528L209.535 27.592C209.524 27.4853 209.519 27.3253 209.519 27.112C209.519 26.4827 209.631 25.944 209.855 25.496C210.09 25.048 210.468 24.824 210.991 24.824C211.471 24.824 211.844 24.9947 212.111 25.336C212.378 25.6667 212.607 26.0987 212.799 26.632C213.012 27.208 213.204 27.832 213.375 28.504C213.546 29.1653 213.748 30.0187 213.983 31.064C214.047 31.3733 214.127 31.9173 214.223 32.696H214.255C214.767 31.8 215.199 30.8613 215.551 29.88C215.903 28.888 216.079 27.992 216.079 27.192C216.079 26.936 216.052 26.7067 215.999 26.504C215.956 26.3013 215.903 26.152 215.839 26.056C215.743 26.12 215.61 26.152 215.439 26.152C215.247 26.152 215.092 26.0933 214.975 25.976C214.858 25.848 214.799 25.6987 214.799 25.528C214.799 25.304 214.874 25.1333 215.023 25.016C215.172 24.888 215.348 24.824 215.551 24.824ZM226.938 30.92C226.884 31.2187 226.767 31.544 226.586 31.896C226.415 32.248 226.18 32.552 225.882 32.808C225.594 33.0533 225.252 33.176 224.858 33.176C224.442 33.176 224.132 33.048 223.93 32.792C223.727 32.536 223.626 32.184 223.626 31.736C223.626 31.448 223.684 30.856 223.802 29.96L223.85 29.512L220.762 29.544L220.474 31.992C220.452 32.2053 220.442 32.36 220.442 32.456C220.442 32.6373 220.458 32.8187 220.49 33H219.146C219.135 32.904 219.13 32.7653 219.13 32.584C219.14 32.1893 219.236 31.3733 219.418 30.136L219.514 29.384L219.61 28.696C219.706 27.9813 219.77 27.464 219.802 27.144C219.844 26.8133 219.866 26.5467 219.866 26.344C219.887 25.864 219.748 25.624 219.45 25.624C219.247 25.624 219.034 25.752 218.81 26.008C218.596 26.264 218.41 26.6533 218.25 27.176L217.802 27.08C217.866 26.7813 217.988 26.456 218.17 26.104C218.351 25.752 218.591 25.4533 218.89 25.208C219.188 24.952 219.535 24.824 219.93 24.824C220.708 24.824 221.098 25.3413 221.098 26.376C221.098 26.5467 221.076 26.824 221.034 27.208L220.842 28.904H223.93C224.1 27.56 224.186 26.568 224.186 25.928C224.186 25.736 224.175 25.4267 224.154 25H225.498C225.508 25.096 225.514 25.2347 225.514 25.416C225.514 25.6933 225.476 26.1627 225.402 26.824C225.338 27.4747 225.263 28.136 225.178 28.808C224.986 30.4293 224.89 31.3787 224.89 31.656C224.89 32.1253 225.034 32.36 225.322 32.36C225.524 32.36 225.732 32.2373 225.946 31.992C226.159 31.736 226.34 31.3467 226.49 30.824L226.938 30.92ZM230.533 33.176C229.701 33.176 229.024 32.8827 228.501 32.296C227.989 31.7093 227.733 30.872 227.733 29.784C227.733 28.888 227.899 28.088 228.229 27.384C228.56 26.6693 229.008 26.1147 229.573 25.72C230.149 25.3253 230.784 25.128 231.477 25.128C232.192 25.128 232.704 25.336 233.013 25.752C232.885 24.376 232.597 23.32 232.149 22.584C231.712 21.8373 231.179 21.464 230.549 21.464C229.92 21.464 229.349 21.7147 228.837 22.216L228.533 21.848C228.928 21.5067 229.291 21.2613 229.621 21.112C229.963 20.952 230.325 20.872 230.709 20.872C231.936 20.872 232.848 21.464 233.445 22.648C234.043 23.8213 234.341 25.32 234.341 27.144C234.341 28.5733 234.16 29.7413 233.797 30.648C233.445 31.544 232.981 32.1893 232.405 32.584C231.84 32.9787 231.216 33.176 230.533 33.176ZM230.837 32.568C231.531 32.568 232.048 32.1307 232.389 31.256C232.741 30.3813 232.949 29.3413 233.013 28.136C233.056 27.432 232.933 26.856 232.645 26.408C232.357 25.9493 231.973 25.72 231.493 25.72C231.109 25.72 230.731 25.88 230.357 26.2C229.984 26.5093 229.675 26.9627 229.429 27.56C229.195 28.1467 229.077 28.8293 229.077 29.608C229.077 30.472 229.232 31.1813 229.541 31.736C229.861 32.2907 230.293 32.568 230.837 32.568ZM249.858 24.824C250.455 24.824 250.882 25.016 251.138 25.4C251.405 25.784 251.538 26.2853 251.538 26.904C251.538 27.352 251.511 27.8053 251.458 28.264C251.405 28.712 251.325 29.2827 251.218 29.976C251.079 30.8293 251.01 31.384 251.01 31.64C251.01 31.8747 251.037 32.056 251.09 32.184C251.154 32.312 251.271 32.376 251.442 32.376C251.645 32.376 251.853 32.2533 252.066 32.008C252.29 31.752 252.477 31.3573 252.626 30.824L253.074 30.936C253.021 31.2347 252.903 31.56 252.722 31.912C252.551 32.2533 252.317 32.552 252.018 32.808C251.719 33.0533 251.373 33.176 250.978 33.176C250.498 33.176 250.162 33.0533 249.97 32.808C249.789 32.552 249.698 32.1627 249.698 31.64C249.698 31.2027 249.783 30.4987 249.954 29.528C249.965 29.432 250.002 29.1707 250.066 28.744C250.13 28.3067 250.178 27.9067 250.21 27.544C250.253 27.1707 250.274 26.84 250.274 26.552C250.274 26.3067 250.215 26.0827 250.098 25.88C249.981 25.6773 249.783 25.576 249.506 25.576C249.026 25.576 248.557 25.928 248.098 26.632C247.65 27.336 247.282 28.2053 246.994 29.24C246.717 30.2747 246.578 31.2453 246.578 32.152C246.578 32.3547 246.589 32.6373 246.61 33H245.266C245.255 32.904 245.25 32.7653 245.25 32.584C245.25 32.232 245.282 31.7627 245.346 31.176C245.41 30.5893 245.479 30.008 245.554 29.432C245.735 28.0453 245.826 27.1013 245.826 26.6C245.826 25.9173 245.57 25.576 245.058 25.576C244.589 25.576 244.125 25.928 243.666 26.632C243.218 27.336 242.85 28.2107 242.562 29.256C242.274 30.2907 242.13 31.256 242.13 32.152C242.13 32.3547 242.141 32.6373 242.162 33H240.818C240.807 32.904 240.802 32.7653 240.802 32.584C240.802 32.3173 240.823 31.9333 240.866 31.432C240.919 30.92 240.999 30.2373 241.106 29.384L241.298 27.72C241.341 27.3467 241.373 27.064 241.394 26.872C241.415 26.6693 241.426 26.4933 241.426 26.344C241.426 26.12 241.394 25.944 241.33 25.816C241.277 25.688 241.165 25.624 240.994 25.624C240.791 25.624 240.583 25.752 240.37 26.008C240.157 26.264 239.975 26.6533 239.826 27.176L239.378 27.08C239.431 26.7813 239.543 26.456 239.714 26.104C239.895 25.752 240.13 25.4533 240.418 25.208C240.717 24.952 241.063 24.824 241.458 24.824C242.258 24.824 242.658 25.3573 242.658 26.424C242.658 26.7227 242.626 27.0533 242.562 27.416C242.509 27.7787 242.455 28.104 242.402 28.392H242.45C242.909 27.0587 243.383 26.1307 243.874 25.608C244.365 25.0853 244.866 24.824 245.378 24.824C245.965 24.824 246.397 25.0107 246.674 25.384C246.951 25.7573 247.09 26.1787 247.09 26.648C247.09 26.9253 247.074 27.16 247.042 27.352C247.01 27.5333 246.935 27.864 246.818 28.344H246.866C247.346 27.0107 247.837 26.0933 248.338 25.592C248.839 25.08 249.346 24.824 249.858 24.824ZM259.522 24.824C260.226 24.824 260.759 25.1173 261.122 25.704C261.495 26.2907 261.682 27.032 261.682 27.928C261.682 28.9733 261.5 29.8907 261.138 30.68C260.775 31.4693 260.236 32.0827 259.522 32.52C258.818 32.9573 257.964 33.176 256.962 33.176C256.706 33.176 256.455 33.16 256.21 33.128L256.082 35.144C256.071 35.2187 256.066 35.336 256.066 35.496C256.044 35.912 256.007 36.2373 255.954 36.472L256.962 36.424V37.08H253.938V36.6C254.194 36.6 254.386 36.52 254.514 36.36C254.642 36.2 254.727 35.992 254.77 35.736C254.823 35.4907 254.866 35.1387 254.898 34.68C254.898 34.5413 254.903 34.4347 254.914 34.36C255.01 33.2293 255.154 31.6133 255.346 29.512C255.516 27.752 255.602 26.7387 255.602 26.472C255.602 26.1947 255.575 25.9867 255.522 25.848C255.468 25.6987 255.351 25.624 255.17 25.624C254.967 25.624 254.759 25.752 254.546 26.008C254.343 26.264 254.167 26.6533 254.018 27.176L253.554 27.08C253.607 26.7813 253.719 26.456 253.89 26.104C254.071 25.752 254.306 25.4533 254.594 25.208C254.892 24.952 255.239 24.824 255.634 24.824C256.444 24.824 256.85 25.384 256.85 26.504C256.85 26.9733 256.775 27.5813 256.626 28.328H256.674C257.079 26.984 257.516 26.0667 257.986 25.576C258.455 25.0747 258.967 24.824 259.522 24.824ZM259.186 25.576C258.812 25.576 258.439 25.8373 258.066 26.36C257.692 26.872 257.362 27.544 257.074 28.376C256.786 29.1973 256.572 30.0453 256.434 30.92C256.37 31.2933 256.311 31.8 256.258 32.44C256.642 32.568 256.967 32.632 257.234 32.632C257.938 32.632 258.519 32.4133 258.978 31.976C259.447 31.528 259.783 30.968 259.986 30.296C260.199 29.6133 260.306 28.92 260.306 28.216C260.306 27.3947 260.22 26.7493 260.05 26.28C259.879 25.8107 259.591 25.576 259.186 25.576ZM266.918 24.824C267.558 24.824 268.092 24.9733 268.518 25.272C268.945 25.5707 269.158 26.0347 269.158 26.664C269.158 27.4533 268.684 28.0667 267.734 28.504C266.785 28.9413 265.686 29.2293 264.438 29.368C264.438 30.3707 264.588 31.1227 264.886 31.624C265.185 32.1253 265.644 32.376 266.262 32.376C266.753 32.376 267.228 32.216 267.686 31.896C268.145 31.5653 268.545 31.08 268.886 30.44L269.414 30.744C268.966 31.5867 268.465 32.2053 267.91 32.6C267.356 32.984 266.716 33.176 265.99 33.176C265.009 33.176 264.268 32.872 263.766 32.264C263.276 31.6453 263.03 30.7973 263.03 29.72C263.03 28.856 263.174 28.056 263.462 27.32C263.761 26.5733 264.204 25.9707 264.79 25.512C265.377 25.0533 266.086 24.824 266.918 24.824ZM266.694 25.368C266.012 25.368 265.484 25.6987 265.11 26.36C264.737 27.0213 264.518 27.832 264.454 28.792C265.382 28.664 266.177 28.408 266.838 28.024C267.5 27.64 267.83 27.16 267.83 26.584C267.83 26.232 267.729 25.944 267.526 25.72C267.334 25.4853 267.057 25.368 266.694 25.368ZM273.935 33.16C272.965 33.16 272.17 32.8027 271.551 32.088C270.943 31.3627 270.639 30.3013 270.639 28.904C270.639 28.7653 270.65 28.536 270.671 28.216C270.767 26.712 271.082 25.4213 271.615 24.344C272.149 23.256 272.917 22.5253 273.919 22.152C274.154 22.056 274.394 21.9867 274.639 21.944C274.885 21.9013 275.205 21.8587 275.599 21.816C275.973 21.784 276.282 21.736 276.527 21.672C276.933 21.576 277.231 21.48 277.423 21.384C277.626 21.288 277.791 21.112 277.919 20.856L278.383 21.016C278.063 22.0187 277.423 22.68 276.463 23C276.271 23.0747 276.047 23.1333 275.791 23.176C275.546 23.2187 275.306 23.256 275.071 23.288C274.602 23.352 274.266 23.4107 274.063 23.464C273.189 23.72 272.538 24.1627 272.111 24.792C271.695 25.4213 271.407 26.28 271.247 27.368H271.359C271.999 25.992 273.071 25.304 274.575 25.304C275.098 25.304 275.589 25.4373 276.047 25.704C276.517 25.9707 276.89 26.3653 277.167 26.888C277.455 27.4 277.599 28.0133 277.599 28.728C277.599 29.5813 277.429 30.344 277.087 31.016C276.746 31.688 276.293 32.216 275.727 32.6C275.173 32.9733 274.575 33.16 273.935 33.16ZM273.871 32.552C274.629 32.552 275.205 32.2 275.599 31.496C276.005 30.7813 276.207 29.8587 276.207 28.728C276.207 27.928 276.047 27.256 275.727 26.712C275.407 26.1573 274.943 25.88 274.335 25.88C273.589 25.88 273.018 26.2267 272.623 26.92C272.229 27.6027 272.031 28.424 272.031 29.384C272.031 30.344 272.197 31.112 272.527 31.688C272.858 32.264 273.306 32.552 273.871 32.552ZM284.551 24.824C284.999 24.824 285.324 25.0213 285.527 25.416C285.73 25.8107 285.831 26.296 285.831 26.872C285.831 27.8427 285.639 28.8613 285.255 29.928C284.871 30.984 284.354 32.0987 283.703 33.272C282.935 34.68 282.204 35.7093 281.511 36.36C280.818 37.0107 280.14 37.336 279.479 37.336C279.095 37.336 278.78 37.24 278.535 37.048C278.3 36.856 278.183 36.616 278.183 36.328C278.183 36.104 278.252 35.9227 278.391 35.784C278.53 35.656 278.679 35.592 278.839 35.592C279.063 35.592 279.234 35.6613 279.351 35.8C279.479 35.9493 279.538 36.1573 279.527 36.424C279.676 36.4987 279.794 36.536 279.879 36.536C280.284 36.5573 280.716 36.3013 281.175 35.768C281.644 35.2347 282.028 34.712 282.327 34.2C282.135 32.888 281.868 31.5653 281.527 30.232C281.186 28.8987 280.802 27.7147 280.375 26.68C280.247 26.4027 280.135 26.2 280.039 26.072C279.943 25.9333 279.81 25.864 279.639 25.864C279.458 25.864 279.308 25.976 279.191 26.2C279.084 26.424 279.031 26.728 279.031 27.112C279.031 27.2933 279.036 27.432 279.047 27.528L278.535 27.592C278.524 27.4853 278.519 27.3253 278.519 27.112C278.519 26.4827 278.631 25.944 278.855 25.496C279.09 25.048 279.468 24.824 279.991 24.824C280.471 24.824 280.844 24.9947 281.111 25.336C281.378 25.6667 281.607 26.0987 281.799 26.632C282.012 27.208 282.204 27.832 282.375 28.504C282.546 29.1653 282.748 30.0187 282.983 31.064C283.047 31.3733 283.127 31.9173 283.223 32.696H283.255C283.767 31.8 284.199 30.8613 284.551 29.88C284.903 28.888 285.079 27.992 285.079 27.192C285.079 26.936 285.052 26.7067 284.999 26.504C284.956 26.3013 284.903 26.152 284.839 26.056C284.743 26.12 284.61 26.152 284.439 26.152C284.247 26.152 284.092 26.0933 283.975 25.976C283.858 25.848 283.799 25.6987 283.799 25.528C283.799 25.304 283.874 25.1333 284.023 25.016C284.172 24.888 284.348 24.824 284.551 24.824ZM291.106 24.824C291.746 24.824 292.279 24.9733 292.706 25.272C293.132 25.5707 293.346 26.0347 293.346 26.664C293.346 27.4533 292.871 28.0667 291.922 28.504C290.972 28.9413 289.874 29.2293 288.626 29.368C288.626 30.3707 288.775 31.1227 289.074 31.624C289.372 32.1253 289.831 32.376 290.45 32.376C290.94 32.376 291.415 32.216 291.874 31.896C292.332 31.5653 292.732 31.08 293.074 30.44L293.602 30.744C293.154 31.5867 292.652 32.2053 292.098 32.6C291.543 32.984 290.903 33.176 290.178 33.176C289.196 33.176 288.455 32.872 287.954 32.264C287.463 31.6453 287.218 30.7973 287.218 29.72C287.218 28.856 287.362 28.056 287.65 27.32C287.948 26.5733 288.391 25.9707 288.978 25.512C289.564 25.0533 290.274 24.824 291.106 24.824ZM290.882 25.368C290.199 25.368 289.671 25.6987 289.298 26.36C288.924 27.0213 288.706 27.832 288.642 28.792C289.57 28.664 290.364 28.408 291.026 28.024C291.687 27.64 292.018 27.16 292.018 26.584C292.018 26.232 291.916 25.944 291.714 25.72C291.522 25.4853 291.244 25.368 290.882 25.368ZM304.827 24.824C305.424 24.824 305.851 25.016 306.107 25.4C306.373 25.784 306.507 26.2853 306.507 26.904C306.507 27.352 306.48 27.8053 306.427 28.264C306.373 28.712 306.293 29.2827 306.187 29.976C306.048 30.8293 305.979 31.384 305.979 31.64C305.979 31.8747 306.005 32.056 306.059 32.184C306.123 32.312 306.24 32.376 306.411 32.376C306.613 32.376 306.821 32.2533 307.035 32.008C307.259 31.752 307.445 31.3573 307.595 30.824L308.043 30.936C307.989 31.2347 307.872 31.56 307.691 31.912C307.52 32.2533 307.285 32.552 306.987 32.808C306.688 33.0533 306.341 33.176 305.947 33.176C305.467 33.176 305.131 33.0533 304.939 32.808C304.757 32.552 304.667 32.1627 304.667 31.64C304.667 31.2027 304.752 30.4987 304.923 29.528C304.933 29.432 304.971 29.1707 305.035 28.744C305.099 28.3067 305.147 27.9067 305.179 27.544C305.221 27.1707 305.243 26.84 305.243 26.552C305.243 26.3067 305.184 26.0827 305.067 25.88C304.949 25.6773 304.752 25.576 304.475 25.576C303.995 25.576 303.525 25.928 303.067 26.632C302.619 27.336 302.251 28.2053 301.963 29.24C301.685 30.2747 301.547 31.2453 301.547 32.152C301.547 32.3547 301.557 32.6373 301.579 33H300.235C300.224 32.904 300.219 32.7653 300.219 32.584C300.219 32.232 300.251 31.7627 300.315 31.176C300.379 30.5893 300.448 30.008 300.523 29.432C300.704 28.0453 300.795 27.1013 300.795 26.6C300.795 25.9173 300.539 25.576 300.027 25.576C299.557 25.576 299.093 25.928 298.635 26.632C298.187 27.336 297.819 28.2107 297.531 29.256C297.243 30.2907 297.099 31.256 297.099 32.152C297.099 32.3547 297.109 32.6373 297.131 33H295.787C295.776 32.904 295.771 32.7653 295.771 32.584C295.771 32.3173 295.792 31.9333 295.835 31.432C295.888 30.92 295.968 30.2373 296.075 29.384L296.267 27.72C296.309 27.3467 296.341 27.064 296.363 26.872C296.384 26.6693 296.395 26.4933 296.395 26.344C296.395 26.12 296.363 25.944 296.299 25.816C296.245 25.688 296.133 25.624 295.963 25.624C295.76 25.624 295.552 25.752 295.339 26.008C295.125 26.264 294.944 26.6533 294.795 27.176L294.347 27.08C294.4 26.7813 294.512 26.456 294.683 26.104C294.864 25.752 295.099 25.4533 295.387 25.208C295.685 24.952 296.032 24.824 296.427 24.824C297.227 24.824 297.627 25.3573 297.627 26.424C297.627 26.7227 297.595 27.0533 297.531 27.416C297.477 27.7787 297.424 28.104 297.371 28.392H297.419C297.877 27.0587 298.352 26.1307 298.843 25.608C299.333 25.0853 299.835 24.824 300.347 24.824C300.933 24.824 301.365 25.0107 301.643 25.384C301.92 25.7573 302.059 26.1787 302.059 26.648C302.059 26.9253 302.043 27.16 302.011 27.352C301.979 27.5333 301.904 27.864 301.787 28.344H301.835C302.315 27.0107 302.805 26.0933 303.307 25.592C303.808 25.08 304.315 24.824 304.827 24.824ZM312.682 24.824C313.13 24.824 313.536 24.9093 313.898 25.08C314.272 25.24 314.56 25.464 314.762 25.752C314.976 26.0293 315.082 26.344 315.082 26.696C315.082 26.9413 315.018 27.1333 314.89 27.272C314.762 27.4107 314.592 27.48 314.378 27.48C314.165 27.48 314 27.4107 313.882 27.272C313.776 27.1333 313.722 26.9893 313.722 26.84C313.722 26.584 313.792 26.3813 313.93 26.232C313.877 25.944 313.733 25.7307 313.498 25.592C313.274 25.4533 312.997 25.384 312.666 25.384C311.824 25.384 311.21 25.7787 310.826 26.568C310.453 27.3573 310.266 28.2693 310.266 29.304C310.266 30.3707 310.437 31.1547 310.778 31.656C311.13 32.1467 311.61 32.392 312.218 32.392C312.688 32.392 313.141 32.2373 313.578 31.928C314.016 31.608 314.378 31.0907 314.666 30.376L315.226 30.648C314.842 31.5333 314.368 32.1787 313.802 32.584C313.237 32.9787 312.618 33.176 311.946 33.176C310.976 33.176 310.218 32.888 309.674 32.312C309.13 31.7253 308.858 30.8453 308.858 29.672C308.858 28.9253 308.997 28.1787 309.274 27.432C309.562 26.6853 309.994 26.0667 310.57 25.576C311.146 25.0747 311.85 24.824 312.682 24.824ZM324.597 30.92C324.437 31.5707 324.181 32.1093 323.829 32.536C323.488 32.9627 323.024 33.176 322.437 33.176C322.01 33.176 321.706 33.0693 321.525 32.856C321.354 32.632 321.269 32.296 321.269 31.848C321.269 31.528 321.301 31.1707 321.365 30.776L321.525 29.816C321.13 29.88 320.682 29.9227 320.181 29.944C319.946 29.944 319.754 30.0507 319.605 30.264C319.456 30.4667 319.296 30.8507 319.125 31.416C318.965 31.9067 318.805 32.28 318.645 32.536C318.485 32.7813 318.309 32.9467 318.117 33.032C317.925 33.128 317.685 33.176 317.397 33.176C316.938 33.176 316.581 33 316.325 32.648C316.069 32.296 315.914 31.8693 315.861 31.368L316.309 31.272C316.362 31.6453 316.469 31.912 316.629 32.072C316.8 32.232 316.976 32.296 317.157 32.264C317.306 32.2427 317.434 32.152 317.541 31.992C317.658 31.8213 317.834 31.4533 318.069 30.888C318.229 30.4933 318.4 30.1947 318.581 29.992C318.773 29.7893 319.045 29.672 319.397 29.64C318.938 29.4907 318.57 29.24 318.293 28.888C318.016 28.5253 317.877 28.0773 317.877 27.544C317.877 26.9467 318.032 26.4507 318.341 26.056C318.65 25.6507 319.056 25.352 319.557 25.16C320.058 24.968 320.597 24.872 321.173 24.872C321.877 24.872 322.602 24.9307 323.349 25.048L322.517 31.656C322.506 31.7093 322.501 31.7787 322.501 31.864C322.501 32.1947 322.64 32.36 322.917 32.36C323.12 32.36 323.333 32.2373 323.557 31.992C323.781 31.736 323.978 31.3467 324.149 30.824L324.597 30.92ZM321.621 29.208C321.898 27.4693 322.058 26.3173 322.101 25.752C321.728 25.624 321.381 25.56 321.061 25.56C320.496 25.56 320.037 25.7413 319.685 26.104C319.344 26.4667 319.173 26.984 319.173 27.656C319.173 28.168 319.29 28.5787 319.525 28.888C319.76 29.1973 320.106 29.352 320.565 29.352C320.896 29.352 321.248 29.304 321.621 29.208ZM333.417 24.824C333.865 24.824 334.27 24.9093 334.633 25.08C335.006 25.24 335.294 25.464 335.497 25.752C335.71 26.0293 335.817 26.344 335.817 26.696C335.817 26.9413 335.753 27.1333 335.625 27.272C335.497 27.4107 335.326 27.48 335.113 27.48C334.899 27.48 334.734 27.4107 334.617 27.272C334.51 27.1333 334.457 26.9893 334.457 26.84C334.457 26.584 334.526 26.3813 334.665 26.232C334.611 25.944 334.467 25.7307 334.233 25.592C334.009 25.4533 333.731 25.384 333.401 25.384C332.558 25.384 331.945 25.7787 331.561 26.568C331.187 27.3573 331.001 28.2693 331.001 29.304C331.001 30.3707 331.171 31.1547 331.513 31.656C331.865 32.1467 332.345 32.392 332.953 32.392C333.422 32.392 333.875 32.2373 334.313 31.928C334.75 31.608 335.113 31.0907 335.401 30.376L335.961 30.648C335.577 31.5333 335.102 32.1787 334.537 32.584C333.971 32.9787 333.353 33.176 332.681 33.176C331.71 33.176 330.953 32.888 330.409 32.312C329.865 31.7253 329.593 30.8453 329.593 29.672C329.593 28.9253 329.731 28.1787 330.009 27.432C330.297 26.6853 330.729 26.0667 331.305 25.576C331.881 25.0747 332.585 24.824 333.417 24.824ZM342.787 24.824C343.491 24.824 344.025 25.1173 344.387 25.704C344.761 26.2907 344.947 27.032 344.947 27.928C344.947 28.9733 344.766 29.8907 344.403 30.68C344.041 31.4693 343.502 32.0827 342.787 32.52C342.083 32.9573 341.23 33.176 340.227 33.176C339.971 33.176 339.721 33.16 339.475 33.128L339.347 35.144C339.337 35.2187 339.331 35.336 339.331 35.496C339.31 35.912 339.273 36.2373 339.219 36.472L340.227 36.424V37.08H337.203V36.6C337.459 36.6 337.651 36.52 337.779 36.36C337.907 36.2 337.993 35.992 338.035 35.736C338.089 35.4907 338.131 35.1387 338.163 34.68C338.163 34.5413 338.169 34.4347 338.179 34.36C338.275 33.2293 338.419 31.6133 338.611 29.512C338.782 27.752 338.867 26.7387 338.867 26.472C338.867 26.1947 338.841 25.9867 338.787 25.848C338.734 25.6987 338.617 25.624 338.435 25.624C338.233 25.624 338.025 25.752 337.811 26.008C337.609 26.264 337.433 26.6533 337.283 27.176L336.819 27.08C336.873 26.7813 336.985 26.456 337.155 26.104C337.337 25.752 337.571 25.4533 337.859 25.208C338.158 24.952 338.505 24.824 338.899 24.824C339.71 24.824 340.115 25.384 340.115 26.504C340.115 26.9733 340.041 27.5813 339.891 28.328H339.939C340.345 26.984 340.782 26.0667 341.251 25.576C341.721 25.0747 342.233 24.824 342.787 24.824ZM342.451 25.576C342.078 25.576 341.705 25.8373 341.331 26.36C340.958 26.872 340.627 27.544 340.339 28.376C340.051 29.1973 339.838 30.0453 339.699 30.92C339.635 31.2933 339.577 31.8 339.523 32.44C339.907 32.568 340.233 32.632 340.499 32.632C341.203 32.632 341.785 32.4133 342.243 31.976C342.713 31.528 343.049 30.968 343.251 30.296C343.465 29.6133 343.571 28.92 343.571 28.216C343.571 27.3947 343.486 26.7493 343.315 26.28C343.145 25.8107 342.857 25.576 342.451 25.576ZM350.184 24.824C350.824 24.824 351.357 24.9733 351.784 25.272C352.211 25.5707 352.424 26.0347 352.424 26.664C352.424 27.4533 351.949 28.0667 351 28.504C350.051 28.9413 348.952 29.2293 347.704 29.368C347.704 30.3707 347.853 31.1227 348.152 31.624C348.451 32.1253 348.909 32.376 349.528 32.376C350.019 32.376 350.493 32.216 350.952 31.896C351.411 31.5653 351.811 31.08 352.152 30.44L352.68 30.744C352.232 31.5867 351.731 32.2053 351.176 32.6C350.621 32.984 349.981 33.176 349.256 33.176C348.275 33.176 347.533 32.872 347.032 32.264C346.541 31.6453 346.296 30.7973 346.296 29.72C346.296 28.856 346.44 28.056 346.728 27.32C347.027 26.5733 347.469 25.9707 348.056 25.512C348.643 25.0533 349.352 24.824 350.184 24.824ZM349.96 25.368C349.277 25.368 348.749 25.6987 348.376 26.36C348.003 27.0213 347.784 27.832 347.72 28.792C348.648 28.664 349.443 28.408 350.104 28.024C350.765 27.64 351.096 27.16 351.096 26.584C351.096 26.232 350.995 25.944 350.792 25.72C350.6 25.4853 350.323 25.368 349.96 25.368ZM356.721 33.176C355.889 33.176 355.212 32.8827 354.689 32.296C354.177 31.7093 353.921 30.872 353.921 29.784C353.921 28.888 354.086 28.088 354.417 27.384C354.748 26.6693 355.196 26.1147 355.761 25.72C356.337 25.3253 356.972 25.128 357.665 25.128C358.38 25.128 358.892 25.336 359.201 25.752C359.073 24.376 358.785 23.32 358.337 22.584C357.9 21.8373 357.366 21.464 356.737 21.464C356.108 21.464 355.537 21.7147 355.025 22.216L354.721 21.848C355.116 21.5067 355.478 21.2613 355.809 21.112C356.15 20.952 356.513 20.872 356.897 20.872C358.124 20.872 359.036 21.464 359.633 22.648C360.23 23.8213 360.529 25.32 360.529 27.144C360.529 28.5733 360.348 29.7413 359.985 30.648C359.633 31.544 359.169 32.1893 358.593 32.584C358.028 32.9787 357.404 33.176 356.721 33.176ZM357.025 32.568C357.718 32.568 358.236 32.1307 358.577 31.256C358.929 30.3813 359.137 29.3413 359.201 28.136C359.244 27.432 359.121 26.856 358.833 26.408C358.545 25.9493 358.161 25.72 357.681 25.72C357.297 25.72 356.918 25.88 356.545 26.2C356.172 26.5093 355.862 26.9627 355.617 27.56C355.382 28.1467 355.265 28.8293 355.265 29.608C355.265 30.472 355.42 31.1813 355.729 31.736C356.049 32.2907 356.481 32.568 357.025 32.568ZM365.682 24.824C366.13 24.824 366.536 24.9093 366.898 25.08C367.272 25.24 367.56 25.464 367.762 25.752C367.976 26.0293 368.082 26.344 368.082 26.696C368.082 26.9413 368.018 27.1333 367.89 27.272C367.762 27.4107 367.592 27.48 367.378 27.48C367.165 27.48 367 27.4107 366.882 27.272C366.776 27.1333 366.722 26.9893 366.722 26.84C366.722 26.584 366.792 26.3813 366.93 26.232C366.877 25.944 366.733 25.7307 366.498 25.592C366.274 25.4533 365.997 25.384 365.666 25.384C364.824 25.384 364.21 25.7787 363.826 26.568C363.453 27.3573 363.266 28.2693 363.266 29.304C363.266 30.3707 363.437 31.1547 363.778 31.656C364.13 32.1467 364.61 32.392 365.218 32.392C365.688 32.392 366.141 32.2373 366.578 31.928C367.016 31.608 367.378 31.0907 367.666 30.376L368.226 30.648C367.842 31.5333 367.368 32.1787 366.802 32.584C366.237 32.9787 365.618 33.176 364.946 33.176C363.976 33.176 363.218 32.888 362.674 32.312C362.13 31.7253 361.858 30.8453 361.858 29.672C361.858 28.9253 361.997 28.1787 362.274 27.432C362.562 26.6853 362.994 26.0667 363.57 25.576C364.146 25.0747 364.85 24.824 365.682 24.824ZM379.405 24.824C380.002 24.824 380.429 25.016 380.685 25.4C380.952 25.784 381.085 26.2853 381.085 26.904C381.085 27.352 381.058 27.8053 381.005 28.264C380.952 28.712 380.872 29.2827 380.765 29.976C380.626 30.8293 380.557 31.384 380.557 31.64C380.557 31.8747 380.584 32.056 380.637 32.184C380.701 32.312 380.818 32.376 380.989 32.376C381.192 32.376 381.4 32.2533 381.613 32.008C381.837 31.752 382.024 31.3573 382.173 30.824L382.621 30.936C382.568 31.2347 382.45 31.56 382.269 31.912C382.098 32.2533 381.864 32.552 381.565 32.808C381.266 33.0533 380.92 33.176 380.525 33.176C380.045 33.176 379.709 33.0533 379.517 32.808C379.336 32.552 379.245 32.1627 379.245 31.64C379.245 31.2027 379.33 30.4987 379.501 29.528C379.512 29.432 379.549 29.1707 379.613 28.744C379.677 28.3067 379.725 27.9067 379.757 27.544C379.8 27.1707 379.821 26.84 379.821 26.552C379.821 26.3067 379.762 26.0827 379.645 25.88C379.528 25.6773 379.33 25.576 379.053 25.576C378.573 25.576 378.104 25.928 377.645 26.632C377.197 27.336 376.829 28.2053 376.541 29.24C376.264 30.2747 376.125 31.2453 376.125 32.152C376.125 32.3547 376.136 32.6373 376.157 33H374.813C374.802 32.904 374.797 32.7653 374.797 32.584C374.797 32.232 374.829 31.7627 374.893 31.176C374.957 30.5893 375.026 30.008 375.101 29.432C375.282 28.0453 375.373 27.1013 375.373 26.6C375.373 25.9173 375.117 25.576 374.605 25.576C374.136 25.576 373.672 25.928 373.213 26.632C372.765 27.336 372.397 28.2107 372.109 29.256C371.821 30.2907 371.677 31.256 371.677 32.152C371.677 32.3547 371.688 32.6373 371.709 33H370.365C370.354 32.904 370.349 32.7653 370.349 32.584C370.349 32.3173 370.37 31.9333 370.413 31.432C370.466 30.92 370.546 30.2373 370.653 29.384L370.845 27.72C370.888 27.3467 370.92 27.064 370.941 26.872C370.962 26.6693 370.973 26.4933 370.973 26.344C370.973 26.12 370.941 25.944 370.877 25.816C370.824 25.688 370.712 25.624 370.541 25.624C370.338 25.624 370.13 25.752 369.917 26.008C369.704 26.264 369.522 26.6533 369.373 27.176L368.925 27.08C368.978 26.7813 369.09 26.456 369.261 26.104C369.442 25.752 369.677 25.4533 369.965 25.208C370.264 24.952 370.61 24.824 371.005 24.824C371.805 24.824 372.205 25.3573 372.205 26.424C372.205 26.7227 372.173 27.0533 372.109 27.416C372.056 27.7787 372.002 28.104 371.949 28.392H371.997C372.456 27.0587 372.93 26.1307 373.421 25.608C373.912 25.0853 374.413 24.824 374.925 24.824C375.512 24.824 375.944 25.0107 376.221 25.384C376.498 25.7573 376.637 26.1787 376.637 26.648C376.637 26.9253 376.621 27.16 376.589 27.352C376.557 27.5333 376.482 27.864 376.365 28.344H376.413C376.893 27.0107 377.384 26.0933 377.885 25.592C378.386 25.08 378.893 24.824 379.405 24.824ZM387.597 28.552C388.301 28.5093 388.813 28.664 389.133 29.016C389.463 29.368 389.629 29.8107 389.629 30.344C389.629 30.8667 389.485 31.3467 389.197 31.784C388.919 32.2107 388.53 32.552 388.029 32.808C387.527 33.0533 386.967 33.176 386.349 33.176C385.389 33.176 384.663 32.872 384.173 32.264C383.682 31.6453 383.437 30.7973 383.437 29.72C383.437 28.8667 383.581 28.0667 383.868 27.32C384.157 26.5733 384.578 25.9707 385.133 25.512C385.698 25.0533 386.37 24.824 387.149 24.824C387.735 24.824 388.231 24.9573 388.637 25.224C389.042 25.48 389.245 25.8693 389.245 26.392C389.245 26.7973 389.106 27.192 388.829 27.576C388.562 27.9493 388.151 28.2747 387.597 28.552ZM386.989 25.368C386.391 25.368 385.901 25.7147 385.517 26.408C385.133 27.1013 384.909 27.9653 384.845 29C385.954 28.744 386.733 28.424 387.181 28.04C387.629 27.6453 387.853 27.1333 387.853 26.504C387.853 25.7467 387.565 25.368 386.989 25.368ZM386.717 32.568C387.197 32.568 387.575 32.4027 387.853 32.072C388.13 31.7413 388.269 31.2987 388.269 30.744C388.269 30.264 388.151 29.8747 387.917 29.576C387.693 29.2773 387.362 29.128 386.924 29.128C386.733 29.128 386.525 29.16 386.301 29.224L384.829 29.608C384.861 30.536 385.026 31.2613 385.325 31.784C385.634 32.3067 386.098 32.568 386.717 32.568ZM396.457 24.824C396.905 24.824 397.231 25.0213 397.433 25.416C397.636 25.8107 397.737 26.296 397.737 26.872C397.737 27.8427 397.545 28.8613 397.161 29.928C396.777 30.984 396.26 32.0987 395.609 33.272C394.841 34.68 394.111 35.7093 393.417 36.36C392.724 37.0107 392.047 37.336 391.385 37.336C391.001 37.336 390.687 37.24 390.441 37.048C390.207 36.856 390.089 36.616 390.089 36.328C390.089 36.104 390.159 35.9227 390.297 35.784C390.436 35.656 390.585 35.592 390.745 35.592C390.969 35.592 391.14 35.6613 391.257 35.8C391.385 35.9493 391.444 36.1573 391.433 36.424C391.583 36.4987 391.7 36.536 391.785 36.536C392.191 36.5573 392.623 36.3013 393.081 35.768C393.551 35.2347 393.935 34.712 394.233 34.2C394.041 32.888 393.775 31.5653 393.433 30.232C393.092 28.8987 392.708 27.7147 392.281 26.68C392.153 26.4027 392.041 26.2 391.945 26.072C391.849 25.9333 391.716 25.864 391.545 25.864C391.364 25.864 391.215 25.976 391.097 26.2C390.991 26.424 390.937 26.728 390.937 27.112C390.937 27.2933 390.943 27.432 390.953 27.528L390.441 27.592C390.431 27.4853 390.425 27.3253 390.425 27.112C390.425 26.4827 390.537 25.944 390.761 25.496C390.996 25.048 391.375 24.824 391.897 24.824C392.377 24.824 392.751 24.9947 393.017 25.336C393.284 25.6667 393.513 26.0987 393.705 26.632C393.919 27.208 394.111 27.832 394.281 28.504C394.452 29.1653 394.655 30.0187 394.889 31.064C394.953 31.3733 395.033 31.9173 395.129 32.696H395.161C395.673 31.8 396.105 30.8613 396.457 29.88C396.809 28.888 396.985 27.992 396.985 27.192C396.985 26.936 396.959 26.7067 396.905 26.504C396.863 26.3013 396.809 26.152 396.745 26.056C396.649 26.12 396.516 26.152 396.345 26.152C396.153 26.152 395.999 26.0933 395.881 25.976C395.764 25.848 395.705 25.6987 395.705 25.528C395.705 25.304 395.78 25.1333 395.929 25.016C396.079 24.888 396.255 24.824 396.457 24.824ZM409.039 24.824C409.636 24.824 410.074 25.016 410.351 25.4C410.639 25.784 410.783 26.2853 410.783 26.904C410.783 27.6187 410.682 28.6427 410.479 29.976C410.362 30.8187 410.303 31.3733 410.303 31.64C410.303 31.8747 410.33 32.056 410.383 32.184C410.447 32.312 410.564 32.376 410.735 32.376C410.938 32.376 411.146 32.2533 411.359 32.008C411.572 31.752 411.754 31.3573 411.903 30.824L412.351 30.936C412.298 31.2347 412.18 31.56 411.999 31.912C411.828 32.2533 411.594 32.552 411.295 32.808C411.007 33.0533 410.666 33.176 410.271 33.176C409.791 33.176 409.455 33.0533 409.263 32.808C409.071 32.552 408.975 32.1627 408.975 31.64C408.975 31.2453 409.044 30.5413 409.183 29.528C409.375 28.2267 409.471 27.2347 409.471 26.552C409.471 26.3067 409.412 26.0827 409.295 25.88C409.188 25.6773 408.996 25.576 408.719 25.576C408.25 25.576 407.77 25.9333 407.279 26.648C406.788 27.352 406.378 28.2267 406.047 29.272C405.727 30.3067 405.567 31.2667 405.567 32.152C405.567 32.3547 405.578 32.6373 405.599 33H404.255C404.244 32.904 404.239 32.7653 404.239 32.584C404.239 32.328 404.26 31.9707 404.303 31.512C404.356 31.0533 404.431 30.4507 404.527 29.704C404.527 29.64 404.538 29.5333 404.559 29.384C404.57 29.2453 404.586 29.1013 404.607 28.952C404.628 28.8027 404.644 28.6533 404.655 28.504C404.73 27.8533 404.783 27.3787 404.815 27.08C404.847 26.7813 404.863 26.536 404.863 26.344C404.863 26.12 404.831 25.944 404.767 25.816C404.714 25.688 404.602 25.624 404.431 25.624C404.228 25.624 404.02 25.752 403.807 26.008C403.594 26.264 403.412 26.6533 403.263 27.176L402.815 27.08C402.868 26.7813 402.98 26.456 403.151 26.104C403.332 25.752 403.567 25.4533 403.855 25.208C404.154 24.952 404.5 24.824 404.895 24.824C405.695 24.824 406.095 25.3733 406.095 26.472C406.095 26.7813 406.063 27.1227 405.999 27.496C405.946 27.8587 405.892 28.184 405.839 28.472H405.887C406.399 27.1067 406.906 26.1573 407.407 25.624C407.919 25.0907 408.463 24.824 409.039 24.824ZM417.123 24.824C417.699 24.824 418.216 24.9627 418.675 25.24C419.144 25.5173 419.507 25.9227 419.763 26.456C420.03 26.9787 420.163 27.6027 420.163 28.328C420.163 29.2027 420.003 30.008 419.683 30.744C419.374 31.48 418.92 32.072 418.323 32.52C417.736 32.9573 417.043 33.176 416.243 33.176C415.23 33.176 414.462 32.8453 413.939 32.184C413.427 31.512 413.171 30.648 413.171 29.592C413.171 28.7173 413.331 27.9173 413.651 27.192C413.971 26.4667 414.43 25.8907 415.027 25.464C415.624 25.0373 416.323 24.824 417.123 24.824ZM416.867 25.416C416.398 25.416 415.987 25.5867 415.635 25.928C415.294 26.2587 415.032 26.7173 414.851 27.304C414.67 27.88 414.579 28.5253 414.579 29.24C414.579 30.1253 414.723 30.904 415.011 31.576C415.299 32.2373 415.768 32.568 416.419 32.568C416.963 32.568 417.406 32.36 417.747 31.944C418.099 31.528 418.355 31.016 418.515 30.408C418.675 29.8 418.755 29.208 418.755 28.632C418.755 27.736 418.611 26.9787 418.323 26.36C418.046 25.7307 417.56 25.416 416.867 25.416ZM191.176 44.824C191.624 44.824 191.949 45.0213 192.152 45.416C192.355 45.8107 192.456 46.296 192.456 46.872C192.456 47.8427 192.264 48.8613 191.88 49.928C191.496 50.984 190.979 52.0987 190.328 53.272C189.56 54.68 188.829 55.7093 188.136 56.36C187.443 57.0107 186.765 57.336 186.104 57.336C185.72 57.336 185.405 57.24 185.16 57.048C184.925 56.856 184.808 56.616 184.808 56.328C184.808 56.104 184.877 55.9227 185.016 55.784C185.155 55.656 185.304 55.592 185.464 55.592C185.688 55.592 185.859 55.6613 185.976 55.8C186.104 55.9493 186.163 56.1573 186.152 56.424C186.301 56.4987 186.419 56.536 186.504 56.536C186.909 56.5573 187.341 56.3013 187.8 55.768C188.269 55.2347 188.653 54.712 188.952 54.2C188.76 52.888 188.493 51.5653 188.152 50.232C187.811 48.8987 187.427 47.7147 187 46.68C186.872 46.4027 186.76 46.2 186.664 46.072C186.568 45.9333 186.435 45.864 186.264 45.864C186.083 45.864 185.933 45.976 185.816 46.2C185.709 46.424 185.656 46.728 185.656 47.112C185.656 47.2933 185.661 47.432 185.672 47.528L185.16 47.592C185.149 47.4853 185.144 47.3253 185.144 47.112C185.144 46.4827 185.256 45.944 185.48 45.496C185.715 45.048 186.093 44.824 186.616 44.824C187.096 44.824 187.469 44.9947 187.736 45.336C188.003 45.6667 188.232 46.0987 188.424 46.632C188.637 47.208 188.829 47.832 189 48.504C189.171 49.1653 189.373 50.0187 189.608 51.064C189.672 51.3733 189.752 51.9173 189.848 52.696H189.88C190.392 51.8 190.824 50.8613 191.176 49.88C191.528 48.888 191.704 47.992 191.704 47.192C191.704 46.936 191.677 46.7067 191.624 46.504C191.581 46.3013 191.528 46.152 191.464 46.056C191.368 46.12 191.235 46.152 191.064 46.152C190.872 46.152 190.717 46.0933 190.6 45.976C190.483 45.848 190.424 45.6987 190.424 45.528C190.424 45.304 190.499 45.1333 190.648 45.016C190.797 44.888 190.973 44.824 191.176 44.824ZM200.595 44.824C200.872 44.824 201.085 44.8987 201.235 45.048C201.384 45.1867 201.459 45.3733 201.459 45.608C201.459 45.7893 201.395 45.9493 201.267 46.088C201.139 46.2267 200.984 46.296 200.803 46.296C200.6 46.296 200.451 46.2533 200.355 46.168C200.269 46.0827 200.173 45.9653 200.067 45.816C199.48 45.9013 198.808 46.8827 198.051 48.76L198.163 49.048C198.6 50.1787 198.963 50.9893 199.251 51.48C199.539 51.96 199.811 52.2 200.067 52.2C200.451 52.2 200.723 51.7787 200.883 50.936L201.331 51C201.139 52.4507 200.605 53.176 199.731 53.176C199.368 53.176 199.075 53.096 198.851 52.936C198.627 52.7653 198.397 52.456 198.163 52.008C197.939 51.5493 197.624 50.8027 197.219 49.768H197.203C196.872 50.7493 196.547 51.4907 196.227 51.992C195.907 52.4827 195.608 52.8027 195.331 52.952C195.064 53.1013 194.771 53.176 194.451 53.176C194.152 53.176 193.912 53.1013 193.731 52.952C193.549 52.8027 193.459 52.6053 193.459 52.36C193.459 52.1467 193.523 51.9707 193.651 51.832C193.779 51.6933 193.933 51.624 194.115 51.624C194.488 51.624 194.691 51.8427 194.723 52.28C195.373 52.4187 196.099 51.3147 196.899 48.968C196.685 48.392 196.547 48.008 196.483 47.816C196.184 47.0053 195.96 46.4667 195.811 46.2C195.672 45.9333 195.496 45.8 195.283 45.8C194.792 45.8 194.52 46.3227 194.467 47.368L194.003 47.384C194.003 46.7653 194.125 46.184 194.371 45.64C194.627 45.096 195.069 44.824 195.699 44.824C196.019 44.824 196.275 44.9093 196.467 45.08C196.669 45.2507 196.835 45.4853 196.963 45.784C197.091 46.072 197.261 46.5253 197.475 47.144C197.539 47.368 197.635 47.6453 197.763 47.976H197.779C198.269 46.7493 198.755 45.9173 199.235 45.48C199.725 45.0427 200.179 44.824 200.595 44.824ZM206.514 44.824C207.09 44.824 207.607 44.9627 208.066 45.24C208.535 45.5173 208.898 45.9227 209.154 46.456C209.42 46.9787 209.554 47.6027 209.554 48.328C209.554 49.2027 209.394 50.008 209.074 50.744C208.764 51.48 208.311 52.072 207.714 52.52C207.127 52.9573 206.434 53.176 205.634 53.176C204.62 53.176 203.852 52.8453 203.33 52.184C202.818 51.512 202.562 50.648 202.562 49.592C202.562 48.7173 202.722 47.9173 203.042 47.192C203.362 46.4667 203.82 45.8907 204.418 45.464C205.015 45.0373 205.714 44.824 206.514 44.824ZM206.258 45.416C205.788 45.416 205.378 45.5867 205.026 45.928C204.684 46.2587 204.423 46.7173 204.242 47.304C204.06 47.88 203.97 48.5253 203.97 49.24C203.97 50.1253 204.114 50.904 204.402 51.576C204.69 52.2373 205.159 52.568 205.81 52.568C206.354 52.568 206.796 52.36 207.138 51.944C207.49 51.528 207.746 51.016 207.906 50.408C208.066 49.8 208.146 49.208 208.146 48.632C208.146 47.736 208.002 46.9787 207.714 46.36C207.436 45.7307 206.951 45.416 206.258 45.416ZM213.705 53.176C212.873 53.176 212.196 52.8827 211.673 52.296C211.161 51.7093 210.905 50.872 210.905 49.784C210.905 48.888 211.071 48.088 211.401 47.384C211.732 46.6693 212.18 46.1147 212.745 45.72C213.321 45.3253 213.956 45.128 214.649 45.128C215.364 45.128 215.876 45.336 216.185 45.752C216.057 44.376 215.769 43.32 215.321 42.584C214.884 41.8373 214.351 41.464 213.721 41.464C213.092 41.464 212.521 41.7147 212.009 42.216L211.705 41.848C212.1 41.5067 212.463 41.2613 212.793 41.112C213.135 40.952 213.497 40.872 213.881 40.872C215.108 40.872 216.02 41.464 216.617 42.648C217.215 43.8213 217.513 45.32 217.513 47.144C217.513 48.5733 217.332 49.7413 216.969 50.648C216.617 51.544 216.153 52.1893 215.577 52.584C215.012 52.9787 214.388 53.176 213.705 53.176ZM214.009 52.568C214.703 52.568 215.22 52.1307 215.561 51.256C215.913 50.3813 216.121 49.3413 216.185 48.136C216.228 47.432 216.105 46.856 215.817 46.408C215.529 45.9493 215.145 45.72 214.665 45.72C214.281 45.72 213.903 45.88 213.529 46.2C213.156 46.5093 212.847 46.9627 212.601 47.56C212.367 48.1467 212.249 48.8293 212.249 49.608C212.249 50.472 212.404 51.1813 212.713 51.736C213.033 52.2907 213.465 52.568 214.009 52.568ZM224.395 44.824C224.843 44.824 225.168 45.0213 225.371 45.416C225.573 45.8107 225.675 46.296 225.675 46.872C225.675 47.8427 225.483 48.8613 225.099 49.928C224.715 50.984 224.197 52.0987 223.547 53.272C222.779 54.68 222.048 55.7093 221.355 56.36C220.661 57.0107 219.984 57.336 219.323 57.336C218.939 57.336 218.624 57.24 218.379 57.048C218.144 56.856 218.027 56.616 218.027 56.328C218.027 56.104 218.096 55.9227 218.235 55.784C218.373 55.656 218.523 55.592 218.683 55.592C218.907 55.592 219.077 55.6613 219.195 55.8C219.323 55.9493 219.381 56.1573 219.371 56.424C219.52 56.4987 219.637 56.536 219.723 56.536C220.128 56.5573 220.56 56.3013 221.019 55.768C221.488 55.2347 221.872 54.712 222.171 54.2C221.979 52.888 221.712 51.5653 221.371 50.232C221.029 48.8987 220.645 47.7147 220.219 46.68C220.091 46.4027 219.979 46.2 219.883 46.072C219.787 45.9333 219.653 45.864 219.483 45.864C219.301 45.864 219.152 45.976 219.035 46.2C218.928 46.424 218.875 46.728 218.875 47.112C218.875 47.2933 218.88 47.432 218.891 47.528L218.379 47.592C218.368 47.4853 218.363 47.3253 218.363 47.112C218.363 46.4827 218.475 45.944 218.699 45.496C218.933 45.048 219.312 44.824 219.835 44.824C220.315 44.824 220.688 44.9947 220.955 45.336C221.221 45.6667 221.451 46.0987 221.643 46.632C221.856 47.208 222.048 47.832 222.219 48.504C222.389 49.1653 222.592 50.0187 222.827 51.064C222.891 51.3733 222.971 51.9173 223.067 52.696H223.099C223.611 51.8 224.043 50.8613 224.395 49.88C224.747 48.888 224.923 47.992 224.923 47.192C224.923 46.936 224.896 46.7067 224.843 46.504C224.8 46.3013 224.747 46.152 224.683 46.056C224.587 46.12 224.453 46.152 224.283 46.152C224.091 46.152 223.936 46.0933 223.819 45.976C223.701 45.848 223.643 45.6987 223.643 45.528C223.643 45.304 223.717 45.1333 223.867 45.016C224.016 44.888 224.192 44.824 224.395 44.824ZM233.777 53.176C232.966 53.176 232.315 53 231.825 52.648C231.345 52.296 231.105 51.848 231.105 51.304C231.105 51.0587 231.169 50.8667 231.297 50.728C231.425 50.5893 231.595 50.52 231.809 50.52C232.022 50.52 232.182 50.5893 232.289 50.728C232.406 50.8667 232.465 51.0107 232.465 51.16C232.465 51.416 232.395 51.6187 232.257 51.768C232.31 52.056 232.459 52.2747 232.705 52.424C232.95 52.5627 233.265 52.632 233.649 52.632C234.331 52.632 234.854 52.4613 235.217 52.12C235.59 51.768 235.777 51.304 235.777 50.728C235.777 50.2373 235.654 49.848 235.409 49.56C235.163 49.2613 234.795 49.112 234.305 49.112C234.038 49.112 233.739 49.16 233.409 49.256L233.233 48.696C234.033 48.4507 234.609 48.1627 234.961 47.832C235.313 47.4907 235.489 47.0747 235.489 46.584C235.489 46.1787 235.382 45.8747 235.169 45.672C234.955 45.4693 234.625 45.368 234.177 45.368C233.793 45.368 233.457 45.4427 233.169 45.592C232.881 45.7413 232.662 45.944 232.513 46.2C232.715 46.232 232.854 46.3013 232.929 46.408C233.014 46.5147 233.057 46.664 233.057 46.856C233.057 47.0373 232.993 47.1867 232.865 47.304C232.747 47.4213 232.593 47.48 232.401 47.48C232.209 47.48 232.043 47.416 231.905 47.288C231.777 47.1493 231.713 46.9733 231.713 46.76C231.691 46.408 231.803 46.0827 232.049 45.784C232.305 45.4853 232.646 45.2507 233.073 45.08C233.51 44.9093 233.974 44.824 234.465 44.824C235.158 44.824 235.713 44.9573 236.129 45.224C236.545 45.48 236.753 45.864 236.753 46.376C236.753 46.8027 236.598 47.2027 236.289 47.576C235.979 47.9493 235.515 48.2747 234.897 48.552V48.584C235.547 48.6267 236.054 48.8347 236.417 49.208C236.79 49.5707 236.977 50.0133 236.977 50.536C236.977 51.0267 236.843 51.4747 236.577 51.88C236.321 52.2853 235.947 52.6053 235.457 52.84C234.977 53.064 234.417 53.176 233.777 53.176ZM242.92 44.824C243.646 44.824 244.36 44.9147 245.064 45.096C244.595 48.5733 244.36 50.7067 244.36 51.496C244.36 51.7733 244.387 51.992 244.44 52.152C244.494 52.3013 244.616 52.376 244.808 52.376C245.011 52.376 245.219 52.248 245.432 51.992C245.646 51.736 245.827 51.3467 245.976 50.824L246.424 50.92C246.371 51.2187 246.254 51.544 246.072 51.896C245.902 52.248 245.667 52.552 245.368 52.808C245.08 53.0533 244.739 53.176 244.344 53.176C243.555 53.176 243.16 52.696 243.16 51.736C243.16 51.2667 243.256 50.552 243.448 49.592H243.4C242.952 51 242.462 51.9493 241.928 52.44C241.395 52.9307 240.846 53.176 240.28 53.176C239.662 53.176 239.166 52.952 238.792 52.504C238.43 52.056 238.248 51.352 238.248 50.392C238.248 49.368 238.424 48.4347 238.776 47.592C239.128 46.7493 239.656 46.0773 240.36 45.576C241.064 45.0747 241.918 44.824 242.92 44.824ZM242.424 45.4C241.806 45.4 241.283 45.624 240.856 46.072C240.43 46.5093 240.11 47.0907 239.896 47.816C239.694 48.5307 239.592 49.2987 239.592 50.12C239.592 51.688 239.939 52.472 240.632 52.472C241.102 52.472 241.571 52.104 242.04 51.368C242.51 50.632 242.899 49.7253 243.208 48.648C243.518 47.56 243.672 46.5413 243.672 45.592C243.352 45.464 242.936 45.4 242.424 45.4ZM259.441 51.368C259.334 51.88 259.132 52.312 258.833 52.664C258.534 53.0053 258.134 53.176 257.633 53.176C257.238 53.176 256.934 53.0267 256.721 52.728C256.518 52.4293 256.385 51.88 256.321 51.08C256.257 50.3333 256.134 49.816 255.953 49.528C255.772 49.24 255.489 49.096 255.105 49.096L253.777 49.112C253.596 50.52 253.516 51.5227 253.537 52.12C253.537 52.28 253.548 52.5733 253.569 53H252.241L252.225 52.808L252.241 52.584C252.241 51.9973 252.342 50.904 252.545 49.304C252.641 48.4827 252.726 47.8427 252.801 47.384C252.865 46.8613 252.897 46.504 252.897 46.312C252.897 46.0987 252.87 45.9333 252.817 45.816C252.764 45.688 252.652 45.624 252.481 45.624C252.278 45.624 252.065 45.752 251.841 46.008C251.628 46.264 251.441 46.6533 251.281 47.176L250.833 47.08C250.897 46.7813 251.02 46.456 251.201 46.104C251.382 45.752 251.622 45.4533 251.921 45.208C252.22 44.952 252.566 44.824 252.961 44.824C253.377 44.824 253.67 44.9413 253.841 45.176C254.022 45.4107 254.113 45.768 254.113 46.248C254.113 46.5147 254.076 46.92 254.001 47.464L253.841 48.648H254.353C254.822 48.648 255.19 48.52 255.457 48.264C255.734 48.008 255.996 47.56 256.241 46.92C256.518 46.152 256.812 45.6133 257.121 45.304C257.441 44.984 257.846 44.824 258.337 44.824C258.614 44.824 258.833 44.904 258.993 45.064C259.153 45.224 259.233 45.4373 259.233 45.704C259.233 45.928 259.164 46.12 259.025 46.28C258.897 46.44 258.716 46.52 258.481 46.52C258.214 46.52 258.006 46.4613 257.857 46.344C257.708 46.2267 257.622 46.0613 257.601 45.848C257.452 45.944 257.318 46.088 257.201 46.28C257.084 46.472 256.95 46.776 256.801 47.192C256.662 47.576 256.492 47.9067 256.289 48.184C256.086 48.4613 255.862 48.664 255.617 48.792C256.769 48.824 257.409 49.4533 257.537 50.68C257.601 51.3093 257.676 51.736 257.761 51.96C257.857 52.1733 258.028 52.28 258.273 52.28C258.433 52.28 258.572 52.2053 258.689 52.056C258.806 51.896 258.908 51.64 258.993 51.288L259.441 51.368ZM264.389 44.824C264.965 44.824 265.482 44.9627 265.941 45.24C266.41 45.5173 266.773 45.9227 267.029 46.456C267.295 46.9787 267.429 47.6027 267.429 48.328C267.429 49.2027 267.269 50.008 266.949 50.744C266.639 51.48 266.186 52.072 265.589 52.52C265.002 52.9573 264.309 53.176 263.509 53.176C262.495 53.176 261.727 52.8453 261.205 52.184C260.693 51.512 260.437 50.648 260.437 49.592C260.437 48.7173 260.597 47.9173 260.917 47.192C261.237 46.4667 261.695 45.8907 262.293 45.464C262.89 45.0373 263.589 44.824 264.389 44.824ZM264.133 45.416C263.663 45.416 263.253 45.5867 262.901 45.928C262.559 46.2587 262.298 46.7173 262.117 47.304C261.935 47.88 261.845 48.5253 261.845 49.24C261.845 50.1253 261.989 50.904 262.277 51.576C262.565 52.2373 263.034 52.568 263.685 52.568C264.229 52.568 264.671 52.36 265.013 51.944C265.365 51.528 265.621 51.016 265.781 50.408C265.941 49.8 266.021 49.208 266.021 48.632C266.021 47.736 265.877 46.9787 265.589 46.36C265.311 45.7307 264.826 45.416 264.133 45.416ZM281.132 50.648C280.759 51.576 280.386 52.232 280.012 52.616C279.65 52.9893 279.218 53.176 278.716 53.176C278.002 53.176 277.452 52.872 277.068 52.264C276.695 51.656 276.519 50.792 276.54 49.672C276.54 49.544 276.551 49.352 276.572 49.096H275.5C275.351 50.4507 275.282 51.4587 275.292 52.12C275.292 52.3867 275.308 52.68 275.34 53H274.012C274.002 52.904 273.996 52.7653 273.996 52.584C273.996 51.9333 274.082 50.84 274.252 49.304L274.268 49.112H273.196C273.047 50.296 272.706 51.272 272.172 52.04C271.65 52.7973 270.999 53.176 270.22 53.176C269.932 53.176 269.655 53.096 269.388 52.936C269.122 52.776 268.908 52.5627 268.748 52.296C268.588 52.0187 268.508 51.7147 268.508 51.384C268.508 51.1067 268.578 50.888 268.716 50.728C268.855 50.568 269.031 50.488 269.244 50.488C269.458 50.488 269.618 50.552 269.724 50.68C269.842 50.7973 269.895 50.9413 269.884 51.112C269.884 51.368 269.788 51.5867 269.596 51.768C269.639 52.056 269.719 52.264 269.836 52.392C269.954 52.5093 270.119 52.568 270.332 52.568C270.823 52.568 271.212 52.1733 271.5 51.384C271.799 50.584 271.975 49.688 272.028 48.696C272.039 48.5573 272.044 48.3547 272.044 48.088C272.044 47.2347 271.948 46.6107 271.756 46.216C271.564 45.8107 271.308 45.608 270.988 45.608C270.668 45.608 270.38 45.736 270.124 45.992C269.879 46.248 269.628 46.7013 269.372 47.352L268.892 47.08C269.276 46.216 269.65 45.624 270.012 45.304C270.375 44.984 270.796 44.824 271.276 44.824C271.692 44.824 272.055 44.9627 272.364 45.24C272.674 45.5067 272.908 45.9067 273.068 46.44C273.228 46.9627 273.292 47.592 273.26 48.328L273.244 48.648H274.332C274.418 47.9547 274.476 47.4 274.508 46.984C274.551 46.568 274.567 46.136 274.556 45.688C274.556 45.432 274.54 45.144 274.508 44.824H275.804C275.815 44.92 275.82 45.0587 275.82 45.24C275.82 45.5813 275.794 46.0133 275.74 46.536C275.698 47.0587 275.65 47.5867 275.596 48.12L275.548 48.648H276.604C276.743 47.5173 277.052 46.6 277.532 45.896C278.012 45.1813 278.62 44.824 279.356 44.824C279.879 44.824 280.3 44.9947 280.62 45.336C280.951 45.6773 281.116 46.1093 281.116 46.632C281.116 46.9093 281.047 47.128 280.908 47.288C280.78 47.4373 280.615 47.512 280.412 47.512C280.199 47.512 280.039 47.4533 279.932 47.336C279.826 47.208 279.772 47.0587 279.772 46.888C279.772 46.6107 279.852 46.392 280.012 46.232C280.012 45.9867 279.954 45.7893 279.836 45.64C279.73 45.4907 279.564 45.416 279.34 45.416C278.999 45.416 278.706 45.6293 278.46 46.056C278.226 46.472 278.05 47 277.932 47.64C277.826 48.2693 277.772 48.8933 277.772 49.512C277.772 50.5573 277.874 51.3307 278.076 51.832C278.29 52.3227 278.567 52.568 278.908 52.568C279.239 52.568 279.532 52.3973 279.788 52.056C280.044 51.7147 280.311 51.1547 280.588 50.376L281.132 50.648ZM286.215 44.824C286.855 44.824 287.388 44.9733 287.815 45.272C288.242 45.5707 288.455 46.0347 288.455 46.664C288.455 47.4533 287.98 48.0667 287.031 48.504C286.082 48.9413 284.983 49.2293 283.735 49.368C283.735 50.3707 283.884 51.1227 284.183 51.624C284.482 52.1253 284.94 52.376 285.559 52.376C286.05 52.376 286.524 52.216 286.983 51.896C287.442 51.5653 287.842 51.08 288.183 50.44L288.711 50.744C288.263 51.5867 287.762 52.2053 287.207 52.6C286.652 52.984 286.012 53.176 285.287 53.176C284.306 53.176 283.564 52.872 283.063 52.264C282.572 51.6453 282.327 50.7973 282.327 49.72C282.327 48.856 282.471 48.056 282.759 47.32C283.058 46.5733 283.5 45.9707 284.087 45.512C284.674 45.0533 285.383 44.824 286.215 44.824ZM285.991 45.368C285.308 45.368 284.78 45.6987 284.407 46.36C284.034 47.0213 283.815 47.832 283.751 48.792C284.679 48.664 285.474 48.408 286.135 48.024C286.796 47.64 287.127 47.16 287.127 46.584C287.127 46.232 287.026 45.944 286.823 45.72C286.631 45.4853 286.354 45.368 285.991 45.368ZM291.456 44.824C291.883 44.824 292.203 44.9573 292.416 45.224C292.64 45.4907 292.752 45.8747 292.752 46.376C292.752 46.76 292.667 47.56 292.496 48.776C292.485 48.872 292.437 49.2347 292.352 49.864C292.267 50.4827 292.224 51 292.224 51.416C292.224 51.672 292.277 51.9067 292.384 52.12C292.501 52.3227 292.699 52.424 292.976 52.424C293.445 52.424 293.915 52.072 294.384 51.368C294.853 50.6533 295.237 49.7787 295.536 48.744C295.845 47.7093 296 46.744 296 45.848C296 45.6453 295.989 45.3627 295.968 45H297.312C297.323 45.096 297.328 45.2347 297.328 45.416C297.328 45.672 297.301 46.0667 297.248 46.6C297.195 47.1333 297.115 47.8267 297.008 48.68L296.848 50.008C296.837 50.1467 296.811 50.4027 296.768 50.776C296.725 51.1493 296.704 51.4427 296.704 51.656C296.704 52.1253 296.848 52.36 297.136 52.36C297.339 52.36 297.547 52.2373 297.76 51.992C297.973 51.736 298.155 51.3467 298.304 50.824L298.752 50.92C298.699 51.2187 298.581 51.544 298.4 51.896C298.229 52.248 297.995 52.552 297.696 52.808C297.408 53.0533 297.067 53.176 296.672 53.176C296.256 53.176 295.947 53.048 295.744 52.792C295.541 52.536 295.44 52.184 295.44 51.736C295.44 51.2667 295.536 50.552 295.728 49.592H295.68C295.168 50.968 294.677 51.912 294.208 52.424C293.739 52.9253 293.221 53.176 292.656 53.176C292.059 53.176 291.616 52.984 291.328 52.6C291.051 52.2053 290.912 51.704 290.912 51.096C290.912 50.6373 290.939 50.1733 290.992 49.704C291.045 49.2347 291.125 48.6693 291.232 48.008C291.253 47.8907 291.291 47.6453 291.344 47.272C291.397 46.888 291.424 46.5893 291.424 46.376C291.424 46.1307 291.392 45.944 291.328 45.816C291.275 45.688 291.163 45.624 290.992 45.624C290.8 45.624 290.603 45.752 290.4 46.008C290.197 46.2533 290.021 46.6427 289.872 47.176L289.424 47.08C289.52 46.5573 289.739 46.0507 290.08 45.56C290.432 45.0693 290.891 44.824 291.456 44.824ZM294.176 43.32C293.6 43.32 293.115 43.208 292.72 42.984C292.325 42.7493 292.128 42.424 292.128 42.008C292.128 41.6987 292.213 41.4693 292.384 41.32C292.555 41.1707 292.763 41.096 293.008 41.096C293.253 41.096 293.429 41.1707 293.536 41.32C293.653 41.4587 293.712 41.6187 293.712 41.8C293.691 42.0133 293.605 42.2053 293.456 42.376C293.584 42.4933 293.717 42.5787 293.856 42.632C294.005 42.6853 294.192 42.712 294.416 42.712C294.928 42.712 295.355 42.5787 295.696 42.312C295.803 42.2267 295.909 42.104 296.016 41.944C296.133 41.7733 296.24 41.608 296.336 41.448L296.816 41.88C296.443 42.36 296.027 42.7227 295.568 42.968C295.12 43.2027 294.656 43.32 294.176 43.32ZM300.397 51.432C300.706 51.432 300.951 51.5493 301.133 51.784C301.325 52.0187 301.421 52.3173 301.421 52.68C301.421 53.128 301.303 53.656 301.069 54.264C300.845 54.872 300.525 55.4053 300.109 55.864L299.709 55.544C299.922 55.288 300.125 54.9253 300.317 54.456C300.509 53.9973 300.605 53.5547 300.605 53.128V53H300.573C300.455 53.0427 300.333 53.064 300.205 53.064C300.013 53.064 299.847 52.9893 299.709 52.84C299.57 52.6907 299.501 52.52 299.501 52.328C299.501 52.0507 299.586 51.832 299.757 51.672C299.927 51.512 300.141 51.432 300.397 51.432ZM315.917 50.92C315.863 51.2187 315.751 51.544 315.581 51.896C315.41 52.2373 315.175 52.536 314.877 52.792C314.578 53.048 314.231 53.176 313.837 53.176C313.421 53.176 313.111 53.048 312.909 52.792C312.706 52.536 312.605 52.184 312.605 51.736C312.605 51.384 312.695 50.5413 312.877 49.208C312.215 49.7733 311.511 50.056 310.765 50.056C310.178 50.056 309.735 49.8907 309.437 49.56C309.138 49.2187 308.989 48.7493 308.989 48.152C308.989 47.9813 309.021 47.6827 309.085 47.256C309.159 46.7333 309.197 46.36 309.197 46.136C309.197 45.7947 309.079 45.624 308.845 45.624C308.631 45.624 308.407 45.752 308.173 46.008C307.938 46.2533 307.73 46.6427 307.549 47.176L307.101 47.064C307.175 46.7653 307.314 46.4453 307.517 46.104C307.719 45.752 307.986 45.4533 308.317 45.208C308.658 44.952 309.047 44.824 309.485 44.824C309.858 44.824 310.125 44.9307 310.285 45.144C310.455 45.3573 310.541 45.6827 310.541 46.12C310.541 46.376 310.498 46.76 310.413 47.272C310.402 47.336 310.381 47.48 310.349 47.704C310.317 47.928 310.301 48.1413 310.301 48.344C310.301 48.6747 310.365 48.92 310.493 49.08C310.621 49.2293 310.839 49.304 311.149 49.304C311.426 49.304 311.719 49.2507 312.029 49.144C312.349 49.0267 312.653 48.8667 312.941 48.664C313.09 47.5653 313.165 46.6533 313.165 45.928L313.149 45H314.477C314.487 45.096 314.493 45.2347 314.493 45.416C314.493 45.6933 314.455 46.1627 314.381 46.824C314.317 47.4747 314.242 48.136 314.157 48.808C313.965 50.4293 313.869 51.3787 313.869 51.656C313.869 52.1253 314.013 52.36 314.301 52.36C314.503 52.36 314.711 52.2373 314.925 51.992C315.138 51.736 315.325 51.3467 315.485 50.824L315.917 50.92ZM326.733 44.824C327.33 44.824 327.757 45.016 328.013 45.4C328.28 45.784 328.413 46.2853 328.413 46.904C328.413 47.352 328.386 47.8053 328.333 48.264C328.28 48.712 328.2 49.2827 328.093 49.976C327.954 50.8293 327.885 51.384 327.885 51.64C327.885 51.8747 327.912 52.056 327.965 52.184C328.029 52.312 328.146 52.376 328.317 52.376C328.52 52.376 328.728 52.2533 328.941 52.008C329.165 51.752 329.352 51.3573 329.501 50.824L329.949 50.936C329.896 51.2347 329.778 51.56 329.597 51.912C329.426 52.2533 329.192 52.552 328.893 52.808C328.594 53.0533 328.248 53.176 327.853 53.176C327.373 53.176 327.037 53.0533 326.845 52.808C326.664 52.552 326.573 52.1627 326.573 51.64C326.573 51.2027 326.658 50.4987 326.829 49.528C326.84 49.432 326.877 49.1707 326.941 48.744C327.005 48.3067 327.053 47.9067 327.085 47.544C327.128 47.1707 327.149 46.84 327.149 46.552C327.149 46.3067 327.09 46.0827 326.973 45.88C326.856 45.6773 326.658 45.576 326.381 45.576C325.901 45.576 325.432 45.928 324.973 46.632C324.525 47.336 324.157 48.2053 323.869 49.24C323.592 50.2747 323.453 51.2453 323.453 52.152C323.453 52.3547 323.464 52.6373 323.485 53H322.141C322.13 52.904 322.125 52.7653 322.125 52.584C322.125 52.232 322.157 51.7627 322.221 51.176C322.285 50.5893 322.354 50.008 322.429 49.432C322.61 48.0453 322.701 47.1013 322.701 46.6C322.701 45.9173 322.445 45.576 321.933 45.576C321.464 45.576 321 45.928 320.541 46.632C320.093 47.336 319.725 48.2107 319.437 49.256C319.149 50.2907 319.005 51.256 319.005 52.152C319.005 52.3547 319.016 52.6373 319.037 53H317.693C317.682 52.904 317.677 52.7653 317.677 52.584C317.677 52.3173 317.698 51.9333 317.741 51.432C317.794 50.92 317.874 50.2373 317.981 49.384L318.173 47.72C318.216 47.3467 318.248 47.064 318.269 46.872C318.29 46.6693 318.301 46.4933 318.301 46.344C318.301 46.12 318.269 45.944 318.205 45.816C318.152 45.688 318.04 45.624 317.869 45.624C317.666 45.624 317.458 45.752 317.245 46.008C317.032 46.264 316.85 46.6533 316.701 47.176L316.253 47.08C316.306 46.7813 316.418 46.456 316.589 46.104C316.77 45.752 317.005 45.4533 317.293 45.208C317.592 44.952 317.938 44.824 318.333 44.824C319.133 44.824 319.533 45.3573 319.533 46.424C319.533 46.7227 319.501 47.0533 319.437 47.416C319.384 47.7787 319.33 48.104 319.277 48.392H319.325C319.784 47.0587 320.258 46.1307 320.749 45.608C321.24 45.0853 321.741 44.824 322.253 44.824C322.84 44.824 323.272 45.0107 323.549 45.384C323.826 45.7573 323.965 46.1787 323.965 46.648C323.965 46.9253 323.949 47.16 323.917 47.352C323.885 47.5333 323.81 47.864 323.693 48.344H323.741C324.221 47.0107 324.712 46.0933 325.213 45.592C325.714 45.08 326.221 44.824 326.733 44.824ZM334.717 44.824C335.293 44.824 335.81 44.9627 336.269 45.24C336.738 45.5173 337.101 45.9227 337.357 46.456C337.623 46.9787 337.757 47.6027 337.757 48.328C337.757 49.2027 337.597 50.008 337.277 50.744C336.967 51.48 336.514 52.072 335.917 52.52C335.33 52.9573 334.637 53.176 333.837 53.176C332.823 53.176 332.055 52.8453 331.533 52.184C331.021 51.512 330.765 50.648 330.765 49.592C330.765 48.7173 330.925 47.9173 331.245 47.192C331.565 46.4667 332.023 45.8907 332.621 45.464C333.218 45.0373 333.917 44.824 334.717 44.824ZM334.461 45.416C333.991 45.416 333.581 45.5867 333.229 45.928C332.887 46.2587 332.626 46.7173 332.445 47.304C332.263 47.88 332.173 48.5253 332.173 49.24C332.173 50.1253 332.317 50.904 332.605 51.576C332.893 52.2373 333.362 52.568 334.013 52.568C334.557 52.568 334.999 52.36 335.341 51.944C335.693 51.528 335.949 51.016 336.109 50.408C336.269 49.8 336.349 49.208 336.349 48.632C336.349 47.736 336.205 46.9787 335.917 46.36C335.639 45.7307 335.154 45.416 334.461 45.416ZM342.388 53.16C341.418 53.16 340.623 52.8027 340.004 52.088C339.396 51.3627 339.092 50.3013 339.092 48.904C339.092 48.7653 339.103 48.536 339.124 48.216C339.22 46.712 339.535 45.4213 340.068 44.344C340.602 43.256 341.37 42.5253 342.372 42.152C342.607 42.056 342.847 41.9867 343.092 41.944C343.338 41.9013 343.658 41.8587 344.052 41.816C344.426 41.784 344.735 41.736 344.98 41.672C345.386 41.576 345.684 41.48 345.876 41.384C346.079 41.288 346.244 41.112 346.372 40.856L346.836 41.016C346.516 42.0187 345.876 42.68 344.916 43C344.724 43.0747 344.5 43.1333 344.244 43.176C343.999 43.2187 343.759 43.256 343.524 43.288C343.055 43.352 342.719 43.4107 342.516 43.464C341.642 43.72 340.991 44.1627 340.564 44.792C340.148 45.4213 339.86 46.28 339.7 47.368H339.812C340.452 45.992 341.524 45.304 343.028 45.304C343.551 45.304 344.042 45.4373 344.5 45.704C344.97 45.9707 345.343 46.3653 345.62 46.888C345.908 47.4 346.052 48.0133 346.052 48.728C346.052 49.5813 345.882 50.344 345.54 51.016C345.199 51.688 344.746 52.216 344.18 52.6C343.626 52.9733 343.028 53.16 342.388 53.16ZM342.324 52.552C343.082 52.552 343.658 52.2 344.052 51.496C344.458 50.7813 344.66 49.8587 344.66 48.728C344.66 47.928 344.5 47.256 344.18 46.712C343.86 46.1573 343.396 45.88 342.788 45.88C342.042 45.88 341.471 46.2267 341.076 46.92C340.682 47.6027 340.484 48.424 340.484 49.384C340.484 50.344 340.65 51.112 340.98 51.688C341.311 52.264 341.759 52.552 342.324 52.552ZM351.756 47.816C352.449 47.816 353.009 48.0133 353.436 48.408C353.863 48.792 354.076 49.3307 354.076 50.024C354.076 50.6107 353.927 51.144 353.628 51.624C353.329 52.104 352.913 52.4827 352.38 52.76C351.857 53.0373 351.265 53.176 350.604 53.176C349.9 53.176 349.367 52.9947 349.004 52.632C348.652 52.2587 348.476 51.7573 348.476 51.128C348.476 51.032 348.487 50.8773 348.508 50.664C348.796 48.872 348.972 47.7307 349.036 47.24C349.111 46.7493 349.148 46.4133 349.148 46.232C349.148 46.04 349.121 45.8907 349.068 45.784C349.015 45.6773 348.908 45.624 348.748 45.624C348.545 45.624 348.332 45.752 348.108 46.008C347.884 46.264 347.687 46.6533 347.516 47.176L347.068 47.08C347.143 46.7813 347.271 46.456 347.452 46.104C347.633 45.752 347.873 45.4533 348.172 45.208C348.481 44.952 348.833 44.824 349.228 44.824C349.644 44.824 349.937 44.9573 350.108 45.224C350.289 45.48 350.38 45.8373 350.38 46.296C350.38 46.552 350.353 46.856 350.3 47.208L350.124 48.312C350.732 47.9813 351.276 47.816 351.756 47.816ZM358.108 50.92C358.055 51.2187 357.937 51.544 357.756 51.896C357.585 52.248 357.351 52.552 357.052 52.808C356.764 53.0533 356.423 53.176 356.028 53.176C355.612 53.176 355.303 53.048 355.1 52.792C354.897 52.536 354.796 52.184 354.796 51.736C354.796 51.3413 354.871 50.6213 355.02 49.576C355.244 47.9227 355.356 46.7067 355.356 45.928C355.356 45.736 355.345 45.4267 355.324 45H356.668C356.679 45.096 356.684 45.2347 356.684 45.416C356.684 45.6933 356.647 46.1627 356.572 46.824C356.508 47.4747 356.433 48.136 356.348 48.808C356.156 50.4293 356.06 51.3787 356.06 51.656C356.06 52.1253 356.204 52.36 356.492 52.36C356.684 52.36 356.887 52.2373 357.1 51.992C357.324 51.736 357.511 51.3467 357.66 50.824L358.108 50.92ZM352.748 50.376C352.769 49.736 352.689 49.2507 352.508 48.92C352.337 48.5787 352.023 48.408 351.564 48.408C351.073 48.408 350.556 48.6213 350.012 49.048L349.724 50.808C349.703 50.9573 349.692 51.0693 349.692 51.144C349.692 51.592 349.82 51.944 350.076 52.2C350.332 52.4453 350.657 52.568 351.052 52.568C351.575 52.568 351.985 52.376 352.284 51.992C352.583 51.608 352.737 51.0693 352.748 50.376ZM368.82 44.824C369.418 44.824 369.855 45.016 370.132 45.4C370.42 45.784 370.564 46.2853 370.564 46.904C370.564 47.6187 370.463 48.6427 370.26 49.976C370.143 50.8187 370.084 51.3733 370.084 51.64C370.084 51.8747 370.111 52.056 370.164 52.184C370.228 52.312 370.346 52.376 370.516 52.376C370.719 52.376 370.927 52.2533 371.14 52.008C371.354 51.752 371.535 51.3573 371.684 50.824L372.132 50.936C372.079 51.2347 371.962 51.56 371.78 51.912C371.61 52.2533 371.375 52.552 371.076 52.808C370.788 53.0533 370.447 53.176 370.052 53.176C369.572 53.176 369.236 53.0533 369.044 52.808C368.852 52.552 368.756 52.1627 368.756 51.64C368.756 51.2453 368.826 50.5413 368.964 49.528C369.156 48.2267 369.252 47.2347 369.252 46.552C369.252 46.3067 369.194 46.0827 369.076 45.88C368.97 45.6773 368.778 45.576 368.5 45.576C368.031 45.576 367.551 45.9333 367.06 46.648C366.57 47.352 366.159 48.2267 365.828 49.272C365.508 50.3067 365.348 51.2667 365.348 52.152C365.348 52.3547 365.359 52.6373 365.38 53H364.036C364.026 52.904 364.02 52.7653 364.02 52.584C364.02 52.328 364.042 51.9707 364.084 51.512C364.138 51.0533 364.212 50.4507 364.308 49.704C364.308 49.64 364.319 49.5333 364.34 49.384C364.351 49.2453 364.367 49.1013 364.388 48.952C364.41 48.8027 364.426 48.6533 364.436 48.504C364.511 47.8533 364.564 47.3787 364.596 47.08C364.628 46.7813 364.644 46.536 364.644 46.344C364.644 46.12 364.612 45.944 364.548 45.816C364.495 45.688 364.383 45.624 364.212 45.624C364.01 45.624 363.802 45.752 363.588 46.008C363.375 46.264 363.194 46.6533 363.044 47.176L362.596 47.08C362.65 46.7813 362.762 46.456 362.932 46.104C363.114 45.752 363.348 45.4533 363.636 45.208C363.935 44.952 364.282 44.824 364.676 44.824C365.476 44.824 365.876 45.3733 365.876 46.472C365.876 46.7813 365.844 47.1227 365.78 47.496C365.727 47.8587 365.674 48.184 365.62 48.472H365.668C366.18 47.1067 366.687 46.1573 367.188 45.624C367.7 45.0907 368.244 44.824 368.82 44.824ZM376.904 44.824C377.48 44.824 377.997 44.9627 378.456 45.24C378.925 45.5173 379.288 45.9227 379.544 46.456C379.811 46.9787 379.944 47.6027 379.944 48.328C379.944 49.2027 379.784 50.008 379.464 50.744C379.155 51.48 378.701 52.072 378.104 52.52C377.517 52.9573 376.824 53.176 376.024 53.176C375.011 53.176 374.243 52.8453 373.72 52.184C373.208 51.512 372.952 50.648 372.952 49.592C372.952 48.7173 373.112 47.9173 373.432 47.192C373.752 46.4667 374.211 45.8907 374.808 45.464C375.405 45.0373 376.104 44.824 376.904 44.824ZM376.648 45.416C376.179 45.416 375.768 45.5867 375.416 45.928C375.075 46.2587 374.813 46.7173 374.632 47.304C374.451 47.88 374.36 48.5253 374.36 49.24C374.36 50.1253 374.504 50.904 374.792 51.576C375.08 52.2373 375.549 52.568 376.2 52.568C376.744 52.568 377.187 52.36 377.528 51.944C377.88 51.528 378.136 51.016 378.296 50.408C378.456 49.8 378.536 49.208 378.536 48.632C378.536 47.736 378.392 46.9787 378.104 46.36C377.827 45.7307 377.341 45.416 376.648 45.416ZM387.008 44.824C387.605 44.824 388.043 45.016 388.32 45.4C388.608 45.784 388.752 46.2853 388.752 46.904C388.752 47.6187 388.651 48.6427 388.448 49.976C388.331 50.8187 388.272 51.3733 388.272 51.64C388.272 51.8747 388.299 52.056 388.352 52.184C388.416 52.312 388.533 52.376 388.704 52.376C388.907 52.376 389.115 52.2533 389.328 52.008C389.541 51.752 389.723 51.3573 389.872 50.824L390.32 50.936C390.267 51.2347 390.149 51.56 389.968 51.912C389.797 52.2533 389.563 52.552 389.264 52.808C388.976 53.0533 388.635 53.176 388.24 53.176C387.76 53.176 387.424 53.0533 387.232 52.808C387.04 52.552 386.944 52.1627 386.944 51.64C386.944 51.2453 387.013 50.5413 387.152 49.528C387.344 48.2267 387.44 47.2347 387.44 46.552C387.44 46.3067 387.381 46.0827 387.264 45.88C387.157 45.6773 386.965 45.576 386.688 45.576C386.219 45.576 385.739 45.9333 385.248 46.648C384.757 47.352 384.347 48.2267 384.016 49.272C383.696 50.3067 383.536 51.2667 383.536 52.152C383.536 52.3547 383.547 52.6373 383.568 53H382.224C382.213 52.904 382.208 52.7653 382.208 52.584C382.208 52.328 382.229 51.9707 382.272 51.512C382.325 51.0533 382.4 50.4507 382.496 49.704C382.496 49.64 382.507 49.5333 382.528 49.384C382.539 49.2453 382.555 49.1013 382.576 48.952C382.597 48.8027 382.613 48.6533 382.624 48.504C382.699 47.8533 382.752 47.3787 382.784 47.08C382.816 46.7813 382.832 46.536 382.832 46.344C382.832 46.12 382.8 45.944 382.736 45.816C382.683 45.688 382.571 45.624 382.4 45.624C382.197 45.624 381.989 45.752 381.776 46.008C381.563 46.264 381.381 46.6533 381.232 47.176L380.784 47.08C380.837 46.7813 380.949 46.456 381.12 46.104C381.301 45.752 381.536 45.4533 381.824 45.208C382.123 44.952 382.469 44.824 382.864 44.824C383.664 44.824 384.064 45.3733 384.064 46.472C384.064 46.7813 384.032 47.1227 383.968 47.496C383.915 47.8587 383.861 48.184 383.808 48.472H383.856C384.368 47.1067 384.875 46.1573 385.376 45.624C385.888 45.0907 386.432 44.824 387.008 44.824ZM395.78 44.824C396.505 44.824 397.22 44.9147 397.924 45.096C397.454 48.5733 397.22 50.7067 397.22 51.496C397.22 51.7733 397.246 51.992 397.3 52.152C397.353 52.3013 397.476 52.376 397.668 52.376C397.87 52.376 398.078 52.248 398.292 51.992C398.505 51.736 398.686 51.3467 398.836 50.824L399.284 50.92C399.23 51.2187 399.113 51.544 398.932 51.896C398.761 52.248 398.526 52.552 398.228 52.808C397.94 53.0533 397.598 53.176 397.204 53.176C396.414 53.176 396.02 52.696 396.02 51.736C396.02 51.2667 396.116 50.552 396.308 49.592H396.26C395.812 51 395.321 51.9493 394.788 52.44C394.254 52.9307 393.705 53.176 393.14 53.176C392.521 53.176 392.025 52.952 391.652 52.504C391.289 52.056 391.108 51.352 391.108 50.392C391.108 49.368 391.284 48.4347 391.636 47.592C391.988 46.7493 392.516 46.0773 393.22 45.576C393.924 45.0747 394.777 44.824 395.78 44.824ZM395.284 45.4C394.665 45.4 394.142 45.624 393.716 46.072C393.289 46.5093 392.969 47.0907 392.756 47.816C392.553 48.5307 392.452 49.2987 392.452 50.12C392.452 51.688 392.798 52.472 393.492 52.472C393.961 52.472 394.43 52.104 394.9 51.368C395.369 50.632 395.758 49.7253 396.068 48.648C396.377 47.56 396.532 46.5413 396.532 45.592C396.212 45.464 395.796 45.4 395.284 45.4ZM403.729 44.824C404.177 44.824 404.583 44.9093 404.945 45.08C405.319 45.24 405.607 45.464 405.809 45.752C406.023 46.0293 406.129 46.344 406.129 46.696C406.129 46.9413 406.065 47.1333 405.937 47.272C405.809 47.4107 405.639 47.48 405.425 47.48C405.212 47.48 405.047 47.4107 404.929 47.272C404.823 47.1333 404.769 46.9893 404.769 46.84C404.769 46.584 404.839 46.3813 404.977 46.232C404.924 45.944 404.78 45.7307 404.545 45.592C404.321 45.4533 404.044 45.384 403.713 45.384C402.871 45.384 402.257 45.7787 401.873 46.568C401.5 47.3573 401.313 48.2693 401.313 49.304C401.313 50.3707 401.484 51.1547 401.825 51.656C402.177 52.1467 402.657 52.392 403.265 52.392C403.735 52.392 404.188 52.2373 404.625 51.928C405.063 51.608 405.425 51.0907 405.713 50.376L406.273 50.648C405.889 51.5333 405.415 52.1787 404.849 52.584C404.284 52.9787 403.665 53.176 402.993 53.176C402.023 53.176 401.265 52.888 400.721 52.312C400.177 51.7253 399.905 50.8453 399.905 49.672C399.905 48.9253 400.044 48.1787 400.321 47.432C400.609 46.6853 401.041 46.0667 401.617 45.576C402.193 45.0747 402.897 44.824 403.729 44.824ZM417.452 44.824C418.049 44.824 418.476 45.016 418.732 45.4C418.998 45.784 419.132 46.2853 419.132 46.904C419.132 47.352 419.105 47.8053 419.052 48.264C418.998 48.712 418.918 49.2827 418.812 49.976C418.673 50.8293 418.604 51.384 418.604 51.64C418.604 51.8747 418.63 52.056 418.684 52.184C418.748 52.312 418.865 52.376 419.036 52.376C419.238 52.376 419.446 52.2533 419.66 52.008C419.884 51.752 420.07 51.3573 420.22 50.824L420.668 50.936C420.614 51.2347 420.497 51.56 420.316 51.912C420.145 52.2533 419.91 52.552 419.612 52.808C419.313 53.0533 418.966 53.176 418.572 53.176C418.092 53.176 417.756 53.0533 417.564 52.808C417.382 52.552 417.292 52.1627 417.292 51.64C417.292 51.2027 417.377 50.4987 417.548 49.528C417.558 49.432 417.596 49.1707 417.66 48.744C417.724 48.3067 417.772 47.9067 417.804 47.544C417.846 47.1707 417.868 46.84 417.868 46.552C417.868 46.3067 417.809 46.0827 417.692 45.88C417.574 45.6773 417.377 45.576 417.1 45.576C416.62 45.576 416.15 45.928 415.692 46.632C415.244 47.336 414.876 48.2053 414.588 49.24C414.31 50.2747 414.172 51.2453 414.172 52.152C414.172 52.3547 414.182 52.6373 414.204 53H412.86C412.849 52.904 412.844 52.7653 412.844 52.584C412.844 52.232 412.876 51.7627 412.94 51.176C413.004 50.5893 413.073 50.008 413.148 49.432C413.329 48.0453 413.42 47.1013 413.42 46.6C413.42 45.9173 413.164 45.576 412.652 45.576C412.182 45.576 411.718 45.928 411.26 46.632C410.812 47.336 410.444 48.2107 410.156 49.256C409.868 50.2907 409.724 51.256 409.724 52.152C409.724 52.3547 409.734 52.6373 409.756 53H408.412C408.401 52.904 408.396 52.7653 408.396 52.584C408.396 52.3173 408.417 51.9333 408.46 51.432C408.513 50.92 408.593 50.2373 408.7 49.384L408.892 47.72C408.934 47.3467 408.966 47.064 408.988 46.872C409.009 46.6693 409.02 46.4933 409.02 46.344C409.02 46.12 408.988 45.944 408.924 45.816C408.87 45.688 408.758 45.624 408.588 45.624C408.385 45.624 408.177 45.752 407.964 46.008C407.75 46.264 407.569 46.6533 407.42 47.176L406.972 47.08C407.025 46.7813 407.137 46.456 407.308 46.104C407.489 45.752 407.724 45.4533 408.012 45.208C408.31 44.952 408.657 44.824 409.052 44.824C409.852 44.824 410.252 45.3573 410.252 46.424C410.252 46.7227 410.22 47.0533 410.156 47.416C410.102 47.7787 410.049 48.104 409.996 48.392H410.044C410.502 47.0587 410.977 46.1307 411.468 45.608C411.958 45.0853 412.46 44.824 412.972 44.824C413.558 44.824 413.99 45.0107 414.268 45.384C414.545 45.7573 414.684 46.1787 414.684 46.648C414.684 46.9253 414.668 47.16 414.636 47.352C414.604 47.5333 414.529 47.864 414.412 48.344H414.46C414.94 47.0107 415.43 46.0933 415.932 45.592C416.433 45.08 416.94 44.824 417.452 44.824ZM425.787 47.816C426.481 47.816 427.041 48.0133 427.467 48.408C427.894 48.792 428.107 49.3307 428.107 50.024C428.107 50.6107 427.958 51.144 427.659 51.624C427.361 52.104 426.945 52.4827 426.411 52.76C425.889 53.0373 425.297 53.176 424.635 53.176C423.931 53.176 423.398 52.9947 423.035 52.632C422.683 52.2587 422.507 51.7573 422.507 51.128C422.507 51.032 422.518 50.8773 422.539 50.664C422.827 48.872 423.003 47.7307 423.067 47.24C423.142 46.7493 423.179 46.4133 423.179 46.232C423.179 46.04 423.153 45.8907 423.099 45.784C423.046 45.6773 422.939 45.624 422.779 45.624C422.577 45.624 422.363 45.752 422.139 46.008C421.915 46.264 421.718 46.6533 421.547 47.176L421.099 47.08C421.174 46.7813 421.302 46.456 421.483 46.104C421.665 45.752 421.905 45.4533 422.203 45.208C422.513 44.952 422.865 44.824 423.259 44.824C423.675 44.824 423.969 44.9573 424.139 45.224C424.321 45.48 424.411 45.8373 424.411 46.296C424.411 46.552 424.385 46.856 424.331 47.208L424.155 48.312C424.763 47.9813 425.307 47.816 425.787 47.816ZM426.779 50.376C426.801 49.736 426.721 49.2507 426.539 48.92C426.369 48.5787 426.054 48.408 425.595 48.408C425.105 48.408 424.587 48.6213 424.043 49.048L423.755 50.808C423.734 50.9573 423.723 51.0693 423.723 51.144C423.723 51.592 423.851 51.944 424.107 52.2C424.363 52.4453 424.689 52.568 425.083 52.568C425.606 52.568 426.017 52.376 426.315 51.992C426.614 51.608 426.769 51.0693 426.779 50.376ZM189.784 69.552C190.488 69.5093 191 69.664 191.32 70.016C191.651 70.368 191.816 70.8107 191.816 71.344C191.816 71.8667 191.672 72.3467 191.384 72.784C191.107 73.2107 190.717 73.552 190.216 73.808C189.715 74.0533 189.155 74.176 188.536 74.176C187.576 74.176 186.851 73.872 186.36 73.264C185.869 72.6453 185.624 71.7973 185.624 70.72C185.624 69.8667 185.768 69.0667 186.056 68.32C186.344 67.5733 186.765 66.9707 187.32 66.512C187.885 66.0533 188.557 65.824 189.336 65.824C189.923 65.824 190.419 65.9573 190.824 66.224C191.229 66.48 191.432 66.8693 191.432 67.392C191.432 67.7973 191.293 68.192 191.016 68.576C190.749 68.9493 190.339 69.2747 189.784 69.552ZM189.176 66.368C188.579 66.368 188.088 66.7147 187.704 67.408C187.32 68.1013 187.096 68.9653 187.032 70C188.141 69.744 188.92 69.424 189.368 69.04C189.816 68.6453 190.04 68.1333 190.04 67.504C190.04 66.7467 189.752 66.368 189.176 66.368ZM188.904 73.568C189.384 73.568 189.763 73.4027 190.04 73.072C190.317 72.7413 190.456 72.2987 190.456 71.744C190.456 71.264 190.339 70.8747 190.104 70.576C189.88 70.2773 189.549 70.128 189.112 70.128C188.92 70.128 188.712 70.16 188.488 70.224L187.016 70.608C187.048 71.536 187.213 72.2613 187.512 72.784C187.821 73.3067 188.285 73.568 188.904 73.568ZM205.488 72.368C205.381 72.88 205.179 73.312 204.88 73.664C204.581 74.0053 204.181 74.176 203.68 74.176C203.285 74.176 202.981 74.0267 202.768 73.728C202.565 73.4293 202.432 72.88 202.368 72.08C202.304 71.3333 202.181 70.816 202 70.528C201.819 70.24 201.536 70.096 201.152 70.096L199.824 70.112C199.643 71.52 199.563 72.5227 199.584 73.12C199.584 73.28 199.595 73.5733 199.616 74H198.288L198.272 73.808L198.288 73.584C198.288 72.9973 198.389 71.904 198.592 70.304C198.688 69.4827 198.773 68.8427 198.848 68.384C198.912 67.8613 198.944 67.504 198.944 67.312C198.944 67.0987 198.917 66.9333 198.864 66.816C198.811 66.688 198.699 66.624 198.528 66.624C198.325 66.624 198.112 66.752 197.888 67.008C197.675 67.264 197.488 67.6533 197.328 68.176L196.88 68.08C196.944 67.7813 197.067 67.456 197.248 67.104C197.429 66.752 197.669 66.4533 197.968 66.208C198.267 65.952 198.613 65.824 199.008 65.824C199.424 65.824 199.717 65.9413 199.888 66.176C200.069 66.4107 200.16 66.768 200.16 67.248C200.16 67.5147 200.123 67.92 200.048 68.464L199.888 69.648H200.4C200.869 69.648 201.237 69.52 201.504 69.264C201.781 69.008 202.043 68.56 202.288 67.92C202.565 67.152 202.859 66.6133 203.168 66.304C203.488 65.984 203.893 65.824 204.384 65.824C204.661 65.824 204.88 65.904 205.04 66.064C205.2 66.224 205.28 66.4373 205.28 66.704C205.28 66.928 205.211 67.12 205.072 67.28C204.944 67.44 204.763 67.52 204.528 67.52C204.261 67.52 204.053 67.4613 203.904 67.344C203.755 67.2267 203.669 67.0613 203.648 66.848C203.499 66.944 203.365 67.088 203.248 67.28C203.131 67.472 202.997 67.776 202.848 68.192C202.709 68.576 202.539 68.9067 202.336 69.184C202.133 69.4613 201.909 69.664 201.664 69.792C202.816 69.824 203.456 70.4533 203.584 71.68C203.648 72.3093 203.723 72.736 203.808 72.96C203.904 73.1733 204.075 73.28 204.32 73.28C204.48 73.28 204.619 73.2053 204.736 73.056C204.853 72.896 204.955 72.64 205.04 72.288L205.488 72.368ZM212.115 65.824C212.819 65.824 213.353 66.1173 213.715 66.704C214.089 67.2907 214.275 68.032 214.275 68.928C214.275 69.9733 214.094 70.8907 213.731 71.68C213.369 72.4693 212.83 73.0827 212.115 73.52C211.411 73.9573 210.558 74.176 209.555 74.176C209.299 74.176 209.049 74.16 208.803 74.128L208.675 76.144C208.665 76.2187 208.659 76.336 208.659 76.496C208.638 76.912 208.601 77.2373 208.547 77.472L209.555 77.424V78.08H206.531V77.6C206.787 77.6 206.979 77.52 207.107 77.36C207.235 77.2 207.321 76.992 207.363 76.736C207.417 76.4907 207.459 76.1387 207.491 75.68C207.491 75.5413 207.497 75.4347 207.507 75.36C207.603 74.2293 207.747 72.6133 207.939 70.512C208.11 68.752 208.195 67.7387 208.195 67.472C208.195 67.1947 208.169 66.9867 208.115 66.848C208.062 66.6987 207.945 66.624 207.763 66.624C207.561 66.624 207.353 66.752 207.139 67.008C206.937 67.264 206.761 67.6533 206.611 68.176L206.147 68.08C206.201 67.7813 206.313 67.456 206.483 67.104C206.665 66.752 206.899 66.4533 207.187 66.208C207.486 65.952 207.833 65.824 208.227 65.824C209.038 65.824 209.443 66.384 209.443 67.504C209.443 67.9733 209.369 68.5813 209.219 69.328H209.267C209.673 67.984 210.11 67.0667 210.579 66.576C211.049 66.0747 211.561 65.824 212.115 65.824ZM211.779 66.576C211.406 66.576 211.033 66.8373 210.659 67.36C210.286 67.872 209.955 68.544 209.667 69.376C209.379 70.1973 209.166 71.0453 209.027 71.92C208.963 72.2933 208.905 72.8 208.851 73.44C209.235 73.568 209.561 73.632 209.827 73.632C210.531 73.632 211.113 73.4133 211.571 72.976C212.041 72.528 212.377 71.968 212.579 71.296C212.793 70.6133 212.899 69.92 212.899 69.216C212.899 68.3947 212.814 67.7493 212.643 67.28C212.473 66.8107 212.185 66.576 211.779 66.576ZM219.576 65.824C220.152 65.824 220.669 65.9627 221.128 66.24C221.597 66.5173 221.96 66.9227 222.216 67.456C222.483 67.9787 222.616 68.6027 222.616 69.328C222.616 70.2027 222.456 71.008 222.136 71.744C221.827 72.48 221.373 73.072 220.776 73.52C220.189 73.9573 219.496 74.176 218.696 74.176C217.683 74.176 216.915 73.8453 216.392 73.184C215.88 72.512 215.624 71.648 215.624 70.592C215.624 69.7173 215.784 68.9173 216.104 68.192C216.424 67.4667 216.883 66.8907 217.48 66.464C218.077 66.0373 218.776 65.824 219.576 65.824ZM219.32 66.416C218.851 66.416 218.44 66.5867 218.088 66.928C217.747 67.2587 217.485 67.7173 217.304 68.304C217.123 68.88 217.032 69.5253 217.032 70.24C217.032 71.1253 217.176 71.904 217.464 72.576C217.752 73.2373 218.221 73.568 218.872 73.568C219.416 73.568 219.859 73.36 220.2 72.944C220.552 72.528 220.808 72.016 220.968 71.408C221.128 70.8 221.208 70.208 221.208 69.632C221.208 68.736 221.064 67.9787 220.776 67.36C220.499 66.7307 220.013 66.416 219.32 66.416ZM228.128 69.552C228.832 69.5093 229.344 69.664 229.664 70.016C229.994 70.368 230.16 70.8107 230.16 71.344C230.16 71.8667 230.016 72.3467 229.728 72.784C229.45 73.2107 229.061 73.552 228.56 73.808C228.058 74.0533 227.498 74.176 226.88 74.176C225.92 74.176 225.194 73.872 224.704 73.264C224.213 72.6453 223.968 71.7973 223.968 70.72C223.968 69.8667 224.112 69.0667 224.4 68.32C224.688 67.5733 225.109 66.9707 225.664 66.512C226.229 66.0533 226.901 65.824 227.68 65.824C228.266 65.824 228.762 65.9573 229.168 66.224C229.573 66.48 229.776 66.8693 229.776 67.392C229.776 67.7973 229.637 68.192 229.36 68.576C229.093 68.9493 228.682 69.2747 228.128 69.552ZM227.52 66.368C226.922 66.368 226.432 66.7147 226.048 67.408C225.664 68.1013 225.44 68.9653 225.376 70C226.485 69.744 227.264 69.424 227.712 69.04C228.16 68.6453 228.384 68.1333 228.384 67.504C228.384 66.7467 228.096 66.368 227.52 66.368ZM227.248 73.568C227.728 73.568 228.106 73.4027 228.384 73.072C228.661 72.7413 228.8 72.2987 228.8 71.744C228.8 71.264 228.682 70.8747 228.448 70.576C228.224 70.2773 227.893 70.128 227.456 70.128C227.264 70.128 227.056 70.16 226.832 70.224L225.36 70.608C225.392 71.536 225.557 72.2613 225.856 72.784C226.165 73.3067 226.629 73.568 227.248 73.568ZM235.741 68.816C236.434 68.816 236.994 69.0133 237.421 69.408C237.847 69.792 238.061 70.3307 238.061 71.024C238.061 71.6107 237.911 72.144 237.613 72.624C237.314 73.104 236.898 73.4827 236.365 73.76C235.842 74.0373 235.25 74.176 234.589 74.176C233.885 74.176 233.351 73.9947 232.989 73.632C232.637 73.2587 232.461 72.7573 232.461 72.128C232.461 72.032 232.471 71.8773 232.493 71.664C232.781 69.872 232.957 68.7307 233.021 68.24C233.095 67.7493 233.133 67.4133 233.133 67.232C233.133 67.04 233.106 66.8907 233.053 66.784C232.999 66.6773 232.893 66.624 232.733 66.624C232.53 66.624 232.317 66.752 232.093 67.008C231.869 67.264 231.671 67.6533 231.501 68.176L231.053 68.08C231.127 67.7813 231.255 67.456 231.437 67.104C231.618 66.752 231.858 66.4533 232.157 66.208C232.466 65.952 232.818 65.824 233.213 65.824C233.629 65.824 233.922 65.9573 234.093 66.224C234.274 66.48 234.365 66.8373 234.365 67.296C234.365 67.552 234.338 67.856 234.285 68.208L234.109 69.312C234.717 68.9813 235.261 68.816 235.741 68.816ZM236.733 71.376C236.754 70.736 236.674 70.2507 236.493 69.92C236.322 69.5787 236.007 69.408 235.549 69.408C235.058 69.408 234.541 69.6213 233.997 70.048L233.709 71.808C233.687 71.9573 233.677 72.0693 233.677 72.144C233.677 72.592 233.805 72.944 234.061 73.2C234.317 73.4453 234.642 73.568 235.036 73.568C235.559 73.568 235.97 73.376 236.269 72.992C236.567 72.608 236.722 72.0693 236.733 71.376Z" fill="#CDCDCD"/>
<path d="M133.85 23.2C136.817 23.2 139.233 23.9333 141.1 25.4C143 26.8333 143.867 29.1167 143.7 32.25C143.467 36.0833 140.033 40.5667 133.4 45.7C130.9 47.6 128.933 49.3333 127.5 50.9C126.067 52.4333 125.183 53.9 124.85 55.3L133.55 55.55C134.283 55.5833 135.3 55.6 136.6 55.6C138.433 55.6 139.783 55.3667 140.65 54.9C141.55 54.4333 142.033 53.5 142.1 52.1H143.65L142.95 59H121.35C121.45 57.0333 121.883 55.2833 122.65 53.75C123.45 52.1833 124.417 50.8167 125.55 49.65C126.683 48.45 128.25 46.9833 130.25 45.25L132 43.75C134 41.9167 135.617 40.05 136.85 38.15C138.117 36.2167 138.783 34.4667 138.85 32.9C138.95 30.6 138.533 28.7333 137.6 27.3C136.7 25.8667 135.15 25.15 132.95 25.15C131.617 25.15 130.383 25.4833 129.25 26.15C128.15 26.8167 127.383 27.6667 126.95 28.7C127.45 29.2333 127.7 29.95 127.7 30.85C127.7 31.4833 127.483 32.0333 127.05 32.5C126.617 32.9667 126.05 33.2 125.35 33.2C124.683 33.2 124.117 32.9667 123.65 32.5C123.217 32.0333 123 31.4333 123 30.7C123 29.5667 123.433 28.4167 124.3 27.25C125.2 26.0833 126.467 25.1167 128.1 24.35C129.767 23.5833 131.683 23.2 133.85 23.2ZM163.27 23.2C165.003 23.2 166.486 23.5167 167.72 24.15C168.953 24.75 169.87 25.5167 170.47 26.45C171.103 27.3833 171.42 28.3 171.42 29.2C171.42 29.9667 171.203 30.6 170.77 31.1C170.336 31.5667 169.786 31.8 169.12 31.8C168.453 31.8 167.92 31.6 167.52 31.2C167.12 30.7667 166.92 30.25 166.92 29.65C166.92 29.35 166.97 29.0333 167.07 28.7C167.203 28.3333 167.37 28.0167 167.57 27.75C167.403 27.0833 166.903 26.4667 166.07 25.9C165.27 25.3333 164.253 25.0667 163.02 25.1C159.72 25.1667 157.386 26.9 156.02 30.3C154.653 33.7 153.803 37.3667 153.47 41.3C154.436 40.0667 155.62 39.0667 157.02 38.3C158.42 37.5333 160.003 37.15 161.77 37.15C164.27 37.15 166.253 37.7 167.72 38.8C169.22 39.9 170.236 41.3 170.77 43C171.336 44.7 171.57 46.4833 171.47 48.35C171.37 50.4167 170.786 52.3333 169.72 54.1C168.686 55.8333 167.27 57.2167 165.47 58.25C163.67 59.2833 161.686 59.8 159.52 59.8C155.82 59.8 153.12 58.5833 151.42 56.15C149.753 53.6833 148.92 50.15 148.92 45.55C148.92 44.9167 148.953 43.9 149.02 42.5C149.32 37.8 150.503 33.4167 152.57 29.35C154.636 25.25 158.203 23.2 163.27 23.2ZM160.87 39.35C159.336 39.35 157.82 39.9167 156.32 41.05C154.82 42.15 153.786 43.45 153.22 44.95C153.153 48.65 153.603 51.7333 154.57 54.2C155.536 56.6333 157.203 57.85 159.57 57.85C161.803 57.85 163.536 57.05 164.77 55.45C166.003 53.8167 166.67 51.8167 166.77 49.45L166.82 48.15C166.82 45.75 166.386 43.6833 165.52 41.95C164.653 40.2167 163.103 39.35 160.87 39.35Z" fill="#E5E5E5"/>
<defs>
<filter id="filter0_d" x="0" y="14" width="167" height="187" filterUnits="userSpaceOnUse" color-interpolation-filters="sRGB">
<feFlood flood-opacity="0" result="BackgroundImageFix"/>
<feColorMatrix in="SourceAlpha" type="matrix" values="0 0 0 0 0 0 0 0 0 0 0 0 0 0 0 0 0 0 127 0"/>
<feOffset dy="100"/>
<feGaussianBlur stdDeviation="40"/>
<feColorMatrix type="matrix" values="0 0 0 0 0.807929 0 0 0 0 0.797289 0 0 0 0 0.797289 0 0 0 0.2 0"/>
<feBlend mode="normal" in2="BackgroundImageFix" result="effect1_dropShadow"/>
<feBlend mode="normal" in="SourceGraphic" in2="effect1_dropShadow" result="shape"/>
</filter>
</defs>
</svg>
