<svg width="440" height="236" viewBox="0 0 440 236" fill="none" xmlns="http://www.w3.org/2000/svg">
<g filter="url(#filter0_d)">
<circle cx="83.5" cy="52.5" r="3.5" transform="scale(1 -1)" fill="#36DFB6" style="mix-blend-mode:multiply"/>
</g>
<circle cx="113" cy="35" r="27.5" stroke="#3688DF" stroke-opacity="0.14"/>
<path d="M193.608 19.824C194.205 19.824 194.632 20.016 194.888 20.4C195.155 20.784 195.288 21.2853 195.288 21.904C195.288 22.352 195.261 22.8053 195.208 23.264C195.155 23.712 195.075 24.2827 194.968 24.976C194.829 25.8293 194.76 26.384 194.76 26.64C194.76 26.8747 194.787 27.056 194.84 27.184C194.904 27.312 195.021 27.376 195.192 27.376C195.395 27.376 195.603 27.2533 195.816 27.008C196.04 26.752 196.227 26.3573 196.376 25.824L196.824 25.936C196.771 26.2347 196.653 26.56 196.472 26.912C196.301 27.2533 196.067 27.552 195.768 27.808C195.469 28.0533 195.123 28.176 194.728 28.176C194.248 28.176 193.912 28.0533 193.72 27.808C193.539 27.552 193.448 27.1627 193.448 26.64C193.448 26.2027 193.533 25.4987 193.704 24.528C193.715 24.432 193.752 24.1707 193.816 23.744C193.88 23.3067 193.928 22.9067 193.96 22.544C194.003 22.1707 194.024 21.84 194.024 21.552C194.024 21.3067 193.965 21.0827 193.848 20.88C193.731 20.6773 193.533 20.576 193.256 20.576C192.776 20.576 192.307 20.928 191.848 21.632C191.4 22.336 191.032 23.2053 190.744 24.24C190.467 25.2747 190.328 26.2453 190.328 27.152C190.328 27.3547 190.339 27.6373 190.36 28H189.016C189.005 27.904 189 27.7653 189 27.584C189 27.232 189.032 26.7627 189.096 26.176C189.16 25.5893 189.229 25.008 189.304 24.432C189.485 23.0453 189.576 22.1013 189.576 21.6C189.576 20.9173 189.32 20.576 188.808 20.576C188.339 20.576 187.875 20.928 187.416 21.632C186.968 22.336 186.6 23.2107 186.312 24.256C186.024 25.2907 185.88 26.256 185.88 27.152C185.88 27.3547 185.891 27.6373 185.912 28H184.568C184.557 27.904 184.552 27.7653 184.552 27.584C184.552 27.3173 184.573 26.9333 184.616 26.432C184.669 25.92 184.749 25.2373 184.856 24.384L185.048 22.72C185.091 22.3467 185.123 22.064 185.144 21.872C185.165 21.6693 185.176 21.4933 185.176 21.344C185.176 21.12 185.144 20.944 185.08 20.816C185.027 20.688 184.915 20.624 184.744 20.624C184.541 20.624 184.333 20.752 184.12 21.008C183.907 21.264 183.725 21.6533 183.576 22.176L183.128 22.08C183.181 21.7813 183.293 21.456 183.464 21.104C183.645 20.752 183.88 20.4533 184.168 20.208C184.467 19.952 184.813 19.824 185.208 19.824C186.008 19.824 186.408 20.3573 186.408 21.424C186.408 21.7227 186.376 22.0533 186.312 22.416C186.259 22.7787 186.205 23.104 186.152 23.392H186.2C186.659 22.0587 187.133 21.1307 187.624 20.608C188.115 20.0853 188.616 19.824 189.128 19.824C189.715 19.824 190.147 20.0107 190.424 20.384C190.701 20.7573 190.84 21.1787 190.84 21.648C190.84 21.9253 190.824 22.16 190.792 22.352C190.76 22.5333 190.685 22.864 190.568 23.344H190.616C191.096 22.0107 191.587 21.0933 192.088 20.592C192.589 20.08 193.096 19.824 193.608 19.824ZM201.944 22.816C202.637 22.816 203.197 23.0133 203.624 23.408C204.05 23.792 204.264 24.3307 204.264 25.024C204.264 25.6107 204.114 26.144 203.816 26.624C203.517 27.104 203.101 27.4827 202.568 27.76C202.045 28.0373 201.453 28.176 200.792 28.176C200.088 28.176 199.554 27.9947 199.192 27.632C198.84 27.2587 198.664 26.7573 198.664 26.128C198.664 26.032 198.674 25.8773 198.696 25.664C198.984 23.872 199.16 22.7307 199.224 22.24C199.298 21.7493 199.336 21.4133 199.336 21.232C199.336 21.04 199.309 20.8907 199.256 20.784C199.202 20.6773 199.096 20.624 198.936 20.624C198.733 20.624 198.52 20.752 198.296 21.008C198.072 21.264 197.874 21.6533 197.704 22.176L197.256 22.08C197.33 21.7813 197.458 21.456 197.64 21.104C197.821 20.752 198.061 20.4533 198.36 20.208C198.669 19.952 199.021 19.824 199.416 19.824C199.832 19.824 200.125 19.9573 200.296 20.224C200.477 20.48 200.568 20.8373 200.568 21.296C200.568 21.552 200.541 21.856 200.488 22.208L200.312 23.312C200.92 22.9813 201.464 22.816 201.944 22.816ZM208.296 25.92C208.242 26.2187 208.125 26.544 207.944 26.896C207.773 27.248 207.538 27.552 207.24 27.808C206.952 28.0533 206.61 28.176 206.216 28.176C205.8 28.176 205.49 28.048 205.288 27.792C205.085 27.536 204.984 27.184 204.984 26.736C204.984 26.3413 205.058 25.6213 205.208 24.576C205.432 22.9227 205.544 21.7067 205.544 20.928C205.544 20.736 205.533 20.4267 205.512 20H206.856C206.866 20.096 206.872 20.2347 206.872 20.416C206.872 20.6933 206.834 21.1627 206.76 21.824C206.696 22.4747 206.621 23.136 206.536 23.808C206.344 25.4293 206.248 26.3787 206.248 26.656C206.248 27.1253 206.392 27.36 206.68 27.36C206.872 27.36 207.074 27.2373 207.288 26.992C207.512 26.736 207.698 26.3467 207.848 25.824L208.296 25.92ZM202.936 25.376C202.957 24.736 202.877 24.2507 202.696 23.92C202.525 23.5787 202.21 23.408 201.752 23.408C201.261 23.408 200.744 23.6213 200.2 24.048L199.912 25.808C199.89 25.9573 199.88 26.0693 199.88 26.144C199.88 26.592 200.008 26.944 200.264 27.2C200.52 27.4453 200.845 27.568 201.24 27.568C201.762 27.568 202.173 27.376 202.472 26.992C202.77 26.608 202.925 26.0693 202.936 25.376ZM212.917 19.824C213.365 19.824 213.77 19.9093 214.133 20.08C214.506 20.24 214.794 20.464 214.997 20.752C215.21 21.0293 215.317 21.344 215.317 21.696C215.317 21.9413 215.253 22.1333 215.125 22.272C214.997 22.4107 214.826 22.48 214.613 22.48C214.399 22.48 214.234 22.4107 214.117 22.272C214.01 22.1333 213.957 21.9893 213.957 21.84C213.957 21.584 214.026 21.3813 214.165 21.232C214.111 20.944 213.967 20.7307 213.733 20.592C213.509 20.4533 213.231 20.384 212.901 20.384C212.058 20.384 211.445 20.7787 211.061 21.568C210.687 22.3573 210.501 23.2693 210.501 24.304C210.501 25.3707 210.671 26.1547 211.013 26.656C211.365 27.1467 211.845 27.392 212.453 27.392C212.922 27.392 213.375 27.2373 213.813 26.928C214.25 26.608 214.613 26.0907 214.901 25.376L215.461 25.648C215.077 26.5333 214.602 27.1787 214.037 27.584C213.471 27.9787 212.853 28.176 212.181 28.176C211.21 28.176 210.453 27.888 209.909 27.312C209.365 26.7253 209.093 25.8453 209.093 24.672C209.093 23.9253 209.231 23.1787 209.509 22.432C209.797 21.6853 210.229 21.0667 210.805 20.576C211.381 20.0747 212.085 19.824 212.917 19.824ZM224.831 25.92C224.671 26.5707 224.415 27.1093 224.063 27.536C223.722 27.9627 223.258 28.176 222.671 28.176C222.245 28.176 221.941 28.0693 221.759 27.856C221.589 27.632 221.503 27.296 221.503 26.848C221.503 26.528 221.535 26.1707 221.599 25.776L221.759 24.816C221.365 24.88 220.917 24.9227 220.415 24.944C220.181 24.944 219.989 25.0507 219.839 25.264C219.69 25.4667 219.53 25.8507 219.359 26.416C219.199 26.9067 219.039 27.28 218.879 27.536C218.719 27.7813 218.543 27.9467 218.351 28.032C218.159 28.128 217.919 28.176 217.631 28.176C217.173 28.176 216.815 28 216.559 27.648C216.303 27.296 216.149 26.8693 216.095 26.368L216.543 26.272C216.597 26.6453 216.703 26.912 216.863 27.072C217.034 27.232 217.21 27.296 217.391 27.264C217.541 27.2427 217.669 27.152 217.775 26.992C217.893 26.8213 218.069 26.4533 218.303 25.888C218.463 25.4933 218.634 25.1947 218.815 24.992C219.007 24.7893 219.279 24.672 219.631 24.64C219.173 24.4907 218.805 24.24 218.527 23.888C218.25 23.5253 218.111 23.0773 218.111 22.544C218.111 21.9467 218.266 21.4507 218.575 21.056C218.885 20.6507 219.29 20.352 219.791 20.16C220.293 19.968 220.831 19.872 221.407 19.872C222.111 19.872 222.837 19.9307 223.583 20.048L222.751 26.656C222.741 26.7093 222.735 26.7787 222.735 26.864C222.735 27.1947 222.874 27.36 223.151 27.36C223.354 27.36 223.567 27.2373 223.791 26.992C224.015 26.736 224.213 26.3467 224.383 25.824L224.831 25.92ZM221.855 24.208C222.133 22.4693 222.293 21.3173 222.335 20.752C221.962 20.624 221.615 20.56 221.295 20.56C220.73 20.56 220.271 20.7413 219.919 21.104C219.578 21.4667 219.407 21.984 219.407 22.656C219.407 23.168 219.525 23.5787 219.759 23.888C219.994 24.1973 220.341 24.352 220.799 24.352C221.13 24.352 221.482 24.304 221.855 24.208ZM234.104 25.92C234.051 26.2187 233.939 26.544 233.768 26.896C233.597 27.2373 233.363 27.536 233.064 27.792C232.765 28.048 232.419 28.176 232.024 28.176C231.608 28.176 231.299 28.048 231.096 27.792C230.893 27.536 230.792 27.184 230.792 26.736C230.792 26.384 230.883 25.5413 231.064 24.208C230.403 24.7733 229.699 25.056 228.952 25.056C228.365 25.056 227.923 24.8907 227.624 24.56C227.325 24.2187 227.176 23.7493 227.176 23.152C227.176 22.9813 227.208 22.6827 227.272 22.256C227.347 21.7333 227.384 21.36 227.384 21.136C227.384 20.7947 227.267 20.624 227.032 20.624C226.819 20.624 226.595 20.752 226.36 21.008C226.125 21.2533 225.917 21.6427 225.736 22.176L225.288 22.064C225.363 21.7653 225.501 21.4453 225.704 21.104C225.907 20.752 226.173 20.4533 226.504 20.208C226.845 19.952 227.235 19.824 227.672 19.824C228.045 19.824 228.312 19.9307 228.472 20.144C228.643 20.3573 228.728 20.6827 228.728 21.12C228.728 21.376 228.685 21.76 228.6 22.272C228.589 22.336 228.568 22.48 228.536 22.704C228.504 22.928 228.488 23.1413 228.488 23.344C228.488 23.6747 228.552 23.92 228.68 24.08C228.808 24.2293 229.027 24.304 229.336 24.304C229.613 24.304 229.907 24.2507 230.216 24.144C230.536 24.0267 230.84 23.8667 231.128 23.664C231.277 22.5653 231.352 21.6533 231.352 20.928L231.336 20H232.664C232.675 20.096 232.68 20.2347 232.68 20.416C232.68 20.6933 232.643 21.1627 232.568 21.824C232.504 22.4747 232.429 23.136 232.344 23.808C232.152 25.4293 232.056 26.3787 232.056 26.656C232.056 27.1253 232.2 27.36 232.488 27.36C232.691 27.36 232.899 27.2373 233.112 26.992C233.325 26.736 233.512 26.3467 233.672 25.824L234.104 25.92ZM243.092 19.824C243.668 19.824 244.185 19.9627 244.644 20.24C245.113 20.5173 245.476 20.9227 245.732 21.456C245.998 21.9787 246.132 22.6027 246.132 23.328C246.132 24.2027 245.972 25.008 245.652 25.744C245.342 26.48 244.889 27.072 244.292 27.52C243.705 27.9573 243.012 28.176 242.212 28.176C241.198 28.176 240.43 27.8453 239.908 27.184C239.396 26.512 239.14 25.648 239.14 24.592C239.14 23.7173 239.3 22.9173 239.62 22.192C239.94 21.4667 240.398 20.8907 240.996 20.464C241.593 20.0373 242.292 19.824 243.092 19.824ZM242.836 20.416C242.366 20.416 241.956 20.5867 241.604 20.928C241.262 21.2587 241.001 21.7173 240.82 22.304C240.638 22.88 240.548 23.5253 240.548 24.24C240.548 25.1253 240.692 25.904 240.98 26.576C241.268 27.2373 241.737 27.568 242.388 27.568C242.932 27.568 243.374 27.36 243.716 26.944C244.068 26.528 244.324 26.016 244.484 25.408C244.644 24.8 244.724 24.208 244.724 23.632C244.724 22.736 244.58 21.9787 244.292 21.36C244.014 20.7307 243.529 20.416 242.836 20.416ZM259.179 25.92C259.126 26.2187 259.009 26.544 258.827 26.896C258.657 27.248 258.417 27.552 258.107 27.808C257.809 28.0533 257.457 28.176 257.051 28.176C256.646 28.176 256.347 28.048 256.155 27.792C255.963 27.536 255.867 27.184 255.867 26.736C255.867 26.448 255.905 26.0693 255.979 25.6C256.054 25.12 256.166 24.4533 256.315 23.6C256.486 22.6507 256.619 21.8347 256.715 21.152H256.619C255.926 23.0933 255.377 24.544 254.971 25.504C254.566 26.4533 254.182 27.136 253.819 27.552C253.467 27.968 253.073 28.176 252.635 28.176C252.251 28.176 251.979 28.032 251.819 27.744C251.67 27.456 251.595 26.96 251.595 26.256C251.595 23.5573 251.654 21.856 251.771 21.152H251.643C251.078 23.136 250.641 24.5653 250.331 25.44C250.033 26.3147 249.686 26.9867 249.291 27.456C248.907 27.9253 248.422 28.16 247.835 28.16C247.537 28.16 247.286 28.0747 247.083 27.904C246.891 27.7333 246.795 27.5307 246.795 27.296C246.795 27.0933 246.865 26.9173 247.003 26.768C247.142 26.608 247.318 26.528 247.531 26.528C247.713 26.528 247.873 26.5867 248.011 26.704C248.15 26.8213 248.219 26.9707 248.219 27.152C248.219 27.2267 248.209 27.3067 248.187 27.392C248.561 27.4133 248.977 26.8907 249.435 25.824C249.894 24.7573 250.427 23.024 251.035 20.624L249.595 20.64L249.659 20H252.827C252.859 20.1707 252.875 20.352 252.875 20.544C252.875 21.024 252.865 21.7227 252.843 22.64L252.827 24.688C252.827 25.0613 252.838 25.632 252.859 26.4C252.881 26.784 252.902 27.0347 252.923 27.152C252.955 27.2693 253.019 27.328 253.115 27.328C253.329 27.328 253.702 26.736 254.235 25.552C254.779 24.368 255.483 22.5173 256.347 20H257.819C257.83 20.096 257.835 20.2347 257.835 20.416C257.835 20.8853 257.707 22.016 257.451 23.808C257.377 24.4053 257.302 24.9813 257.227 25.536C257.163 26.08 257.131 26.4533 257.131 26.656C257.131 27.1253 257.265 27.36 257.531 27.36C257.745 27.36 257.958 27.2373 258.171 26.992C258.395 26.736 258.582 26.3467 258.731 25.824L259.179 25.92ZM263.871 19.824C264.511 19.824 265.045 19.9733 265.471 20.272C265.898 20.5707 266.111 21.0347 266.111 21.664C266.111 22.4533 265.637 23.0667 264.687 23.504C263.738 23.9413 262.639 24.2293 261.391 24.368C261.391 25.3707 261.541 26.1227 261.839 26.624C262.138 27.1253 262.597 27.376 263.215 27.376C263.706 27.376 264.181 27.216 264.639 26.896C265.098 26.5653 265.498 26.08 265.839 25.44L266.367 25.744C265.919 26.5867 265.418 27.2053 264.863 27.6C264.309 27.984 263.669 28.176 262.943 28.176C261.962 28.176 261.221 27.872 260.719 27.264C260.229 26.6453 259.983 25.7973 259.983 24.72C259.983 23.856 260.127 23.056 260.415 22.32C260.714 21.5733 261.157 20.9707 261.743 20.512C262.33 20.0533 263.039 19.824 263.871 19.824ZM263.647 20.368C262.965 20.368 262.437 20.6987 262.063 21.36C261.69 22.0213 261.471 22.832 261.407 23.792C262.335 23.664 263.13 23.408 263.791 23.024C264.453 22.64 264.783 22.16 264.783 21.584C264.783 21.232 264.682 20.944 264.479 20.72C264.287 20.4853 264.01 20.368 263.647 20.368ZM273.24 19.824C273.944 19.824 274.478 20.1173 274.84 20.704C275.214 21.2907 275.4 22.032 275.4 22.928C275.4 23.9733 275.219 24.8907 274.856 25.68C274.494 26.4693 273.955 27.0827 273.24 27.52C272.536 27.9573 271.683 28.176 270.68 28.176C270.424 28.176 270.174 28.16 269.928 28.128L269.8 30.144C269.79 30.2187 269.784 30.336 269.784 30.496C269.763 30.912 269.726 31.2373 269.672 31.472L270.68 31.424V32.08H267.656V31.6C267.912 31.6 268.104 31.52 268.232 31.36C268.36 31.2 268.446 30.992 268.488 30.736C268.542 30.4907 268.584 30.1387 268.616 29.68C268.616 29.5413 268.622 29.4347 268.632 29.36C268.728 28.2293 268.872 26.6133 269.064 24.512C269.235 22.752 269.32 21.7387 269.32 21.472C269.32 21.1947 269.294 20.9867 269.24 20.848C269.187 20.6987 269.07 20.624 268.888 20.624C268.686 20.624 268.478 20.752 268.264 21.008C268.062 21.264 267.886 21.6533 267.736 22.176L267.272 22.08C267.326 21.7813 267.438 21.456 267.608 21.104C267.79 20.752 268.024 20.4533 268.312 20.208C268.611 19.952 268.958 19.824 269.352 19.824C270.163 19.824 270.568 20.384 270.568 21.504C270.568 21.9733 270.494 22.5813 270.344 23.328H270.392C270.798 21.984 271.235 21.0667 271.704 20.576C272.174 20.0747 272.686 19.824 273.24 19.824ZM272.904 20.576C272.531 20.576 272.158 20.8373 271.784 21.36C271.411 21.872 271.08 22.544 270.792 23.376C270.504 24.1973 270.291 25.0453 270.152 25.92C270.088 26.2933 270.03 26.8 269.976 27.44C270.36 27.568 270.686 27.632 270.952 27.632C271.656 27.632 272.238 27.4133 272.696 26.976C273.166 26.528 273.502 25.968 273.704 25.296C273.918 24.6133 274.024 23.92 274.024 23.216C274.024 22.3947 273.939 21.7493 273.768 21.28C273.598 20.8107 273.31 20.576 272.904 20.576ZM286.733 19.824C287.33 19.824 287.757 20.016 288.013 20.4C288.28 20.784 288.413 21.2853 288.413 21.904C288.413 22.352 288.386 22.8053 288.333 23.264C288.28 23.712 288.2 24.2827 288.093 24.976C287.954 25.8293 287.885 26.384 287.885 26.64C287.885 26.8747 287.912 27.056 287.965 27.184C288.029 27.312 288.146 27.376 288.317 27.376C288.52 27.376 288.728 27.2533 288.941 27.008C289.165 26.752 289.352 26.3573 289.501 25.824L289.949 25.936C289.896 26.2347 289.778 26.56 289.597 26.912C289.426 27.2533 289.192 27.552 288.893 27.808C288.594 28.0533 288.248 28.176 287.853 28.176C287.373 28.176 287.037 28.0533 286.845 27.808C286.664 27.552 286.573 27.1627 286.573 26.64C286.573 26.2027 286.658 25.4987 286.829 24.528C286.84 24.432 286.877 24.1707 286.941 23.744C287.005 23.3067 287.053 22.9067 287.085 22.544C287.128 22.1707 287.149 21.84 287.149 21.552C287.149 21.3067 287.09 21.0827 286.973 20.88C286.856 20.6773 286.658 20.576 286.381 20.576C285.901 20.576 285.432 20.928 284.973 21.632C284.525 22.336 284.157 23.2053 283.869 24.24C283.592 25.2747 283.453 26.2453 283.453 27.152C283.453 27.3547 283.464 27.6373 283.485 28H282.141C282.13 27.904 282.125 27.7653 282.125 27.584C282.125 27.232 282.157 26.7627 282.221 26.176C282.285 25.5893 282.354 25.008 282.429 24.432C282.61 23.0453 282.701 22.1013 282.701 21.6C282.701 20.9173 282.445 20.576 281.933 20.576C281.464 20.576 281 20.928 280.541 21.632C280.093 22.336 279.725 23.2107 279.437 24.256C279.149 25.2907 279.005 26.256 279.005 27.152C279.005 27.3547 279.016 27.6373 279.037 28H277.693C277.682 27.904 277.677 27.7653 277.677 27.584C277.677 27.3173 277.698 26.9333 277.741 26.432C277.794 25.92 277.874 25.2373 277.981 24.384L278.173 22.72C278.216 22.3467 278.248 22.064 278.269 21.872C278.29 21.6693 278.301 21.4933 278.301 21.344C278.301 21.12 278.269 20.944 278.205 20.816C278.152 20.688 278.04 20.624 277.869 20.624C277.666 20.624 277.458 20.752 277.245 21.008C277.032 21.264 276.85 21.6533 276.701 22.176L276.253 22.08C276.306 21.7813 276.418 21.456 276.589 21.104C276.77 20.752 277.005 20.4533 277.293 20.208C277.592 19.952 277.938 19.824 278.333 19.824C279.133 19.824 279.533 20.3573 279.533 21.424C279.533 21.7227 279.501 22.0533 279.437 22.416C279.384 22.7787 279.33 23.104 279.277 23.392H279.325C279.784 22.0587 280.258 21.1307 280.749 20.608C281.24 20.0853 281.741 19.824 282.253 19.824C282.84 19.824 283.272 20.0107 283.549 20.384C283.826 20.7573 283.965 21.1787 283.965 21.648C283.965 21.9253 283.949 22.16 283.917 22.352C283.885 22.5333 283.81 22.864 283.693 23.344H283.741C284.221 22.0107 284.712 21.0933 285.213 20.592C285.714 20.08 286.221 19.824 286.733 19.824ZM294.925 23.552C295.629 23.5093 296.141 23.664 296.461 24.016C296.791 24.368 296.957 24.8107 296.957 25.344C296.957 25.8667 296.813 26.3467 296.525 26.784C296.247 27.2107 295.858 27.552 295.357 27.808C294.855 28.0533 294.295 28.176 293.677 28.176C292.717 28.176 291.991 27.872 291.501 27.264C291.01 26.6453 290.765 25.7973 290.765 24.72C290.765 23.8667 290.909 23.0667 291.197 22.32C291.485 21.5733 291.906 20.9707 292.461 20.512C293.026 20.0533 293.698 19.824 294.477 19.824C295.063 19.824 295.559 19.9573 295.965 20.224C296.37 20.48 296.573 20.8693 296.573 21.392C296.573 21.7973 296.434 22.192 296.157 22.576C295.89 22.9493 295.479 23.2747 294.925 23.552ZM294.317 20.368C293.719 20.368 293.229 20.7147 292.845 21.408C292.461 22.1013 292.237 22.9653 292.173 24C293.282 23.744 294.061 23.424 294.509 23.04C294.957 22.6453 295.181 22.1333 295.181 21.504C295.181 20.7467 294.893 20.368 294.317 20.368ZM294.045 27.568C294.525 27.568 294.903 27.4027 295.181 27.072C295.458 26.7413 295.597 26.2987 295.597 25.744C295.597 25.264 295.479 24.8747 295.245 24.576C295.021 24.2773 294.69 24.128 294.253 24.128C294.061 24.128 293.853 24.16 293.629 24.224L292.157 24.608C292.189 25.536 292.354 26.2613 292.653 26.784C292.962 27.3067 293.426 27.568 294.045 27.568ZM302.121 19.824C302.761 19.824 303.295 19.9733 303.721 20.272C304.148 20.5707 304.361 21.0347 304.361 21.664C304.361 22.4533 303.887 23.0667 302.937 23.504C301.988 23.9413 300.889 24.2293 299.641 24.368C299.641 25.3707 299.791 26.1227 300.089 26.624C300.388 27.1253 300.847 27.376 301.465 27.376C301.956 27.376 302.431 27.216 302.889 26.896C303.348 26.5653 303.748 26.08 304.089 25.44L304.617 25.744C304.169 26.5867 303.668 27.2053 303.113 27.6C302.559 27.984 301.919 28.176 301.193 28.176C300.212 28.176 299.471 27.872 298.969 27.264C298.479 26.6453 298.233 25.7973 298.233 24.72C298.233 23.856 298.377 23.056 298.665 22.32C298.964 21.5733 299.407 20.9707 299.993 20.512C300.58 20.0533 301.289 19.824 302.121 19.824ZM301.897 20.368C301.215 20.368 300.687 20.6987 300.313 21.36C299.94 22.0213 299.721 22.832 299.657 23.792C300.585 23.664 301.38 23.408 302.041 23.024C302.703 22.64 303.033 22.16 303.033 21.584C303.033 21.232 302.932 20.944 302.729 20.72C302.537 20.4853 302.26 20.368 301.897 20.368ZM310.018 23.552C310.722 23.5093 311.234 23.664 311.554 24.016C311.885 24.368 312.05 24.8107 312.05 25.344C312.05 25.8667 311.906 26.3467 311.618 26.784C311.341 27.2107 310.952 27.552 310.45 27.808C309.949 28.0533 309.389 28.176 308.77 28.176C307.81 28.176 307.085 27.872 306.594 27.264C306.104 26.6453 305.858 25.7973 305.858 24.72C305.858 23.8667 306.002 23.0667 306.29 22.32C306.578 21.5733 307 20.9707 307.554 20.512C308.12 20.0533 308.792 19.824 309.57 19.824C310.157 19.824 310.653 19.9573 311.058 20.224C311.464 20.48 311.666 20.8693 311.666 21.392C311.666 21.7973 311.528 22.192 311.25 22.576C310.984 22.9493 310.573 23.2747 310.018 23.552ZM309.41 20.368C308.813 20.368 308.322 20.7147 307.938 21.408C307.554 22.1013 307.33 22.9653 307.266 24C308.376 23.744 309.154 23.424 309.602 23.04C310.05 22.6453 310.274 22.1333 310.274 21.504C310.274 20.7467 309.986 20.368 309.41 20.368ZM309.138 27.568C309.618 27.568 309.997 27.4027 310.274 27.072C310.552 26.7413 310.69 26.2987 310.69 25.744C310.69 25.264 310.573 24.8747 310.338 24.576C310.114 24.2773 309.784 24.128 309.346 24.128C309.154 24.128 308.946 24.16 308.722 24.224L307.25 24.608C307.282 25.536 307.448 26.2613 307.746 26.784C308.056 27.3067 308.52 27.568 309.138 27.568ZM316.111 28.176C315.514 28.176 315.082 27.984 314.815 27.6C314.559 27.216 314.431 26.7147 314.431 26.096C314.431 25.648 314.458 25.2 314.511 24.752C314.564 24.2933 314.644 23.7173 314.751 23.024C314.89 22.1707 314.959 21.616 314.959 21.36C314.959 21.1253 314.927 20.944 314.863 20.816C314.81 20.688 314.698 20.624 314.527 20.624C314.324 20.624 314.111 20.752 313.887 21.008C313.674 21.2533 313.492 21.6427 313.343 22.176L312.895 22.064C312.948 21.7653 313.06 21.4453 313.231 21.104C313.412 20.752 313.652 20.4533 313.951 20.208C314.25 19.952 314.596 19.824 314.991 19.824C315.471 19.824 315.802 19.952 315.983 20.208C316.175 20.4533 316.271 20.8373 316.271 21.36C316.271 21.7973 316.186 22.5013 316.015 23.472C316.004 23.568 315.967 23.8347 315.903 24.272C315.839 24.6987 315.786 25.0987 315.743 25.472C315.711 25.8347 315.695 26.16 315.695 26.448C315.695 26.6933 315.754 26.9173 315.871 27.12C315.988 27.3227 316.186 27.424 316.463 27.424C316.943 27.424 317.407 27.072 317.855 26.368C318.314 25.664 318.682 24.7947 318.959 23.76C319.247 22.7253 319.391 21.7547 319.391 20.848C319.391 20.6453 319.38 20.3627 319.359 20H320.703C320.714 20.096 320.719 20.2347 320.719 20.416C320.719 20.768 320.687 21.2373 320.623 21.824C320.559 22.4107 320.49 22.992 320.415 23.568C320.234 24.9547 320.143 25.8987 320.143 26.4C320.143 27.0827 320.399 27.424 320.911 27.424C321.38 27.424 321.839 27.072 322.287 26.368C322.746 25.664 323.119 24.7947 323.407 23.76C323.695 22.7147 323.839 21.744 323.839 20.848C323.839 20.6453 323.828 20.3627 323.807 20H325.151C325.162 20.096 325.167 20.2347 325.167 20.416C325.167 20.6827 325.14 21.072 325.087 21.584C325.044 22.0853 324.97 22.7627 324.863 23.616L324.671 25.28C324.628 25.6533 324.596 25.9413 324.575 26.144C324.554 26.336 324.543 26.5067 324.543 26.656C324.543 26.88 324.57 27.056 324.623 27.184C324.687 27.312 324.804 27.376 324.975 27.376C325.178 27.376 325.386 27.248 325.599 26.992C325.812 26.736 325.994 26.3467 326.143 25.824L326.591 25.92C326.538 26.2187 326.42 26.544 326.239 26.896C326.068 27.248 325.834 27.552 325.535 27.808C325.247 28.0533 324.906 28.176 324.511 28.176C323.711 28.176 323.311 27.6427 323.311 26.576C323.311 26.2773 323.338 25.9467 323.391 25.584C323.455 25.2213 323.514 24.896 323.567 24.608H323.519C323.06 25.9413 322.586 26.8693 322.095 27.392C321.604 27.9147 321.103 28.176 320.591 28.176C320.004 28.176 319.572 27.9893 319.295 27.616C319.018 27.2427 318.879 26.8213 318.879 26.352C318.879 26.0747 318.895 25.8453 318.927 25.664C318.959 25.472 319.034 25.136 319.151 24.656H319.103C318.623 25.9893 318.132 26.912 317.631 27.424C317.13 27.9253 316.623 28.176 316.111 28.176ZM328.847 19.824C329.273 19.824 329.593 19.9573 329.807 20.224C330.031 20.4907 330.143 20.8747 330.143 21.376C330.143 21.76 330.057 22.56 329.887 23.776C329.876 23.872 329.828 24.2347 329.743 24.864C329.657 25.4827 329.615 26 329.615 26.416C329.615 26.672 329.668 26.9067 329.775 27.12C329.892 27.3227 330.089 27.424 330.367 27.424C330.836 27.424 331.305 27.072 331.775 26.368C332.244 25.6533 332.628 24.7787 332.927 23.744C333.236 22.7093 333.391 21.744 333.391 20.848C333.391 20.6453 333.38 20.3627 333.359 20H334.703C334.713 20.096 334.719 20.2347 334.719 20.416C334.719 20.672 334.692 21.0667 334.639 21.6C334.585 22.1333 334.505 22.8267 334.399 23.68L334.239 25.008C334.228 25.1467 334.201 25.4027 334.159 25.776C334.116 26.1493 334.095 26.4427 334.095 26.656C334.095 27.1253 334.239 27.36 334.527 27.36C334.729 27.36 334.937 27.2373 335.151 26.992C335.364 26.736 335.545 26.3467 335.695 25.824L336.143 25.92C336.089 26.2187 335.972 26.544 335.791 26.896C335.62 27.248 335.385 27.552 335.087 27.808C334.799 28.0533 334.457 28.176 334.063 28.176C333.647 28.176 333.337 28.048 333.135 27.792C332.932 27.536 332.831 27.184 332.831 26.736C332.831 26.2667 332.927 25.552 333.119 24.592H333.071C332.559 25.968 332.068 26.912 331.599 27.424C331.129 27.9253 330.612 28.176 330.047 28.176C329.449 28.176 329.007 27.984 328.719 27.6C328.441 27.2053 328.303 26.704 328.303 26.096C328.303 25.6373 328.329 25.1733 328.383 24.704C328.436 24.2347 328.516 23.6693 328.623 23.008C328.644 22.8907 328.681 22.6453 328.735 22.272C328.788 21.888 328.815 21.5893 328.815 21.376C328.815 21.1307 328.783 20.944 328.719 20.816C328.665 20.688 328.553 20.624 328.383 20.624C328.191 20.624 327.993 20.752 327.791 21.008C327.588 21.2533 327.412 21.6427 327.263 22.176L326.815 22.08C326.911 21.5573 327.129 21.0507 327.471 20.56C327.823 20.0693 328.281 19.824 328.847 19.824ZM343.579 19.824C343.856 19.824 344.07 19.8987 344.219 20.048C344.368 20.1867 344.443 20.3733 344.443 20.608C344.443 20.7893 344.379 20.9493 344.251 21.088C344.123 21.2267 343.968 21.296 343.787 21.296C343.584 21.296 343.435 21.2533 343.339 21.168C343.254 21.0827 343.158 20.9653 343.051 20.816C342.464 20.9013 341.792 21.8827 341.035 23.76L341.147 24.048C341.584 25.1787 341.947 25.9893 342.235 26.48C342.523 26.96 342.795 27.2 343.051 27.2C343.435 27.2 343.707 26.7787 343.867 25.936L344.315 26C344.123 27.4507 343.59 28.176 342.715 28.176C342.352 28.176 342.059 28.096 341.835 27.936C341.611 27.7653 341.382 27.456 341.147 27.008C340.923 26.5493 340.608 25.8027 340.203 24.768H340.187C339.856 25.7493 339.531 26.4907 339.211 26.992C338.891 27.4827 338.592 27.8027 338.315 27.952C338.048 28.1013 337.755 28.176 337.435 28.176C337.136 28.176 336.896 28.1013 336.715 27.952C336.534 27.8027 336.443 27.6053 336.443 27.36C336.443 27.1467 336.507 26.9707 336.635 26.832C336.763 26.6933 336.918 26.624 337.099 26.624C337.472 26.624 337.675 26.8427 337.707 27.28C338.358 27.4187 339.083 26.3147 339.883 23.968C339.67 23.392 339.531 23.008 339.467 22.816C339.168 22.0053 338.944 21.4667 338.795 21.2C338.656 20.9333 338.48 20.8 338.267 20.8C337.776 20.8 337.504 21.3227 337.451 22.368L336.987 22.384C336.987 21.7653 337.11 21.184 337.355 20.64C337.611 20.096 338.054 19.824 338.683 19.824C339.003 19.824 339.259 19.9093 339.451 20.08C339.654 20.2507 339.819 20.4853 339.947 20.784C340.075 21.072 340.246 21.5253 340.459 22.144C340.523 22.368 340.619 22.6453 340.747 22.976H340.763C341.254 21.7493 341.739 20.9173 342.219 20.48C342.71 20.0427 343.163 19.824 343.579 19.824ZM357.941 26.368C357.834 26.88 357.632 27.312 357.333 27.664C357.034 28.0053 356.634 28.176 356.133 28.176C355.738 28.176 355.434 28.0267 355.221 27.728C355.018 27.4293 354.885 26.88 354.821 26.08C354.757 25.3333 354.634 24.816 354.453 24.528C354.272 24.24 353.989 24.096 353.605 24.096L352.277 24.112C352.096 25.52 352.016 26.5227 352.037 27.12C352.037 27.28 352.048 27.5733 352.069 28H350.741L350.725 27.808L350.741 27.584C350.741 26.9973 350.842 25.904 351.045 24.304C351.141 23.4827 351.226 22.8427 351.301 22.384C351.365 21.8613 351.397 21.504 351.397 21.312C351.397 21.0987 351.37 20.9333 351.317 20.816C351.264 20.688 351.152 20.624 350.981 20.624C350.778 20.624 350.565 20.752 350.341 21.008C350.128 21.264 349.941 21.6533 349.781 22.176L349.333 22.08C349.397 21.7813 349.52 21.456 349.701 21.104C349.882 20.752 350.122 20.4533 350.421 20.208C350.72 19.952 351.066 19.824 351.461 19.824C351.877 19.824 352.17 19.9413 352.341 20.176C352.522 20.4107 352.613 20.768 352.613 21.248C352.613 21.5147 352.576 21.92 352.501 22.464L352.341 23.648H352.853C353.322 23.648 353.69 23.52 353.957 23.264C354.234 23.008 354.496 22.56 354.741 21.92C355.018 21.152 355.312 20.6133 355.621 20.304C355.941 19.984 356.346 19.824 356.837 19.824C357.114 19.824 357.333 19.904 357.493 20.064C357.653 20.224 357.733 20.4373 357.733 20.704C357.733 20.928 357.664 21.12 357.525 21.28C357.397 21.44 357.216 21.52 356.981 21.52C356.714 21.52 356.506 21.4613 356.357 21.344C356.208 21.2267 356.122 21.0613 356.101 20.848C355.952 20.944 355.818 21.088 355.701 21.28C355.584 21.472 355.45 21.776 355.301 22.192C355.162 22.576 354.992 22.9067 354.789 23.184C354.586 23.4613 354.362 23.664 354.117 23.792C355.269 23.824 355.909 24.4533 356.037 25.68C356.101 26.3093 356.176 26.736 356.261 26.96C356.357 27.1733 356.528 27.28 356.773 27.28C356.933 27.28 357.072 27.2053 357.189 27.056C357.306 26.896 357.408 26.64 357.493 26.288L357.941 26.368ZM367.449 25.92C367.395 26.2187 367.283 26.544 367.113 26.896C366.942 27.2373 366.707 27.536 366.409 27.792C366.11 28.048 365.763 28.176 365.369 28.176C364.953 28.176 364.643 28.048 364.441 27.792C364.238 27.536 364.137 27.184 364.137 26.736C364.137 26.3413 364.211 25.6213 364.361 24.576C364.585 22.9227 364.697 21.7067 364.697 20.928V20.608L363.609 20.624H364.025C363.758 20.624 363.587 20.7947 363.513 21.136C363.086 23.28 362.537 24.9867 361.865 26.256C361.193 27.5253 360.334 28.16 359.289 28.16C358.99 28.16 358.739 28.0747 358.537 27.904C358.345 27.7333 358.248 27.5307 358.248 27.296C358.248 27.0933 358.318 26.9173 358.457 26.768C358.595 26.608 358.771 26.528 358.985 26.528C359.166 26.528 359.326 26.5867 359.465 26.704C359.603 26.8213 359.673 26.9707 359.673 27.152C359.673 27.2267 359.662 27.3067 359.641 27.392C360.089 27.4453 360.521 27.1413 360.937 26.48C361.363 25.808 361.731 24.944 362.041 23.888C362.361 22.8213 362.601 21.7333 362.761 20.624L361.289 20.64L361.337 20H366.009C366.019 20.096 366.025 20.2347 366.025 20.416C366.025 20.6933 365.987 21.1627 365.913 21.824C365.849 22.4747 365.774 23.136 365.689 23.808C365.497 25.4293 365.401 26.3787 365.401 26.656C365.401 27.1253 365.545 27.36 365.833 27.36C366.035 27.36 366.243 27.2373 366.457 26.992C366.67 26.736 366.851 26.3467 367.001 25.824L367.449 25.92ZM363.465 21.28V21.328V21.28ZM372.137 19.824C372.777 19.824 373.31 19.9733 373.737 20.272C374.164 20.5707 374.377 21.0347 374.377 21.664C374.377 22.4533 373.902 23.0667 372.953 23.504C372.004 23.9413 370.905 24.2293 369.657 24.368C369.657 25.3707 369.806 26.1227 370.105 26.624C370.404 27.1253 370.862 27.376 371.481 27.376C371.972 27.376 372.446 27.216 372.905 26.896C373.364 26.5653 373.764 26.08 374.105 25.44L374.633 25.744C374.185 26.5867 373.684 27.2053 373.129 27.6C372.574 27.984 371.934 28.176 371.209 28.176C370.228 28.176 369.486 27.872 368.985 27.264C368.494 26.6453 368.249 25.7973 368.249 24.72C368.249 23.856 368.393 23.056 368.681 22.32C368.98 21.5733 369.422 20.9707 370.009 20.512C370.596 20.0533 371.305 19.824 372.137 19.824ZM371.913 20.368C371.23 20.368 370.702 20.6987 370.329 21.36C369.956 22.0213 369.737 22.832 369.673 23.792C370.601 23.664 371.396 23.408 372.057 23.024C372.718 22.64 373.049 22.16 373.049 21.584C373.049 21.232 372.948 20.944 372.745 20.72C372.553 20.4853 372.276 20.368 371.913 20.368ZM385.858 19.824C386.455 19.824 386.882 20.016 387.138 20.4C387.405 20.784 387.538 21.2853 387.538 21.904C387.538 22.352 387.511 22.8053 387.458 23.264C387.405 23.712 387.325 24.2827 387.218 24.976C387.079 25.8293 387.01 26.384 387.01 26.64C387.01 26.8747 387.037 27.056 387.09 27.184C387.154 27.312 387.271 27.376 387.442 27.376C387.645 27.376 387.853 27.2533 388.066 27.008C388.29 26.752 388.477 26.3573 388.626 25.824L389.074 25.936C389.021 26.2347 388.903 26.56 388.722 26.912C388.551 27.2533 388.317 27.552 388.018 27.808C387.719 28.0533 387.373 28.176 386.978 28.176C386.498 28.176 386.162 28.0533 385.97 27.808C385.789 27.552 385.698 27.1627 385.698 26.64C385.698 26.2027 385.783 25.4987 385.954 24.528C385.965 24.432 386.002 24.1707 386.066 23.744C386.13 23.3067 386.178 22.9067 386.21 22.544C386.253 22.1707 386.274 21.84 386.274 21.552C386.274 21.3067 386.215 21.0827 386.098 20.88C385.981 20.6773 385.783 20.576 385.506 20.576C385.026 20.576 384.557 20.928 384.098 21.632C383.65 22.336 383.282 23.2053 382.994 24.24C382.717 25.2747 382.578 26.2453 382.578 27.152C382.578 27.3547 382.589 27.6373 382.61 28H381.266C381.255 27.904 381.25 27.7653 381.25 27.584C381.25 27.232 381.282 26.7627 381.346 26.176C381.41 25.5893 381.479 25.008 381.554 24.432C381.735 23.0453 381.826 22.1013 381.826 21.6C381.826 20.9173 381.57 20.576 381.058 20.576C380.589 20.576 380.125 20.928 379.666 21.632C379.218 22.336 378.85 23.2107 378.562 24.256C378.274 25.2907 378.13 26.256 378.13 27.152C378.13 27.3547 378.141 27.6373 378.162 28H376.818C376.807 27.904 376.802 27.7653 376.802 27.584C376.802 27.3173 376.823 26.9333 376.866 26.432C376.919 25.92 376.999 25.2373 377.106 24.384L377.298 22.72C377.341 22.3467 377.373 22.064 377.394 21.872C377.415 21.6693 377.426 21.4933 377.426 21.344C377.426 21.12 377.394 20.944 377.33 20.816C377.277 20.688 377.165 20.624 376.994 20.624C376.791 20.624 376.583 20.752 376.37 21.008C376.157 21.264 375.975 21.6533 375.826 22.176L375.378 22.08C375.431 21.7813 375.543 21.456 375.714 21.104C375.895 20.752 376.13 20.4533 376.418 20.208C376.717 19.952 377.063 19.824 377.458 19.824C378.258 19.824 378.658 20.3573 378.658 21.424C378.658 21.7227 378.626 22.0533 378.562 22.416C378.509 22.7787 378.455 23.104 378.402 23.392H378.45C378.909 22.0587 379.383 21.1307 379.874 20.608C380.365 20.0853 380.866 19.824 381.378 19.824C381.965 19.824 382.397 20.0107 382.674 20.384C382.951 20.7573 383.09 21.1787 383.09 21.648C383.09 21.9253 383.074 22.16 383.042 22.352C383.01 22.5333 382.935 22.864 382.818 23.344H382.866C383.346 22.0107 383.837 21.0933 384.338 20.592C384.839 20.08 385.346 19.824 385.858 19.824ZM393.842 19.824C394.418 19.824 394.935 19.9627 395.394 20.24C395.863 20.5173 396.226 20.9227 396.482 21.456C396.748 21.9787 396.882 22.6027 396.882 23.328C396.882 24.2027 396.722 25.008 396.402 25.744C396.092 26.48 395.639 27.072 395.042 27.52C394.455 27.9573 393.762 28.176 392.962 28.176C391.948 28.176 391.18 27.8453 390.658 27.184C390.146 26.512 389.89 25.648 389.89 24.592C389.89 23.7173 390.05 22.9173 390.37 22.192C390.69 21.4667 391.148 20.8907 391.746 20.464C392.343 20.0373 393.042 19.824 393.842 19.824ZM393.586 20.416C393.116 20.416 392.706 20.5867 392.354 20.928C392.012 21.2587 391.751 21.7173 391.57 22.304C391.388 22.88 391.298 23.5253 391.298 24.24C391.298 25.1253 391.442 25.904 391.73 26.576C392.018 27.2373 392.487 27.568 393.138 27.568C393.682 27.568 394.124 27.36 394.466 26.944C394.818 26.528 395.074 26.016 395.234 25.408C395.394 24.8 395.474 24.208 395.474 23.632C395.474 22.736 395.33 21.9787 395.042 21.36C394.764 20.7307 394.279 20.416 393.586 20.416ZM406.425 26.368C406.319 26.88 406.116 27.312 405.817 27.664C405.519 28.0053 405.119 28.176 404.617 28.176C404.223 28.176 403.919 28.0267 403.705 27.728C403.503 27.4293 403.369 26.88 403.305 26.08C403.241 25.3333 403.119 24.816 402.937 24.528C402.756 24.24 402.473 24.096 402.089 24.096L400.761 24.112C400.58 25.52 400.5 26.5227 400.521 27.12C400.521 27.28 400.532 27.5733 400.553 28H399.225L399.209 27.808L399.225 27.584C399.225 26.9973 399.327 25.904 399.529 24.304C399.625 23.4827 399.711 22.8427 399.785 22.384C399.849 21.8613 399.881 21.504 399.881 21.312C399.881 21.0987 399.855 20.9333 399.801 20.816C399.748 20.688 399.636 20.624 399.465 20.624C399.263 20.624 399.049 20.752 398.825 21.008C398.612 21.264 398.425 21.6533 398.265 22.176L397.817 22.08C397.881 21.7813 398.004 21.456 398.185 21.104C398.367 20.752 398.607 20.4533 398.905 20.208C399.204 19.952 399.551 19.824 399.945 19.824C400.361 19.824 400.655 19.9413 400.825 20.176C401.007 20.4107 401.097 20.768 401.097 21.248C401.097 21.5147 401.06 21.92 400.985 22.464L400.825 23.648H401.337C401.807 23.648 402.175 23.52 402.441 23.264C402.719 23.008 402.98 22.56 403.225 21.92C403.503 21.152 403.796 20.6133 404.105 20.304C404.425 19.984 404.831 19.824 405.321 19.824C405.599 19.824 405.817 19.904 405.977 20.064C406.137 20.224 406.217 20.4373 406.217 20.704C406.217 20.928 406.148 21.12 406.009 21.28C405.881 21.44 405.7 21.52 405.465 21.52C405.199 21.52 404.991 21.4613 404.841 21.344C404.692 21.2267 404.607 21.0613 404.585 20.848C404.436 20.944 404.303 21.088 404.185 21.28C404.068 21.472 403.935 21.776 403.785 22.192C403.647 22.576 403.476 22.9067 403.273 23.184C403.071 23.4613 402.847 23.664 402.601 23.792C403.753 23.824 404.393 24.4533 404.521 25.68C404.585 26.3093 404.66 26.736 404.745 26.96C404.841 27.1733 405.012 27.28 405.257 27.28C405.417 27.28 405.556 27.2053 405.673 27.056C405.791 26.896 405.892 26.64 405.977 26.288L406.425 26.368ZM191.816 46.368C191.709 46.88 191.507 47.312 191.208 47.664C190.909 48.0053 190.509 48.176 190.008 48.176C189.613 48.176 189.309 48.0267 189.096 47.728C188.893 47.4293 188.76 46.88 188.696 46.08C188.632 45.3333 188.509 44.816 188.328 44.528C188.147 44.24 187.864 44.096 187.48 44.096L186.152 44.112C185.971 45.52 185.891 46.5227 185.912 47.12C185.912 47.28 185.923 47.5733 185.944 48H184.616L184.6 47.808L184.616 47.584C184.616 46.9973 184.717 45.904 184.92 44.304C185.016 43.4827 185.101 42.8427 185.176 42.384C185.24 41.8613 185.272 41.504 185.272 41.312C185.272 41.0987 185.245 40.9333 185.192 40.816C185.139 40.688 185.027 40.624 184.856 40.624C184.653 40.624 184.44 40.752 184.216 41.008C184.003 41.264 183.816 41.6533 183.656 42.176L183.208 42.08C183.272 41.7813 183.395 41.456 183.576 41.104C183.757 40.752 183.997 40.4533 184.296 40.208C184.595 39.952 184.941 39.824 185.336 39.824C185.752 39.824 186.045 39.9413 186.216 40.176C186.397 40.4107 186.488 40.768 186.488 41.248C186.488 41.5147 186.451 41.92 186.376 42.464L186.216 43.648H186.728C187.197 43.648 187.565 43.52 187.832 43.264C188.109 43.008 188.371 42.56 188.616 41.92C188.893 41.152 189.187 40.6133 189.496 40.304C189.816 39.984 190.221 39.824 190.712 39.824C190.989 39.824 191.208 39.904 191.368 40.064C191.528 40.224 191.608 40.4373 191.608 40.704C191.608 40.928 191.539 41.12 191.4 41.28C191.272 41.44 191.091 41.52 190.856 41.52C190.589 41.52 190.381 41.4613 190.232 41.344C190.083 41.2267 189.997 41.0613 189.976 40.848C189.827 40.944 189.693 41.088 189.576 41.28C189.459 41.472 189.325 41.776 189.176 42.192C189.037 42.576 188.867 42.9067 188.664 43.184C188.461 43.4613 188.237 43.664 187.992 43.792C189.144 43.824 189.784 44.4533 189.912 45.68C189.976 46.3093 190.051 46.736 190.136 46.96C190.232 47.1733 190.403 47.28 190.648 47.28C190.808 47.28 190.947 47.2053 191.064 47.056C191.181 46.896 191.283 46.64 191.368 46.288L191.816 46.368ZM196.764 39.824C197.34 39.824 197.857 39.9627 198.316 40.24C198.785 40.5173 199.148 40.9227 199.404 41.456C199.67 41.9787 199.804 42.6027 199.804 43.328C199.804 44.2027 199.644 45.008 199.324 45.744C199.014 46.48 198.561 47.072 197.964 47.52C197.377 47.9573 196.684 48.176 195.884 48.176C194.87 48.176 194.102 47.8453 193.58 47.184C193.068 46.512 192.812 45.648 192.812 44.592C192.812 43.7173 192.972 42.9173 193.292 42.192C193.612 41.4667 194.07 40.8907 194.668 40.464C195.265 40.0373 195.964 39.824 196.764 39.824ZM196.508 40.416C196.038 40.416 195.628 40.5867 195.276 40.928C194.934 41.2587 194.673 41.7173 194.492 42.304C194.31 42.88 194.22 43.5253 194.22 44.24C194.22 45.1253 194.364 45.904 194.652 46.576C194.94 47.2373 195.409 47.568 196.06 47.568C196.604 47.568 197.046 47.36 197.388 46.944C197.74 46.528 197.996 46.016 198.156 45.408C198.316 44.8 198.396 44.208 198.396 43.632C198.396 42.736 198.252 41.9787 197.964 41.36C197.686 40.7307 197.201 40.416 196.508 40.416ZM213.507 45.648C213.134 46.576 212.761 47.232 212.387 47.616C212.025 47.9893 211.593 48.176 211.091 48.176C210.377 48.176 209.827 47.872 209.443 47.264C209.07 46.656 208.894 45.792 208.915 44.672C208.915 44.544 208.926 44.352 208.947 44.096H207.875C207.726 45.4507 207.657 46.4587 207.667 47.12C207.667 47.3867 207.683 47.68 207.715 48H206.387C206.377 47.904 206.371 47.7653 206.371 47.584C206.371 46.9333 206.457 45.84 206.627 44.304L206.643 44.112H205.571C205.422 45.296 205.081 46.272 204.547 47.04C204.025 47.7973 203.374 48.176 202.595 48.176C202.307 48.176 202.03 48.096 201.763 47.936C201.497 47.776 201.283 47.5627 201.123 47.296C200.963 47.0187 200.883 46.7147 200.883 46.384C200.883 46.1067 200.953 45.888 201.091 45.728C201.23 45.568 201.406 45.488 201.619 45.488C201.833 45.488 201.993 45.552 202.099 45.68C202.217 45.7973 202.27 45.9413 202.259 46.112C202.259 46.368 202.163 46.5867 201.971 46.768C202.014 47.056 202.094 47.264 202.211 47.392C202.329 47.5093 202.494 47.568 202.707 47.568C203.198 47.568 203.587 47.1733 203.875 46.384C204.174 45.584 204.35 44.688 204.403 43.696C204.414 43.5573 204.419 43.3547 204.419 43.088C204.419 42.2347 204.323 41.6107 204.131 41.216C203.939 40.8107 203.683 40.608 203.363 40.608C203.043 40.608 202.755 40.736 202.499 40.992C202.254 41.248 202.003 41.7013 201.747 42.352L201.267 42.08C201.651 41.216 202.025 40.624 202.387 40.304C202.75 39.984 203.171 39.824 203.651 39.824C204.067 39.824 204.43 39.9627 204.739 40.24C205.049 40.5067 205.283 40.9067 205.443 41.44C205.603 41.9627 205.667 42.592 205.635 43.328L205.619 43.648H206.707C206.793 42.9547 206.851 42.4 206.883 41.984C206.926 41.568 206.942 41.136 206.931 40.688C206.931 40.432 206.915 40.144 206.883 39.824H208.179C208.19 39.92 208.195 40.0587 208.195 40.24C208.195 40.5813 208.169 41.0133 208.115 41.536C208.073 42.0587 208.025 42.5867 207.971 43.12L207.923 43.648H208.979C209.118 42.5173 209.427 41.6 209.907 40.896C210.387 40.1813 210.995 39.824 211.731 39.824C212.254 39.824 212.675 39.9947 212.995 40.336C213.326 40.6773 213.491 41.1093 213.491 41.632C213.491 41.9093 213.422 42.128 213.283 42.288C213.155 42.4373 212.99 42.512 212.787 42.512C212.574 42.512 212.414 42.4533 212.307 42.336C212.201 42.208 212.147 42.0587 212.147 41.888C212.147 41.6107 212.227 41.392 212.387 41.232C212.387 40.9867 212.329 40.7893 212.211 40.64C212.105 40.4907 211.939 40.416 211.715 40.416C211.374 40.416 211.081 40.6293 210.835 41.056C210.601 41.472 210.425 42 210.307 42.64C210.201 43.2693 210.147 43.8933 210.147 44.512C210.147 45.5573 210.249 46.3307 210.451 46.832C210.665 47.3227 210.942 47.568 211.283 47.568C211.614 47.568 211.907 47.3973 212.163 47.056C212.419 46.7147 212.686 46.1547 212.963 45.376L213.507 45.648ZM216.206 39.824C216.633 39.824 216.953 39.9573 217.166 40.224C217.39 40.4907 217.502 40.8747 217.502 41.376C217.502 41.76 217.417 42.56 217.246 43.776C217.235 43.872 217.187 44.2347 217.102 44.864C217.017 45.4827 216.974 46 216.974 46.416C216.974 46.672 217.027 46.9067 217.134 47.12C217.251 47.3227 217.449 47.424 217.726 47.424C218.195 47.424 218.665 47.072 219.134 46.368C219.603 45.6533 219.987 44.7787 220.286 43.744C220.595 42.7093 220.75 41.744 220.75 40.848C220.75 40.6453 220.739 40.3627 220.718 40H222.062C222.073 40.096 222.078 40.2347 222.078 40.416C222.078 40.672 222.051 41.0667 221.998 41.6C221.945 42.1333 221.865 42.8267 221.758 43.68L221.598 45.008C221.587 45.1467 221.561 45.4027 221.518 45.776C221.475 46.1493 221.454 46.4427 221.454 46.656C221.454 47.1253 221.598 47.36 221.886 47.36C222.089 47.36 222.297 47.2373 222.51 46.992C222.723 46.736 222.905 46.3467 223.054 45.824L223.502 45.92C223.449 46.2187 223.331 46.544 223.15 46.896C222.979 47.248 222.745 47.552 222.446 47.808C222.158 48.0533 221.817 48.176 221.422 48.176C221.006 48.176 220.697 48.048 220.494 47.792C220.291 47.536 220.19 47.184 220.19 46.736C220.19 46.2667 220.286 45.552 220.478 44.592H220.43C219.918 45.968 219.427 46.912 218.958 47.424C218.489 47.9253 217.971 48.176 217.406 48.176C216.809 48.176 216.366 47.984 216.078 47.6C215.801 47.2053 215.662 46.704 215.662 46.096C215.662 45.6373 215.689 45.1733 215.742 44.704C215.795 44.2347 215.875 43.6693 215.982 43.008C216.003 42.8907 216.041 42.6453 216.094 42.272C216.147 41.888 216.174 41.5893 216.174 41.376C216.174 41.1307 216.142 40.944 216.078 40.816C216.025 40.688 215.913 40.624 215.742 40.624C215.55 40.624 215.353 40.752 215.15 41.008C214.947 41.2533 214.771 41.6427 214.622 42.176L214.174 42.08C214.27 41.5573 214.489 41.0507 214.83 40.56C215.182 40.0693 215.641 39.824 216.206 39.824ZM232.342 39.824C232.918 39.824 233.435 39.9627 233.894 40.24C234.363 40.5173 234.726 40.9227 234.982 41.456C235.248 41.9787 235.382 42.6027 235.382 43.328C235.382 44.2027 235.222 45.008 234.902 45.744C234.592 46.48 234.139 47.072 233.542 47.52C232.955 47.9573 232.262 48.176 231.462 48.176C230.448 48.176 229.68 47.8453 229.158 47.184C228.646 46.512 228.39 45.648 228.39 44.592C228.39 43.7173 228.55 42.9173 228.87 42.192C229.19 41.4667 229.648 40.8907 230.246 40.464C230.843 40.0373 231.542 39.824 232.342 39.824ZM232.086 40.416C231.616 40.416 231.206 40.5867 230.854 40.928C230.512 41.2587 230.251 41.7173 230.07 42.304C229.888 42.88 229.798 43.5253 229.798 44.24C229.798 45.1253 229.942 45.904 230.23 46.576C230.518 47.2373 230.987 47.568 231.638 47.568C232.182 47.568 232.624 47.36 232.966 46.944C233.318 46.528 233.574 46.016 233.734 45.408C233.894 44.8 233.974 44.208 233.974 43.632C233.974 42.736 233.83 41.9787 233.542 41.36C233.264 40.7307 232.779 40.416 232.086 40.416ZM242.445 39.824C243.043 39.824 243.48 40.016 243.757 40.4C244.045 40.784 244.189 41.2853 244.189 41.904C244.189 42.6187 244.088 43.6427 243.885 44.976C243.768 45.8187 243.709 46.3733 243.709 46.64C243.709 46.8747 243.736 47.056 243.789 47.184C243.853 47.312 243.971 47.376 244.141 47.376C244.344 47.376 244.552 47.2533 244.765 47.008C244.979 46.752 245.16 46.3573 245.309 45.824L245.757 45.936C245.704 46.2347 245.587 46.56 245.405 46.912C245.235 47.2533 245 47.552 244.701 47.808C244.413 48.0533 244.072 48.176 243.677 48.176C243.197 48.176 242.861 48.0533 242.669 47.808C242.477 47.552 242.381 47.1627 242.381 46.64C242.381 46.2453 242.451 45.5413 242.589 44.528C242.781 43.2267 242.877 42.2347 242.877 41.552C242.877 41.3067 242.819 41.0827 242.701 40.88C242.595 40.6773 242.403 40.576 242.125 40.576C241.656 40.576 241.176 40.9333 240.685 41.648C240.195 42.352 239.784 43.2267 239.453 44.272C239.133 45.3067 238.973 46.2667 238.973 47.152C238.973 47.3547 238.984 47.6373 239.005 48H237.661C237.651 47.904 237.645 47.7653 237.645 47.584C237.645 47.328 237.667 46.9707 237.709 46.512C237.763 46.0533 237.837 45.4507 237.933 44.704C237.933 44.64 237.944 44.5333 237.965 44.384C237.976 44.2453 237.992 44.1013 238.013 43.952C238.035 43.8027 238.051 43.6533 238.061 43.504C238.136 42.8533 238.189 42.3787 238.221 42.08C238.253 41.7813 238.269 41.536 238.269 41.344C238.269 41.12 238.237 40.944 238.173 40.816C238.12 40.688 238.008 40.624 237.837 40.624C237.635 40.624 237.427 40.752 237.213 41.008C237 41.264 236.819 41.6533 236.669 42.176L236.221 42.08C236.275 41.7813 236.387 41.456 236.557 41.104C236.739 40.752 236.973 40.4533 237.261 40.208C237.56 39.952 237.907 39.824 238.301 39.824C239.101 39.824 239.501 40.3733 239.501 41.472C239.501 41.7813 239.469 42.1227 239.405 42.496C239.352 42.8587 239.299 43.184 239.245 43.472H239.293C239.805 42.1067 240.312 41.1573 240.813 40.624C241.325 40.0907 241.869 39.824 242.445 39.824ZM251.217 39.824C251.942 39.824 252.657 39.9147 253.361 40.096C252.892 43.5733 252.657 45.7067 252.657 46.496C252.657 46.7733 252.684 46.992 252.737 47.152C252.79 47.3013 252.913 47.376 253.105 47.376C253.308 47.376 253.516 47.248 253.729 46.992C253.942 46.736 254.124 46.3467 254.273 45.824L254.721 45.92C254.668 46.2187 254.55 46.544 254.369 46.896C254.198 47.248 253.964 47.552 253.665 47.808C253.377 48.0533 253.036 48.176 252.641 48.176C251.852 48.176 251.457 47.696 251.457 46.736C251.457 46.2667 251.553 45.552 251.745 44.592H251.697C251.249 46 250.758 46.9493 250.225 47.44C249.692 47.9307 249.142 48.176 248.577 48.176C247.958 48.176 247.462 47.952 247.089 47.504C246.726 47.056 246.545 46.352 246.545 45.392C246.545 44.368 246.721 43.4347 247.073 42.592C247.425 41.7493 247.953 41.0773 248.657 40.576C249.361 40.0747 250.214 39.824 251.217 39.824ZM250.721 40.4C250.102 40.4 249.58 40.624 249.153 41.072C248.726 41.5093 248.406 42.0907 248.193 42.816C247.99 43.5307 247.889 44.2987 247.889 45.12C247.889 46.688 248.236 47.472 248.929 47.472C249.398 47.472 249.868 47.104 250.337 46.368C250.806 45.632 251.196 44.7253 251.505 43.648C251.814 42.56 251.969 41.5413 251.969 40.592C251.649 40.464 251.233 40.4 250.721 40.4ZM258.143 48.176C257.311 48.176 256.633 47.8827 256.111 47.296C255.599 46.7093 255.343 45.872 255.343 44.784C255.343 43.888 255.508 43.088 255.839 42.384C256.169 41.6693 256.617 41.1147 257.183 40.72C257.759 40.3253 258.393 40.128 259.087 40.128C259.801 40.128 260.313 40.336 260.623 40.752C260.495 39.376 260.207 38.32 259.759 37.584C259.321 36.8373 258.788 36.464 258.159 36.464C257.529 36.464 256.959 36.7147 256.447 37.216L256.143 36.848C256.537 36.5067 256.9 36.2613 257.231 36.112C257.572 35.952 257.935 35.872 258.319 35.872C259.545 35.872 260.457 36.464 261.055 37.648C261.652 38.8213 261.951 40.32 261.951 42.144C261.951 43.5733 261.769 44.7413 261.407 45.648C261.055 46.544 260.591 47.1893 260.015 47.584C259.449 47.9787 258.825 48.176 258.143 48.176ZM258.447 47.568C259.14 47.568 259.657 47.1307 259.999 46.256C260.351 45.3813 260.559 44.3413 260.623 43.136C260.665 42.432 260.543 41.856 260.255 41.408C259.967 40.9493 259.583 40.72 259.103 40.72C258.719 40.72 258.34 40.88 257.967 41.2C257.593 41.5093 257.284 41.9627 257.039 42.56C256.804 43.1467 256.687 43.8293 256.687 44.608C256.687 45.472 256.841 46.1813 257.151 46.736C257.471 47.2907 257.903 47.568 258.447 47.568ZM267.92 39.824C268.646 39.824 269.36 39.9147 270.064 40.096C269.595 43.5733 269.36 45.7067 269.36 46.496C269.36 46.7733 269.387 46.992 269.44 47.152C269.494 47.3013 269.616 47.376 269.808 47.376C270.011 47.376 270.219 47.248 270.432 46.992C270.646 46.736 270.827 46.3467 270.976 45.824L271.424 45.92C271.371 46.2187 271.254 46.544 271.072 46.896C270.902 47.248 270.667 47.552 270.368 47.808C270.08 48.0533 269.739 48.176 269.344 48.176C268.555 48.176 268.16 47.696 268.16 46.736C268.16 46.2667 268.256 45.552 268.448 44.592H268.4C267.952 46 267.462 46.9493 266.928 47.44C266.395 47.9307 265.846 48.176 265.28 48.176C264.662 48.176 264.166 47.952 263.792 47.504C263.43 47.056 263.248 46.352 263.248 45.392C263.248 44.368 263.424 43.4347 263.776 42.592C264.128 41.7493 264.656 41.0773 265.36 40.576C266.064 40.0747 266.918 39.824 267.92 39.824ZM267.424 40.4C266.806 40.4 266.283 40.624 265.856 41.072C265.43 41.5093 265.11 42.0907 264.896 42.816C264.694 43.5307 264.592 44.2987 264.592 45.12C264.592 46.688 264.939 47.472 265.632 47.472C266.102 47.472 266.571 47.104 267.04 46.368C267.51 45.632 267.899 44.7253 268.208 43.648C268.518 42.56 268.672 41.5413 268.672 40.592C268.352 40.464 267.936 40.4 267.424 40.4ZM275.934 39.824C276.574 39.824 277.107 39.9733 277.534 40.272C277.961 40.5707 278.174 41.0347 278.174 41.664C278.174 42.4533 277.699 43.0667 276.75 43.504C275.801 43.9413 274.702 44.2293 273.454 44.368C273.454 45.3707 273.603 46.1227 273.902 46.624C274.201 47.1253 274.659 47.376 275.278 47.376C275.769 47.376 276.243 47.216 276.702 46.896C277.161 46.5653 277.561 46.08 277.902 45.44L278.43 45.744C277.982 46.5867 277.481 47.2053 276.926 47.6C276.371 47.984 275.731 48.176 275.006 48.176C274.025 48.176 273.283 47.872 272.782 47.264C272.291 46.6453 272.046 45.7973 272.046 44.72C272.046 43.856 272.19 43.056 272.478 42.32C272.777 41.5733 273.219 40.9707 273.806 40.512C274.393 40.0533 275.102 39.824 275.934 39.824ZM275.71 40.368C275.027 40.368 274.499 40.6987 274.126 41.36C273.753 42.0213 273.534 42.832 273.47 43.792C274.398 43.664 275.193 43.408 275.854 43.024C276.515 42.64 276.846 42.16 276.846 41.584C276.846 41.232 276.745 40.944 276.542 40.72C276.35 40.4853 276.073 40.368 275.71 40.368ZM289.655 39.824C290.252 39.824 290.679 40.016 290.935 40.4C291.202 40.784 291.335 41.2853 291.335 41.904C291.335 42.352 291.308 42.8053 291.255 43.264C291.202 43.712 291.122 44.2827 291.015 44.976C290.876 45.8293 290.807 46.384 290.807 46.64C290.807 46.8747 290.834 47.056 290.887 47.184C290.951 47.312 291.068 47.376 291.239 47.376C291.442 47.376 291.65 47.2533 291.863 47.008C292.087 46.752 292.274 46.3573 292.423 45.824L292.871 45.936C292.818 46.2347 292.7 46.56 292.519 46.912C292.348 47.2533 292.114 47.552 291.815 47.808C291.516 48.0533 291.17 48.176 290.775 48.176C290.295 48.176 289.959 48.0533 289.767 47.808C289.586 47.552 289.495 47.1627 289.495 46.64C289.495 46.2027 289.58 45.4987 289.751 44.528C289.762 44.432 289.799 44.1707 289.863 43.744C289.927 43.3067 289.975 42.9067 290.007 42.544C290.05 42.1707 290.071 41.84 290.071 41.552C290.071 41.3067 290.012 41.0827 289.895 40.88C289.778 40.6773 289.58 40.576 289.303 40.576C288.823 40.576 288.354 40.928 287.895 41.632C287.447 42.336 287.079 43.2053 286.791 44.24C286.514 45.2747 286.375 46.2453 286.375 47.152C286.375 47.3547 286.386 47.6373 286.407 48H285.063C285.052 47.904 285.047 47.7653 285.047 47.584C285.047 47.232 285.079 46.7627 285.143 46.176C285.207 45.5893 285.276 45.008 285.351 44.432C285.532 43.0453 285.623 42.1013 285.623 41.6C285.623 40.9173 285.367 40.576 284.855 40.576C284.386 40.576 283.922 40.928 283.463 41.632C283.015 42.336 282.647 43.2107 282.359 44.256C282.071 45.2907 281.927 46.256 281.927 47.152C281.927 47.3547 281.938 47.6373 281.959 48H280.615C280.604 47.904 280.599 47.7653 280.599 47.584C280.599 47.3173 280.62 46.9333 280.663 46.432C280.716 45.92 280.796 45.2373 280.903 44.384L281.095 42.72C281.138 42.3467 281.17 42.064 281.191 41.872C281.212 41.6693 281.223 41.4933 281.223 41.344C281.223 41.12 281.191 40.944 281.127 40.816C281.074 40.688 280.962 40.624 280.791 40.624C280.588 40.624 280.38 40.752 280.167 41.008C279.954 41.264 279.772 41.6533 279.623 42.176L279.175 42.08C279.228 41.7813 279.34 41.456 279.511 41.104C279.692 40.752 279.927 40.4533 280.215 40.208C280.514 39.952 280.86 39.824 281.255 39.824C282.055 39.824 282.455 40.3573 282.455 41.424C282.455 41.7227 282.423 42.0533 282.359 42.416C282.306 42.7787 282.252 43.104 282.199 43.392H282.247C282.706 42.0587 283.18 41.1307 283.671 40.608C284.162 40.0853 284.663 39.824 285.175 39.824C285.762 39.824 286.194 40.0107 286.471 40.384C286.748 40.7573 286.887 41.1787 286.887 41.648C286.887 41.9253 286.871 42.16 286.839 42.352C286.807 42.5333 286.732 42.864 286.615 43.344H286.663C287.143 42.0107 287.634 41.0933 288.135 40.592C288.636 40.08 289.143 39.824 289.655 39.824ZM310.285 46.368C310.178 46.88 309.975 47.312 309.677 47.664C309.378 48.0053 308.978 48.176 308.477 48.176C308.082 48.176 307.778 48.0267 307.565 47.728C307.362 47.4293 307.229 46.88 307.165 46.08C307.101 45.3333 306.978 44.816 306.797 44.528C306.615 44.24 306.333 44.096 305.949 44.096L304.621 44.112C304.439 45.52 304.359 46.5227 304.381 47.12C304.381 47.28 304.391 47.5733 304.413 48H303.085L303.069 47.808L303.085 47.584C303.085 46.9973 303.186 45.904 303.389 44.304C303.485 43.4827 303.57 42.8427 303.645 42.384C303.709 41.8613 303.741 41.504 303.741 41.312C303.741 41.0987 303.714 40.9333 303.661 40.816C303.607 40.688 303.495 40.624 303.325 40.624C303.122 40.624 302.909 40.752 302.685 41.008C302.471 41.264 302.285 41.6533 302.125 42.176L301.677 42.08C301.741 41.7813 301.863 41.456 302.045 41.104C302.226 40.752 302.466 40.4533 302.765 40.208C303.063 39.952 303.41 39.824 303.805 39.824C304.221 39.824 304.514 39.9413 304.685 40.176C304.866 40.4107 304.957 40.768 304.957 41.248C304.957 41.5147 304.919 41.92 304.845 42.464L304.685 43.648H305.197C305.666 43.648 306.034 43.52 306.301 43.264C306.578 43.008 306.839 42.56 307.085 41.92C307.362 41.152 307.655 40.6133 307.965 40.304C308.285 39.984 308.69 39.824 309.181 39.824C309.458 39.824 309.677 39.904 309.837 40.064C309.997 40.224 310.077 40.4373 310.077 40.704C310.077 40.928 310.007 41.12 309.869 41.28C309.741 41.44 309.559 41.52 309.325 41.52C309.058 41.52 308.85 41.4613 308.701 41.344C308.551 41.2267 308.466 41.0613 308.445 40.848C308.295 40.944 308.162 41.088 308.045 41.28C307.927 41.472 307.794 41.776 307.645 42.192C307.506 42.576 307.335 42.9067 307.133 43.184C306.93 43.4613 306.706 43.664 306.461 43.792C307.613 43.824 308.253 44.4533 308.381 45.68C308.445 46.3093 308.519 46.736 308.605 46.96C308.701 47.1733 308.871 47.28 309.117 47.28C309.277 47.28 309.415 47.2053 309.533 47.056C309.65 46.896 309.751 46.64 309.837 46.288L310.285 46.368ZM315.92 39.824C316.646 39.824 317.36 39.9147 318.064 40.096C317.595 43.5733 317.36 45.7067 317.36 46.496C317.36 46.7733 317.387 46.992 317.44 47.152C317.494 47.3013 317.616 47.376 317.808 47.376C318.011 47.376 318.219 47.248 318.432 46.992C318.646 46.736 318.827 46.3467 318.976 45.824L319.424 45.92C319.371 46.2187 319.254 46.544 319.072 46.896C318.902 47.248 318.667 47.552 318.368 47.808C318.08 48.0533 317.739 48.176 317.344 48.176C316.555 48.176 316.16 47.696 316.16 46.736C316.16 46.2667 316.256 45.552 316.448 44.592H316.4C315.952 46 315.462 46.9493 314.928 47.44C314.395 47.9307 313.846 48.176 313.28 48.176C312.662 48.176 312.166 47.952 311.792 47.504C311.43 47.056 311.248 46.352 311.248 45.392C311.248 44.368 311.424 43.4347 311.776 42.592C312.128 41.7493 312.656 41.0773 313.36 40.576C314.064 40.0747 314.918 39.824 315.92 39.824ZM315.424 40.4C314.806 40.4 314.283 40.624 313.856 41.072C313.43 41.5093 313.11 42.0907 312.896 42.816C312.694 43.5307 312.592 44.2987 312.592 45.12C312.592 46.688 312.939 47.472 313.632 47.472C314.102 47.472 314.571 47.104 315.04 46.368C315.51 45.632 315.899 44.7253 316.208 43.648C316.518 42.56 316.672 41.5413 316.672 40.592C316.352 40.464 315.936 40.4 315.424 40.4ZM332.398 45.648C332.025 46.576 331.651 47.232 331.278 47.616C330.915 47.9893 330.483 48.176 329.982 48.176C329.267 48.176 328.718 47.872 328.334 47.264C327.961 46.656 327.785 45.792 327.806 44.672C327.806 44.544 327.817 44.352 327.838 44.096H326.766C326.617 45.4507 326.547 46.4587 326.558 47.12C326.558 47.3867 326.574 47.68 326.606 48H325.278C325.267 47.904 325.262 47.7653 325.262 47.584C325.262 46.9333 325.347 45.84 325.518 44.304L325.534 44.112H324.462C324.313 45.296 323.971 46.272 323.438 47.04C322.915 47.7973 322.265 48.176 321.486 48.176C321.198 48.176 320.921 48.096 320.654 47.936C320.387 47.776 320.174 47.5627 320.014 47.296C319.854 47.0187 319.774 46.7147 319.774 46.384C319.774 46.1067 319.843 45.888 319.982 45.728C320.121 45.568 320.297 45.488 320.51 45.488C320.723 45.488 320.883 45.552 320.99 45.68C321.107 45.7973 321.161 45.9413 321.15 46.112C321.15 46.368 321.054 46.5867 320.862 46.768C320.905 47.056 320.985 47.264 321.102 47.392C321.219 47.5093 321.385 47.568 321.598 47.568C322.089 47.568 322.478 47.1733 322.766 46.384C323.065 45.584 323.241 44.688 323.294 43.696C323.305 43.5573 323.31 43.3547 323.31 43.088C323.31 42.2347 323.214 41.6107 323.022 41.216C322.83 40.8107 322.574 40.608 322.254 40.608C321.934 40.608 321.646 40.736 321.39 40.992C321.145 41.248 320.894 41.7013 320.638 42.352L320.158 42.08C320.542 41.216 320.915 40.624 321.278 40.304C321.641 39.984 322.062 39.824 322.542 39.824C322.958 39.824 323.321 39.9627 323.63 40.24C323.939 40.5067 324.174 40.9067 324.334 41.44C324.494 41.9627 324.558 42.592 324.526 43.328L324.51 43.648H325.598C325.683 42.9547 325.742 42.4 325.774 41.984C325.817 41.568 325.833 41.136 325.822 40.688C325.822 40.432 325.806 40.144 325.774 39.824H327.07C327.081 39.92 327.086 40.0587 327.086 40.24C327.086 40.5813 327.059 41.0133 327.006 41.536C326.963 42.0587 326.915 42.5867 326.862 43.12L326.814 43.648H327.87C328.009 42.5173 328.318 41.6 328.798 40.896C329.278 40.1813 329.886 39.824 330.622 39.824C331.145 39.824 331.566 39.9947 331.886 40.336C332.217 40.6773 332.382 41.1093 332.382 41.632C332.382 41.9093 332.313 42.128 332.174 42.288C332.046 42.4373 331.881 42.512 331.678 42.512C331.465 42.512 331.305 42.4533 331.198 42.336C331.091 42.208 331.038 42.0587 331.038 41.888C331.038 41.6107 331.118 41.392 331.278 41.232C331.278 40.9867 331.219 40.7893 331.102 40.64C330.995 40.4907 330.83 40.416 330.606 40.416C330.265 40.416 329.971 40.6293 329.726 41.056C329.491 41.472 329.315 42 329.198 42.64C329.091 43.2693 329.038 43.8933 329.038 44.512C329.038 45.5573 329.139 46.3307 329.342 46.832C329.555 47.3227 329.833 47.568 330.174 47.568C330.505 47.568 330.798 47.3973 331.054 47.056C331.31 46.7147 331.577 46.1547 331.854 45.376L332.398 45.648ZM336.393 48.176C335.561 48.176 334.883 47.8827 334.361 47.296C333.849 46.7093 333.593 45.872 333.593 44.784C333.593 43.888 333.758 43.088 334.089 42.384C334.419 41.6693 334.867 41.1147 335.433 40.72C336.009 40.3253 336.643 40.128 337.337 40.128C338.051 40.128 338.563 40.336 338.873 40.752C338.745 39.376 338.457 38.32 338.009 37.584C337.571 36.8373 337.038 36.464 336.409 36.464C335.779 36.464 335.209 36.7147 334.697 37.216L334.393 36.848C334.787 36.5067 335.15 36.2613 335.481 36.112C335.822 35.952 336.185 35.872 336.569 35.872C337.795 35.872 338.707 36.464 339.305 37.648C339.902 38.8213 340.201 40.32 340.201 42.144C340.201 43.5733 340.019 44.7413 339.657 45.648C339.305 46.544 338.841 47.1893 338.265 47.584C337.699 47.9787 337.075 48.176 336.393 48.176ZM336.697 47.568C337.39 47.568 337.907 47.1307 338.249 46.256C338.601 45.3813 338.809 44.3413 338.873 43.136C338.915 42.432 338.793 41.856 338.505 41.408C338.217 40.9493 337.833 40.72 337.353 40.72C336.969 40.72 336.59 40.88 336.217 41.2C335.843 41.5093 335.534 41.9627 335.289 42.56C335.054 43.1467 334.937 43.8293 334.937 44.608C334.937 45.472 335.091 46.1813 335.401 46.736C335.721 47.2907 336.153 47.568 336.697 47.568ZM347.082 39.824C347.53 39.824 347.856 40.0213 348.058 40.416C348.261 40.8107 348.362 41.296 348.362 41.872C348.362 42.8427 348.17 43.8613 347.786 44.928C347.402 45.984 346.885 47.0987 346.234 48.272C345.466 49.68 344.736 50.7093 344.042 51.36C343.349 52.0107 342.672 52.336 342.01 52.336C341.626 52.336 341.312 52.24 341.066 52.048C340.832 51.856 340.714 51.616 340.714 51.328C340.714 51.104 340.784 50.9227 340.922 50.784C341.061 50.656 341.21 50.592 341.37 50.592C341.594 50.592 341.765 50.6613 341.882 50.8C342.01 50.9493 342.069 51.1573 342.058 51.424C342.208 51.4987 342.325 51.536 342.41 51.536C342.816 51.5573 343.248 51.3013 343.706 50.768C344.176 50.2347 344.56 49.712 344.858 49.2C344.666 47.888 344.4 46.5653 344.058 45.232C343.717 43.8987 343.333 42.7147 342.906 41.68C342.778 41.4027 342.666 41.2 342.57 41.072C342.474 40.9333 342.341 40.864 342.17 40.864C341.989 40.864 341.84 40.976 341.722 41.2C341.616 41.424 341.562 41.728 341.562 42.112C341.562 42.2933 341.568 42.432 341.578 42.528L341.066 42.592C341.056 42.4853 341.05 42.3253 341.05 42.112C341.05 41.4827 341.162 40.944 341.386 40.496C341.621 40.048 342 39.824 342.522 39.824C343.002 39.824 343.376 39.9947 343.642 40.336C343.909 40.6667 344.138 41.0987 344.33 41.632C344.544 42.208 344.736 42.832 344.906 43.504C345.077 44.1653 345.28 45.0187 345.514 46.064C345.578 46.3733 345.658 46.9173 345.754 47.696H345.786C346.298 46.8 346.73 45.8613 347.082 44.88C347.434 43.888 347.61 42.992 347.61 42.192C347.61 41.936 347.584 41.7067 347.53 41.504C347.488 41.3013 347.434 41.152 347.37 41.056C347.274 41.12 347.141 41.152 346.97 41.152C346.778 41.152 346.624 41.0933 346.506 40.976C346.389 40.848 346.33 40.6987 346.33 40.528C346.33 40.304 346.405 40.1333 346.554 40.016C346.704 39.888 346.88 39.824 347.082 39.824ZM357.381 39.824C357.882 39.824 358.346 39.9627 358.773 40.24C359.2 40.5173 359.541 40.9227 359.797 41.456C360.053 41.9787 360.181 42.6027 360.181 43.328C360.181 44.192 360.026 44.9973 359.717 45.744C359.418 46.48 358.986 47.072 358.421 47.52C357.866 47.9573 357.226 48.176 356.501 48.176C355.605 48.176 354.906 47.84 354.405 47.168C353.914 46.4853 353.669 45.6267 353.669 44.592V44.512L352.229 44.544L351.989 46.992C351.978 47.088 351.973 47.216 351.973 47.376C351.973 47.6 351.989 47.808 352.021 48H350.677C350.666 47.904 350.661 47.7653 350.661 47.584C350.661 47.328 350.682 46.9707 350.725 46.512C350.778 46.0533 350.853 45.4507 350.949 44.704C350.949 44.64 350.96 44.5333 350.981 44.384C350.992 44.2453 351.008 44.1013 351.029 43.952C351.05 43.8027 351.066 43.6533 351.077 43.504C351.152 42.8533 351.205 42.3787 351.237 42.08C351.269 41.7813 351.285 41.536 351.285 41.344C351.285 41.12 351.253 40.944 351.189 40.816C351.136 40.688 351.024 40.624 350.853 40.624C350.65 40.624 350.442 40.752 350.229 41.008C350.016 41.264 349.834 41.6533 349.685 42.176L349.237 42.08C349.29 41.7813 349.402 41.456 349.573 41.104C349.754 40.752 349.989 40.4533 350.277 40.208C350.576 39.952 350.922 39.824 351.317 39.824C351.754 39.824 352.058 39.968 352.229 40.256C352.41 40.544 352.501 40.9387 352.501 41.44C352.501 41.6747 352.485 41.9307 352.453 42.208L352.293 43.904H353.701C353.786 43.1467 353.989 42.4587 354.309 41.84C354.64 41.2107 355.072 40.72 355.605 40.368C356.138 40.0053 356.73 39.824 357.381 39.824ZM358.789 43.728C358.789 42.8213 358.661 42.0427 358.405 41.392C358.149 40.7413 357.717 40.416 357.109 40.416C356.725 40.416 356.373 40.5813 356.053 40.912C355.744 41.2427 355.498 41.696 355.317 42.272C355.146 42.848 355.061 43.4773 355.061 44.16C355.061 45.0453 355.194 45.8347 355.461 46.528C355.728 47.2213 356.138 47.568 356.693 47.568C357.152 47.568 357.536 47.3653 357.845 46.96C358.165 46.5547 358.4 46.0587 358.549 45.472C358.709 44.8747 358.789 44.2933 358.789 43.728ZM377.429 45.92C377.376 46.2187 377.259 46.544 377.077 46.896C376.907 47.248 376.667 47.552 376.357 47.808C376.059 48.0533 375.707 48.176 375.301 48.176C374.896 48.176 374.597 48.048 374.405 47.792C374.213 47.536 374.117 47.184 374.117 46.736C374.117 46.448 374.155 46.0693 374.229 45.6C374.304 45.12 374.416 44.4533 374.565 43.6C374.736 42.6507 374.869 41.8347 374.965 41.152H374.869C374.176 43.0933 373.627 44.544 373.221 45.504C372.816 46.4533 372.432 47.136 372.069 47.552C371.717 47.968 371.323 48.176 370.885 48.176C370.501 48.176 370.229 48.032 370.069 47.744C369.92 47.456 369.845 46.96 369.845 46.256C369.845 43.5573 369.904 41.856 370.021 41.152H369.893C369.328 43.136 368.891 44.5653 368.581 45.44C368.283 46.3147 367.936 46.9867 367.541 47.456C367.157 47.9253 366.672 48.16 366.085 48.16C365.787 48.16 365.536 48.0747 365.333 47.904C365.141 47.7333 365.045 47.5307 365.045 47.296C365.045 47.0933 365.115 46.9173 365.253 46.768C365.392 46.608 365.568 46.528 365.781 46.528C365.963 46.528 366.123 46.5867 366.261 46.704C366.4 46.8213 366.469 46.9707 366.469 47.152C366.469 47.2267 366.459 47.3067 366.437 47.392C366.811 47.4133 367.227 46.8907 367.685 45.824C368.144 44.7573 368.677 43.024 369.285 40.624L367.845 40.64L367.909 40H371.077C371.109 40.1707 371.125 40.352 371.125 40.544C371.125 41.024 371.115 41.7227 371.093 42.64L371.077 44.688C371.077 45.0613 371.088 45.632 371.109 46.4C371.131 46.784 371.152 47.0347 371.173 47.152C371.205 47.2693 371.269 47.328 371.365 47.328C371.579 47.328 371.952 46.736 372.485 45.552C373.029 44.368 373.733 42.5173 374.597 40H376.069C376.08 40.096 376.085 40.2347 376.085 40.416C376.085 40.8853 375.957 42.016 375.701 43.808C375.627 44.4053 375.552 44.9813 375.477 45.536C375.413 46.08 375.381 46.4533 375.381 46.656C375.381 47.1253 375.515 47.36 375.781 47.36C375.995 47.36 376.208 47.2373 376.421 46.992C376.645 46.736 376.832 46.3467 376.981 45.824L377.429 45.92ZM379.737 39.824C380.164 39.824 380.484 39.9573 380.697 40.224C380.921 40.4907 381.033 40.8747 381.033 41.376C381.033 41.76 380.948 42.56 380.777 43.776C380.767 43.872 380.719 44.2347 380.633 44.864C380.548 45.4827 380.505 46 380.505 46.416C380.505 46.672 380.559 46.9067 380.665 47.12C380.783 47.3227 380.98 47.424 381.257 47.424C381.727 47.424 382.196 47.072 382.665 46.368C383.135 45.6533 383.519 44.7787 383.817 43.744C384.127 42.7093 384.281 41.744 384.281 40.848C384.281 40.6453 384.271 40.3627 384.249 40H385.593C385.604 40.096 385.609 40.2347 385.609 40.416C385.609 40.672 385.583 41.0667 385.529 41.6C385.476 42.1333 385.396 42.8267 385.289 43.68L385.129 45.008C385.119 45.1467 385.092 45.4027 385.049 45.776C385.007 46.1493 384.985 46.4427 384.985 46.656C384.985 47.1253 385.129 47.36 385.417 47.36C385.62 47.36 385.828 47.2373 386.041 46.992C386.255 46.736 386.436 46.3467 386.585 45.824L387.033 45.92C386.98 46.2187 386.863 46.544 386.681 46.896C386.511 47.248 386.276 47.552 385.977 47.808C385.689 48.0533 385.348 48.176 384.953 48.176C384.537 48.176 384.228 48.048 384.025 47.792C383.823 47.536 383.721 47.184 383.721 46.736C383.721 46.2667 383.817 45.552 384.009 44.592H383.961C383.449 45.968 382.959 46.912 382.489 47.424C382.02 47.9253 381.503 48.176 380.937 48.176C380.34 48.176 379.897 47.984 379.609 47.6C379.332 47.2053 379.193 46.704 379.193 46.096C379.193 45.6373 379.22 45.1733 379.273 44.704C379.327 44.2347 379.407 43.6693 379.513 43.008C379.535 42.8907 379.572 42.6453 379.625 42.272C379.679 41.888 379.705 41.5893 379.705 41.376C379.705 41.1307 379.673 40.944 379.609 40.816C379.556 40.688 379.444 40.624 379.273 40.624C379.081 40.624 378.884 40.752 378.681 41.008C378.479 41.2533 378.303 41.6427 378.153 42.176L377.705 42.08C377.801 41.5573 378.02 41.0507 378.361 40.56C378.713 40.0693 379.172 39.824 379.737 39.824ZM396.438 45.92C396.384 46.2187 396.267 46.544 396.086 46.896C395.915 47.248 395.68 47.552 395.382 47.808C395.094 48.0533 394.752 48.176 394.358 48.176C393.942 48.176 393.632 48.048 393.43 47.792C393.227 47.536 393.126 47.184 393.126 46.736C393.126 46.448 393.184 45.856 393.302 44.96L393.35 44.512L390.262 44.544L389.974 46.992C389.952 47.2053 389.942 47.36 389.942 47.456C389.942 47.6373 389.958 47.8187 389.99 48H388.646C388.635 47.904 388.63 47.7653 388.63 47.584C388.64 47.1893 388.736 46.3733 388.918 45.136L389.014 44.384L389.11 43.696C389.206 42.9813 389.27 42.464 389.302 42.144C389.344 41.8133 389.366 41.5467 389.366 41.344C389.387 40.864 389.248 40.624 388.95 40.624C388.747 40.624 388.534 40.752 388.31 41.008C388.096 41.264 387.91 41.6533 387.75 42.176L387.302 42.08C387.366 41.7813 387.488 41.456 387.67 41.104C387.851 40.752 388.091 40.4533 388.39 40.208C388.688 39.952 389.035 39.824 389.43 39.824C390.208 39.824 390.598 40.3413 390.598 41.376C390.598 41.5467 390.576 41.824 390.534 42.208L390.342 43.904H393.43C393.6 42.56 393.686 41.568 393.686 40.928C393.686 40.736 393.675 40.4267 393.654 40H394.998C395.008 40.096 395.014 40.2347 395.014 40.416C395.014 40.6933 394.976 41.1627 394.902 41.824C394.838 42.4747 394.763 43.136 394.678 43.808C394.486 45.4293 394.39 46.3787 394.39 46.656C394.39 47.1253 394.534 47.36 394.822 47.36C395.024 47.36 395.232 47.2373 395.446 46.992C395.659 46.736 395.84 46.3467 395.99 45.824L396.438 45.92ZM402.785 39.824C403.233 39.824 403.559 40.0213 403.761 40.416C403.964 40.8107 404.065 41.296 404.065 41.872C404.065 42.8427 403.873 43.8613 403.489 44.928C403.105 45.984 402.588 47.0987 401.937 48.272C401.169 49.68 400.439 50.7093 399.745 51.36C399.052 52.0107 398.375 52.336 397.713 52.336C397.329 52.336 397.015 52.24 396.769 52.048C396.535 51.856 396.417 51.616 396.417 51.328C396.417 51.104 396.487 50.9227 396.625 50.784C396.764 50.656 396.913 50.592 397.073 50.592C397.297 50.592 397.468 50.6613 397.585 50.8C397.713 50.9493 397.772 51.1573 397.761 51.424C397.911 51.4987 398.028 51.536 398.113 51.536C398.519 51.5573 398.951 51.3013 399.409 50.768C399.879 50.2347 400.263 49.712 400.561 49.2C400.369 47.888 400.103 46.5653 399.761 45.232C399.42 43.8987 399.036 42.7147 398.609 41.68C398.481 41.4027 398.369 41.2 398.273 41.072C398.177 40.9333 398.044 40.864 397.873 40.864C397.692 40.864 397.543 40.976 397.425 41.2C397.319 41.424 397.265 41.728 397.265 42.112C397.265 42.2933 397.271 42.432 397.281 42.528L396.769 42.592C396.759 42.4853 396.753 42.3253 396.753 42.112C396.753 41.4827 396.865 40.944 397.089 40.496C397.324 40.048 397.703 39.824 398.225 39.824C398.705 39.824 399.079 39.9947 399.345 40.336C399.612 40.6667 399.841 41.0987 400.033 41.632C400.247 42.208 400.439 42.832 400.609 43.504C400.78 44.1653 400.983 45.0187 401.217 46.064C401.281 46.3733 401.361 46.9173 401.457 47.696H401.489C402.001 46.8 402.433 45.8613 402.785 44.88C403.137 43.888 403.313 42.992 403.313 42.192C403.313 41.936 403.287 41.7067 403.233 41.504C403.191 41.3013 403.137 41.152 403.073 41.056C402.977 41.12 402.844 41.152 402.673 41.152C402.481 41.152 402.327 41.0933 402.209 40.976C402.092 40.848 402.033 40.6987 402.033 40.528C402.033 40.304 402.108 40.1333 402.257 40.016C402.407 39.888 402.583 39.824 402.785 39.824ZM415.436 39.824C416.033 39.824 416.46 40.016 416.716 40.4C416.983 40.784 417.116 41.2853 417.116 41.904C417.116 42.352 417.089 42.8053 417.036 43.264C416.983 43.712 416.903 44.2827 416.796 44.976C416.657 45.8293 416.588 46.384 416.588 46.64C416.588 46.8747 416.615 47.056 416.668 47.184C416.732 47.312 416.849 47.376 417.02 47.376C417.223 47.376 417.431 47.2533 417.644 47.008C417.868 46.752 418.055 46.3573 418.204 45.824L418.652 45.936C418.599 46.2347 418.481 46.56 418.3 46.912C418.129 47.2533 417.895 47.552 417.596 47.808C417.297 48.0533 416.951 48.176 416.556 48.176C416.076 48.176 415.74 48.0533 415.548 47.808C415.367 47.552 415.276 47.1627 415.276 46.64C415.276 46.2027 415.361 45.4987 415.532 44.528C415.543 44.432 415.58 44.1707 415.644 43.744C415.708 43.3067 415.756 42.9067 415.788 42.544C415.831 42.1707 415.852 41.84 415.852 41.552C415.852 41.3067 415.793 41.0827 415.676 40.88C415.559 40.6773 415.361 40.576 415.084 40.576C414.604 40.576 414.135 40.928 413.676 41.632C413.228 42.336 412.86 43.2053 412.572 44.24C412.295 45.2747 412.156 46.2453 412.156 47.152C412.156 47.3547 412.167 47.6373 412.188 48H410.844C410.833 47.904 410.828 47.7653 410.828 47.584C410.828 47.232 410.86 46.7627 410.924 46.176C410.988 45.5893 411.057 45.008 411.132 44.432C411.313 43.0453 411.404 42.1013 411.404 41.6C411.404 40.9173 411.148 40.576 410.636 40.576C410.167 40.576 409.703 40.928 409.244 41.632C408.796 42.336 408.428 43.2107 408.14 44.256C407.852 45.2907 407.708 46.256 407.708 47.152C407.708 47.3547 407.719 47.6373 407.74 48H406.396C406.385 47.904 406.38 47.7653 406.38 47.584C406.38 47.3173 406.401 46.9333 406.444 46.432C406.497 45.92 406.577 45.2373 406.684 44.384L406.876 42.72C406.919 42.3467 406.951 42.064 406.972 41.872C406.993 41.6693 407.004 41.4933 407.004 41.344C407.004 41.12 406.972 40.944 406.908 40.816C406.855 40.688 406.743 40.624 406.572 40.624C406.369 40.624 406.161 40.752 405.948 41.008C405.735 41.264 405.553 41.6533 405.404 42.176L404.956 42.08C405.009 41.7813 405.121 41.456 405.292 41.104C405.473 40.752 405.708 40.4533 405.996 40.208C406.295 39.952 406.641 39.824 407.036 39.824C407.836 39.824 408.236 40.3573 408.236 41.424C408.236 41.7227 408.204 42.0533 408.14 42.416C408.087 42.7787 408.033 43.104 407.98 43.392H408.028C408.487 42.0587 408.961 41.1307 409.452 40.608C409.943 40.0853 410.444 39.824 410.956 39.824C411.543 39.824 411.975 40.0107 412.252 40.384C412.529 40.7573 412.668 41.1787 412.668 41.648C412.668 41.9253 412.652 42.16 412.62 42.352C412.588 42.5333 412.513 42.864 412.396 43.344H412.444C412.924 42.0107 413.415 41.0933 413.916 40.592C414.417 40.08 414.924 39.824 415.436 39.824ZM425.02 39.824C425.468 39.824 425.793 40.0213 425.996 40.416C426.198 40.8107 426.3 41.296 426.3 41.872C426.3 42.8427 426.108 43.8613 425.724 44.928C425.34 45.984 424.822 47.0987 424.172 48.272C423.404 49.68 422.673 50.7093 421.98 51.36C421.286 52.0107 420.609 52.336 419.948 52.336C419.564 52.336 419.249 52.24 419.004 52.048C418.769 51.856 418.652 51.616 418.652 51.328C418.652 51.104 418.721 50.9227 418.86 50.784C418.998 50.656 419.148 50.592 419.308 50.592C419.532 50.592 419.702 50.6613 419.82 50.8C419.948 50.9493 420.006 51.1573 419.996 51.424C420.145 51.4987 420.262 51.536 420.348 51.536C420.753 51.5573 421.185 51.3013 421.644 50.768C422.113 50.2347 422.497 49.712 422.796 49.2C422.604 47.888 422.337 46.5653 421.996 45.232C421.654 43.8987 421.27 42.7147 420.844 41.68C420.716 41.4027 420.604 41.2 420.508 41.072C420.412 40.9333 420.278 40.864 420.108 40.864C419.926 40.864 419.777 40.976 419.66 41.2C419.553 41.424 419.5 41.728 419.5 42.112C419.5 42.2933 419.505 42.432 419.516 42.528L419.004 42.592C418.993 42.4853 418.988 42.3253 418.988 42.112C418.988 41.4827 419.1 40.944 419.324 40.496C419.558 40.048 419.937 39.824 420.46 39.824C420.94 39.824 421.313 39.9947 421.58 40.336C421.846 40.6667 422.076 41.0987 422.268 41.632C422.481 42.208 422.673 42.832 422.844 43.504C423.014 44.1653 423.217 45.0187 423.452 46.064C423.516 46.3733 423.596 46.9173 423.692 47.696H423.724C424.236 46.8 424.668 45.8613 425.02 44.88C425.372 43.888 425.548 42.992 425.548 42.192C425.548 41.936 425.521 41.7067 425.468 41.504C425.425 41.3013 425.372 41.152 425.308 41.056C425.212 41.12 425.078 41.152 424.908 41.152C424.716 41.152 424.561 41.0933 424.444 40.976C424.326 40.848 424.268 40.6987 424.268 40.528C424.268 40.304 424.342 40.1333 424.492 40.016C424.641 39.888 424.817 39.824 425.02 39.824ZM428.571 46.24C428.816 46.24 429.013 46.3307 429.163 46.512C429.323 46.6933 429.403 46.9173 429.403 47.184C429.403 47.4827 429.307 47.7387 429.115 47.952C428.923 48.1547 428.699 48.256 428.443 48.256C428.197 48.256 427.989 48.1653 427.819 47.984C427.659 47.792 427.579 47.5573 427.579 47.28C427.579 46.992 427.68 46.7467 427.883 46.544C428.085 46.3413 428.315 46.24 428.571 46.24Z" fill="#CDCDCD"/>
<path d="M138.65 39.5L143.65 39.55L143.5 42.35H138.55L138.35 46.55C138.283 48.25 138.133 49.4333 137.9 50.1L141.85 49.95L141.7 52H129.55L129.65 50.35H130.05C131.65 50.2167 132.75 49.65 133.35 48.65C133.95 47.6167 134.283 46.0833 134.35 44.05L134.45 42.35H119.15L119.25 39.9L137.95 16.2H139.65L138.65 39.5ZM135.35 23.15L122.4 39.25L134.6 39.45L135.45 23.15H135.35ZM161.367 16.2C165.401 16.2 168.334 17.8167 170.167 21.05C172.001 24.2833 172.917 28.2 172.917 32.8C172.917 33.5667 172.901 34.1333 172.867 34.5C172.701 37.5333 172.134 40.45 171.167 43.25C170.201 46.0167 168.751 48.3 166.817 50.1C164.917 51.9 162.551 52.8 159.717 52.8C155.517 52.8 152.517 51.25 150.717 48.15C148.951 45.0167 148.067 41.15 148.067 36.55C148.067 35.65 148.084 34.9667 148.117 34.5C148.251 31.4667 148.801 28.5667 149.767 25.8C150.767 23 152.234 20.7 154.167 18.9C156.134 17.1 158.534 16.2 161.367 16.2ZM161.467 18.1C158.834 18.1 156.801 19.6167 155.367 22.65C153.967 25.6833 153.151 29.3333 152.917 33.6C152.884 34.1333 152.867 34.9833 152.867 36.15C152.867 40.2167 153.401 43.6833 154.467 46.55C155.534 49.4167 157.351 50.85 159.917 50.85C162.517 50.85 164.451 49.3667 165.717 46.4C167.017 43.4333 167.784 39.7833 168.017 35.45C168.084 34.1167 168.117 33.1333 168.117 32.5C168.117 28.3333 167.601 24.9 166.567 22.2C165.567 19.4667 163.867 18.1 161.467 18.1Z" fill="#E5E5E5"/>
<defs>
<filter id="filter0_d" x="0" y="49" width="167" height="187" filterUnits="userSpaceOnUse" color-interpolation-filters="sRGB">
<feFlood flood-opacity="0" result="BackgroundImageFix"/>
<feColorMatrix in="SourceAlpha" type="matrix" values="0 0 0 0 0 0 0 0 0 0 0 0 0 0 0 0 0 0 127 0"/>
<feOffset dy="100"/>
<feGaussianBlur stdDeviation="40"/>
<feColorMatrix type="matrix" values="0 0 0 0 0.807929 0 0 0 0 0.797289 0 0 0 0 0.797289 0 0 0 0.2 0"/>
<feBlend mode="normal" in2="BackgroundImageFix" result="effect1_dropShadow"/>
<feBlend mode="normal" in="SourceGraphic" in2="effect1_dropShadow" result="shape"/>
</filter>
</defs>
</svg>
