<svg width="303" height="125" viewBox="0 0 303 125" fill="none" xmlns="http://www.w3.org/2000/svg">
<path d="M158.32 52.92C158.267 53.2187 158.149 53.544 157.968 53.896C157.797 54.248 157.557 54.552 157.248 54.808C156.949 55.0533 156.597 55.176 156.192 55.176C155.787 55.176 155.488 55.048 155.296 54.792C155.104 54.536 155.008 54.184 155.008 53.736C155.008 53.448 155.045 53.0693 155.12 52.6C155.195 52.12 155.307 51.4533 155.456 50.6C155.627 49.6507 155.76 48.8347 155.856 48.152H155.76C155.067 50.0933 154.517 51.544 154.112 52.504C153.707 53.4533 153.323 54.136 152.96 54.552C152.608 54.968 152.213 55.176 151.776 55.176C151.392 55.176 151.12 55.032 150.96 54.744C150.811 54.456 150.736 53.96 150.736 53.256C150.736 50.5573 150.795 48.856 150.912 48.152H150.784C150.219 50.136 149.781 51.5653 149.472 52.44C149.173 53.3147 148.827 53.9867 148.432 54.456C148.048 54.9253 147.563 55.16 146.976 55.16C146.677 55.16 146.427 55.0747 146.224 54.904C146.032 54.7333 145.936 54.5307 145.936 54.296C145.936 54.0933 146.005 53.9173 146.144 53.768C146.283 53.608 146.459 53.528 146.672 53.528C146.853 53.528 147.013 53.5867 147.152 53.704C147.291 53.8213 147.36 53.9707 147.36 54.152C147.36 54.2267 147.349 54.3067 147.328 54.392C147.701 54.4133 148.117 53.8907 148.576 52.824C149.035 51.7573 149.568 50.024 150.176 47.624L148.736 47.64L148.8 47H151.968C152 47.1707 152.016 47.352 152.016 47.544C152.016 48.024 152.005 48.7227 151.984 49.64L151.968 51.688C151.968 52.0613 151.979 52.632 152 53.4C152.021 53.784 152.043 54.0347 152.064 54.152C152.096 54.2693 152.16 54.328 152.256 54.328C152.469 54.328 152.843 53.736 153.376 52.552C153.92 51.368 154.624 49.5173 155.488 47H156.96C156.971 47.096 156.976 47.2347 156.976 47.416C156.976 47.8853 156.848 49.016 156.592 50.808C156.517 51.4053 156.443 51.9813 156.368 52.536C156.304 53.08 156.272 53.4533 156.272 53.656C156.272 54.1253 156.405 54.36 156.672 54.36C156.885 54.36 157.099 54.2373 157.312 53.992C157.536 53.736 157.723 53.3467 157.872 52.824L158.32 52.92ZM170.82 52.92C170.767 53.2187 170.649 53.544 170.468 53.896C170.297 54.248 170.057 54.552 169.748 54.808C169.449 55.0533 169.097 55.176 168.692 55.176C168.287 55.176 167.988 55.048 167.796 54.792C167.604 54.536 167.508 54.184 167.508 53.736C167.508 53.448 167.545 53.0693 167.62 52.6C167.695 52.12 167.807 51.4533 167.956 50.6C168.127 49.6507 168.26 48.8347 168.356 48.152H168.26C167.567 50.0933 167.017 51.544 166.612 52.504C166.207 53.4533 165.823 54.136 165.46 54.552C165.108 54.968 164.713 55.176 164.276 55.176C163.892 55.176 163.62 55.032 163.46 54.744C163.311 54.456 163.236 53.96 163.236 53.256C163.236 50.5573 163.295 48.856 163.412 48.152H163.284C162.719 50.136 162.281 51.5653 161.972 52.44C161.673 53.3147 161.327 53.9867 160.932 54.456C160.548 54.9253 160.063 55.16 159.476 55.16C159.177 55.16 158.927 55.0747 158.724 54.904C158.532 54.7333 158.436 54.5307 158.436 54.296C158.436 54.0933 158.505 53.9173 158.644 53.768C158.783 53.608 158.959 53.528 159.172 53.528C159.353 53.528 159.513 53.5867 159.652 53.704C159.791 53.8213 159.86 53.9707 159.86 54.152C159.86 54.2267 159.849 54.3067 159.828 54.392C160.201 54.4133 160.617 53.8907 161.076 52.824C161.535 51.7573 162.068 50.024 162.676 47.624L161.236 47.64L161.3 47H164.468C164.5 47.1707 164.516 47.352 164.516 47.544C164.516 48.024 164.505 48.7227 164.484 49.64L164.468 51.688C164.468 52.0613 164.479 52.632 164.5 53.4C164.521 53.784 164.543 54.0347 164.564 54.152C164.596 54.2693 164.66 54.328 164.756 54.328C164.969 54.328 165.343 53.736 165.876 52.552C166.42 51.368 167.124 49.5173 167.988 47H169.46C169.471 47.096 169.476 47.2347 169.476 47.416C169.476 47.8853 169.348 49.016 169.092 50.808C169.017 51.4053 168.943 51.9813 168.868 52.536C168.804 53.08 168.772 53.4533 168.772 53.656C168.772 54.1253 168.905 54.36 169.172 54.36C169.385 54.36 169.599 54.2373 169.812 53.992C170.036 53.736 170.223 53.3467 170.372 52.824L170.82 52.92ZM185.811 46.824C186.408 46.824 186.835 47.016 187.091 47.4C187.358 47.784 187.491 48.2853 187.491 48.904C187.491 49.352 187.464 49.8053 187.411 50.264C187.358 50.712 187.278 51.2827 187.171 51.976C187.032 52.8293 186.963 53.384 186.963 53.64C186.963 53.8747 186.99 54.056 187.043 54.184C187.107 54.312 187.224 54.376 187.395 54.376C187.598 54.376 187.806 54.2533 188.019 54.008C188.243 53.752 188.43 53.3573 188.579 52.824L189.027 52.936C188.974 53.2347 188.856 53.56 188.675 53.912C188.504 54.2533 188.27 54.552 187.971 54.808C187.672 55.0533 187.326 55.176 186.931 55.176C186.451 55.176 186.115 55.0533 185.923 54.808C185.742 54.552 185.651 54.1627 185.651 53.64C185.651 53.2027 185.736 52.4987 185.907 51.528C185.918 51.432 185.955 51.1707 186.019 50.744C186.083 50.3067 186.131 49.9067 186.163 49.544C186.206 49.1707 186.227 48.84 186.227 48.552C186.227 48.3067 186.168 48.0827 186.051 47.88C185.934 47.6773 185.736 47.576 185.459 47.576C184.979 47.576 184.51 47.928 184.051 48.632C183.603 49.336 183.235 50.2053 182.947 51.24C182.67 52.2747 182.531 53.2453 182.531 54.152C182.531 54.3547 182.542 54.6373 182.563 55H181.219C181.208 54.904 181.203 54.7653 181.203 54.584C181.203 54.232 181.235 53.7627 181.299 53.176C181.363 52.5893 181.432 52.008 181.507 51.432C181.688 50.0453 181.779 49.1013 181.779 48.6C181.779 47.9173 181.523 47.576 181.011 47.576C180.542 47.576 180.078 47.928 179.619 48.632C179.171 49.336 178.803 50.2107 178.515 51.256C178.227 52.2907 178.083 53.256 178.083 54.152C178.083 54.3547 178.094 54.6373 178.115 55H176.771C176.76 54.904 176.755 54.7653 176.755 54.584C176.755 54.3173 176.776 53.9333 176.819 53.432C176.872 52.92 176.952 52.2373 177.059 51.384L177.251 49.72C177.294 49.3467 177.326 49.064 177.347 48.872C177.368 48.6693 177.379 48.4933 177.379 48.344C177.379 48.12 177.347 47.944 177.283 47.816C177.23 47.688 177.118 47.624 176.947 47.624C176.744 47.624 176.536 47.752 176.323 48.008C176.11 48.264 175.928 48.6533 175.779 49.176L175.331 49.08C175.384 48.7813 175.496 48.456 175.667 48.104C175.848 47.752 176.083 47.4533 176.371 47.208C176.67 46.952 177.016 46.824 177.411 46.824C178.211 46.824 178.611 47.3573 178.611 48.424C178.611 48.7227 178.579 49.0533 178.515 49.416C178.462 49.7787 178.408 50.104 178.355 50.392H178.403C178.862 49.0587 179.336 48.1307 179.827 47.608C180.318 47.0853 180.819 46.824 181.331 46.824C181.918 46.824 182.35 47.0107 182.627 47.384C182.904 47.7573 183.043 48.1787 183.043 48.648C183.043 48.9253 183.027 49.16 182.995 49.352C182.963 49.5333 182.888 49.864 182.771 50.344H182.819C183.299 49.0107 183.79 48.0933 184.291 47.592C184.792 47.08 185.299 46.824 185.811 46.824ZM193.795 46.824C194.371 46.824 194.888 46.9627 195.347 47.24C195.816 47.5173 196.179 47.9227 196.435 48.456C196.701 48.9787 196.835 49.6027 196.835 50.328C196.835 51.2027 196.675 52.008 196.355 52.744C196.045 53.48 195.592 54.072 194.995 54.52C194.408 54.9573 193.715 55.176 192.915 55.176C191.901 55.176 191.133 54.8453 190.611 54.184C190.099 53.512 189.843 52.648 189.843 51.592C189.843 50.7173 190.003 49.9173 190.323 49.192C190.643 48.4667 191.101 47.8907 191.699 47.464C192.296 47.0373 192.995 46.824 193.795 46.824ZM193.539 47.416C193.069 47.416 192.659 47.5867 192.307 47.928C191.965 48.2587 191.704 48.7173 191.523 49.304C191.341 49.88 191.251 50.5253 191.251 51.24C191.251 52.1253 191.395 52.904 191.683 53.576C191.971 54.2373 192.44 54.568 193.091 54.568C193.635 54.568 194.077 54.36 194.419 53.944C194.771 53.528 195.027 53.016 195.187 52.408C195.347 51.8 195.427 51.208 195.427 50.632C195.427 49.736 195.283 48.9787 194.995 48.36C194.717 47.7307 194.232 47.416 193.539 47.416ZM206.699 52.92C206.645 53.2187 206.533 53.544 206.363 53.896C206.192 54.2373 205.957 54.536 205.659 54.792C205.36 55.048 205.013 55.176 204.619 55.176C204.203 55.176 203.893 55.048 203.691 54.792C203.488 54.536 203.387 54.184 203.387 53.736C203.387 53.3413 203.461 52.6213 203.611 51.576C203.835 49.9227 203.947 48.7067 203.947 47.928V47.608L202.859 47.624H203.275C203.008 47.624 202.837 47.7947 202.763 48.136C202.336 50.28 201.787 51.9867 201.115 53.256C200.443 54.5253 199.584 55.16 198.539 55.16C198.24 55.16 197.989 55.0747 197.787 54.904C197.595 54.7333 197.498 54.5307 197.498 54.296C197.498 54.0933 197.568 53.9173 197.707 53.768C197.845 53.608 198.021 53.528 198.235 53.528C198.416 53.528 198.576 53.5867 198.715 53.704C198.853 53.8213 198.923 53.9707 198.923 54.152C198.923 54.2267 198.912 54.3067 198.891 54.392C199.339 54.4453 199.771 54.1413 200.187 53.48C200.613 52.808 200.981 51.944 201.291 50.888C201.611 49.8213 201.851 48.7333 202.011 47.624L200.539 47.64L200.587 47H205.259C205.269 47.096 205.275 47.2347 205.275 47.416C205.275 47.6933 205.237 48.1627 205.163 48.824C205.099 49.4747 205.024 50.136 204.939 50.808C204.747 52.4293 204.651 53.3787 204.651 53.656C204.651 54.1253 204.795 54.36 205.083 54.36C205.285 54.36 205.493 54.2373 205.707 53.992C205.92 53.736 206.101 53.3467 206.251 52.824L206.699 52.92ZM202.715 48.28V48.328V48.28ZM220.523 55.208C220.694 55.4853 220.779 55.784 220.779 56.104C220.779 56.8507 220.32 57.6133 219.403 58.392L219.035 58.024C219.472 57.48 219.691 57.032 219.691 56.68C219.691 56.52 219.659 56.376 219.595 56.248C219.542 56.1307 219.515 55.9867 219.515 55.816C219.515 55.5493 219.606 55.272 219.787 54.984L219.595 54.888C219.318 55.08 219.014 55.176 218.683 55.176C217.883 55.176 217.483 54.6427 217.483 53.576C217.483 53.2773 217.51 52.9467 217.563 52.584C217.627 52.2213 217.686 51.896 217.739 51.608H217.691C217.232 52.9413 216.758 53.8693 216.267 54.392C215.776 54.9147 215.275 55.176 214.763 55.176C214.176 55.176 213.744 54.9893 213.467 54.616C213.19 54.2427 213.051 53.8213 213.051 53.352C213.051 53.0747 213.067 52.8453 213.099 52.664C213.131 52.472 213.206 52.136 213.323 51.656H213.275C212.795 52.9893 212.304 53.912 211.803 54.424C211.302 54.9253 210.795 55.176 210.283 55.176C209.686 55.176 209.254 54.984 208.987 54.6C208.731 54.216 208.603 53.7147 208.603 53.096C208.603 52.648 208.63 52.2 208.683 51.752C208.736 51.2933 208.816 50.7173 208.923 50.024C209.062 49.1707 209.131 48.616 209.131 48.36C209.131 48.1253 209.099 47.944 209.035 47.816C208.982 47.688 208.87 47.624 208.699 47.624C208.496 47.624 208.283 47.752 208.059 48.008C207.846 48.2533 207.664 48.6427 207.515 49.176L207.067 49.064C207.12 48.7653 207.232 48.4453 207.403 48.104C207.584 47.752 207.824 47.4533 208.123 47.208C208.422 46.952 208.768 46.824 209.163 46.824C209.643 46.824 209.974 46.952 210.155 47.208C210.347 47.4533 210.443 47.8373 210.443 48.36C210.443 48.7973 210.358 49.5013 210.187 50.472C210.176 50.568 210.139 50.8347 210.075 51.272C210.011 51.6987 209.958 52.0987 209.915 52.472C209.883 52.8347 209.867 53.16 209.867 53.448C209.867 53.6933 209.926 53.9173 210.043 54.12C210.16 54.3227 210.358 54.424 210.635 54.424C211.115 54.424 211.579 54.072 212.027 53.368C212.486 52.664 212.854 51.7947 213.131 50.76C213.419 49.7253 213.563 48.7547 213.563 47.848C213.563 47.6453 213.552 47.3627 213.531 47H214.875C214.886 47.096 214.891 47.2347 214.891 47.416C214.891 47.768 214.859 48.2373 214.795 48.824C214.731 49.4107 214.662 49.992 214.587 50.568C214.406 51.9547 214.315 52.8987 214.315 53.4C214.315 54.0827 214.571 54.424 215.083 54.424C215.552 54.424 216.011 54.072 216.459 53.368C216.918 52.664 217.291 51.7947 217.579 50.76C217.867 49.7147 218.011 48.744 218.011 47.848C218.011 47.6453 218 47.3627 217.979 47H219.323C219.334 47.096 219.339 47.2347 219.339 47.416C219.339 47.6827 219.312 48.072 219.259 48.584C219.216 49.0853 219.142 49.7627 219.035 50.616L218.843 52.28C218.8 52.6533 218.768 52.9413 218.747 53.144C218.726 53.336 218.715 53.5067 218.715 53.656C218.715 53.88 218.742 54.056 218.795 54.184C218.859 54.312 218.976 54.376 219.147 54.376C219.254 54.376 219.366 54.3387 219.483 54.264C219.611 54.1893 219.734 54.0827 219.851 53.944L220.331 52.824L220.779 52.952L220.427 53.928C220.352 54.152 220.315 54.3493 220.315 54.52C220.315 54.7653 220.384 54.9947 220.523 55.208ZM223.628 46.824C224.055 46.824 224.375 46.9573 224.588 47.224C224.812 47.4907 224.924 47.8747 224.924 48.376C224.924 48.76 224.839 49.56 224.668 50.776C224.657 50.872 224.609 51.2347 224.524 51.864C224.439 52.4827 224.396 53 224.396 53.416C224.396 53.672 224.449 53.9067 224.556 54.12C224.673 54.3227 224.871 54.424 225.148 54.424C225.617 54.424 226.087 54.072 226.556 53.368C227.025 52.6533 227.409 51.7787 227.708 50.744C228.017 49.7093 228.172 48.744 228.172 47.848C228.172 47.6453 228.161 47.3627 228.14 47H229.484C229.495 47.096 229.5 47.2347 229.5 47.416C229.5 47.672 229.473 48.0667 229.42 48.6C229.367 49.1333 229.287 49.8267 229.18 50.68L229.02 52.008C229.009 52.1467 228.983 52.4027 228.94 52.776C228.897 53.1493 228.876 53.4427 228.876 53.656C228.876 54.1253 229.02 54.36 229.308 54.36C229.511 54.36 229.719 54.2373 229.932 53.992C230.145 53.736 230.327 53.3467 230.476 52.824L230.924 52.92C230.871 53.2187 230.753 53.544 230.572 53.896C230.401 54.248 230.167 54.552 229.868 54.808C229.58 55.0533 229.239 55.176 228.844 55.176C228.428 55.176 228.119 55.048 227.916 54.792C227.713 54.536 227.612 54.184 227.612 53.736C227.612 53.2667 227.708 52.552 227.9 51.592H227.852C227.34 52.968 226.849 53.912 226.38 54.424C225.911 54.9253 225.393 55.176 224.828 55.176C224.231 55.176 223.788 54.984 223.5 54.6C223.223 54.2053 223.084 53.704 223.084 53.096C223.084 52.6373 223.111 52.1733 223.164 51.704C223.217 51.2347 223.297 50.6693 223.404 50.008C223.425 49.8907 223.463 49.6453 223.516 49.272C223.569 48.888 223.596 48.5893 223.596 48.376C223.596 48.1307 223.564 47.944 223.5 47.816C223.447 47.688 223.335 47.624 223.164 47.624C222.972 47.624 222.775 47.752 222.572 48.008C222.369 48.2533 222.193 48.6427 222.044 49.176L221.596 49.08C221.692 48.5573 221.911 48.0507 222.252 47.56C222.604 47.0693 223.063 46.824 223.628 46.824ZM240.328 52.92C240.275 53.2187 240.158 53.544 239.976 53.896C239.806 54.248 239.571 54.552 239.272 54.808C238.984 55.0533 238.643 55.176 238.248 55.176C237.832 55.176 237.523 55.048 237.32 54.792C237.118 54.536 237.016 54.184 237.016 53.736C237.016 53.448 237.075 52.856 237.192 51.96L237.24 51.512L234.152 51.544L233.864 53.992C233.843 54.2053 233.832 54.36 233.832 54.456C233.832 54.6373 233.848 54.8187 233.88 55H232.536C232.526 54.904 232.52 54.7653 232.52 54.584C232.531 54.1893 232.627 53.3733 232.808 52.136L232.904 51.384L233 50.696C233.096 49.9813 233.16 49.464 233.192 49.144C233.235 48.8133 233.256 48.5467 233.256 48.344C233.278 47.864 233.139 47.624 232.84 47.624C232.638 47.624 232.424 47.752 232.2 48.008C231.987 48.264 231.8 48.6533 231.64 49.176L231.192 49.08C231.256 48.7813 231.379 48.456 231.56 48.104C231.742 47.752 231.982 47.4533 232.28 47.208C232.579 46.952 232.926 46.824 233.32 46.824C234.099 46.824 234.488 47.3413 234.488 48.376C234.488 48.5467 234.467 48.824 234.424 49.208L234.232 50.904H237.32C237.491 49.56 237.576 48.568 237.576 47.928C237.576 47.736 237.566 47.4267 237.544 47H238.888C238.899 47.096 238.904 47.2347 238.904 47.416C238.904 47.6933 238.867 48.1627 238.792 48.824C238.728 49.4747 238.654 50.136 238.568 50.808C238.376 52.4293 238.28 53.3787 238.28 53.656C238.28 54.1253 238.424 54.36 238.712 54.36C238.915 54.36 239.123 54.2373 239.336 53.992C239.55 53.736 239.731 53.3467 239.88 52.824L240.328 52.92ZM245.764 46.824C246.489 46.824 247.204 46.9147 247.908 47.096C247.439 50.5733 247.204 52.7067 247.204 53.496C247.204 53.7733 247.231 53.992 247.284 54.152C247.337 54.3013 247.46 54.376 247.652 54.376C247.855 54.376 248.063 54.248 248.276 53.992C248.489 53.736 248.671 53.3467 248.82 52.824L249.268 52.92C249.215 53.2187 249.097 53.544 248.916 53.896C248.745 54.248 248.511 54.552 248.212 54.808C247.924 55.0533 247.583 55.176 247.188 55.176C246.399 55.176 246.004 54.696 246.004 53.736C246.004 53.2667 246.1 52.552 246.292 51.592H246.244C245.796 53 245.305 53.9493 244.772 54.44C244.239 54.9307 243.689 55.176 243.124 55.176C242.505 55.176 242.009 54.952 241.636 54.504C241.273 54.056 241.092 53.352 241.092 52.392C241.092 51.368 241.268 50.4347 241.62 49.592C241.972 48.7493 242.5 48.0773 243.204 47.576C243.908 47.0747 244.761 46.824 245.764 46.824ZM245.268 47.4C244.649 47.4 244.127 47.624 243.7 48.072C243.273 48.5093 242.953 49.0907 242.74 49.816C242.537 50.5307 242.436 51.2987 242.436 52.12C242.436 53.688 242.783 54.472 243.476 54.472C243.945 54.472 244.415 54.104 244.884 53.368C245.353 52.632 245.743 51.7253 246.052 50.648C246.361 49.56 246.516 48.5413 246.516 47.592C246.196 47.464 245.78 47.4 245.268 47.4ZM262.285 53.368C262.178 53.88 261.975 54.312 261.677 54.664C261.378 55.0053 260.978 55.176 260.477 55.176C260.082 55.176 259.778 55.0267 259.565 54.728C259.362 54.4293 259.229 53.88 259.165 53.08C259.101 52.3333 258.978 51.816 258.797 51.528C258.615 51.24 258.333 51.096 257.949 51.096L256.621 51.112C256.439 52.52 256.359 53.5227 256.381 54.12C256.381 54.28 256.391 54.5733 256.413 55H255.085L255.069 54.808L255.085 54.584C255.085 53.9973 255.186 52.904 255.389 51.304C255.485 50.4827 255.57 49.8427 255.645 49.384C255.709 48.8613 255.741 48.504 255.741 48.312C255.741 48.0987 255.714 47.9333 255.661 47.816C255.607 47.688 255.495 47.624 255.325 47.624C255.122 47.624 254.909 47.752 254.685 48.008C254.471 48.264 254.285 48.6533 254.125 49.176L253.677 49.08C253.741 48.7813 253.863 48.456 254.045 48.104C254.226 47.752 254.466 47.4533 254.765 47.208C255.063 46.952 255.41 46.824 255.805 46.824C256.221 46.824 256.514 46.9413 256.685 47.176C256.866 47.4107 256.957 47.768 256.957 48.248C256.957 48.5147 256.919 48.92 256.845 49.464L256.685 50.648H257.197C257.666 50.648 258.034 50.52 258.301 50.264C258.578 50.008 258.839 49.56 259.085 48.92C259.362 48.152 259.655 47.6133 259.965 47.304C260.285 46.984 260.69 46.824 261.181 46.824C261.458 46.824 261.677 46.904 261.837 47.064C261.997 47.224 262.077 47.4373 262.077 47.704C262.077 47.928 262.007 48.12 261.869 48.28C261.741 48.44 261.559 48.52 261.325 48.52C261.058 48.52 260.85 48.4613 260.701 48.344C260.551 48.2267 260.466 48.0613 260.445 47.848C260.295 47.944 260.162 48.088 260.045 48.28C259.927 48.472 259.794 48.776 259.645 49.192C259.506 49.576 259.335 49.9067 259.133 50.184C258.93 50.4613 258.706 50.664 258.461 50.792C259.613 50.824 260.253 51.4533 260.381 52.68C260.445 53.3093 260.519 53.736 260.605 53.96C260.701 54.1733 260.871 54.28 261.117 54.28C261.277 54.28 261.415 54.2053 261.533 54.056C261.65 53.896 261.751 53.64 261.837 53.288L262.285 53.368ZM267.232 46.824C267.808 46.824 268.326 46.9627 268.784 47.24C269.254 47.5173 269.616 47.9227 269.872 48.456C270.139 48.9787 270.272 49.6027 270.272 50.328C270.272 51.2027 270.112 52.008 269.792 52.744C269.483 53.48 269.03 54.072 268.432 54.52C267.846 54.9573 267.152 55.176 266.352 55.176C265.339 55.176 264.571 54.8453 264.048 54.184C263.536 53.512 263.28 52.648 263.28 51.592C263.28 50.7173 263.44 49.9173 263.76 49.192C264.08 48.4667 264.539 47.8907 265.136 47.464C265.734 47.0373 266.432 46.824 267.232 46.824ZM266.976 47.416C266.507 47.416 266.096 47.5867 265.744 47.928C265.403 48.2587 265.142 48.7173 264.96 49.304C264.779 49.88 264.688 50.5253 264.688 51.24C264.688 52.1253 264.832 52.904 265.12 53.576C265.408 54.2373 265.878 54.568 266.528 54.568C267.072 54.568 267.515 54.36 267.856 53.944C268.208 53.528 268.464 53.016 268.624 52.408C268.784 51.8 268.864 51.208 268.864 50.632C268.864 49.736 268.72 48.9787 268.432 48.36C268.155 47.7307 267.67 47.416 266.976 47.416ZM283.976 52.648C283.603 53.576 283.229 54.232 282.856 54.616C282.493 54.9893 282.061 55.176 281.56 55.176C280.845 55.176 280.296 54.872 279.912 54.264C279.539 53.656 279.363 52.792 279.384 51.672C279.384 51.544 279.395 51.352 279.416 51.096H278.344C278.195 52.4507 278.125 53.4587 278.136 54.12C278.136 54.3867 278.152 54.68 278.184 55H276.856C276.845 54.904 276.84 54.7653 276.84 54.584C276.84 53.9333 276.925 52.84 277.096 51.304L277.112 51.112H276.04C275.891 52.296 275.549 53.272 275.016 54.04C274.493 54.7973 273.843 55.176 273.064 55.176C272.776 55.176 272.499 55.096 272.232 54.936C271.965 54.776 271.752 54.5627 271.592 54.296C271.432 54.0187 271.352 53.7147 271.352 53.384C271.352 53.1067 271.421 52.888 271.56 52.728C271.699 52.568 271.875 52.488 272.088 52.488C272.301 52.488 272.461 52.552 272.568 52.68C272.685 52.7973 272.739 52.9413 272.728 53.112C272.728 53.368 272.632 53.5867 272.44 53.768C272.483 54.056 272.563 54.264 272.68 54.392C272.797 54.5093 272.963 54.568 273.176 54.568C273.667 54.568 274.056 54.1733 274.344 53.384C274.643 52.584 274.819 51.688 274.872 50.696C274.883 50.5573 274.888 50.3547 274.888 50.088C274.888 49.2347 274.792 48.6107 274.6 48.216C274.408 47.8107 274.152 47.608 273.832 47.608C273.512 47.608 273.224 47.736 272.968 47.992C272.723 48.248 272.472 48.7013 272.216 49.352L271.736 49.08C272.12 48.216 272.493 47.624 272.856 47.304C273.219 46.984 273.64 46.824 274.12 46.824C274.536 46.824 274.899 46.9627 275.208 47.24C275.517 47.5067 275.752 47.9067 275.912 48.44C276.072 48.9627 276.136 49.592 276.104 50.328L276.088 50.648H277.176C277.261 49.9547 277.32 49.4 277.352 48.984C277.395 48.568 277.411 48.136 277.4 47.688C277.4 47.432 277.384 47.144 277.352 46.824H278.648C278.659 46.92 278.664 47.0587 278.664 47.24C278.664 47.5813 278.637 48.0133 278.584 48.536C278.541 49.0587 278.493 49.5867 278.44 50.12L278.392 50.648H279.448C279.587 49.5173 279.896 48.6 280.376 47.896C280.856 47.1813 281.464 46.824 282.2 46.824C282.723 46.824 283.144 46.9947 283.464 47.336C283.795 47.6773 283.96 48.1093 283.96 48.632C283.96 48.9093 283.891 49.128 283.752 49.288C283.624 49.4373 283.459 49.512 283.256 49.512C283.043 49.512 282.883 49.4533 282.776 49.336C282.669 49.208 282.616 49.0587 282.616 48.888C282.616 48.6107 282.696 48.392 282.856 48.232C282.856 47.9867 282.797 47.7893 282.68 47.64C282.573 47.4907 282.408 47.416 282.184 47.416C281.843 47.416 281.549 47.6293 281.304 48.056C281.069 48.472 280.893 49 280.776 49.64C280.669 50.2693 280.616 50.8933 280.616 51.512C280.616 52.5573 280.717 53.3307 280.92 53.832C281.133 54.3227 281.411 54.568 281.752 54.568C282.083 54.568 282.376 54.3973 282.632 54.056C282.888 53.7147 283.155 53.1547 283.432 52.376L283.976 52.648ZM286.675 46.824C287.102 46.824 287.422 46.9573 287.635 47.224C287.859 47.4907 287.971 47.8747 287.971 48.376C287.971 48.76 287.886 49.56 287.715 50.776C287.704 50.872 287.656 51.2347 287.571 51.864C287.486 52.4827 287.443 53 287.443 53.416C287.443 53.672 287.496 53.9067 287.603 54.12C287.72 54.3227 287.918 54.424 288.195 54.424C288.664 54.424 289.134 54.072 289.603 53.368C290.072 52.6533 290.456 51.7787 290.755 50.744C291.064 49.7093 291.219 48.744 291.219 47.848C291.219 47.6453 291.208 47.3627 291.187 47H292.531C292.542 47.096 292.547 47.2347 292.547 47.416C292.547 47.672 292.52 48.0667 292.467 48.6C292.414 49.1333 292.334 49.8267 292.227 50.68L292.067 52.008C292.056 52.1467 292.03 52.4027 291.987 52.776C291.944 53.1493 291.923 53.4427 291.923 53.656C291.923 54.1253 292.067 54.36 292.355 54.36C292.558 54.36 292.766 54.2373 292.979 53.992C293.192 53.736 293.374 53.3467 293.523 52.824L293.971 52.92C293.918 53.2187 293.8 53.544 293.619 53.896C293.448 54.248 293.214 54.552 292.915 54.808C292.627 55.0533 292.286 55.176 291.891 55.176C291.475 55.176 291.166 55.048 290.963 54.792C290.76 54.536 290.659 54.184 290.659 53.736C290.659 53.2667 290.755 52.552 290.947 51.592H290.899C290.387 52.968 289.896 53.912 289.427 54.424C288.958 54.9253 288.44 55.176 287.875 55.176C287.278 55.176 286.835 54.984 286.547 54.6C286.27 54.2053 286.131 53.704 286.131 53.096C286.131 52.6373 286.158 52.1733 286.211 51.704C286.264 51.2347 286.344 50.6693 286.451 50.008C286.472 49.8907 286.51 49.6453 286.563 49.272C286.616 48.888 286.643 48.5893 286.643 48.376C286.643 48.1307 286.611 47.944 286.547 47.816C286.494 47.688 286.382 47.624 286.211 47.624C286.019 47.624 285.822 47.752 285.619 48.008C285.416 48.2533 285.24 48.6427 285.091 49.176L284.643 49.08C284.739 48.5573 284.958 48.0507 285.299 47.56C285.651 47.0693 286.11 46.824 286.675 46.824ZM155.344 72.92C155.291 73.2187 155.173 73.544 154.992 73.896C154.821 74.248 154.587 74.552 154.288 74.808C154 75.0533 153.659 75.176 153.264 75.176C152.848 75.176 152.539 75.048 152.336 74.792C152.133 74.536 152.032 74.184 152.032 73.736C152.032 73.448 152.091 72.856 152.208 71.96L152.256 71.512L149.168 71.544L148.88 73.992C148.859 74.2053 148.848 74.36 148.848 74.456C148.848 74.6373 148.864 74.8187 148.896 75H147.552C147.541 74.904 147.536 74.7653 147.536 74.584C147.547 74.1893 147.643 73.3733 147.824 72.136L147.92 71.384L148.016 70.696C148.112 69.9813 148.176 69.464 148.208 69.144C148.251 68.8133 148.272 68.5467 148.272 68.344C148.293 67.864 148.155 67.624 147.856 67.624C147.653 67.624 147.44 67.752 147.216 68.008C147.003 68.264 146.816 68.6533 146.656 69.176L146.208 69.08C146.272 68.7813 146.395 68.456 146.576 68.104C146.757 67.752 146.997 67.4533 147.296 67.208C147.595 66.952 147.941 66.824 148.336 66.824C149.115 66.824 149.504 67.3413 149.504 68.376C149.504 68.5467 149.483 68.824 149.44 69.208L149.248 70.904H152.336C152.507 69.56 152.592 68.568 152.592 67.928C152.592 67.736 152.581 67.4267 152.56 67H153.904C153.915 67.096 153.92 67.2347 153.92 67.416C153.92 67.6933 153.883 68.1627 153.808 68.824C153.744 69.4747 153.669 70.136 153.584 70.808C153.392 72.4293 153.296 73.3787 153.296 73.656C153.296 74.1253 153.44 74.36 153.728 74.36C153.931 74.36 154.139 74.2373 154.352 73.992C154.565 73.736 154.747 73.3467 154.896 72.824L155.344 72.92ZM160.78 66.824C161.505 66.824 162.22 66.9147 162.924 67.096C162.454 70.5733 162.22 72.7067 162.22 73.496C162.22 73.7733 162.246 73.992 162.3 74.152C162.353 74.3013 162.476 74.376 162.668 74.376C162.87 74.376 163.078 74.248 163.292 73.992C163.505 73.736 163.686 73.3467 163.836 72.824L164.284 72.92C164.23 73.2187 164.113 73.544 163.932 73.896C163.761 74.248 163.526 74.552 163.228 74.808C162.94 75.0533 162.598 75.176 162.204 75.176C161.414 75.176 161.02 74.696 161.02 73.736C161.02 73.2667 161.116 72.552 161.308 71.592H161.26C160.812 73 160.321 73.9493 159.788 74.44C159.254 74.9307 158.705 75.176 158.14 75.176C157.521 75.176 157.025 74.952 156.652 74.504C156.289 74.056 156.108 73.352 156.108 72.392C156.108 71.368 156.284 70.4347 156.636 69.592C156.988 68.7493 157.516 68.0773 158.22 67.576C158.924 67.0747 159.777 66.824 160.78 66.824ZM160.284 67.4C159.665 67.4 159.142 67.624 158.716 68.072C158.289 68.5093 157.969 69.0907 157.756 69.816C157.553 70.5307 157.452 71.2987 157.452 72.12C157.452 73.688 157.798 74.472 158.492 74.472C158.961 74.472 159.43 74.104 159.9 73.368C160.369 72.632 160.758 71.7253 161.068 70.648C161.377 69.56 161.532 68.5413 161.532 67.592C161.212 67.464 160.796 67.4 160.284 67.4ZM173.268 70.552C173.972 70.5093 174.484 70.664 174.804 71.016C175.135 71.368 175.3 71.8107 175.3 72.344C175.3 72.8667 175.156 73.3467 174.868 73.784C174.591 74.2107 174.202 74.552 173.7 74.808C173.199 75.0533 172.639 75.176 172.02 75.176C171.06 75.176 170.335 74.872 169.844 74.264C169.354 73.6453 169.108 72.7973 169.108 71.72C169.108 70.8667 169.252 70.0667 169.54 69.32C169.828 68.5733 170.25 67.9707 170.804 67.512C171.37 67.0533 172.042 66.824 172.82 66.824C173.407 66.824 173.903 66.9573 174.308 67.224C174.714 67.48 174.916 67.8693 174.916 68.392C174.916 68.7973 174.778 69.192 174.5 69.576C174.234 69.9493 173.823 70.2747 173.268 70.552ZM172.66 67.368C172.063 67.368 171.572 67.7147 171.188 68.408C170.804 69.1013 170.58 69.9653 170.516 71C171.626 70.744 172.404 70.424 172.852 70.04C173.3 69.6453 173.524 69.1333 173.524 68.504C173.524 67.7467 173.236 67.368 172.66 67.368ZM172.388 74.568C172.868 74.568 173.247 74.4027 173.524 74.072C173.802 73.7413 173.94 73.2987 173.94 72.744C173.94 72.264 173.823 71.8747 173.588 71.576C173.364 71.2773 173.034 71.128 172.596 71.128C172.404 71.128 172.196 71.16 171.972 71.224L170.5 71.608C170.532 72.536 170.698 73.2613 170.996 73.784C171.306 74.3067 171.77 74.568 172.388 74.568ZM180.465 66.824C181.105 66.824 181.638 66.9733 182.065 67.272C182.492 67.5707 182.705 68.0347 182.705 68.664C182.705 69.4533 182.23 70.0667 181.281 70.504C180.332 70.9413 179.233 71.2293 177.985 71.368C177.985 72.3707 178.134 73.1227 178.433 73.624C178.732 74.1253 179.19 74.376 179.809 74.376C180.3 74.376 180.774 74.216 181.233 73.896C181.692 73.5653 182.092 73.08 182.433 72.44L182.961 72.744C182.513 73.5867 182.012 74.2053 181.457 74.6C180.902 74.984 180.262 75.176 179.537 75.176C178.556 75.176 177.814 74.872 177.313 74.264C176.822 73.6453 176.577 72.7973 176.577 71.72C176.577 70.856 176.721 70.056 177.009 69.32C177.308 68.5733 177.75 67.9707 178.337 67.512C178.924 67.0533 179.633 66.824 180.465 66.824ZM180.241 67.368C179.558 67.368 179.03 67.6987 178.657 68.36C178.284 69.0213 178.065 69.832 178.001 70.792C178.929 70.664 179.724 70.408 180.385 70.024C181.046 69.64 181.377 69.16 181.377 68.584C181.377 68.232 181.276 67.944 181.073 67.72C180.881 67.4853 180.604 67.368 180.241 67.368ZM192.394 73.368C192.287 73.88 192.085 74.312 191.786 74.664C191.487 75.0053 191.087 75.176 190.586 75.176C190.191 75.176 189.887 75.0267 189.674 74.728C189.471 74.4293 189.338 73.88 189.274 73.08C189.21 72.3333 189.087 71.816 188.906 71.528C188.725 71.24 188.442 71.096 188.058 71.096L186.73 71.112C186.549 72.52 186.469 73.5227 186.49 74.12C186.49 74.28 186.501 74.5733 186.522 75H185.194L185.178 74.808L185.194 74.584C185.194 73.9973 185.295 72.904 185.498 71.304C185.594 70.4827 185.679 69.8427 185.754 69.384C185.818 68.8613 185.85 68.504 185.85 68.312C185.85 68.0987 185.823 67.9333 185.77 67.816C185.717 67.688 185.605 67.624 185.434 67.624C185.231 67.624 185.018 67.752 184.794 68.008C184.581 68.264 184.394 68.6533 184.234 69.176L183.786 69.08C183.85 68.7813 183.973 68.456 184.154 68.104C184.335 67.752 184.575 67.4533 184.874 67.208C185.173 66.952 185.519 66.824 185.914 66.824C186.33 66.824 186.623 66.9413 186.794 67.176C186.975 67.4107 187.066 67.768 187.066 68.248C187.066 68.5147 187.029 68.92 186.954 69.464L186.794 70.648H187.306C187.775 70.648 188.143 70.52 188.41 70.264C188.687 70.008 188.949 69.56 189.194 68.92C189.471 68.152 189.765 67.6133 190.074 67.304C190.394 66.984 190.799 66.824 191.29 66.824C191.567 66.824 191.786 66.904 191.946 67.064C192.106 67.224 192.186 67.4373 192.186 67.704C192.186 67.928 192.117 68.12 191.978 68.28C191.85 68.44 191.669 68.52 191.434 68.52C191.167 68.52 190.959 68.4613 190.81 68.344C190.661 68.2267 190.575 68.0613 190.554 67.848C190.405 67.944 190.271 68.088 190.154 68.28C190.037 68.472 189.903 68.776 189.754 69.192C189.615 69.576 189.445 69.9067 189.242 70.184C189.039 70.4613 188.815 70.664 188.57 70.792C189.722 70.824 190.362 71.4533 190.49 72.68C190.554 73.3093 190.629 73.736 190.714 73.96C190.81 74.1733 190.981 74.28 191.226 74.28C191.386 74.28 191.525 74.2053 191.642 74.056C191.759 73.896 191.861 73.64 191.946 73.288L192.394 73.368ZM198.03 66.824C198.755 66.824 199.47 66.9147 200.174 67.096C199.704 70.5733 199.47 72.7067 199.47 73.496C199.47 73.7733 199.496 73.992 199.55 74.152C199.603 74.3013 199.726 74.376 199.918 74.376C200.12 74.376 200.328 74.248 200.542 73.992C200.755 73.736 200.936 73.3467 201.086 72.824L201.534 72.92C201.48 73.2187 201.363 73.544 201.182 73.896C201.011 74.248 200.776 74.552 200.478 74.808C200.19 75.0533 199.848 75.176 199.454 75.176C198.664 75.176 198.27 74.696 198.27 73.736C198.27 73.2667 198.366 72.552 198.558 71.592H198.51C198.062 73 197.571 73.9493 197.038 74.44C196.504 74.9307 195.955 75.176 195.39 75.176C194.771 75.176 194.275 74.952 193.902 74.504C193.539 74.056 193.358 73.352 193.358 72.392C193.358 71.368 193.534 70.4347 193.886 69.592C194.238 68.7493 194.766 68.0773 195.47 67.576C196.174 67.0747 197.027 66.824 198.03 66.824ZM197.534 67.4C196.915 67.4 196.392 67.624 195.966 68.072C195.539 68.5093 195.219 69.0907 195.006 69.816C194.803 70.5307 194.702 71.2987 194.702 72.12C194.702 73.688 195.048 74.472 195.742 74.472C196.211 74.472 196.68 74.104 197.15 73.368C197.619 72.632 198.008 71.7253 198.318 70.648C198.627 69.56 198.782 68.5413 198.782 67.592C198.462 67.464 198.046 67.4 197.534 67.4ZM208.907 66.824C209.185 66.824 209.398 66.8987 209.547 67.048C209.697 67.1867 209.771 67.3733 209.771 67.608C209.771 67.7893 209.707 67.9493 209.579 68.088C209.451 68.2267 209.297 68.296 209.115 68.296C208.913 68.296 208.763 68.2533 208.667 68.168C208.582 68.0827 208.486 67.9653 208.379 67.816C207.793 67.9013 207.121 68.8827 206.363 70.76L206.475 71.048C206.913 72.1787 207.275 72.9893 207.563 73.48C207.851 73.96 208.123 74.2 208.379 74.2C208.763 74.2 209.035 73.7787 209.195 72.936L209.643 73C209.451 74.4507 208.918 75.176 208.043 75.176C207.681 75.176 207.387 75.096 207.163 74.936C206.939 74.7653 206.71 74.456 206.475 74.008C206.251 73.5493 205.937 72.8027 205.531 71.768H205.515C205.185 72.7493 204.859 73.4907 204.539 73.992C204.219 74.4827 203.921 74.8027 203.643 74.952C203.377 75.1013 203.083 75.176 202.763 75.176C202.465 75.176 202.225 75.1013 202.043 74.952C201.862 74.8027 201.771 74.6053 201.771 74.36C201.771 74.1467 201.835 73.9707 201.963 73.832C202.091 73.6933 202.246 73.624 202.427 73.624C202.801 73.624 203.003 73.8427 203.035 74.28C203.686 74.4187 204.411 73.3147 205.211 70.968C204.998 70.392 204.859 70.008 204.795 69.816C204.497 69.0053 204.273 68.4667 204.123 68.2C203.985 67.9333 203.809 67.8 203.595 67.8C203.105 67.8 202.833 68.3227 202.779 69.368L202.315 69.384C202.315 68.7653 202.438 68.184 202.683 67.64C202.939 67.096 203.382 66.824 204.011 66.824C204.331 66.824 204.587 66.9093 204.779 67.08C204.982 67.2507 205.147 67.4853 205.275 67.784C205.403 68.072 205.574 68.5253 205.787 69.144C205.851 69.368 205.947 69.6453 206.075 69.976H206.091C206.582 68.7493 207.067 67.9173 207.547 67.48C208.038 67.0427 208.491 66.824 208.907 66.824Z" fill="#CDCDCD"/>
<path d="M78.6 42.62C83.0367 42.62 86.2633 44.3983 88.28 47.955C90.2967 51.5117 91.305 55.82 91.305 60.88C91.305 61.7233 91.2867 62.3467 91.25 62.75C91.0667 66.0867 90.4433 69.295 89.38 72.375C88.3167 75.4183 86.7217 77.93 84.595 79.91C82.505 81.89 79.9017 82.88 76.785 82.88C72.165 82.88 68.865 81.175 66.885 77.765C64.9417 74.3183 63.97 70.065 63.97 65.005C63.97 64.015 63.9883 63.2633 64.025 62.75C64.1717 59.4133 64.7767 56.2233 65.84 53.18C66.94 50.1 68.5533 47.57 70.68 45.59C72.8433 43.61 75.4833 42.62 78.6 42.62ZM78.71 44.71C75.8133 44.71 73.5767 46.3783 72 49.715C70.46 53.0517 69.5617 57.0667 69.305 61.76C69.2683 62.3467 69.25 63.2817 69.25 64.565C69.25 69.0383 69.8367 72.8517 71.01 76.005C72.1833 79.1583 74.1817 80.735 77.005 80.735C79.865 80.735 81.9917 79.1033 83.385 75.84C84.815 72.5767 85.6583 68.5617 85.915 63.795C85.9883 62.3283 86.025 61.2467 86.025 60.55C86.025 55.9667 85.4567 52.19 84.32 49.22C83.22 46.2133 81.35 44.71 78.71 44.71ZM99.2624 76.61C100.326 76.61 101.169 77.0133 101.792 77.82C102.452 78.6267 102.782 79.6533 102.782 80.9C102.782 82.44 102.379 84.255 101.572 86.345C100.802 88.435 99.7024 90.2683 98.2724 91.845L96.8974 90.745C97.6307 89.865 98.3274 88.6183 98.9874 87.005C99.6474 85.4283 99.9774 83.9067 99.9774 82.44V82H99.8674C99.464 82.1467 99.0424 82.22 98.6024 82.22C97.9424 82.22 97.374 81.9633 96.8974 81.45C96.4207 80.9367 96.1824 80.35 96.1824 79.69C96.1824 78.7367 96.4757 77.985 97.0624 77.435C97.649 76.885 98.3824 76.61 99.2624 76.61ZM132.664 47.02L114.569 47.405L113.854 59.56C116.127 58.6067 118.639 58.13 121.389 58.13C125.386 58.13 128.319 59.2667 130.189 61.54C132.096 63.7767 133.049 66.5083 133.049 69.735C133.049 72.5217 132.407 74.905 131.124 76.885C129.877 78.865 128.191 80.3683 126.064 81.395C123.937 82.385 121.609 82.88 119.079 82.88C116.916 82.88 115.064 82.5317 113.524 81.835C111.984 81.1017 110.811 80.1667 110.004 79.03C109.234 77.8933 108.849 76.7017 108.849 75.455C108.849 74.5017 109.106 73.7317 109.619 73.145C110.132 72.5583 110.774 72.265 111.544 72.265C112.277 72.265 112.864 72.5033 113.304 72.98C113.781 73.4567 114.019 74.025 114.019 74.685C114.019 75.565 113.762 76.3167 113.249 76.94C113.286 78.15 113.891 79.085 115.064 79.745C116.274 80.405 117.612 80.735 119.079 80.735C121.719 80.735 123.772 79.8367 125.239 78.04C126.742 76.2433 127.531 74.0617 127.604 71.495L127.659 70.12C127.659 67.48 127.072 65.2433 125.899 63.41C124.762 61.54 122.636 60.605 119.519 60.605C118.492 60.605 117.392 60.77 116.219 61.1C115.046 61.3933 113.946 61.8517 112.919 62.475L111.434 61.1L112.314 43.5H126.284C128.301 43.5 129.749 43.225 130.629 42.675C131.509 42.0883 131.986 41.1717 132.059 39.925H133.489L132.664 47.02Z" fill="#EAE8E8"/>
<circle cx="14.5" cy="81.5" r="3.5" transform="scale(1 -1)" fill="#36DFB6" style="mix-blend-mode:multiply"/>
<circle cx="62.5" cy="62.5" r="62" stroke="#3688DF" stroke-opacity="0.14"/>
</svg>
