<svg width="392" height="273" viewBox="0 0 392 273" fill="none" xmlns="http://www.w3.org/2000/svg">
<rect width="312" height="93" fill="black" fill-opacity="0" transform="translate(80)"/>
<path d="M200.136 29.92C200.083 30.2187 199.971 30.544 199.8 30.896C199.629 31.2373 199.395 31.536 199.096 31.792C198.797 32.048 198.451 32.176 198.056 32.176C197.64 32.176 197.331 32.048 197.128 31.792C196.925 31.536 196.824 31.184 196.824 30.736C196.824 30.3413 196.899 29.6213 197.048 28.576C197.272 26.9227 197.384 25.7067 197.384 24.928V24.608L196.296 24.624H196.712C196.445 24.624 196.275 24.7947 196.2 25.136C195.773 27.28 195.224 28.9867 194.552 30.256C193.88 31.5253 193.021 32.16 191.976 32.16C191.677 32.16 191.427 32.0747 191.224 31.904C191.032 31.7333 190.936 31.5307 190.936 31.296C190.936 31.0933 191.005 30.9173 191.144 30.768C191.283 30.608 191.459 30.528 191.672 30.528C191.853 30.528 192.013 30.5867 192.152 30.704C192.291 30.8213 192.36 30.9707 192.36 31.152C192.36 31.2267 192.349 31.3067 192.328 31.392C192.776 31.4453 193.208 31.1413 193.624 30.48C194.051 29.808 194.419 28.944 194.728 27.888C195.048 26.8213 195.288 25.7333 195.448 24.624L193.976 24.64L194.024 24H198.696C198.707 24.096 198.712 24.2347 198.712 24.416C198.712 24.6933 198.675 25.1627 198.6 25.824C198.536 26.4747 198.461 27.136 198.376 27.808C198.184 29.4293 198.088 30.3787 198.088 30.656C198.088 31.1253 198.232 31.36 198.52 31.36C198.723 31.36 198.931 31.2373 199.144 30.992C199.357 30.736 199.539 30.3467 199.688 29.824L200.136 29.92ZM196.152 25.28V25.328V25.28ZM204.825 23.824C205.465 23.824 205.998 23.9733 206.425 24.272C206.851 24.5707 207.065 25.0347 207.065 25.664C207.065 26.4533 206.59 27.0667 205.641 27.504C204.691 27.9413 203.593 28.2293 202.345 28.368C202.345 29.3707 202.494 30.1227 202.793 30.624C203.091 31.1253 203.55 31.376 204.169 31.376C204.659 31.376 205.134 31.216 205.593 30.896C206.051 30.5653 206.451 30.08 206.793 29.44L207.321 29.744C206.873 30.5867 206.371 31.2053 205.817 31.6C205.262 31.984 204.622 32.176 203.897 32.176C202.915 32.176 202.174 31.872 201.673 31.264C201.182 30.6453 200.937 29.7973 200.937 28.72C200.937 27.856 201.081 27.056 201.368 26.32C201.667 25.5733 202.11 24.9707 202.697 24.512C203.283 24.0533 203.993 23.824 204.825 23.824ZM204.601 24.368C203.918 24.368 203.39 24.6987 203.017 25.36C202.643 26.0213 202.425 26.832 202.361 27.792C203.289 27.664 204.083 27.408 204.745 27.024C205.406 26.64 205.737 26.16 205.737 25.584C205.737 25.232 205.635 24.944 205.433 24.72C205.241 24.4853 204.963 24.368 204.601 24.368ZM218.546 23.824C219.143 23.824 219.57 24.016 219.826 24.4C220.092 24.784 220.226 25.2853 220.226 25.904C220.226 26.352 220.199 26.8053 220.146 27.264C220.092 27.712 220.012 28.2827 219.906 28.976C219.767 29.8293 219.698 30.384 219.698 30.64C219.698 30.8747 219.724 31.056 219.778 31.184C219.842 31.312 219.959 31.376 220.13 31.376C220.332 31.376 220.54 31.2533 220.754 31.008C220.978 30.752 221.164 30.3573 221.314 29.824L221.762 29.936C221.708 30.2347 221.591 30.56 221.41 30.912C221.239 31.2533 221.004 31.552 220.706 31.808C220.407 32.0533 220.06 32.176 219.666 32.176C219.186 32.176 218.85 32.0533 218.658 31.808C218.476 31.552 218.386 31.1627 218.386 30.64C218.386 30.2027 218.471 29.4987 218.642 28.528C218.652 28.432 218.69 28.1707 218.754 27.744C218.818 27.3067 218.866 26.9067 218.898 26.544C218.94 26.1707 218.962 25.84 218.962 25.552C218.962 25.3067 218.903 25.0827 218.786 24.88C218.668 24.6773 218.471 24.576 218.194 24.576C217.714 24.576 217.244 24.928 216.786 25.632C216.338 26.336 215.97 27.2053 215.682 28.24C215.404 29.2747 215.266 30.2453 215.266 31.152C215.266 31.3547 215.276 31.6373 215.298 32H213.954C213.943 31.904 213.938 31.7653 213.938 31.584C213.938 31.232 213.97 30.7627 214.034 30.176C214.098 29.5893 214.167 29.008 214.242 28.432C214.423 27.0453 214.514 26.1013 214.514 25.6C214.514 24.9173 214.258 24.576 213.746 24.576C213.276 24.576 212.812 24.928 212.354 25.632C211.906 26.336 211.538 27.2107 211.25 28.256C210.962 29.2907 210.818 30.256 210.818 31.152C210.818 31.3547 210.828 31.6373 210.85 32H209.506C209.495 31.904 209.49 31.7653 209.49 31.584C209.49 31.3173 209.511 30.9333 209.554 30.432C209.607 29.92 209.687 29.2373 209.794 28.384L209.986 26.72C210.028 26.3467 210.06 26.064 210.082 25.872C210.103 25.6693 210.114 25.4933 210.114 25.344C210.114 25.12 210.082 24.944 210.018 24.816C209.964 24.688 209.852 24.624 209.682 24.624C209.479 24.624 209.271 24.752 209.058 25.008C208.844 25.264 208.663 25.6533 208.514 26.176L208.066 26.08C208.119 25.7813 208.231 25.456 208.402 25.104C208.583 24.752 208.818 24.4533 209.106 24.208C209.404 23.952 209.751 23.824 210.146 23.824C210.946 23.824 211.346 24.3573 211.346 25.424C211.346 25.7227 211.314 26.0533 211.25 26.416C211.196 26.7787 211.143 27.104 211.09 27.392H211.138C211.596 26.0587 212.071 25.1307 212.562 24.608C213.052 24.0853 213.554 23.824 214.066 23.824C214.652 23.824 215.084 24.0107 215.362 24.384C215.639 24.7573 215.778 25.1787 215.778 25.648C215.778 25.9253 215.762 26.16 215.73 26.352C215.698 26.5333 215.623 26.864 215.506 27.344H215.554C216.034 26.0107 216.524 25.0933 217.026 24.592C217.527 24.08 218.034 23.824 218.546 23.824ZM232.412 23.824C233.116 23.824 233.65 24.1173 234.012 24.704C234.386 25.2907 234.572 26.032 234.572 26.928C234.572 27.9733 234.391 28.8907 234.028 29.68C233.666 30.4693 233.127 31.0827 232.412 31.52C231.708 31.9573 230.855 32.176 229.852 32.176C229.596 32.176 229.346 32.16 229.1 32.128L228.972 34.144C228.962 34.2187 228.956 34.336 228.956 34.496C228.935 34.912 228.898 35.2373 228.844 35.472L229.852 35.424V36.08H226.828V35.6C227.084 35.6 227.276 35.52 227.404 35.36C227.532 35.2 227.618 34.992 227.66 34.736C227.714 34.4907 227.756 34.1387 227.788 33.68C227.788 33.5413 227.794 33.4347 227.804 33.36C227.9 32.2293 228.044 30.6133 228.236 28.512C228.407 26.752 228.492 25.7387 228.492 25.472C228.492 25.1947 228.466 24.9867 228.412 24.848C228.359 24.6987 228.242 24.624 228.06 24.624C227.858 24.624 227.65 24.752 227.436 25.008C227.234 25.264 227.058 25.6533 226.908 26.176L226.444 26.08C226.498 25.7813 226.61 25.456 226.78 25.104C226.962 24.752 227.196 24.4533 227.484 24.208C227.783 23.952 228.13 23.824 228.524 23.824C229.335 23.824 229.74 24.384 229.74 25.504C229.74 25.9733 229.666 26.5813 229.516 27.328H229.564C229.97 25.984 230.407 25.0667 230.876 24.576C231.346 24.0747 231.858 23.824 232.412 23.824ZM232.076 24.576C231.703 24.576 231.33 24.8373 230.956 25.36C230.583 25.872 230.252 26.544 229.964 27.376C229.676 28.1973 229.463 29.0453 229.324 29.92C229.26 30.2933 229.202 30.8 229.148 31.44C229.532 31.568 229.858 31.632 230.124 31.632C230.828 31.632 231.41 31.4133 231.868 30.976C232.338 30.528 232.674 29.968 232.876 29.296C233.09 28.6133 233.196 27.92 233.196 27.216C233.196 26.3947 233.111 25.7493 232.94 25.28C232.77 24.8107 232.482 24.576 232.076 24.576ZM239.809 23.824C240.449 23.824 240.982 23.9733 241.409 24.272C241.836 24.5707 242.049 25.0347 242.049 25.664C242.049 26.4533 241.574 27.0667 240.625 27.504C239.676 27.9413 238.577 28.2293 237.329 28.368C237.329 29.3707 237.478 30.1227 237.777 30.624C238.076 31.1253 238.534 31.376 239.153 31.376C239.644 31.376 240.118 31.216 240.577 30.896C241.036 30.5653 241.436 30.08 241.777 29.44L242.305 29.744C241.857 30.5867 241.356 31.2053 240.801 31.6C240.246 31.984 239.606 32.176 238.881 32.176C237.9 32.176 237.158 31.872 236.657 31.264C236.166 30.6453 235.921 29.7973 235.921 28.72C235.921 27.856 236.065 27.056 236.353 26.32C236.652 25.5733 237.094 24.9707 237.681 24.512C238.268 24.0533 238.977 23.824 239.809 23.824ZM239.585 24.368C238.902 24.368 238.374 24.6987 238.001 25.36C237.628 26.0213 237.409 26.832 237.345 27.792C238.273 27.664 239.068 27.408 239.729 27.024C240.39 26.64 240.721 26.16 240.721 25.584C240.721 25.232 240.62 24.944 240.417 24.72C240.225 24.4853 239.948 24.368 239.585 24.368ZM251.738 30.368C251.631 30.88 251.429 31.312 251.13 31.664C250.831 32.0053 250.431 32.176 249.93 32.176C249.535 32.176 249.231 32.0267 249.018 31.728C248.815 31.4293 248.682 30.88 248.618 30.08C248.554 29.3333 248.431 28.816 248.25 28.528C248.069 28.24 247.786 28.096 247.402 28.096L246.074 28.112C245.893 29.52 245.813 30.5227 245.834 31.12C245.834 31.28 245.845 31.5733 245.866 32H244.538L244.522 31.808L244.538 31.584C244.538 30.9973 244.639 29.904 244.842 28.304C244.938 27.4827 245.023 26.8427 245.098 26.384C245.162 25.8613 245.194 25.504 245.194 25.312C245.194 25.0987 245.167 24.9333 245.114 24.816C245.061 24.688 244.949 24.624 244.778 24.624C244.575 24.624 244.362 24.752 244.138 25.008C243.925 25.264 243.738 25.6533 243.578 26.176L243.13 26.08C243.194 25.7813 243.317 25.456 243.498 25.104C243.679 24.752 243.919 24.4533 244.218 24.208C244.517 23.952 244.863 23.824 245.258 23.824C245.674 23.824 245.967 23.9413 246.138 24.176C246.319 24.4107 246.41 24.768 246.41 25.248C246.41 25.5147 246.373 25.92 246.298 26.464L246.138 27.648H246.65C247.119 27.648 247.487 27.52 247.754 27.264C248.031 27.008 248.293 26.56 248.538 25.92C248.815 25.152 249.109 24.6133 249.418 24.304C249.738 23.984 250.143 23.824 250.634 23.824C250.911 23.824 251.13 23.904 251.29 24.064C251.45 24.224 251.53 24.4373 251.53 24.704C251.53 24.928 251.461 25.12 251.322 25.28C251.194 25.44 251.013 25.52 250.778 25.52C250.511 25.52 250.303 25.4613 250.154 25.344C250.005 25.2267 249.919 25.0613 249.898 24.848C249.749 24.944 249.615 25.088 249.498 25.28C249.381 25.472 249.247 25.776 249.098 26.192C248.959 26.576 248.789 26.9067 248.586 27.184C248.383 27.4613 248.159 27.664 247.914 27.792C249.066 27.824 249.706 28.4533 249.834 29.68C249.898 30.3093 249.973 30.736 250.058 30.96C250.154 31.1733 250.325 31.28 250.57 31.28C250.73 31.28 250.869 31.2053 250.986 31.056C251.103 30.896 251.205 30.64 251.29 30.288L251.738 30.368ZM256.685 23.824C257.261 23.824 257.779 23.9627 258.237 24.24C258.707 24.5173 259.069 24.9227 259.325 25.456C259.592 25.9787 259.725 26.6027 259.725 27.328C259.725 28.2027 259.565 29.008 259.245 29.744C258.936 30.48 258.483 31.072 257.885 31.52C257.299 31.9573 256.605 32.176 255.805 32.176C254.792 32.176 254.024 31.8453 253.501 31.184C252.989 30.512 252.733 29.648 252.733 28.592C252.733 27.7173 252.893 26.9173 253.213 26.192C253.533 25.4667 253.992 24.8907 254.589 24.464C255.187 24.0373 255.885 23.824 256.685 23.824ZM256.429 24.416C255.96 24.416 255.549 24.5867 255.197 24.928C254.856 25.2587 254.595 25.7173 254.413 26.304C254.232 26.88 254.141 27.5253 254.141 28.24C254.141 29.1253 254.285 29.904 254.573 30.576C254.861 31.2373 255.331 31.568 255.981 31.568C256.525 31.568 256.968 31.36 257.309 30.944C257.661 30.528 257.917 30.016 258.077 29.408C258.237 28.8 258.317 28.208 258.317 27.632C258.317 26.736 258.173 25.9787 257.885 25.36C257.608 24.7307 257.123 24.416 256.429 24.416ZM272.773 29.92C272.72 30.2187 272.602 30.544 272.421 30.896C272.25 31.248 272.01 31.552 271.701 31.808C271.402 32.0533 271.05 32.176 270.645 32.176C270.24 32.176 269.941 32.048 269.749 31.792C269.557 31.536 269.461 31.184 269.461 30.736C269.461 30.448 269.498 30.0693 269.573 29.6C269.648 29.12 269.76 28.4533 269.909 27.6C270.08 26.6507 270.213 25.8347 270.309 25.152H270.213C269.52 27.0933 268.97 28.544 268.565 29.504C268.16 30.4533 267.776 31.136 267.413 31.552C267.061 31.968 266.666 32.176 266.229 32.176C265.845 32.176 265.573 32.032 265.413 31.744C265.264 31.456 265.189 30.96 265.189 30.256C265.189 27.5573 265.248 25.856 265.365 25.152H265.237C264.672 27.136 264.234 28.5653 263.925 29.44C263.626 30.3147 263.28 30.9867 262.885 31.456C262.501 31.9253 262.016 32.16 261.429 32.16C261.13 32.16 260.88 32.0747 260.677 31.904C260.485 31.7333 260.389 31.5307 260.389 31.296C260.389 31.0933 260.458 30.9173 260.597 30.768C260.736 30.608 260.912 30.528 261.125 30.528C261.306 30.528 261.466 30.5867 261.605 30.704C261.744 30.8213 261.813 30.9707 261.813 31.152C261.813 31.2267 261.802 31.3067 261.781 31.392C262.154 31.4133 262.57 30.8907 263.029 29.824C263.488 28.7573 264.021 27.024 264.629 24.624L263.189 24.64L263.253 24H266.421C266.453 24.1707 266.469 24.352 266.469 24.544C266.469 25.024 266.458 25.7227 266.437 26.64L266.421 28.688C266.421 29.0613 266.432 29.632 266.453 30.4C266.474 30.784 266.496 31.0347 266.517 31.152C266.549 31.2693 266.613 31.328 266.709 31.328C266.922 31.328 267.296 30.736 267.829 29.552C268.373 28.368 269.077 26.5173 269.941 24H271.413C271.424 24.096 271.429 24.2347 271.429 24.416C271.429 24.8853 271.301 26.016 271.045 27.808C270.97 28.4053 270.896 28.9813 270.821 29.536C270.757 30.08 270.725 30.4533 270.725 30.656C270.725 31.1253 270.858 31.36 271.125 31.36C271.338 31.36 271.552 31.2373 271.765 30.992C271.989 30.736 272.176 30.3467 272.325 29.824L272.773 29.92ZM277.465 23.824C278.105 23.824 278.638 23.9733 279.065 24.272C279.492 24.5707 279.705 25.0347 279.705 25.664C279.705 26.4533 279.23 27.0667 278.281 27.504C277.332 27.9413 276.233 28.2293 274.985 28.368C274.985 29.3707 275.134 30.1227 275.433 30.624C275.732 31.1253 276.19 31.376 276.809 31.376C277.3 31.376 277.774 31.216 278.233 30.896C278.692 30.5653 279.092 30.08 279.433 29.44L279.961 29.744C279.513 30.5867 279.012 31.2053 278.457 31.6C277.902 31.984 277.262 32.176 276.537 32.176C275.556 32.176 274.814 31.872 274.313 31.264C273.822 30.6453 273.577 29.7973 273.577 28.72C273.577 27.856 273.721 27.056 274.009 26.32C274.308 25.5733 274.75 24.9707 275.337 24.512C275.924 24.0533 276.633 23.824 277.465 23.824ZM277.241 24.368C276.558 24.368 276.03 24.6987 275.657 25.36C275.284 26.0213 275.065 26.832 275.001 27.792C275.929 27.664 276.724 27.408 277.385 27.024C278.046 26.64 278.377 26.16 278.377 25.584C278.377 25.232 278.276 24.944 278.073 24.72C277.881 24.4853 277.604 24.368 277.241 24.368ZM289.922 29.92C289.869 30.2187 289.751 30.544 289.57 30.896C289.399 31.248 289.165 31.552 288.866 31.808C288.578 32.0533 288.237 32.176 287.842 32.176C287.426 32.176 287.117 32.048 286.914 31.792C286.711 31.536 286.61 31.184 286.61 30.736C286.61 30.448 286.669 29.856 286.786 28.96L286.834 28.512L283.746 28.544L283.458 30.992C283.437 31.2053 283.426 31.36 283.426 31.456C283.426 31.6373 283.442 31.8187 283.474 32H282.13C282.119 31.904 282.114 31.7653 282.114 31.584C282.125 31.1893 282.221 30.3733 282.402 29.136L282.498 28.384L282.594 27.696C282.69 26.9813 282.754 26.464 282.786 26.144C282.829 25.8133 282.85 25.5467 282.85 25.344C282.871 24.864 282.733 24.624 282.434 24.624C282.231 24.624 282.018 24.752 281.794 25.008C281.581 25.264 281.394 25.6533 281.234 26.176L280.786 26.08C280.85 25.7813 280.973 25.456 281.154 25.104C281.335 24.752 281.575 24.4533 281.874 24.208C282.173 23.952 282.519 23.824 282.914 23.824C283.693 23.824 284.082 24.3413 284.082 25.376C284.082 25.5467 284.061 25.824 284.018 26.208L283.826 27.904H286.914C287.085 26.56 287.17 25.568 287.17 24.928C287.17 24.736 287.159 24.4267 287.138 24H288.482C288.493 24.096 288.498 24.2347 288.498 24.416C288.498 24.6933 288.461 25.1627 288.386 25.824C288.322 26.4747 288.247 27.136 288.162 27.808C287.97 29.4293 287.874 30.3787 287.874 30.656C287.874 31.1253 288.018 31.36 288.306 31.36C288.509 31.36 288.717 31.2373 288.93 30.992C289.143 30.736 289.325 30.3467 289.474 29.824L289.922 29.92ZM293.518 32.176C292.686 32.176 292.008 31.8827 291.486 31.296C290.974 30.7093 290.718 29.872 290.718 28.784C290.718 27.888 290.883 27.088 291.214 26.384C291.544 25.6693 291.992 25.1147 292.558 24.72C293.134 24.3253 293.768 24.128 294.462 24.128C295.176 24.128 295.688 24.336 295.998 24.752C295.87 23.376 295.582 22.32 295.134 21.584C294.696 20.8373 294.163 20.464 293.534 20.464C292.904 20.464 292.334 20.7147 291.822 21.216L291.518 20.848C291.912 20.5067 292.275 20.2613 292.606 20.112C292.947 19.952 293.31 19.872 293.694 19.872C294.92 19.872 295.832 20.464 296.43 21.648C297.027 22.8213 297.326 24.32 297.326 26.144C297.326 27.5733 297.144 28.7413 296.782 29.648C296.43 30.544 295.966 31.1893 295.39 31.584C294.824 31.9787 294.2 32.176 293.518 32.176ZM293.822 31.568C294.515 31.568 295.032 31.1307 295.374 30.256C295.726 29.3813 295.934 28.3413 295.998 27.136C296.04 26.432 295.918 25.856 295.63 25.408C295.342 24.9493 294.958 24.72 294.478 24.72C294.094 24.72 293.715 24.88 293.342 25.2C292.968 25.5093 292.659 25.9627 292.414 26.56C292.179 27.1467 292.062 27.8293 292.062 28.608C292.062 29.472 292.216 30.1813 292.526 30.736C292.846 31.2907 293.278 31.568 293.822 31.568ZM302.607 23.824C303.183 23.824 303.701 23.9627 304.159 24.24C304.629 24.5173 304.991 24.9227 305.247 25.456C305.514 25.9787 305.647 26.6027 305.647 27.328C305.647 28.2027 305.487 29.008 305.167 29.744C304.858 30.48 304.405 31.072 303.807 31.52C303.221 31.9573 302.527 32.176 301.727 32.176C300.714 32.176 299.946 31.8453 299.423 31.184C298.911 30.512 298.655 29.648 298.655 28.592C298.655 27.7173 298.815 26.9173 299.135 26.192C299.455 25.4667 299.914 24.8907 300.511 24.464C301.109 24.0373 301.807 23.824 302.607 23.824ZM302.351 24.416C301.882 24.416 301.471 24.5867 301.119 24.928C300.778 25.2587 300.517 25.7173 300.335 26.304C300.154 26.88 300.063 27.5253 300.063 28.24C300.063 29.1253 300.207 29.904 300.495 30.576C300.783 31.2373 301.253 31.568 301.903 31.568C302.447 31.568 302.89 31.36 303.231 30.944C303.583 30.528 303.839 30.016 303.999 29.408C304.159 28.8 304.239 28.208 304.239 27.632C304.239 26.736 304.095 25.9787 303.807 25.36C303.53 24.7307 303.045 24.416 302.351 24.416ZM311.159 27.552C311.863 27.5093 312.375 27.664 312.695 28.016C313.026 28.368 313.191 28.8107 313.191 29.344C313.191 29.8667 313.047 30.3467 312.759 30.784C312.482 31.2107 312.092 31.552 311.591 31.808C311.09 32.0533 310.53 32.176 309.911 32.176C308.951 32.176 308.226 31.872 307.735 31.264C307.244 30.6453 306.999 29.7973 306.999 28.72C306.999 27.8667 307.143 27.0667 307.431 26.32C307.719 25.5733 308.14 24.9707 308.695 24.512C309.26 24.0533 309.932 23.824 310.711 23.824C311.298 23.824 311.794 23.9573 312.199 24.224C312.604 24.48 312.807 24.8693 312.807 25.392C312.807 25.7973 312.668 26.192 312.391 26.576C312.124 26.9493 311.714 27.2747 311.159 27.552ZM310.551 24.368C309.954 24.368 309.463 24.7147 309.079 25.408C308.695 26.1013 308.471 26.9653 308.407 28C309.516 27.744 310.295 27.424 310.743 27.04C311.191 26.6453 311.415 26.1333 311.415 25.504C311.415 24.7467 311.127 24.368 310.551 24.368ZM310.279 31.568C310.759 31.568 311.138 31.4027 311.415 31.072C311.692 30.7413 311.831 30.2987 311.831 29.744C311.831 29.264 311.714 28.8747 311.479 28.576C311.255 28.2773 310.924 28.128 310.487 28.128C310.295 28.128 310.087 28.16 309.863 28.224L308.391 28.608C308.423 29.536 308.588 30.2613 308.887 30.784C309.196 31.3067 309.66 31.568 310.279 31.568ZM319.108 23.824C319.833 23.824 320.548 23.9147 321.252 24.096C320.782 27.5733 320.548 29.7067 320.548 30.496C320.548 30.7733 320.574 30.992 320.628 31.152C320.681 31.3013 320.804 31.376 320.996 31.376C321.198 31.376 321.406 31.248 321.62 30.992C321.833 30.736 322.014 30.3467 322.164 29.824L322.612 29.92C322.558 30.2187 322.441 30.544 322.26 30.896C322.089 31.248 321.854 31.552 321.556 31.808C321.268 32.0533 320.926 32.176 320.532 32.176C319.742 32.176 319.348 31.696 319.348 30.736C319.348 30.2667 319.444 29.552 319.636 28.592H319.588C319.14 30 318.649 30.9493 318.116 31.44C317.582 31.9307 317.033 32.176 316.468 32.176C315.849 32.176 315.353 31.952 314.98 31.504C314.617 31.056 314.436 30.352 314.436 29.392C314.436 28.368 314.612 27.4347 314.964 26.592C315.316 25.7493 315.844 25.0773 316.548 24.576C317.252 24.0747 318.105 23.824 319.108 23.824ZM318.612 24.4C317.993 24.4 317.47 24.624 317.044 25.072C316.617 25.5093 316.297 26.0907 316.084 26.816C315.881 27.5307 315.78 28.2987 315.78 29.12C315.78 30.688 316.126 31.472 316.82 31.472C317.289 31.472 317.758 31.104 318.228 30.368C318.697 29.632 319.086 28.7253 319.396 27.648C319.705 26.56 319.86 25.5413 319.86 24.592C319.54 24.464 319.124 24.4 318.612 24.4ZM331.953 29.92C331.9 30.2187 331.783 30.544 331.601 30.896C331.431 31.248 331.196 31.552 330.897 31.808C330.609 32.0533 330.268 32.176 329.873 32.176C329.457 32.176 329.148 32.048 328.945 31.792C328.743 31.536 328.641 31.184 328.641 30.736C328.641 30.448 328.7 29.856 328.817 28.96L328.865 28.512L325.777 28.544L325.489 30.992C325.468 31.2053 325.457 31.36 325.457 31.456C325.457 31.6373 325.473 31.8187 325.505 32H324.161C324.151 31.904 324.145 31.7653 324.145 31.584C324.156 31.1893 324.252 30.3733 324.433 29.136L324.529 28.384L324.625 27.696C324.721 26.9813 324.785 26.464 324.817 26.144C324.86 25.8133 324.881 25.5467 324.881 25.344C324.903 24.864 324.764 24.624 324.465 24.624C324.263 24.624 324.049 24.752 323.825 25.008C323.612 25.264 323.425 25.6533 323.265 26.176L322.817 26.08C322.881 25.7813 323.004 25.456 323.185 25.104C323.367 24.752 323.607 24.4533 323.905 24.208C324.204 23.952 324.551 23.824 324.945 23.824C325.724 23.824 326.113 24.3413 326.113 25.376C326.113 25.5467 326.092 25.824 326.049 26.208L325.857 27.904H328.945C329.116 26.56 329.201 25.568 329.201 24.928C329.201 24.736 329.191 24.4267 329.169 24H330.513C330.524 24.096 330.529 24.2347 330.529 24.416C330.529 24.6933 330.492 25.1627 330.417 25.824C330.353 26.4747 330.279 27.136 330.193 27.808C330.001 29.4293 329.905 30.3787 329.905 30.656C329.905 31.1253 330.049 31.36 330.337 31.36C330.54 31.36 330.748 31.2373 330.961 30.992C331.175 30.736 331.356 30.3467 331.505 29.824L331.953 29.92ZM341.469 29.92C341.416 30.2187 341.298 30.544 341.117 30.896C340.946 31.248 340.712 31.552 340.413 31.808C340.125 32.0533 339.784 32.176 339.389 32.176C338.973 32.176 338.664 32.048 338.461 31.792C338.258 31.536 338.157 31.184 338.157 30.736C338.157 30.448 338.216 29.856 338.333 28.96L338.381 28.512L335.293 28.544L335.005 30.992C334.984 31.2053 334.973 31.36 334.973 31.456C334.973 31.6373 334.989 31.8187 335.021 32H333.677C333.666 31.904 333.661 31.7653 333.661 31.584C333.672 31.1893 333.768 30.3733 333.949 29.136L334.045 28.384L334.141 27.696C334.237 26.9813 334.301 26.464 334.333 26.144C334.376 25.8133 334.397 25.5467 334.397 25.344C334.418 24.864 334.28 24.624 333.981 24.624C333.778 24.624 333.565 24.752 333.341 25.008C333.128 25.264 332.941 25.6533 332.781 26.176L332.333 26.08C332.397 25.7813 332.52 25.456 332.701 25.104C332.882 24.752 333.122 24.4533 333.421 24.208C333.72 23.952 334.066 23.824 334.461 23.824C335.24 23.824 335.629 24.3413 335.629 25.376C335.629 25.5467 335.608 25.824 335.565 26.208L335.373 27.904H338.461C338.632 26.56 338.717 25.568 338.717 24.928C338.717 24.736 338.706 24.4267 338.685 24H340.029C340.04 24.096 340.045 24.2347 340.045 24.416C340.045 24.6933 340.008 25.1627 339.933 25.824C339.869 26.4747 339.794 27.136 339.709 27.808C339.517 29.4293 339.421 30.3787 339.421 30.656C339.421 31.1253 339.565 31.36 339.853 31.36C340.056 31.36 340.264 31.2373 340.477 30.992C340.69 30.736 340.872 30.3467 341.021 29.824L341.469 29.92ZM346.569 26.816C347.262 26.816 347.822 27.0133 348.249 27.408C348.675 27.792 348.889 28.3307 348.889 29.024C348.889 29.6107 348.739 30.144 348.441 30.624C348.142 31.104 347.726 31.4827 347.193 31.76C346.67 32.0373 346.078 32.176 345.417 32.176C344.713 32.176 344.179 31.9947 343.817 31.632C343.465 31.2587 343.289 30.7573 343.289 30.128C343.289 30.032 343.299 29.8773 343.321 29.664C343.609 27.872 343.785 26.7307 343.849 26.24C343.923 25.7493 343.961 25.4133 343.961 25.232C343.961 25.04 343.934 24.8907 343.881 24.784C343.827 24.6773 343.721 24.624 343.561 24.624C343.358 24.624 343.145 24.752 342.921 25.008C342.697 25.264 342.499 25.6533 342.329 26.176L341.881 26.08C341.955 25.7813 342.083 25.456 342.265 25.104C342.446 24.752 342.686 24.4533 342.985 24.208C343.294 23.952 343.646 23.824 344.041 23.824C344.457 23.824 344.75 23.9573 344.921 24.224C345.102 24.48 345.193 24.8373 345.193 25.296C345.193 25.552 345.166 25.856 345.113 26.208L344.937 27.312C345.545 26.9813 346.089 26.816 346.569 26.816ZM352.921 29.92C352.867 30.2187 352.75 30.544 352.569 30.896C352.398 31.248 352.163 31.552 351.865 31.808C351.577 32.0533 351.235 32.176 350.841 32.176C350.425 32.176 350.115 32.048 349.913 31.792C349.71 31.536 349.609 31.184 349.609 30.736C349.609 30.3413 349.683 29.6213 349.833 28.576C350.057 26.9227 350.169 25.7067 350.169 24.928C350.169 24.736 350.158 24.4267 350.137 24H351.481C351.491 24.096 351.497 24.2347 351.497 24.416C351.497 24.6933 351.459 25.1627 351.385 25.824C351.321 26.4747 351.246 27.136 351.161 27.808C350.969 29.4293 350.873 30.3787 350.873 30.656C350.873 31.1253 351.017 31.36 351.305 31.36C351.497 31.36 351.699 31.2373 351.913 30.992C352.137 30.736 352.323 30.3467 352.473 29.824L352.921 29.92ZM347.561 29.376C347.582 28.736 347.502 28.2507 347.321 27.92C347.15 27.5787 346.835 27.408 346.377 27.408C345.886 27.408 345.369 27.6213 344.825 28.048L344.537 29.808C344.515 29.9573 344.505 30.0693 344.505 30.144C344.505 30.592 344.633 30.944 344.889 31.2C345.145 31.4453 345.47 31.568 345.865 31.568C346.387 31.568 346.798 31.376 347.097 30.992C347.395 30.608 347.55 30.0693 347.561 29.376ZM355.222 23.824C355.648 23.824 355.968 23.9573 356.182 24.224C356.406 24.4907 356.518 24.8747 356.518 25.376C356.518 25.76 356.432 26.56 356.262 27.776C356.251 27.872 356.203 28.2347 356.118 28.864C356.032 29.4827 355.99 30 355.99 30.416C355.99 30.672 356.043 30.9067 356.15 31.12C356.267 31.3227 356.464 31.424 356.742 31.424C357.211 31.424 357.68 31.072 358.15 30.368C358.619 29.6533 359.003 28.7787 359.302 27.744C359.611 26.7093 359.766 25.744 359.766 24.848C359.766 24.6453 359.755 24.3627 359.734 24H361.078C361.088 24.096 361.094 24.2347 361.094 24.416C361.094 24.672 361.067 25.0667 361.014 25.6C360.96 26.1333 360.88 26.8267 360.774 27.68L360.614 29.008C360.603 29.1467 360.576 29.4027 360.534 29.776C360.491 30.1493 360.47 30.4427 360.47 30.656C360.47 31.1253 360.614 31.36 360.902 31.36C361.104 31.36 361.312 31.2373 361.526 30.992C361.739 30.736 361.92 30.3467 362.07 29.824L362.518 29.92C362.464 30.2187 362.347 30.544 362.166 30.896C361.995 31.248 361.76 31.552 361.462 31.808C361.174 32.0533 360.832 32.176 360.438 32.176C360.022 32.176 359.712 32.048 359.51 31.792C359.307 31.536 359.206 31.184 359.206 30.736C359.206 30.2667 359.302 29.552 359.494 28.592H359.446C358.934 29.968 358.443 30.912 357.974 31.424C357.504 31.9253 356.987 32.176 356.422 32.176C355.824 32.176 355.382 31.984 355.094 31.6C354.816 31.2053 354.678 30.704 354.678 30.096C354.678 29.6373 354.704 29.1733 354.758 28.704C354.811 28.2347 354.891 27.6693 354.998 27.008C355.019 26.8907 355.056 26.6453 355.11 26.272C355.163 25.888 355.19 25.5893 355.19 25.376C355.19 25.1307 355.158 24.944 355.094 24.816C355.04 24.688 354.928 24.624 354.758 24.624C354.566 24.624 354.368 24.752 354.166 25.008C353.963 25.2533 353.787 25.6427 353.638 26.176L353.19 26.08C353.286 25.5573 353.504 25.0507 353.846 24.56C354.198 24.0693 354.656 23.824 355.222 23.824ZM357.942 22.32C357.366 22.32 356.88 22.208 356.486 21.984C356.091 21.7493 355.894 21.424 355.894 21.008C355.894 20.6987 355.979 20.4693 356.15 20.32C356.32 20.1707 356.528 20.096 356.774 20.096C357.019 20.096 357.195 20.1707 357.302 20.32C357.419 20.4587 357.478 20.6187 357.478 20.8C357.456 21.0133 357.371 21.2053 357.222 21.376C357.35 21.4933 357.483 21.5787 357.622 21.632C357.771 21.6853 357.958 21.712 358.182 21.712C358.694 21.712 359.12 21.5787 359.462 21.312C359.568 21.2267 359.675 21.104 359.782 20.944C359.899 20.7733 360.006 20.608 360.102 20.448L360.582 20.88C360.208 21.36 359.792 21.7227 359.334 21.968C358.886 22.2027 358.422 22.32 357.942 22.32ZM195.784 47.552C196.488 47.5093 197 47.664 197.32 48.016C197.651 48.368 197.816 48.8107 197.816 49.344C197.816 49.8667 197.672 50.3467 197.384 50.784C197.107 51.2107 196.717 51.552 196.216 51.808C195.715 52.0533 195.155 52.176 194.536 52.176C193.576 52.176 192.851 51.872 192.36 51.264C191.869 50.6453 191.624 49.7973 191.624 48.72C191.624 47.8667 191.768 47.0667 192.056 46.32C192.344 45.5733 192.765 44.9707 193.32 44.512C193.885 44.0533 194.557 43.824 195.336 43.824C195.923 43.824 196.419 43.9573 196.824 44.224C197.229 44.48 197.432 44.8693 197.432 45.392C197.432 45.7973 197.293 46.192 197.016 46.576C196.749 46.9493 196.339 47.2747 195.784 47.552ZM195.176 44.368C194.579 44.368 194.088 44.7147 193.704 45.408C193.32 46.1013 193.096 46.9653 193.032 48C194.141 47.744 194.92 47.424 195.368 47.04C195.816 46.6453 196.04 46.1333 196.04 45.504C196.04 44.7467 195.752 44.368 195.176 44.368ZM194.904 51.568C195.384 51.568 195.763 51.4027 196.04 51.072C196.317 50.7413 196.456 50.2987 196.456 49.744C196.456 49.264 196.339 48.8747 196.104 48.576C195.88 48.2773 195.549 48.128 195.112 48.128C194.92 48.128 194.712 48.16 194.488 48.224L193.016 48.608C193.048 49.536 193.213 50.2613 193.512 50.784C193.821 51.3067 194.285 51.568 194.904 51.568ZM203.045 43.824C203.621 43.824 204.138 43.9627 204.597 44.24C205.066 44.5173 205.429 44.9227 205.685 45.456C205.951 45.9787 206.085 46.6027 206.085 47.328C206.085 48.2027 205.925 49.008 205.605 49.744C205.295 50.48 204.842 51.072 204.245 51.52C203.658 51.9573 202.965 52.176 202.165 52.176C201.151 52.176 200.383 51.8453 199.861 51.184C199.349 50.512 199.093 49.648 199.093 48.592C199.093 47.7173 199.253 46.9173 199.573 46.192C199.893 45.4667 200.351 44.8907 200.949 44.464C201.546 44.0373 202.245 43.824 203.045 43.824ZM202.789 44.416C202.319 44.416 201.909 44.5867 201.557 44.928C201.215 45.2587 200.954 45.7173 200.773 46.304C200.591 46.88 200.501 47.5253 200.501 48.24C200.501 49.1253 200.645 49.904 200.933 50.576C201.221 51.2373 201.69 51.568 202.341 51.568C202.885 51.568 203.327 51.36 203.669 50.944C204.021 50.528 204.277 50.016 204.437 49.408C204.597 48.8 204.677 48.208 204.677 47.632C204.677 46.736 204.533 45.9787 204.245 45.36C203.967 44.7307 203.482 44.416 202.789 44.416ZM209.949 52.176C209.138 52.176 208.487 52 207.997 51.648C207.517 51.296 207.277 50.848 207.277 50.304C207.277 50.0587 207.341 49.8667 207.469 49.728C207.597 49.5893 207.767 49.52 207.981 49.52C208.194 49.52 208.354 49.5893 208.461 49.728C208.578 49.8667 208.637 50.0107 208.637 50.16C208.637 50.416 208.567 50.6187 208.429 50.768C208.482 51.056 208.631 51.2747 208.877 51.424C209.122 51.5627 209.437 51.632 209.821 51.632C210.503 51.632 211.026 51.4613 211.389 51.12C211.762 50.768 211.949 50.304 211.949 49.728C211.949 49.2373 211.826 48.848 211.581 48.56C211.335 48.2613 210.967 48.112 210.477 48.112C210.21 48.112 209.911 48.16 209.581 48.256L209.405 47.696C210.205 47.4507 210.781 47.1627 211.133 46.832C211.485 46.4907 211.661 46.0747 211.661 45.584C211.661 45.1787 211.554 44.8747 211.341 44.672C211.127 44.4693 210.797 44.368 210.349 44.368C209.965 44.368 209.629 44.4427 209.341 44.592C209.053 44.7413 208.834 44.944 208.685 45.2C208.887 45.232 209.026 45.3013 209.101 45.408C209.186 45.5147 209.229 45.664 209.229 45.856C209.229 46.0373 209.165 46.1867 209.037 46.304C208.919 46.4213 208.765 46.48 208.573 46.48C208.381 46.48 208.215 46.416 208.077 46.288C207.949 46.1493 207.885 45.9733 207.885 45.76C207.863 45.408 207.975 45.0827 208.221 44.784C208.477 44.4853 208.818 44.2507 209.245 44.08C209.682 43.9093 210.146 43.824 210.637 43.824C211.33 43.824 211.885 43.9573 212.301 44.224C212.717 44.48 212.925 44.864 212.925 45.376C212.925 45.8027 212.77 46.2027 212.461 46.576C212.151 46.9493 211.687 47.2747 211.069 47.552V47.584C211.719 47.6267 212.226 47.8347 212.589 48.208C212.962 48.5707 213.149 49.0133 213.149 49.536C213.149 50.0267 213.015 50.4747 212.749 50.88C212.493 51.2853 212.119 51.6053 211.629 51.84C211.149 52.064 210.589 52.176 209.949 52.176ZM220.084 43.824C220.788 43.824 221.321 44.1173 221.684 44.704C222.057 45.2907 222.244 46.032 222.244 46.928C222.244 47.9733 222.063 48.8907 221.7 49.68C221.337 50.4693 220.799 51.0827 220.084 51.52C219.38 51.9573 218.527 52.176 217.524 52.176C217.268 52.176 217.017 52.16 216.772 52.128L216.644 54.144C216.633 54.2187 216.628 54.336 216.628 54.496C216.607 54.912 216.569 55.2373 216.516 55.472L217.524 55.424V56.08H214.5V55.6C214.756 55.6 214.948 55.52 215.076 55.36C215.204 55.2 215.289 54.992 215.332 54.736C215.385 54.4907 215.428 54.1387 215.46 53.68C215.46 53.5413 215.465 53.4347 215.476 53.36C215.572 52.2293 215.716 50.6133 215.908 48.512C216.079 46.752 216.164 45.7387 216.164 45.472C216.164 45.1947 216.137 44.9867 216.084 44.848C216.031 44.6987 215.913 44.624 215.732 44.624C215.529 44.624 215.321 44.752 215.108 45.008C214.905 45.264 214.729 45.6533 214.58 46.176L214.116 46.08C214.169 45.7813 214.281 45.456 214.452 45.104C214.633 44.752 214.868 44.4533 215.156 44.208C215.455 43.952 215.801 43.824 216.196 43.824C217.007 43.824 217.412 44.384 217.412 45.504C217.412 45.9733 217.337 46.5813 217.188 47.328H217.236C217.641 45.984 218.079 45.0667 218.548 44.576C219.017 44.0747 219.529 43.824 220.084 43.824ZM219.748 44.576C219.375 44.576 219.001 44.8373 218.628 45.36C218.255 45.872 217.924 46.544 217.636 47.376C217.348 48.1973 217.135 49.0453 216.996 49.92C216.932 50.2933 216.873 50.8 216.82 51.44C217.204 51.568 217.529 51.632 217.796 51.632C218.5 51.632 219.081 51.4133 219.54 50.976C220.009 50.528 220.345 49.968 220.548 49.296C220.761 48.6133 220.868 47.92 220.868 47.216C220.868 46.3947 220.783 45.7493 220.612 45.28C220.441 44.8107 220.153 44.576 219.748 44.576ZM228.233 43.824C228.958 43.824 229.673 43.9147 230.377 44.096C229.907 47.5733 229.673 49.7067 229.673 50.496C229.673 50.7733 229.699 50.992 229.753 51.152C229.806 51.3013 229.929 51.376 230.121 51.376C230.323 51.376 230.531 51.248 230.745 50.992C230.958 50.736 231.139 50.3467 231.289 49.824L231.737 49.92C231.683 50.2187 231.566 50.544 231.385 50.896C231.214 51.248 230.979 51.552 230.681 51.808C230.393 52.0533 230.051 52.176 229.657 52.176C228.867 52.176 228.473 51.696 228.473 50.736C228.473 50.2667 228.569 49.552 228.761 48.592H228.713C228.265 50 227.774 50.9493 227.241 51.44C226.707 51.9307 226.158 52.176 225.593 52.176C224.974 52.176 224.478 51.952 224.105 51.504C223.742 51.056 223.561 50.352 223.561 49.392C223.561 48.368 223.737 47.4347 224.089 46.592C224.441 45.7493 224.969 45.0773 225.673 44.576C226.377 44.0747 227.23 43.824 228.233 43.824ZM227.737 44.4C227.118 44.4 226.595 44.624 226.169 45.072C225.742 45.5093 225.422 46.0907 225.209 46.816C225.006 47.5307 224.905 48.2987 224.905 49.12C224.905 50.688 225.251 51.472 225.945 51.472C226.414 51.472 226.883 51.104 227.353 50.368C227.822 49.632 228.211 48.7253 228.521 47.648C228.83 46.56 228.985 45.5413 228.985 44.592C228.665 44.464 228.249 44.4 227.737 44.4ZM236.182 43.824C236.63 43.824 237.036 43.9093 237.398 44.08C237.772 44.24 238.06 44.464 238.262 44.752C238.476 45.0293 238.582 45.344 238.582 45.696C238.582 45.9413 238.518 46.1333 238.39 46.272C238.262 46.4107 238.092 46.48 237.878 46.48C237.665 46.48 237.5 46.4107 237.382 46.272C237.276 46.1333 237.222 45.9893 237.222 45.84C237.222 45.584 237.292 45.3813 237.43 45.232C237.377 44.944 237.233 44.7307 236.998 44.592C236.774 44.4533 236.497 44.384 236.166 44.384C235.324 44.384 234.71 44.7787 234.326 45.568C233.953 46.3573 233.766 47.2693 233.766 48.304C233.766 49.3707 233.937 50.1547 234.278 50.656C234.63 51.1467 235.11 51.392 235.718 51.392C236.188 51.392 236.641 51.2373 237.078 50.928C237.516 50.608 237.878 50.0907 238.166 49.376L238.726 49.648C238.342 50.5333 237.868 51.1787 237.302 51.584C236.737 51.9787 236.118 52.176 235.446 52.176C234.476 52.176 233.718 51.888 233.174 51.312C232.63 50.7253 232.358 49.8453 232.358 48.672C232.358 47.9253 232.497 47.1787 232.774 46.432C233.062 45.6853 233.494 45.0667 234.07 44.576C234.646 44.0747 235.35 43.824 236.182 43.824ZM249.905 43.824C250.502 43.824 250.929 44.016 251.185 44.4C251.452 44.784 251.585 45.2853 251.585 45.904C251.585 46.352 251.558 46.8053 251.505 47.264C251.452 47.712 251.372 48.2827 251.265 48.976C251.126 49.8293 251.057 50.384 251.057 50.64C251.057 50.8747 251.084 51.056 251.137 51.184C251.201 51.312 251.318 51.376 251.489 51.376C251.692 51.376 251.9 51.2533 252.113 51.008C252.337 50.752 252.524 50.3573 252.673 49.824L253.121 49.936C253.068 50.2347 252.95 50.56 252.769 50.912C252.598 51.2533 252.364 51.552 252.065 51.808C251.766 52.0533 251.42 52.176 251.025 52.176C250.545 52.176 250.209 52.0533 250.017 51.808C249.836 51.552 249.745 51.1627 249.745 50.64C249.745 50.2027 249.83 49.4987 250.001 48.528C250.012 48.432 250.049 48.1707 250.113 47.744C250.177 47.3067 250.225 46.9067 250.257 46.544C250.3 46.1707 250.321 45.84 250.321 45.552C250.321 45.3067 250.262 45.0827 250.145 44.88C250.028 44.6773 249.83 44.576 249.553 44.576C249.073 44.576 248.604 44.928 248.145 45.632C247.697 46.336 247.329 47.2053 247.041 48.24C246.764 49.2747 246.625 50.2453 246.625 51.152C246.625 51.3547 246.636 51.6373 246.657 52H245.313C245.302 51.904 245.297 51.7653 245.297 51.584C245.297 51.232 245.329 50.7627 245.393 50.176C245.457 49.5893 245.526 49.008 245.601 48.432C245.782 47.0453 245.873 46.1013 245.873 45.6C245.873 44.9173 245.617 44.576 245.105 44.576C244.636 44.576 244.172 44.928 243.713 45.632C243.265 46.336 242.897 47.2107 242.609 48.256C242.321 49.2907 242.177 50.256 242.177 51.152C242.177 51.3547 242.188 51.6373 242.209 52H240.865C240.854 51.904 240.849 51.7653 240.849 51.584C240.849 51.3173 240.87 50.9333 240.913 50.432C240.966 49.92 241.046 49.2373 241.153 48.384L241.345 46.72C241.388 46.3467 241.42 46.064 241.441 45.872C241.462 45.6693 241.473 45.4933 241.473 45.344C241.473 45.12 241.441 44.944 241.377 44.816C241.324 44.688 241.212 44.624 241.041 44.624C240.838 44.624 240.63 44.752 240.417 45.008C240.204 45.264 240.022 45.6533 239.873 46.176L239.425 46.08C239.478 45.7813 239.59 45.456 239.761 45.104C239.942 44.752 240.177 44.4533 240.465 44.208C240.764 43.952 241.11 43.824 241.505 43.824C242.305 43.824 242.705 44.3573 242.705 45.424C242.705 45.7227 242.673 46.0533 242.609 46.416C242.556 46.7787 242.502 47.104 242.449 47.392H242.497C242.956 46.0587 243.43 45.1307 243.921 44.608C244.412 44.0853 244.913 43.824 245.425 43.824C246.012 43.824 246.444 44.0107 246.721 44.384C246.998 44.7573 247.137 45.1787 247.137 45.648C247.137 45.9253 247.121 46.16 247.089 46.352C247.057 46.5333 246.982 46.864 246.865 47.344H246.913C247.393 46.0107 247.884 45.0933 248.385 44.592C248.886 44.08 249.393 43.824 249.905 43.824ZM266.86 49.92C266.806 50.2187 266.689 50.544 266.508 50.896C266.337 51.248 266.102 51.552 265.804 51.808C265.516 52.0533 265.174 52.176 264.78 52.176C264.364 52.176 264.054 52.048 263.852 51.792C263.649 51.536 263.548 51.184 263.548 50.736C263.548 50.448 263.606 49.856 263.724 48.96L263.772 48.512L260.684 48.544L260.396 50.992C260.374 51.2053 260.364 51.36 260.364 51.456C260.364 51.6373 260.38 51.8187 260.412 52H259.068C259.057 51.904 259.052 51.7653 259.052 51.584C259.062 51.1893 259.158 50.3733 259.34 49.136L259.436 48.384L259.532 47.696C259.628 46.9813 259.692 46.464 259.724 46.144C259.766 45.8133 259.788 45.5467 259.788 45.344C259.809 44.864 259.67 44.624 259.372 44.624C259.169 44.624 258.956 44.752 258.732 45.008C258.518 45.264 258.332 45.6533 258.172 46.176L257.724 46.08C257.788 45.7813 257.91 45.456 258.092 45.104C258.273 44.752 258.513 44.4533 258.812 44.208C259.11 43.952 259.457 43.824 259.852 43.824C260.63 43.824 261.02 44.3413 261.02 45.376C261.02 45.5467 260.998 45.824 260.956 46.208L260.764 47.904H263.852C264.022 46.56 264.108 45.568 264.108 44.928C264.108 44.736 264.097 44.4267 264.076 44H265.42C265.43 44.096 265.436 44.2347 265.436 44.416C265.436 44.6933 265.398 45.1627 265.324 45.824C265.26 46.4747 265.185 47.136 265.1 47.808C264.908 49.4293 264.812 50.3787 264.812 50.656C264.812 51.1253 264.956 51.36 265.244 51.36C265.446 51.36 265.654 51.2373 265.868 50.992C266.081 50.736 266.262 50.3467 266.412 49.824L266.86 49.92ZM272.295 43.824C273.021 43.824 273.735 43.9147 274.439 44.096C273.97 47.5733 273.735 49.7067 273.735 50.496C273.735 50.7733 273.762 50.992 273.815 51.152C273.869 51.3013 273.991 51.376 274.183 51.376C274.386 51.376 274.594 51.248 274.807 50.992C275.021 50.736 275.202 50.3467 275.351 49.824L275.799 49.92C275.746 50.2187 275.629 50.544 275.447 50.896C275.277 51.248 275.042 51.552 274.743 51.808C274.455 52.0533 274.114 52.176 273.719 52.176C272.93 52.176 272.535 51.696 272.535 50.736C272.535 50.2667 272.631 49.552 272.823 48.592H272.775C272.327 50 271.837 50.9493 271.303 51.44C270.77 51.9307 270.221 52.176 269.655 52.176C269.037 52.176 268.541 51.952 268.167 51.504C267.805 51.056 267.623 50.352 267.623 49.392C267.623 48.368 267.799 47.4347 268.151 46.592C268.503 45.7493 269.031 45.0773 269.735 44.576C270.439 44.0747 271.293 43.824 272.295 43.824ZM271.799 44.4C271.181 44.4 270.658 44.624 270.231 45.072C269.805 45.5093 269.485 46.0907 269.271 46.816C269.069 47.5307 268.967 48.2987 268.967 49.12C268.967 50.688 269.314 51.472 270.007 51.472C270.477 51.472 270.946 51.104 271.415 50.368C271.885 49.632 272.274 48.7253 272.583 47.648C272.893 46.56 273.047 45.5413 273.047 44.592C272.727 44.464 272.311 44.4 271.799 44.4ZM284.901 49.92C284.848 50.2187 284.736 50.544 284.565 50.896C284.394 51.2373 284.16 51.536 283.861 51.792C283.562 52.048 283.216 52.176 282.821 52.176C282.405 52.176 282.096 52.048 281.893 51.792C281.69 51.536 281.589 51.184 281.589 50.736C281.589 50.384 281.68 49.5413 281.861 48.208C281.2 48.7733 280.496 49.056 279.749 49.056C279.162 49.056 278.72 48.8907 278.421 48.56C278.122 48.2187 277.973 47.7493 277.973 47.152C277.973 46.9813 278.005 46.6827 278.069 46.256C278.144 45.7333 278.181 45.36 278.181 45.136C278.181 44.7947 278.064 44.624 277.829 44.624C277.616 44.624 277.392 44.752 277.157 45.008C276.922 45.2533 276.714 45.6427 276.533 46.176L276.085 46.064C276.16 45.7653 276.298 45.4453 276.501 45.104C276.704 44.752 276.97 44.4533 277.301 44.208C277.642 43.952 278.032 43.824 278.469 43.824C278.842 43.824 279.109 43.9307 279.269 44.144C279.44 44.3573 279.525 44.6827 279.525 45.12C279.525 45.376 279.482 45.76 279.397 46.272C279.386 46.336 279.365 46.48 279.333 46.704C279.301 46.928 279.285 47.1413 279.285 47.344C279.285 47.6747 279.349 47.92 279.477 48.08C279.605 48.2293 279.824 48.304 280.133 48.304C280.41 48.304 280.704 48.2507 281.013 48.144C281.333 48.0267 281.637 47.8667 281.925 47.664C282.074 46.5653 282.149 45.6533 282.149 44.928L282.133 44H283.461C283.472 44.096 283.477 44.2347 283.477 44.416C283.477 44.6933 283.44 45.1627 283.365 45.824C283.301 46.4747 283.226 47.136 283.141 47.808C282.949 49.4293 282.853 50.3787 282.853 50.656C282.853 51.1253 282.997 51.36 283.285 51.36C283.488 51.36 283.696 51.2373 283.909 50.992C284.122 50.736 284.309 50.3467 284.469 49.824L284.901 49.92ZM290.373 43.824C291.099 43.824 291.813 43.9147 292.517 44.096C292.048 47.5733 291.813 49.7067 291.813 50.496C291.813 50.7733 291.84 50.992 291.893 51.152C291.947 51.3013 292.069 51.376 292.261 51.376C292.464 51.376 292.672 51.248 292.885 50.992C293.099 50.736 293.28 50.3467 293.429 49.824L293.877 49.92C293.824 50.2187 293.707 50.544 293.525 50.896C293.355 51.248 293.12 51.552 292.821 51.808C292.533 52.0533 292.192 52.176 291.797 52.176C291.008 52.176 290.613 51.696 290.613 50.736C290.613 50.2667 290.709 49.552 290.901 48.592H290.853C290.405 50 289.915 50.9493 289.381 51.44C288.848 51.9307 288.299 52.176 287.733 52.176C287.115 52.176 286.619 51.952 286.245 51.504C285.883 51.056 285.701 50.352 285.701 49.392C285.701 48.368 285.877 47.4347 286.229 46.592C286.581 45.7493 287.109 45.0773 287.813 44.576C288.517 44.0747 289.371 43.824 290.373 43.824ZM289.877 44.4C289.259 44.4 288.736 44.624 288.309 45.072C287.883 45.5093 287.563 46.0907 287.349 46.816C287.147 47.5307 287.045 48.2987 287.045 49.12C287.045 50.688 287.392 51.472 288.085 51.472C288.555 51.472 289.024 51.104 289.493 50.368C289.963 49.632 290.352 48.7253 290.661 47.648C290.971 46.56 291.125 45.5413 291.125 44.592C290.805 44.464 290.389 44.4 289.877 44.4ZM303.011 49.92C302.958 50.2187 302.846 50.544 302.675 50.896C302.504 51.2373 302.27 51.536 301.971 51.792C301.672 52.048 301.326 52.176 300.931 52.176C300.515 52.176 300.206 52.048 300.003 51.792C299.8 51.536 299.699 51.184 299.699 50.736C299.699 50.3413 299.774 49.6213 299.923 48.576C300.147 46.9227 300.259 45.7067 300.259 44.928V44.608L299.171 44.624H299.587C299.32 44.624 299.15 44.7947 299.075 45.136C298.648 47.28 298.099 48.9867 297.427 50.256C296.755 51.5253 295.896 52.16 294.851 52.16C294.552 52.16 294.302 52.0747 294.099 51.904C293.907 51.7333 293.811 51.5307 293.811 51.296C293.811 51.0933 293.88 50.9173 294.019 50.768C294.158 50.608 294.334 50.528 294.547 50.528C294.728 50.528 294.888 50.5867 295.027 50.704C295.166 50.8213 295.235 50.9707 295.235 51.152C295.235 51.2267 295.224 51.3067 295.203 51.392C295.651 51.4453 296.083 51.1413 296.499 50.48C296.926 49.808 297.294 48.944 297.603 47.888C297.923 46.8213 298.163 45.7333 298.323 44.624L296.851 44.64L296.899 44H301.571C301.582 44.096 301.587 44.2347 301.587 44.416C301.587 44.6933 301.55 45.1627 301.475 45.824C301.411 46.4747 301.336 47.136 301.251 47.808C301.059 49.4293 300.963 50.3787 300.963 50.656C300.963 51.1253 301.107 51.36 301.395 51.36C301.598 51.36 301.806 51.2373 302.019 50.992C302.232 50.736 302.414 50.3467 302.563 49.824L303.011 49.92ZM299.027 45.28V45.328V45.28ZM308.452 43.824C309.177 43.824 309.892 43.9147 310.596 44.096C310.126 47.5733 309.892 49.7067 309.892 50.496C309.892 50.7733 309.918 50.992 309.972 51.152C310.025 51.3013 310.148 51.376 310.34 51.376C310.542 51.376 310.75 51.248 310.964 50.992C311.177 50.736 311.358 50.3467 311.508 49.824L311.956 49.92C311.902 50.2187 311.785 50.544 311.604 50.896C311.433 51.248 311.198 51.552 310.9 51.808C310.612 52.0533 310.27 52.176 309.876 52.176C309.086 52.176 308.692 51.696 308.692 50.736C308.692 50.2667 308.788 49.552 308.98 48.592H308.932C308.484 50 307.993 50.9493 307.46 51.44C306.926 51.9307 306.377 52.176 305.812 52.176C305.193 52.176 304.697 51.952 304.324 51.504C303.961 51.056 303.78 50.352 303.78 49.392C303.78 48.368 303.956 47.4347 304.308 46.592C304.66 45.7493 305.188 45.0773 305.892 44.576C306.596 44.0747 307.449 43.824 308.452 43.824ZM307.956 44.4C307.337 44.4 306.814 44.624 306.388 45.072C305.961 45.5093 305.641 46.0907 305.428 46.816C305.225 47.5307 305.124 48.2987 305.124 49.12C305.124 50.688 305.47 51.472 306.164 51.472C306.633 51.472 307.102 51.104 307.572 50.368C308.041 49.632 308.43 48.7253 308.74 47.648C309.049 46.56 309.204 45.5413 309.204 44.592C308.884 44.464 308.468 44.4 307.956 44.4ZM322.492 43.824C323.09 43.824 323.527 44.016 323.804 44.4C324.092 44.784 324.236 45.2853 324.236 45.904C324.236 46.6187 324.135 47.6427 323.932 48.976C323.815 49.8187 323.756 50.3733 323.756 50.64C323.756 50.8747 323.783 51.056 323.836 51.184C323.9 51.312 324.018 51.376 324.188 51.376C324.391 51.376 324.599 51.2533 324.812 51.008C325.026 50.752 325.207 50.3573 325.356 49.824L325.804 49.936C325.751 50.2347 325.634 50.56 325.452 50.912C325.282 51.2533 325.047 51.552 324.748 51.808C324.46 52.0533 324.119 52.176 323.724 52.176C323.244 52.176 322.908 52.0533 322.716 51.808C322.524 51.552 322.428 51.1627 322.428 50.64C322.428 50.2453 322.498 49.5413 322.636 48.528C322.828 47.2267 322.924 46.2347 322.924 45.552C322.924 45.3067 322.866 45.0827 322.748 44.88C322.642 44.6773 322.45 44.576 322.172 44.576C321.703 44.576 321.223 44.9333 320.732 45.648C320.242 46.352 319.831 47.2267 319.5 48.272C319.18 49.3067 319.02 50.2667 319.02 51.152C319.02 51.3547 319.031 51.6373 319.052 52H317.708C317.698 51.904 317.692 51.7653 317.692 51.584C317.692 51.328 317.714 50.9707 317.756 50.512C317.81 50.0533 317.884 49.4507 317.98 48.704C317.98 48.64 317.991 48.5333 318.012 48.384C318.023 48.2453 318.039 48.1013 318.06 47.952C318.082 47.8027 318.098 47.6533 318.108 47.504C318.183 46.8533 318.236 46.3787 318.268 46.08C318.3 45.7813 318.316 45.536 318.316 45.344C318.316 45.12 318.284 44.944 318.22 44.816C318.167 44.688 318.055 44.624 317.884 44.624C317.682 44.624 317.474 44.752 317.26 45.008C317.047 45.264 316.866 45.6533 316.716 46.176L316.268 46.08C316.322 45.7813 316.434 45.456 316.604 45.104C316.786 44.752 317.02 44.4533 317.308 44.208C317.607 43.952 317.954 43.824 318.348 43.824C319.148 43.824 319.548 44.3733 319.548 45.472C319.548 45.7813 319.516 46.1227 319.452 46.496C319.399 46.8587 319.346 47.184 319.292 47.472H319.34C319.852 46.1067 320.359 45.1573 320.86 44.624C321.372 44.0907 321.916 43.824 322.492 43.824ZM332.256 43.824C332.96 43.824 333.493 44.1173 333.856 44.704C334.229 45.2907 334.416 46.032 334.416 46.928C334.416 47.9733 334.235 48.8907 333.872 49.68C333.509 50.4693 332.971 51.0827 332.256 51.52C331.552 51.9573 330.699 52.176 329.696 52.176C329.44 52.176 329.189 52.16 328.944 52.128L328.816 54.144C328.805 54.2187 328.8 54.336 328.8 54.496C328.779 54.912 328.741 55.2373 328.688 55.472L329.696 55.424V56.08H326.672V55.6C326.928 55.6 327.12 55.52 327.248 55.36C327.376 55.2 327.461 54.992 327.504 54.736C327.557 54.4907 327.6 54.1387 327.632 53.68C327.632 53.5413 327.637 53.4347 327.648 53.36C327.744 52.2293 327.888 50.6133 328.08 48.512C328.251 46.752 328.336 45.7387 328.336 45.472C328.336 45.1947 328.309 44.9867 328.256 44.848C328.203 44.6987 328.085 44.624 327.904 44.624C327.701 44.624 327.493 44.752 327.28 45.008C327.077 45.264 326.901 45.6533 326.752 46.176L326.288 46.08C326.341 45.7813 326.453 45.456 326.624 45.104C326.805 44.752 327.04 44.4533 327.328 44.208C327.627 43.952 327.973 43.824 328.368 43.824C329.179 43.824 329.584 44.384 329.584 45.504C329.584 45.9733 329.509 46.5813 329.36 47.328H329.408C329.813 45.984 330.251 45.0667 330.72 44.576C331.189 44.0747 331.701 43.824 332.256 43.824ZM331.92 44.576C331.547 44.576 331.173 44.8373 330.8 45.36C330.427 45.872 330.096 46.544 329.808 47.376C329.52 48.1973 329.307 49.0453 329.168 49.92C329.104 50.2933 329.045 50.8 328.992 51.44C329.376 51.568 329.701 51.632 329.968 51.632C330.672 51.632 331.253 51.4133 331.712 50.976C332.181 50.528 332.517 49.968 332.72 49.296C332.933 48.6133 333.04 47.92 333.04 47.216C333.04 46.3947 332.955 45.7493 332.784 45.28C332.613 44.8107 332.325 44.576 331.92 44.576ZM339.717 43.824C340.293 43.824 340.81 43.9627 341.269 44.24C341.738 44.5173 342.101 44.9227 342.357 45.456C342.623 45.9787 342.757 46.6027 342.757 47.328C342.757 48.2027 342.597 49.008 342.277 49.744C341.967 50.48 341.514 51.072 340.917 51.52C340.33 51.9573 339.637 52.176 338.837 52.176C337.823 52.176 337.055 51.8453 336.533 51.184C336.021 50.512 335.765 49.648 335.765 48.592C335.765 47.7173 335.925 46.9173 336.245 46.192C336.565 45.4667 337.023 44.8907 337.621 44.464C338.218 44.0373 338.917 43.824 339.717 43.824ZM339.461 44.416C338.991 44.416 338.581 44.5867 338.229 44.928C337.887 45.2587 337.626 45.7173 337.445 46.304C337.263 46.88 337.173 47.5253 337.173 48.24C337.173 49.1253 337.317 49.904 337.605 50.576C337.893 51.2373 338.362 51.568 339.013 51.568C339.557 51.568 339.999 51.36 340.341 50.944C340.693 50.528 340.949 50.016 341.109 49.408C341.269 48.8 341.349 48.208 341.349 47.632C341.349 46.736 341.205 45.9787 340.917 45.36C340.639 44.7307 340.154 44.416 339.461 44.416ZM352.332 52.208C352.503 52.4853 352.588 52.784 352.588 53.104C352.588 53.8507 352.13 54.6133 351.212 55.392L350.844 55.024C351.292 54.4693 351.516 54.016 351.516 53.664C351.516 53.5573 351.484 53.4187 351.42 53.248C351.356 53.1093 351.324 52.9653 351.324 52.816C351.324 52.56 351.415 52.2827 351.596 51.984L351.452 51.904C351.26 52.0853 350.972 52.176 350.588 52.176C350.279 52.176 350.034 52.048 349.852 51.792C349.682 51.5253 349.596 51.1733 349.596 50.736C349.596 50.2667 349.692 49.552 349.884 48.592H349.836C349.324 49.968 348.834 50.912 348.364 51.424C347.895 51.9253 347.378 52.176 346.812 52.176C346.215 52.176 345.772 51.984 345.484 51.6C345.207 51.2053 345.068 50.704 345.068 50.096C345.068 49.6373 345.095 49.1733 345.148 48.704C345.202 48.2347 345.282 47.6693 345.388 47.008C345.41 46.8907 345.447 46.6453 345.5 46.272C345.554 45.888 345.58 45.5893 345.58 45.376C345.58 45.1307 345.548 44.944 345.484 44.816C345.431 44.688 345.319 44.624 345.148 44.624C344.956 44.624 344.759 44.752 344.556 45.008C344.354 45.2533 344.178 45.6427 344.028 46.176L343.58 46.08C343.676 45.5573 343.895 45.0507 344.236 44.56C344.588 44.0693 345.047 43.824 345.612 43.824C346.039 43.824 346.359 43.9573 346.572 44.224C346.796 44.4907 346.908 44.8747 346.908 45.376C346.908 45.76 346.823 46.56 346.652 47.776C346.642 47.872 346.594 48.2347 346.508 48.864C346.423 49.4827 346.38 50 346.38 50.416C346.38 50.672 346.434 50.9067 346.54 51.12C346.658 51.3227 346.855 51.424 347.132 51.424C347.602 51.424 348.071 51.072 348.54 50.368C349.01 49.6533 349.394 48.7787 349.692 47.744C350.002 46.7093 350.156 45.744 350.156 44.848C350.156 44.6453 350.146 44.3627 350.124 44H351.468C351.479 44.096 351.484 44.2347 351.484 44.416C351.484 44.672 351.458 45.0667 351.404 45.6C351.351 46.1333 351.271 46.8267 351.164 47.68L351.004 49.008C350.994 49.1467 350.967 49.4027 350.924 49.776C350.882 50.1493 350.86 50.4427 350.86 50.656C350.86 50.8693 350.887 51.04 350.94 51.168C351.004 51.296 351.095 51.36 351.212 51.36C351.298 51.36 351.372 51.328 351.436 51.264C351.511 51.1893 351.591 51.072 351.676 50.912L352.156 49.824L352.588 49.952L352.444 50.384L352.38 50.56L352.252 50.928C352.178 51.152 352.14 51.3547 352.14 51.536C352.14 51.7813 352.204 52.0053 352.332 52.208ZM357.84 43.824C358.48 43.824 359.013 43.9733 359.44 44.272C359.867 44.5707 360.08 45.0347 360.08 45.664C360.08 46.4533 359.605 47.0667 358.656 47.504C357.707 47.9413 356.608 48.2293 355.36 48.368C355.36 49.3707 355.509 50.1227 355.808 50.624C356.107 51.1253 356.565 51.376 357.184 51.376C357.675 51.376 358.149 51.216 358.608 50.896C359.067 50.5653 359.467 50.08 359.808 49.44L360.336 49.744C359.888 50.5867 359.387 51.2053 358.832 51.6C358.277 51.984 357.637 52.176 356.912 52.176C355.931 52.176 355.189 51.872 354.688 51.264C354.197 50.6453 353.952 49.7973 353.952 48.72C353.952 47.856 354.096 47.056 354.384 46.32C354.683 45.5733 355.125 44.9707 355.712 44.512C356.299 44.0533 357.008 43.824 357.84 43.824ZM357.616 44.368C356.933 44.368 356.405 44.6987 356.032 45.36C355.659 46.0213 355.44 46.832 355.376 47.792C356.304 47.664 357.099 47.408 357.76 47.024C358.421 46.64 358.752 46.16 358.752 45.584C358.752 45.232 358.651 44.944 358.448 44.72C358.256 44.4853 357.979 44.368 357.616 44.368ZM364.377 52.176C363.545 52.176 362.868 51.8827 362.345 51.296C361.833 50.7093 361.577 49.872 361.577 48.784C361.577 47.888 361.742 47.088 362.073 46.384C362.404 45.6693 362.852 45.1147 363.417 44.72C363.993 44.3253 364.628 44.128 365.321 44.128C366.036 44.128 366.548 44.336 366.857 44.752C366.729 43.376 366.441 42.32 365.993 41.584C365.556 40.8373 365.022 40.464 364.393 40.464C363.764 40.464 363.193 40.7147 362.681 41.216L362.377 40.848C362.772 40.5067 363.134 40.2613 363.465 40.112C363.806 39.952 364.169 39.872 364.553 39.872C365.78 39.872 366.692 40.464 367.289 41.648C367.886 42.8213 368.185 44.32 368.185 46.144C368.185 47.5733 368.004 48.7413 367.641 49.648C367.289 50.544 366.825 51.1893 366.249 51.584C365.684 51.9787 365.06 52.176 364.377 52.176ZM364.681 51.568C365.374 51.568 365.892 51.1307 366.233 50.256C366.585 49.3813 366.793 48.3413 366.857 47.136C366.9 46.432 366.777 45.856 366.489 45.408C366.201 44.9493 365.817 44.72 365.337 44.72C364.953 44.72 364.574 44.88 364.201 45.2C363.828 45.5093 363.518 45.9627 363.273 46.56C363.038 47.1467 362.921 47.8293 362.921 48.608C362.921 49.472 363.076 50.1813 363.385 50.736C363.705 51.2907 364.137 51.568 364.681 51.568ZM375.067 43.824C375.515 43.824 375.84 44.0213 376.043 44.416C376.245 44.8107 376.347 45.296 376.347 45.872C376.347 46.8427 376.155 47.8613 375.771 48.928C375.387 49.984 374.869 51.0987 374.219 52.272C373.451 53.68 372.72 54.7093 372.027 55.36C371.333 56.0107 370.656 56.336 369.995 56.336C369.611 56.336 369.296 56.24 369.051 56.048C368.816 55.856 368.699 55.616 368.699 55.328C368.699 55.104 368.768 54.9227 368.907 54.784C369.045 54.656 369.195 54.592 369.355 54.592C369.579 54.592 369.749 54.6613 369.867 54.8C369.995 54.9493 370.053 55.1573 370.043 55.424C370.192 55.4987 370.309 55.536 370.395 55.536C370.8 55.5573 371.232 55.3013 371.691 54.768C372.16 54.2347 372.544 53.712 372.843 53.2C372.651 51.888 372.384 50.5653 372.043 49.232C371.701 47.8987 371.317 46.7147 370.891 45.68C370.763 45.4027 370.651 45.2 370.555 45.072C370.459 44.9333 370.325 44.864 370.155 44.864C369.973 44.864 369.824 44.976 369.707 45.2C369.6 45.424 369.547 45.728 369.547 46.112C369.547 46.2933 369.552 46.432 369.563 46.528L369.051 46.592C369.04 46.4853 369.035 46.3253 369.035 46.112C369.035 45.4827 369.147 44.944 369.371 44.496C369.605 44.048 369.984 43.824 370.507 43.824C370.987 43.824 371.36 43.9947 371.627 44.336C371.893 44.6667 372.123 45.0987 372.315 45.632C372.528 46.208 372.72 46.832 372.891 47.504C373.061 48.1653 373.264 49.0187 373.499 50.064C373.563 50.3733 373.643 50.9173 373.739 51.696H373.771C374.283 50.8 374.715 49.8613 375.067 48.88C375.419 47.888 375.595 46.992 375.595 46.192C375.595 45.936 375.568 45.7067 375.515 45.504C375.472 45.3013 375.419 45.152 375.355 45.056C375.259 45.12 375.125 45.152 374.955 45.152C374.763 45.152 374.608 45.0933 374.491 44.976C374.373 44.848 374.315 44.6987 374.315 44.528C374.315 44.304 374.389 44.1333 374.539 44.016C374.688 43.888 374.864 43.824 375.067 43.824ZM383.365 43.824C384.069 43.824 384.603 44.1173 384.965 44.704C385.339 45.2907 385.525 46.032 385.525 46.928C385.525 47.9733 385.344 48.8907 384.981 49.68C384.619 50.4693 384.08 51.0827 383.365 51.52C382.661 51.9573 381.808 52.176 380.805 52.176C380.549 52.176 380.299 52.16 380.053 52.128L379.925 54.144C379.915 54.2187 379.909 54.336 379.909 54.496C379.888 54.912 379.851 55.2373 379.797 55.472L380.805 55.424V56.08H377.781V55.6C378.037 55.6 378.229 55.52 378.357 55.36C378.485 55.2 378.571 54.992 378.613 54.736C378.667 54.4907 378.709 54.1387 378.741 53.68C378.741 53.5413 378.747 53.4347 378.757 53.36C378.853 52.2293 378.997 50.6133 379.189 48.512C379.36 46.752 379.445 45.7387 379.445 45.472C379.445 45.1947 379.419 44.9867 379.365 44.848C379.312 44.6987 379.195 44.624 379.013 44.624C378.811 44.624 378.603 44.752 378.389 45.008C378.187 45.264 378.011 45.6533 377.861 46.176L377.397 46.08C377.451 45.7813 377.563 45.456 377.733 45.104C377.915 44.752 378.149 44.4533 378.437 44.208C378.736 43.952 379.083 43.824 379.477 43.824C380.288 43.824 380.693 44.384 380.693 45.504C380.693 45.9733 380.619 46.5813 380.469 47.328H380.517C380.923 45.984 381.36 45.0667 381.829 44.576C382.299 44.0747 382.811 43.824 383.365 43.824ZM383.029 44.576C382.656 44.576 382.283 44.8373 381.909 45.36C381.536 45.872 381.205 46.544 380.917 47.376C380.629 48.1973 380.416 49.0453 380.277 49.92C380.213 50.2933 380.155 50.8 380.101 51.44C380.485 51.568 380.811 51.632 381.077 51.632C381.781 51.632 382.363 51.4133 382.821 50.976C383.291 50.528 383.627 49.968 383.829 49.296C384.043 48.6133 384.149 47.92 384.149 47.216C384.149 46.3947 384.064 45.7493 383.893 45.28C383.723 44.8107 383.435 44.576 383.029 44.576ZM194.904 73.16C193.933 73.16 193.139 72.8027 192.52 72.088C191.912 71.3627 191.608 70.3013 191.608 68.904C191.608 68.7653 191.619 68.536 191.64 68.216C191.736 66.712 192.051 65.4213 192.584 64.344C193.117 63.256 193.885 62.5253 194.888 62.152C195.123 62.056 195.363 61.9867 195.608 61.944C195.853 61.9013 196.173 61.8587 196.568 61.816C196.941 61.784 197.251 61.736 197.496 61.672C197.901 61.576 198.2 61.48 198.392 61.384C198.595 61.288 198.76 61.112 198.888 60.856L199.352 61.016C199.032 62.0187 198.392 62.68 197.432 63C197.24 63.0747 197.016 63.1333 196.76 63.176C196.515 63.2187 196.275 63.256 196.04 63.288C195.571 63.352 195.235 63.4107 195.032 63.464C194.157 63.72 193.507 64.1627 193.08 64.792C192.664 65.4213 192.376 66.28 192.216 67.368H192.328C192.968 65.992 194.04 65.304 195.544 65.304C196.067 65.304 196.557 65.4373 197.016 65.704C197.485 65.9707 197.859 66.3653 198.136 66.888C198.424 67.4 198.568 68.0133 198.568 68.728C198.568 69.5813 198.397 70.344 198.056 71.016C197.715 71.688 197.261 72.216 196.696 72.6C196.141 72.9733 195.544 73.16 194.904 73.16ZM194.84 72.552C195.597 72.552 196.173 72.2 196.568 71.496C196.973 70.7813 197.176 69.8587 197.176 68.728C197.176 67.928 197.016 67.256 196.696 66.712C196.376 66.1573 195.912 65.88 195.304 65.88C194.557 65.88 193.987 66.2267 193.592 66.92C193.197 67.6027 193 68.424 193 69.384C193 70.344 193.165 71.112 193.496 71.688C193.827 72.264 194.275 72.552 194.84 72.552ZM201.472 64.824C201.898 64.824 202.218 64.9573 202.432 65.224C202.656 65.4907 202.768 65.8747 202.768 66.376C202.768 66.76 202.682 67.56 202.512 68.776C202.501 68.872 202.453 69.2347 202.368 69.864C202.282 70.4827 202.24 71 202.24 71.416C202.24 71.672 202.293 71.9067 202.4 72.12C202.517 72.3227 202.714 72.424 202.992 72.424C203.461 72.424 203.93 72.072 204.4 71.368C204.869 70.6533 205.253 69.7787 205.552 68.744C205.861 67.7093 206.016 66.744 206.016 65.848C206.016 65.6453 206.005 65.3627 205.984 65H207.328C207.338 65.096 207.344 65.2347 207.344 65.416C207.344 65.672 207.317 66.0667 207.264 66.6C207.21 67.1333 207.13 67.8267 207.024 68.68L206.864 70.008C206.853 70.1467 206.826 70.4027 206.784 70.776C206.741 71.1493 206.72 71.4427 206.72 71.656C206.72 72.1253 206.864 72.36 207.152 72.36C207.354 72.36 207.562 72.2373 207.776 71.992C207.989 71.736 208.17 71.3467 208.32 70.824L208.768 70.92C208.714 71.2187 208.597 71.544 208.416 71.896C208.245 72.248 208.01 72.552 207.712 72.808C207.424 73.0533 207.082 73.176 206.688 73.176C206.272 73.176 205.962 73.048 205.76 72.792C205.557 72.536 205.456 72.184 205.456 71.736C205.456 71.2667 205.552 70.552 205.744 69.592H205.696C205.184 70.968 204.693 71.912 204.224 72.424C203.754 72.9253 203.237 73.176 202.672 73.176C202.074 73.176 201.632 72.984 201.344 72.6C201.066 72.2053 200.928 71.704 200.928 71.096C200.928 70.6373 200.954 70.1733 201.008 69.704C201.061 69.2347 201.141 68.6693 201.248 68.008C201.269 67.8907 201.306 67.6453 201.36 67.272C201.413 66.888 201.44 66.5893 201.44 66.376C201.44 66.1307 201.408 65.944 201.344 65.816C201.29 65.688 201.178 65.624 201.008 65.624C200.816 65.624 200.618 65.752 200.416 66.008C200.213 66.2533 200.037 66.6427 199.888 67.176L199.44 67.08C199.536 66.5573 199.754 66.0507 200.096 65.56C200.448 65.0693 200.906 64.824 201.472 64.824ZM213.404 64.824C213.98 64.824 214.497 64.9627 214.956 65.24C215.425 65.5173 215.788 65.9227 216.044 66.456C216.311 66.9787 216.444 67.6027 216.444 68.328C216.444 69.2027 216.284 70.008 215.964 70.744C215.655 71.48 215.201 72.072 214.604 72.52C214.017 72.9573 213.324 73.176 212.524 73.176C211.511 73.176 210.743 72.8453 210.22 72.184C209.708 71.512 209.452 70.648 209.452 69.592C209.452 68.7173 209.612 67.9173 209.932 67.192C210.252 66.4667 210.711 65.8907 211.308 65.464C211.905 65.0373 212.604 64.824 213.404 64.824ZM213.148 65.416C212.679 65.416 212.268 65.5867 211.916 65.928C211.575 66.2587 211.313 66.7173 211.132 67.304C210.951 67.88 210.86 68.5253 210.86 69.24C210.86 70.1253 211.004 70.904 211.292 71.576C211.58 72.2373 212.049 72.568 212.7 72.568C213.244 72.568 213.687 72.36 214.028 71.944C214.38 71.528 214.636 71.016 214.796 70.408C214.956 69.8 215.036 69.208 215.036 68.632C215.036 67.736 214.892 66.9787 214.604 66.36C214.327 65.7307 213.841 65.416 213.148 65.416ZM223.428 64.824C224.132 64.824 224.665 65.1173 225.028 65.704C225.401 66.2907 225.588 67.032 225.588 67.928C225.588 68.9733 225.407 69.8907 225.044 70.68C224.681 71.4693 224.143 72.0827 223.428 72.52C222.724 72.9573 221.871 73.176 220.868 73.176C220.612 73.176 220.361 73.16 220.116 73.128L219.988 75.144C219.977 75.2187 219.972 75.336 219.972 75.496C219.951 75.912 219.913 76.2373 219.86 76.472L220.868 76.424V77.08H217.844V76.6C218.1 76.6 218.292 76.52 218.42 76.36C218.548 76.2 218.633 75.992 218.676 75.736C218.729 75.4907 218.772 75.1387 218.804 74.68C218.804 74.5413 218.809 74.4347 218.82 74.36C218.916 73.2293 219.06 71.6133 219.252 69.512C219.423 67.752 219.508 66.7387 219.508 66.472C219.508 66.1947 219.481 65.9867 219.428 65.848C219.375 65.6987 219.257 65.624 219.076 65.624C218.873 65.624 218.665 65.752 218.452 66.008C218.249 66.264 218.073 66.6533 217.924 67.176L217.46 67.08C217.513 66.7813 217.625 66.456 217.796 66.104C217.977 65.752 218.212 65.4533 218.5 65.208C218.799 64.952 219.145 64.824 219.54 64.824C220.351 64.824 220.756 65.384 220.756 66.504C220.756 66.9733 220.681 67.5813 220.532 68.328H220.58C220.985 66.984 221.423 66.0667 221.892 65.576C222.361 65.0747 222.873 64.824 223.428 64.824ZM223.092 65.576C222.719 65.576 222.345 65.8373 221.972 66.36C221.599 66.872 221.268 67.544 220.98 68.376C220.692 69.1973 220.479 70.0453 220.34 70.92C220.276 71.2933 220.217 71.8 220.164 72.44C220.548 72.568 220.873 72.632 221.14 72.632C221.844 72.632 222.425 72.4133 222.884 71.976C223.353 71.528 223.689 70.968 223.892 70.296C224.105 69.6133 224.212 68.92 224.212 68.216C224.212 67.3947 224.127 66.7493 223.956 66.28C223.785 65.8107 223.497 65.576 223.092 65.576ZM230.825 64.824C231.465 64.824 231.998 64.9733 232.425 65.272C232.851 65.5707 233.065 66.0347 233.065 66.664C233.065 67.4533 232.59 68.0667 231.641 68.504C230.691 68.9413 229.593 69.2293 228.345 69.368C228.345 70.3707 228.494 71.1227 228.793 71.624C229.091 72.1253 229.55 72.376 230.169 72.376C230.659 72.376 231.134 72.216 231.593 71.896C232.051 71.5653 232.451 71.08 232.793 70.44L233.321 70.744C232.873 71.5867 232.371 72.2053 231.817 72.6C231.262 72.984 230.622 73.176 229.897 73.176C228.915 73.176 228.174 72.872 227.673 72.264C227.182 71.6453 226.937 70.7973 226.937 69.72C226.937 68.856 227.081 68.056 227.368 67.32C227.667 66.5733 228.11 65.9707 228.697 65.512C229.283 65.0533 229.993 64.824 230.825 64.824ZM230.601 65.368C229.918 65.368 229.39 65.6987 229.017 66.36C228.643 67.0213 228.425 67.832 228.361 68.792C229.289 68.664 230.083 68.408 230.745 68.024C231.406 67.64 231.737 67.16 231.737 66.584C231.737 66.232 231.635 65.944 231.433 65.72C231.241 65.4853 230.963 65.368 230.601 65.368ZM238.722 68.552C239.426 68.5093 239.938 68.664 240.258 69.016C240.588 69.368 240.754 69.8107 240.754 70.344C240.754 70.8667 240.61 71.3467 240.322 71.784C240.044 72.2107 239.655 72.552 239.154 72.808C238.652 73.0533 238.092 73.176 237.474 73.176C236.514 73.176 235.788 72.872 235.298 72.264C234.807 71.6453 234.562 70.7973 234.562 69.72C234.562 68.8667 234.706 68.0667 234.993 67.32C235.282 66.5733 235.703 65.9707 236.258 65.512C236.823 65.0533 237.495 64.824 238.274 64.824C238.86 64.824 239.356 64.9573 239.762 65.224C240.167 65.48 240.37 65.8693 240.37 66.392C240.37 66.7973 240.231 67.192 239.954 67.576C239.687 67.9493 239.276 68.2747 238.722 68.552ZM238.114 65.368C237.516 65.368 237.026 65.7147 236.642 66.408C236.258 67.1013 236.034 67.9653 235.97 69C237.079 68.744 237.858 68.424 238.306 68.04C238.754 67.6453 238.978 67.1333 238.978 66.504C238.978 65.7467 238.69 65.368 238.114 65.368ZM237.842 72.568C238.322 72.568 238.7 72.4027 238.978 72.072C239.255 71.7413 239.394 71.2987 239.394 70.744C239.394 70.264 239.276 69.8747 239.042 69.576C238.818 69.2773 238.487 69.128 238.049 69.128C237.858 69.128 237.65 69.16 237.426 69.224L235.954 69.608C235.986 70.536 236.151 71.2613 236.45 71.784C236.759 72.3067 237.223 72.568 237.842 72.568ZM243.534 64.824C243.961 64.824 244.281 64.9573 244.494 65.224C244.718 65.4907 244.83 65.8747 244.83 66.376C244.83 66.76 244.745 67.56 244.574 68.776C244.564 68.872 244.516 69.2347 244.43 69.864C244.345 70.4827 244.302 71 244.302 71.416C244.302 71.672 244.356 71.9067 244.462 72.12C244.58 72.3227 244.777 72.424 245.054 72.424C245.524 72.424 245.993 72.072 246.462 71.368C246.932 70.6533 247.316 69.7787 247.614 68.744C247.924 67.7093 248.078 66.744 248.078 65.848C248.078 65.6453 248.068 65.3627 248.046 65H249.39C249.401 65.096 249.406 65.2347 249.406 65.416C249.406 65.672 249.38 66.0667 249.326 66.6C249.273 67.1333 249.193 67.8267 249.086 68.68L248.926 70.008C248.916 70.1467 248.889 70.4027 248.846 70.776C248.804 71.1493 248.782 71.4427 248.782 71.656C248.782 72.1253 248.926 72.36 249.214 72.36C249.417 72.36 249.625 72.2373 249.838 71.992C250.052 71.736 250.233 71.3467 250.382 70.824L250.83 70.92C250.777 71.2187 250.66 71.544 250.478 71.896C250.308 72.248 250.073 72.552 249.774 72.808C249.486 73.0533 249.145 73.176 248.75 73.176C248.334 73.176 248.025 73.048 247.822 72.792C247.62 72.536 247.518 72.184 247.518 71.736C247.518 71.2667 247.614 70.552 247.806 69.592H247.758C247.246 70.968 246.756 71.912 246.286 72.424C245.817 72.9253 245.3 73.176 244.734 73.176C244.137 73.176 243.694 72.984 243.406 72.6C243.129 72.2053 242.99 71.704 242.99 71.096C242.99 70.6373 243.017 70.1733 243.07 69.704C243.124 69.2347 243.204 68.6693 243.31 68.008C243.332 67.8907 243.369 67.6453 243.422 67.272C243.476 66.888 243.502 66.5893 243.502 66.376C243.502 66.1307 243.47 65.944 243.406 65.816C243.353 65.688 243.241 65.624 243.07 65.624C242.878 65.624 242.681 65.752 242.478 66.008C242.276 66.2533 242.1 66.6427 241.95 67.176L241.502 67.08C241.598 66.5573 241.817 66.0507 242.158 65.56C242.51 65.0693 242.969 64.824 243.534 64.824ZM261.499 64.824C262.096 64.824 262.523 65.016 262.779 65.4C263.045 65.784 263.179 66.2853 263.179 66.904C263.179 67.352 263.152 67.8053 263.099 68.264C263.045 68.712 262.965 69.2827 262.859 69.976C262.72 70.8293 262.651 71.384 262.651 71.64C262.651 71.8747 262.677 72.056 262.731 72.184C262.795 72.312 262.912 72.376 263.083 72.376C263.285 72.376 263.493 72.2533 263.707 72.008C263.931 71.752 264.117 71.3573 264.267 70.824L264.715 70.936C264.661 71.2347 264.544 71.56 264.363 71.912C264.192 72.2533 263.957 72.552 263.659 72.808C263.36 73.0533 263.013 73.176 262.619 73.176C262.139 73.176 261.803 73.0533 261.611 72.808C261.429 72.552 261.339 72.1627 261.339 71.64C261.339 71.2027 261.424 70.4987 261.595 69.528C261.605 69.432 261.643 69.1707 261.707 68.744C261.771 68.3067 261.819 67.9067 261.851 67.544C261.893 67.1707 261.915 66.84 261.915 66.552C261.915 66.3067 261.856 66.0827 261.739 65.88C261.621 65.6773 261.424 65.576 261.147 65.576C260.667 65.576 260.197 65.928 259.739 66.632C259.291 67.336 258.923 68.2053 258.635 69.24C258.357 70.2747 258.219 71.2453 258.219 72.152C258.219 72.3547 258.229 72.6373 258.251 73H256.907C256.896 72.904 256.891 72.7653 256.891 72.584C256.891 72.232 256.923 71.7627 256.987 71.176C257.051 70.5893 257.12 70.008 257.195 69.432C257.376 68.0453 257.467 67.1013 257.467 66.6C257.467 65.9173 257.211 65.576 256.699 65.576C256.229 65.576 255.765 65.928 255.307 66.632C254.859 67.336 254.491 68.2107 254.203 69.256C253.915 70.2907 253.771 71.256 253.771 72.152C253.771 72.3547 253.781 72.6373 253.803 73H252.459C252.448 72.904 252.443 72.7653 252.443 72.584C252.443 72.3173 252.464 71.9333 252.507 71.432C252.56 70.92 252.64 70.2373 252.747 69.384L252.939 67.72C252.981 67.3467 253.013 67.064 253.035 66.872C253.056 66.6693 253.067 66.4933 253.067 66.344C253.067 66.12 253.035 65.944 252.971 65.816C252.917 65.688 252.805 65.624 252.635 65.624C252.432 65.624 252.224 65.752 252.011 66.008C251.797 66.264 251.616 66.6533 251.467 67.176L251.019 67.08C251.072 66.7813 251.184 66.456 251.355 66.104C251.536 65.752 251.771 65.4533 252.059 65.208C252.357 64.952 252.704 64.824 253.099 64.824C253.899 64.824 254.299 65.3573 254.299 66.424C254.299 66.7227 254.267 67.0533 254.203 67.416C254.149 67.7787 254.096 68.104 254.043 68.392H254.091C254.549 67.0587 255.024 66.1307 255.515 65.608C256.005 65.0853 256.507 64.824 257.019 64.824C257.605 64.824 258.037 65.0107 258.315 65.384C258.592 65.7573 258.731 66.1787 258.731 66.648C258.731 66.9253 258.715 67.16 258.683 67.352C258.651 67.5333 258.576 67.864 258.459 68.344H258.507C258.987 67.0107 259.477 66.0933 259.979 65.592C260.48 65.08 260.987 64.824 261.499 64.824ZM270.17 64.824C270.896 64.824 271.61 64.9147 272.314 65.096C271.845 68.5733 271.61 70.7067 271.61 71.496C271.61 71.7733 271.637 71.992 271.69 72.152C271.744 72.3013 271.866 72.376 272.058 72.376C272.261 72.376 272.469 72.248 272.682 71.992C272.896 71.736 273.077 71.3467 273.226 70.824L273.674 70.92C273.621 71.2187 273.504 71.544 273.322 71.896C273.152 72.248 272.917 72.552 272.618 72.808C272.33 73.0533 271.989 73.176 271.594 73.176C270.805 73.176 270.41 72.696 270.41 71.736C270.41 71.2667 270.506 70.552 270.698 69.592H270.65C270.202 71 269.712 71.9493 269.178 72.44C268.645 72.9307 268.096 73.176 267.53 73.176C266.912 73.176 266.416 72.952 266.042 72.504C265.68 72.056 265.498 71.352 265.498 70.392C265.498 69.368 265.674 68.4347 266.026 67.592C266.378 66.7493 266.906 66.0773 267.61 65.576C268.314 65.0747 269.168 64.824 270.17 64.824ZM269.674 65.4C269.056 65.4 268.533 65.624 268.106 66.072C267.68 66.5093 267.36 67.0907 267.146 67.816C266.944 68.5307 266.842 69.2987 266.842 70.12C266.842 71.688 267.189 72.472 267.882 72.472C268.352 72.472 268.821 72.104 269.29 71.368C269.76 70.632 270.149 69.7253 270.458 68.648C270.768 67.56 270.922 66.5413 270.922 65.592C270.602 65.464 270.186 65.4 269.674 65.4ZM282.808 70.92C282.755 71.2187 282.643 71.544 282.472 71.896C282.301 72.2373 282.067 72.536 281.768 72.792C281.469 73.048 281.123 73.176 280.728 73.176C280.312 73.176 280.003 73.048 279.8 72.792C279.597 72.536 279.496 72.184 279.496 71.736C279.496 71.3413 279.571 70.6213 279.72 69.576C279.944 67.9227 280.056 66.7067 280.056 65.928V65.608L278.968 65.624H279.384C279.117 65.624 278.947 65.7947 278.872 66.136C278.445 68.28 277.896 69.9867 277.224 71.256C276.552 72.5253 275.693 73.16 274.648 73.16C274.349 73.16 274.099 73.0747 273.896 72.904C273.704 72.7333 273.608 72.5307 273.608 72.296C273.608 72.0933 273.677 71.9173 273.816 71.768C273.955 71.608 274.131 71.528 274.344 71.528C274.525 71.528 274.685 71.5867 274.824 71.704C274.963 71.8213 275.032 71.9707 275.032 72.152C275.032 72.2267 275.021 72.3067 275 72.392C275.448 72.4453 275.88 72.1413 276.296 71.48C276.723 70.808 277.091 69.944 277.4 68.888C277.72 67.8213 277.96 66.7333 278.12 65.624L276.648 65.64L276.696 65H281.368C281.379 65.096 281.384 65.2347 281.384 65.416C281.384 65.6933 281.347 66.1627 281.272 66.824C281.208 67.4747 281.133 68.136 281.048 68.808C280.856 70.4293 280.76 71.3787 280.76 71.656C280.76 72.1253 280.904 72.36 281.192 72.36C281.395 72.36 281.603 72.2373 281.816 71.992C282.029 71.736 282.211 71.3467 282.36 70.824L282.808 70.92ZM278.824 66.28V66.328V66.28ZM285.112 64.824C285.539 64.824 285.859 64.9573 286.072 65.224C286.296 65.4907 286.408 65.8747 286.408 66.376C286.408 66.76 286.323 67.56 286.152 68.776C286.142 68.872 286.094 69.2347 286.008 69.864C285.923 70.4827 285.88 71 285.88 71.416C285.88 71.672 285.934 71.9067 286.04 72.12C286.158 72.3227 286.355 72.424 286.632 72.424C287.102 72.424 287.571 72.072 288.04 71.368C288.51 70.6533 288.894 69.7787 289.192 68.744C289.502 67.7093 289.656 66.744 289.656 65.848C289.656 65.6453 289.646 65.3627 289.624 65H290.968C290.979 65.096 290.984 65.2347 290.984 65.416C290.984 65.672 290.958 66.0667 290.904 66.6C290.851 67.1333 290.771 67.8267 290.664 68.68L290.504 70.008C290.494 70.1467 290.467 70.4027 290.424 70.776C290.382 71.1493 290.36 71.4427 290.36 71.656C290.36 72.1253 290.504 72.36 290.792 72.36C290.995 72.36 291.203 72.2373 291.416 71.992C291.63 71.736 291.811 71.3467 291.96 70.824L292.408 70.92C292.355 71.2187 292.238 71.544 292.056 71.896C291.886 72.248 291.651 72.552 291.352 72.808C291.064 73.0533 290.723 73.176 290.328 73.176C289.912 73.176 289.603 73.048 289.4 72.792C289.198 72.536 289.096 72.184 289.096 71.736C289.096 71.2667 289.192 70.552 289.384 69.592H289.336C288.824 70.968 288.334 71.912 287.864 72.424C287.395 72.9253 286.878 73.176 286.312 73.176C285.715 73.176 285.272 72.984 284.984 72.6C284.707 72.2053 284.568 71.704 284.568 71.096C284.568 70.6373 284.595 70.1733 284.648 69.704C284.702 69.2347 284.782 68.6693 284.888 68.008C284.91 67.8907 284.947 67.6453 285 67.272C285.054 66.888 285.08 66.5893 285.08 66.376C285.08 66.1307 285.048 65.944 284.984 65.816C284.931 65.688 284.819 65.624 284.648 65.624C284.456 65.624 284.259 65.752 284.056 66.008C283.854 66.2533 283.678 66.6427 283.528 67.176L283.08 67.08C283.176 66.5573 283.395 66.0507 283.736 65.56C284.088 65.0693 284.547 64.824 285.112 64.824ZM295.605 73.176C294.794 73.176 294.143 73 293.653 72.648C293.173 72.296 292.933 71.848 292.933 71.304C292.933 71.0587 292.997 70.8667 293.125 70.728C293.253 70.5893 293.423 70.52 293.637 70.52C293.85 70.52 294.01 70.5893 294.117 70.728C294.234 70.8667 294.293 71.0107 294.293 71.16C294.293 71.416 294.223 71.6187 294.085 71.768C294.138 72.056 294.287 72.2747 294.533 72.424C294.778 72.5627 295.093 72.632 295.477 72.632C296.159 72.632 296.682 72.4613 297.045 72.12C297.418 71.768 297.605 71.304 297.605 70.728C297.605 70.2373 297.482 69.848 297.237 69.56C296.991 69.2613 296.623 69.112 296.133 69.112C295.866 69.112 295.567 69.16 295.237 69.256L295.061 68.696C295.861 68.4507 296.437 68.1627 296.789 67.832C297.141 67.4907 297.317 67.0747 297.317 66.584C297.317 66.1787 297.21 65.8747 296.997 65.672C296.783 65.4693 296.453 65.368 296.005 65.368C295.621 65.368 295.285 65.4427 294.997 65.592C294.709 65.7413 294.49 65.944 294.341 66.2C294.543 66.232 294.682 66.3013 294.757 66.408C294.842 66.5147 294.885 66.664 294.885 66.856C294.885 67.0373 294.821 67.1867 294.693 67.304C294.575 67.4213 294.421 67.48 294.229 67.48C294.037 67.48 293.871 67.416 293.733 67.288C293.605 67.1493 293.541 66.9733 293.541 66.76C293.519 66.408 293.631 66.0827 293.877 65.784C294.133 65.4853 294.474 65.2507 294.901 65.08C295.338 64.9093 295.802 64.824 296.293 64.824C296.986 64.824 297.541 64.9573 297.957 65.224C298.373 65.48 298.581 65.864 298.581 66.376C298.581 66.8027 298.426 67.2027 298.117 67.576C297.807 67.9493 297.343 68.2747 296.725 68.552V68.584C297.375 68.6267 297.882 68.8347 298.245 69.208C298.618 69.5707 298.805 70.0133 298.805 70.536C298.805 71.0267 298.671 71.4747 298.405 71.88C298.149 72.2853 297.775 72.6053 297.285 72.84C296.805 73.064 296.245 73.176 295.605 73.176ZM304.748 64.824C305.474 64.824 306.188 64.9147 306.892 65.096C306.423 68.5733 306.188 70.7067 306.188 71.496C306.188 71.7733 306.215 71.992 306.268 72.152C306.322 72.3013 306.444 72.376 306.636 72.376C306.839 72.376 307.047 72.248 307.26 71.992C307.474 71.736 307.655 71.3467 307.804 70.824L308.252 70.92C308.199 71.2187 308.082 71.544 307.9 71.896C307.73 72.248 307.495 72.552 307.196 72.808C306.908 73.0533 306.567 73.176 306.172 73.176C305.383 73.176 304.988 72.696 304.988 71.736C304.988 71.2667 305.084 70.552 305.276 69.592H305.228C304.78 71 304.29 71.9493 303.756 72.44C303.223 72.9307 302.674 73.176 302.108 73.176C301.49 73.176 300.994 72.952 300.62 72.504C300.258 72.056 300.076 71.352 300.076 70.392C300.076 69.368 300.252 68.4347 300.604 67.592C300.956 66.7493 301.484 66.0773 302.188 65.576C302.892 65.0747 303.746 64.824 304.748 64.824ZM304.252 65.4C303.634 65.4 303.111 65.624 302.684 66.072C302.258 66.5093 301.938 67.0907 301.724 67.816C301.522 68.5307 301.42 69.2987 301.42 70.12C301.42 71.688 301.767 72.472 302.46 72.472C302.93 72.472 303.399 72.104 303.868 71.368C304.338 70.632 304.727 69.7253 305.036 68.648C305.346 67.56 305.5 66.5413 305.5 65.592C305.18 65.464 304.764 65.4 304.252 65.4ZM317.098 73.208C317.269 73.4853 317.354 73.784 317.354 74.104C317.354 74.8507 316.895 75.6133 315.978 76.392L315.61 76.024C316.058 75.4693 316.282 75.016 316.282 74.664C316.282 74.5573 316.25 74.4187 316.186 74.248C316.122 74.1093 316.09 73.9653 316.09 73.816C316.09 73.56 316.181 73.2827 316.362 72.984L316.218 72.904C316.026 73.0853 315.738 73.176 315.354 73.176C315.045 73.176 314.799 73.048 314.618 72.792C314.447 72.5253 314.362 72.1733 314.362 71.736C314.362 71.2667 314.458 70.552 314.65 69.592H314.602C314.09 70.968 313.599 71.912 313.13 72.424C312.661 72.9253 312.143 73.176 311.578 73.176C310.981 73.176 310.538 72.984 310.25 72.6C309.973 72.2053 309.834 71.704 309.834 71.096C309.834 70.6373 309.861 70.1733 309.914 69.704C309.967 69.2347 310.047 68.6693 310.154 68.008C310.175 67.8907 310.213 67.6453 310.266 67.272C310.319 66.888 310.346 66.5893 310.346 66.376C310.346 66.1307 310.314 65.944 310.25 65.816C310.197 65.688 310.085 65.624 309.914 65.624C309.722 65.624 309.525 65.752 309.322 66.008C309.119 66.2533 308.943 66.6427 308.794 67.176L308.346 67.08C308.442 66.5573 308.661 66.0507 309.002 65.56C309.354 65.0693 309.813 64.824 310.378 64.824C310.805 64.824 311.125 64.9573 311.338 65.224C311.562 65.4907 311.674 65.8747 311.674 66.376C311.674 66.76 311.589 67.56 311.418 68.776C311.407 68.872 311.359 69.2347 311.274 69.864C311.189 70.4827 311.146 71 311.146 71.416C311.146 71.672 311.199 71.9067 311.306 72.12C311.423 72.3227 311.621 72.424 311.898 72.424C312.367 72.424 312.837 72.072 313.306 71.368C313.775 70.6533 314.159 69.7787 314.458 68.744C314.767 67.7093 314.922 66.744 314.922 65.848C314.922 65.6453 314.911 65.3627 314.89 65H316.234C316.245 65.096 316.25 65.2347 316.25 65.416C316.25 65.672 316.223 66.0667 316.17 66.6C316.117 67.1333 316.037 67.8267 315.93 68.68L315.77 70.008C315.759 70.1467 315.733 70.4027 315.69 70.776C315.647 71.1493 315.626 71.4427 315.626 71.656C315.626 71.8693 315.653 72.04 315.706 72.168C315.77 72.296 315.861 72.36 315.978 72.36C316.063 72.36 316.138 72.328 316.202 72.264C316.277 72.1893 316.357 72.072 316.442 71.912L316.922 70.824L317.354 70.952L317.21 71.384L317.146 71.56L317.018 71.928C316.943 72.152 316.906 72.3547 316.906 72.536C316.906 72.7813 316.97 73.0053 317.098 73.208ZM320.222 64.824C320.648 64.824 320.968 64.9573 321.182 65.224C321.406 65.4907 321.518 65.8747 321.518 66.376C321.518 66.76 321.432 67.56 321.262 68.776C321.251 68.872 321.203 69.2347 321.118 69.864C321.032 70.4827 320.99 71 320.99 71.416C320.99 71.672 321.043 71.9067 321.15 72.12C321.267 72.3227 321.464 72.424 321.742 72.424C322.211 72.424 322.68 72.072 323.15 71.368C323.619 70.6533 324.003 69.7787 324.302 68.744C324.611 67.7093 324.766 66.744 324.766 65.848C324.766 65.6453 324.755 65.3627 324.734 65H326.078C326.088 65.096 326.094 65.2347 326.094 65.416C326.094 65.672 326.067 66.0667 326.014 66.6C325.96 67.1333 325.88 67.8267 325.774 68.68L325.614 70.008C325.603 70.1467 325.576 70.4027 325.534 70.776C325.491 71.1493 325.47 71.4427 325.47 71.656C325.47 72.1253 325.614 72.36 325.902 72.36C326.104 72.36 326.312 72.2373 326.526 71.992C326.739 71.736 326.92 71.3467 327.07 70.824L327.518 70.92C327.464 71.2187 327.347 71.544 327.166 71.896C326.995 72.248 326.76 72.552 326.462 72.808C326.174 73.0533 325.832 73.176 325.438 73.176C325.022 73.176 324.712 73.048 324.51 72.792C324.307 72.536 324.206 72.184 324.206 71.736C324.206 71.2667 324.302 70.552 324.494 69.592H324.446C323.934 70.968 323.443 71.912 322.974 72.424C322.504 72.9253 321.987 73.176 321.422 73.176C320.824 73.176 320.382 72.984 320.094 72.6C319.816 72.2053 319.678 71.704 319.678 71.096C319.678 70.6373 319.704 70.1733 319.758 69.704C319.811 69.2347 319.891 68.6693 319.998 68.008C320.019 67.8907 320.056 67.6453 320.11 67.272C320.163 66.888 320.19 66.5893 320.19 66.376C320.19 66.1307 320.158 65.944 320.094 65.816C320.04 65.688 319.928 65.624 319.758 65.624C319.566 65.624 319.368 65.752 319.166 66.008C318.963 66.2533 318.787 66.6427 318.638 67.176L318.19 67.08C318.286 66.5573 318.504 66.0507 318.846 65.56C319.198 65.0693 319.656 64.824 320.222 64.824ZM329.706 64.824C330.133 64.824 330.453 64.9573 330.666 65.224C330.89 65.4907 331.002 65.8747 331.002 66.376C331.002 66.76 330.917 67.56 330.746 68.776C330.735 68.872 330.687 69.2347 330.602 69.864C330.517 70.4827 330.474 71 330.474 71.416C330.474 71.672 330.527 71.9067 330.634 72.12C330.751 72.3227 330.949 72.424 331.226 72.424C331.695 72.424 332.165 72.072 332.634 71.368C333.103 70.6533 333.487 69.7787 333.786 68.744C334.095 67.7093 334.25 66.744 334.25 65.848C334.25 65.6453 334.239 65.3627 334.218 65H335.562C335.573 65.096 335.578 65.2347 335.578 65.416C335.578 65.672 335.551 66.0667 335.498 66.6C335.445 67.1333 335.365 67.8267 335.258 68.68L335.098 70.008C335.087 70.1467 335.061 70.4027 335.018 70.776C334.975 71.1493 334.954 71.4427 334.954 71.656C334.954 72.1253 335.098 72.36 335.386 72.36C335.589 72.36 335.797 72.2373 336.01 71.992C336.223 71.736 336.405 71.3467 336.554 70.824L337.002 70.92C336.949 71.2187 336.831 71.544 336.65 71.896C336.479 72.248 336.245 72.552 335.946 72.808C335.658 73.0533 335.317 73.176 334.922 73.176C334.506 73.176 334.197 73.048 333.994 72.792C333.791 72.536 333.69 72.184 333.69 71.736C333.69 71.2667 333.786 70.552 333.978 69.592H333.93C333.418 70.968 332.927 71.912 332.458 72.424C331.989 72.9253 331.471 73.176 330.906 73.176C330.309 73.176 329.866 72.984 329.578 72.6C329.301 72.2053 329.162 71.704 329.162 71.096C329.162 70.6373 329.189 70.1733 329.242 69.704C329.295 69.2347 329.375 68.6693 329.482 68.008C329.503 67.8907 329.541 67.6453 329.594 67.272C329.647 66.888 329.674 66.5893 329.674 66.376C329.674 66.1307 329.642 65.944 329.578 65.816C329.525 65.688 329.413 65.624 329.242 65.624C329.05 65.624 328.853 65.752 328.65 66.008C328.447 66.2533 328.271 66.6427 328.122 67.176L327.674 67.08C327.77 66.5573 327.989 66.0507 328.33 65.56C328.682 65.0693 329.141 64.824 329.706 64.824Z" fill="#CDCDCD"/>
<path d="M120.488 66.152C120.392 68.552 120.248 70.208 120.056 71.12L126.104 70.832L125.96 74H108.104L108.176 71.624C110.528 71.528 112.208 70.808 113.216 69.464C114.224 68.072 114.776 66.056 114.872 63.416L116.456 29.432H116.312L107.528 34.976L106.232 32.816L120.272 22.448H122.72L120.488 66.152ZM152.493 22.448C158.301 22.448 162.525 24.776 165.165 29.432C167.805 34.088 169.125 39.728 169.125 46.352C169.125 47.456 169.101 48.272 169.053 48.8C168.813 53.168 167.997 57.368 166.605 61.4C165.213 65.384 163.125 68.672 160.341 71.264C157.605 73.856 154.197 75.152 150.117 75.152C144.069 75.152 139.749 72.92 137.157 68.456C134.613 63.944 133.341 58.376 133.341 51.752C133.341 50.456 133.365 49.472 133.413 48.8C133.605 44.432 134.397 40.256 135.789 36.272C137.229 32.24 139.341 28.928 142.125 26.336C144.957 23.744 148.413 22.448 152.493 22.448ZM152.637 25.184C148.845 25.184 145.917 27.368 143.853 31.736C141.837 36.104 140.661 41.36 140.325 47.504C140.277 48.272 140.253 49.496 140.253 51.176C140.253 57.032 141.021 62.024 142.557 66.152C144.093 70.28 146.709 72.344 150.405 72.344C154.149 72.344 156.933 70.208 158.757 65.936C160.629 61.664 161.733 56.408 162.069 50.168C162.165 48.248 162.213 46.832 162.213 45.92C162.213 39.92 161.469 34.976 159.981 31.088C158.541 27.152 156.093 25.184 152.637 25.184Z" fill="#EEEEEE"/>
<circle cx="115.5" cy="61.5" r="31" stroke="#3688DF" stroke-opacity="0.14"/>
<g filter="url(#filter0_d)">
<circle cx="84.5" cy="88.5" r="4.5" fill="#36DFB6" style="mix-blend-mode:multiply"/>
</g>
<defs>
<filter id="filter0_d" x="0" y="84" width="169" height="189" filterUnits="userSpaceOnUse" color-interpolation-filters="sRGB">
<feFlood flood-opacity="0" result="BackgroundImageFix"/>
<feColorMatrix in="SourceAlpha" type="matrix" values="0 0 0 0 0 0 0 0 0 0 0 0 0 0 0 0 0 0 127 0"/>
<feOffset dy="100"/>
<feGaussianBlur stdDeviation="40"/>
<feColorMatrix type="matrix" values="0 0 0 0 0.807929 0 0 0 0 0.797289 0 0 0 0 0.797289 0 0 0 0.2 0"/>
<feBlend mode="normal" in2="BackgroundImageFix" result="effect1_dropShadow"/>
<feBlend mode="normal" in="SourceGraphic" in2="effect1_dropShadow" result="shape"/>
</filter>
</defs>
</svg>
