<svg width="409" height="273" viewBox="0 0 409 273" fill="none" xmlns="http://www.w3.org/2000/svg">
<path d="M197.336 23.824C197.933 23.824 198.371 24.016 198.648 24.4C198.936 24.784 199.08 25.2853 199.08 25.904C199.08 26.6187 198.979 27.6427 198.776 28.976C198.659 29.8187 198.6 30.3733 198.6 30.64C198.6 30.8747 198.627 31.056 198.68 31.184C198.744 31.312 198.861 31.376 199.032 31.376C199.235 31.376 199.443 31.2533 199.656 31.008C199.869 30.752 200.051 30.3573 200.2 29.824L200.648 29.936C200.595 30.2347 200.477 30.56 200.296 30.912C200.125 31.2533 199.891 31.552 199.592 31.808C199.304 32.0533 198.963 32.176 198.568 32.176C198.088 32.176 197.752 32.0533 197.56 31.808C197.368 31.552 197.272 31.1627 197.272 30.64C197.272 30.2453 197.341 29.5413 197.48 28.528C197.672 27.2267 197.768 26.2347 197.768 25.552C197.768 25.3067 197.709 25.0827 197.592 24.88C197.485 24.6773 197.293 24.576 197.016 24.576C196.547 24.576 196.067 24.9333 195.576 25.648C195.085 26.352 194.675 27.2267 194.344 28.272C194.024 29.3067 193.864 30.2667 193.864 31.152C193.864 31.3547 193.875 31.6373 193.896 32H192.552C192.541 31.904 192.536 31.7653 192.536 31.584C192.536 31.328 192.557 30.9707 192.6 30.512C192.653 30.0533 192.728 29.4507 192.824 28.704C192.824 28.64 192.835 28.5333 192.856 28.384C192.867 28.2453 192.883 28.1013 192.904 27.952C192.925 27.8027 192.941 27.6533 192.952 27.504C193.027 26.8533 193.08 26.3787 193.112 26.08C193.144 25.7813 193.16 25.536 193.16 25.344C193.16 25.12 193.128 24.944 193.064 24.816C193.011 24.688 192.899 24.624 192.728 24.624C192.525 24.624 192.317 24.752 192.104 25.008C191.891 25.264 191.709 25.6533 191.56 26.176L191.112 26.08C191.165 25.7813 191.277 25.456 191.448 25.104C191.629 24.752 191.864 24.4533 192.152 24.208C192.451 23.952 192.797 23.824 193.192 23.824C193.992 23.824 194.392 24.3733 194.392 25.472C194.392 25.7813 194.36 26.1227 194.296 26.496C194.243 26.8587 194.189 27.184 194.136 27.472H194.184C194.696 26.1067 195.203 25.1573 195.704 24.624C196.216 24.0907 196.76 23.824 197.336 23.824ZM207.1 23.824C207.804 23.824 208.337 24.1173 208.7 24.704C209.073 25.2907 209.26 26.032 209.26 26.928C209.26 27.9733 209.078 28.8907 208.716 29.68C208.353 30.4693 207.814 31.0827 207.1 31.52C206.396 31.9573 205.542 32.176 204.54 32.176C204.284 32.176 204.033 32.16 203.788 32.128L203.66 34.144C203.649 34.2187 203.644 34.336 203.644 34.496C203.622 34.912 203.585 35.2373 203.532 35.472L204.54 35.424V36.08H201.516V35.6C201.772 35.6 201.964 35.52 202.092 35.36C202.22 35.2 202.305 34.992 202.348 34.736C202.401 34.4907 202.444 34.1387 202.476 33.68C202.476 33.5413 202.481 33.4347 202.492 33.36C202.588 32.2293 202.732 30.6133 202.924 28.512C203.094 26.752 203.18 25.7387 203.18 25.472C203.18 25.1947 203.153 24.9867 203.1 24.848C203.046 24.6987 202.929 24.624 202.748 24.624C202.545 24.624 202.337 24.752 202.124 25.008C201.921 25.264 201.745 25.6533 201.596 26.176L201.132 26.08C201.185 25.7813 201.297 25.456 201.468 25.104C201.649 24.752 201.884 24.4533 202.172 24.208C202.47 23.952 202.817 23.824 203.212 23.824C204.022 23.824 204.428 24.384 204.428 25.504C204.428 25.9733 204.353 26.5813 204.204 27.328H204.252C204.657 25.984 205.094 25.0667 205.564 24.576C206.033 24.0747 206.545 23.824 207.1 23.824ZM206.764 24.576C206.39 24.576 206.017 24.8373 205.644 25.36C205.27 25.872 204.94 26.544 204.652 27.376C204.364 28.1973 204.15 29.0453 204.012 29.92C203.948 30.2933 203.889 30.8 203.836 31.44C204.22 31.568 204.545 31.632 204.812 31.632C205.516 31.632 206.097 31.4133 206.556 30.976C207.025 30.528 207.361 29.968 207.564 29.296C207.777 28.6133 207.884 27.92 207.884 27.216C207.884 26.3947 207.798 25.7493 207.628 25.28C207.457 24.8107 207.169 24.576 206.764 24.576ZM214.56 23.824C215.136 23.824 215.654 23.9627 216.112 24.24C216.582 24.5173 216.944 24.9227 217.2 25.456C217.467 25.9787 217.6 26.6027 217.6 27.328C217.6 28.2027 217.44 29.008 217.12 29.744C216.811 30.48 216.358 31.072 215.76 31.52C215.174 31.9573 214.48 32.176 213.68 32.176C212.667 32.176 211.899 31.8453 211.376 31.184C210.864 30.512 210.608 29.648 210.608 28.592C210.608 27.7173 210.768 26.9173 211.088 26.192C211.408 25.4667 211.867 24.8907 212.464 24.464C213.062 24.0373 213.76 23.824 214.56 23.824ZM214.304 24.416C213.835 24.416 213.424 24.5867 213.072 24.928C212.731 25.2587 212.47 25.7173 212.288 26.304C212.107 26.88 212.016 27.5253 212.016 28.24C212.016 29.1253 212.16 29.904 212.448 30.576C212.736 31.2373 213.206 31.568 213.856 31.568C214.4 31.568 214.843 31.36 215.184 30.944C215.536 30.528 215.792 30.016 215.952 29.408C216.112 28.8 216.192 28.208 216.192 27.632C216.192 26.736 216.048 25.9787 215.76 25.36C215.483 24.7307 214.998 24.416 214.304 24.416ZM227.176 32.208C227.347 32.4853 227.432 32.784 227.432 33.104C227.432 33.8507 226.973 34.6133 226.056 35.392L225.688 35.024C226.136 34.4693 226.36 34.016 226.36 33.664C226.36 33.5573 226.328 33.4187 226.264 33.248C226.2 33.1093 226.168 32.9653 226.168 32.816C226.168 32.56 226.259 32.2827 226.44 31.984L226.296 31.904C226.104 32.0853 225.816 32.176 225.432 32.176C225.123 32.176 224.877 32.048 224.696 31.792C224.525 31.5253 224.44 31.1733 224.44 30.736C224.44 30.2667 224.536 29.552 224.728 28.592H224.68C224.168 29.968 223.677 30.912 223.208 31.424C222.739 31.9253 222.221 32.176 221.656 32.176C221.059 32.176 220.616 31.984 220.328 31.6C220.051 31.2053 219.912 30.704 219.912 30.096C219.912 29.6373 219.939 29.1733 219.992 28.704C220.045 28.2347 220.125 27.6693 220.232 27.008C220.253 26.8907 220.291 26.6453 220.344 26.272C220.397 25.888 220.424 25.5893 220.424 25.376C220.424 25.1307 220.392 24.944 220.328 24.816C220.275 24.688 220.163 24.624 219.992 24.624C219.8 24.624 219.603 24.752 219.4 25.008C219.197 25.2533 219.021 25.6427 218.872 26.176L218.424 26.08C218.52 25.5573 218.739 25.0507 219.08 24.56C219.432 24.0693 219.891 23.824 220.456 23.824C220.883 23.824 221.203 23.9573 221.416 24.224C221.64 24.4907 221.752 24.8747 221.752 25.376C221.752 25.76 221.667 26.56 221.496 27.776C221.485 27.872 221.437 28.2347 221.352 28.864C221.267 29.4827 221.224 30 221.224 30.416C221.224 30.672 221.277 30.9067 221.384 31.12C221.501 31.3227 221.699 31.424 221.976 31.424C222.445 31.424 222.915 31.072 223.384 30.368C223.853 29.6533 224.237 28.7787 224.536 27.744C224.845 26.7093 225 25.744 225 24.848C225 24.6453 224.989 24.3627 224.968 24H226.312C226.323 24.096 226.328 24.2347 226.328 24.416C226.328 24.672 226.301 25.0667 226.248 25.6C226.195 26.1333 226.115 26.8267 226.008 27.68L225.848 29.008C225.837 29.1467 225.811 29.4027 225.768 29.776C225.725 30.1493 225.704 30.4427 225.704 30.656C225.704 30.8693 225.731 31.04 225.784 31.168C225.848 31.296 225.939 31.36 226.056 31.36C226.141 31.36 226.216 31.328 226.28 31.264C226.355 31.1893 226.435 31.072 226.52 30.912L227 29.824L227.432 29.952L227.288 30.384L227.224 30.56L227.096 30.928C227.021 31.152 226.984 31.3547 226.984 31.536C226.984 31.7813 227.048 32.0053 227.176 32.208ZM232.684 23.824C233.324 23.824 233.857 23.9733 234.284 24.272C234.711 24.5707 234.924 25.0347 234.924 25.664C234.924 26.4533 234.449 27.0667 233.5 27.504C232.551 27.9413 231.452 28.2293 230.204 28.368C230.204 29.3707 230.353 30.1227 230.652 30.624C230.951 31.1253 231.409 31.376 232.028 31.376C232.519 31.376 232.993 31.216 233.452 30.896C233.911 30.5653 234.311 30.08 234.652 29.44L235.18 29.744C234.732 30.5867 234.231 31.2053 233.676 31.6C233.121 31.984 232.481 32.176 231.756 32.176C230.775 32.176 230.033 31.872 229.532 31.264C229.041 30.6453 228.796 29.7973 228.796 28.72C228.796 27.856 228.94 27.056 229.228 26.32C229.527 25.5733 229.969 24.9707 230.556 24.512C231.143 24.0533 231.852 23.824 232.684 23.824ZM232.46 24.368C231.777 24.368 231.249 24.6987 230.876 25.36C230.503 26.0213 230.284 26.832 230.22 27.792C231.148 27.664 231.943 27.408 232.604 27.024C233.265 26.64 233.596 26.16 233.596 25.584C233.596 25.232 233.495 24.944 233.292 24.72C233.1 24.4853 232.823 24.368 232.46 24.368ZM239.221 32.176C238.389 32.176 237.712 31.8827 237.189 31.296C236.677 30.7093 236.421 29.872 236.421 28.784C236.421 27.888 236.586 27.088 236.917 26.384C237.248 25.6693 237.696 25.1147 238.261 24.72C238.837 24.3253 239.472 24.128 240.165 24.128C240.88 24.128 241.392 24.336 241.701 24.752C241.573 23.376 241.285 22.32 240.837 21.584C240.4 20.8373 239.866 20.464 239.237 20.464C238.608 20.464 238.037 20.7147 237.525 21.216L237.221 20.848C237.616 20.5067 237.978 20.2613 238.309 20.112C238.65 19.952 239.013 19.872 239.397 19.872C240.624 19.872 241.536 20.464 242.133 21.648C242.73 22.8213 243.029 24.32 243.029 26.144C243.029 27.5733 242.848 28.7413 242.485 29.648C242.133 30.544 241.669 31.1893 241.093 31.584C240.528 31.9787 239.904 32.176 239.221 32.176ZM239.525 31.568C240.218 31.568 240.736 31.1307 241.077 30.256C241.429 29.3813 241.637 28.3413 241.701 27.136C241.744 26.432 241.621 25.856 241.333 25.408C241.045 24.9493 240.661 24.72 240.181 24.72C239.797 24.72 239.418 24.88 239.045 25.2C238.672 25.5093 238.362 25.9627 238.117 26.56C237.882 27.1467 237.765 27.8293 237.765 28.608C237.765 29.472 237.92 30.1813 238.229 30.736C238.549 31.2907 238.981 31.568 239.525 31.568ZM249.91 23.824C250.358 23.824 250.684 24.0213 250.886 24.416C251.089 24.8107 251.19 25.296 251.19 25.872C251.19 26.8427 250.998 27.8613 250.614 28.928C250.23 29.984 249.713 31.0987 249.062 32.272C248.294 33.68 247.564 34.7093 246.87 35.36C246.177 36.0107 245.5 36.336 244.838 36.336C244.454 36.336 244.14 36.24 243.894 36.048C243.66 35.856 243.542 35.616 243.542 35.328C243.542 35.104 243.612 34.9227 243.75 34.784C243.889 34.656 244.038 34.592 244.198 34.592C244.422 34.592 244.593 34.6613 244.71 34.8C244.838 34.9493 244.897 35.1573 244.886 35.424C245.036 35.4987 245.153 35.536 245.238 35.536C245.644 35.5573 246.076 35.3013 246.534 34.768C247.004 34.2347 247.388 33.712 247.686 33.2C247.494 31.888 247.228 30.5653 246.886 29.232C246.545 27.8987 246.161 26.7147 245.734 25.68C245.606 25.4027 245.494 25.2 245.398 25.072C245.302 24.9333 245.169 24.864 244.998 24.864C244.817 24.864 244.668 24.976 244.55 25.2C244.444 25.424 244.39 25.728 244.39 26.112C244.39 26.2933 244.396 26.432 244.406 26.528L243.894 26.592C243.884 26.4853 243.878 26.3253 243.878 26.112C243.878 25.4827 243.99 24.944 244.214 24.496C244.449 24.048 244.828 23.824 245.35 23.824C245.83 23.824 246.204 23.9947 246.47 24.336C246.737 24.6667 246.966 25.0987 247.158 25.632C247.372 26.208 247.564 26.832 247.734 27.504C247.905 28.1653 248.108 29.0187 248.342 30.064C248.406 30.3733 248.486 30.9173 248.582 31.696H248.614C249.126 30.8 249.558 29.8613 249.91 28.88C250.262 27.888 250.438 26.992 250.438 26.192C250.438 25.936 250.412 25.7067 250.358 25.504C250.316 25.3013 250.262 25.152 250.198 25.056C250.102 25.12 249.969 25.152 249.798 25.152C249.606 25.152 249.452 25.0933 249.334 24.976C249.217 24.848 249.158 24.6987 249.158 24.528C249.158 24.304 249.233 24.1333 249.382 24.016C249.532 23.888 249.708 23.824 249.91 23.824ZM258.209 23.824C258.913 23.824 259.446 24.1173 259.809 24.704C260.182 25.2907 260.369 26.032 260.369 26.928C260.369 27.9733 260.188 28.8907 259.825 29.68C259.462 30.4693 258.924 31.0827 258.209 31.52C257.505 31.9573 256.652 32.176 255.649 32.176C255.393 32.176 255.142 32.16 254.897 32.128L254.769 34.144C254.758 34.2187 254.753 34.336 254.753 34.496C254.732 34.912 254.694 35.2373 254.641 35.472L255.649 35.424V36.08H252.625V35.6C252.881 35.6 253.073 35.52 253.201 35.36C253.329 35.2 253.414 34.992 253.457 34.736C253.51 34.4907 253.553 34.1387 253.585 33.68C253.585 33.5413 253.59 33.4347 253.601 33.36C253.697 32.2293 253.841 30.6133 254.033 28.512C254.204 26.752 254.289 25.7387 254.289 25.472C254.289 25.1947 254.262 24.9867 254.209 24.848C254.156 24.6987 254.038 24.624 253.857 24.624C253.654 24.624 253.446 24.752 253.233 25.008C253.03 25.264 252.854 25.6533 252.705 26.176L252.241 26.08C252.294 25.7813 252.406 25.456 252.577 25.104C252.758 24.752 252.993 24.4533 253.281 24.208C253.58 23.952 253.926 23.824 254.321 23.824C255.132 23.824 255.537 24.384 255.537 25.504C255.537 25.9733 255.462 26.5813 255.313 27.328H255.361C255.766 25.984 256.204 25.0667 256.673 24.576C257.142 24.0747 257.654 23.824 258.209 23.824ZM257.873 24.576C257.5 24.576 257.126 24.8373 256.753 25.36C256.38 25.872 256.049 26.544 255.761 27.376C255.473 28.1973 255.26 29.0453 255.121 29.92C255.057 30.2933 254.998 30.8 254.945 31.44C255.329 31.568 255.654 31.632 255.921 31.632C256.625 31.632 257.206 31.4133 257.665 30.976C258.134 30.528 258.47 29.968 258.673 29.296C258.886 28.6133 258.993 27.92 258.993 27.216C258.993 26.3947 258.908 25.7493 258.737 25.28C258.566 24.8107 258.278 24.576 257.873 24.576ZM194.904 52.16C193.933 52.16 193.139 51.8027 192.52 51.088C191.912 50.3627 191.608 49.3013 191.608 47.904C191.608 47.7653 191.619 47.536 191.64 47.216C191.736 45.712 192.051 44.4213 192.584 43.344C193.117 42.256 193.885 41.5253 194.888 41.152C195.123 41.056 195.363 40.9867 195.608 40.944C195.853 40.9013 196.173 40.8587 196.568 40.816C196.941 40.784 197.251 40.736 197.496 40.672C197.901 40.576 198.2 40.48 198.392 40.384C198.595 40.288 198.76 40.112 198.888 39.856L199.352 40.016C199.032 41.0187 198.392 41.68 197.432 42C197.24 42.0747 197.016 42.1333 196.76 42.176C196.515 42.2187 196.275 42.256 196.04 42.288C195.571 42.352 195.235 42.4107 195.032 42.464C194.157 42.72 193.507 43.1627 193.08 43.792C192.664 44.4213 192.376 45.28 192.216 46.368H192.328C192.968 44.992 194.04 44.304 195.544 44.304C196.067 44.304 196.557 44.4373 197.016 44.704C197.485 44.9707 197.859 45.3653 198.136 45.888C198.424 46.4 198.568 47.0133 198.568 47.728C198.568 48.5813 198.397 49.344 198.056 50.016C197.715 50.688 197.261 51.216 196.696 51.6C196.141 51.9733 195.544 52.16 194.904 52.16ZM194.84 51.552C195.597 51.552 196.173 51.2 196.568 50.496C196.973 49.7813 197.176 48.8587 197.176 47.728C197.176 46.928 197.016 46.256 196.696 45.712C196.376 45.1573 195.912 44.88 195.304 44.88C194.557 44.88 193.987 45.2267 193.592 45.92C193.197 46.6027 193 47.424 193 48.384C193 49.344 193.165 50.112 193.496 50.688C193.827 51.264 194.275 51.552 194.84 51.552ZM201.472 43.824C201.898 43.824 202.218 43.9573 202.432 44.224C202.656 44.4907 202.768 44.8747 202.768 45.376C202.768 45.76 202.682 46.56 202.512 47.776C202.501 47.872 202.453 48.2347 202.368 48.864C202.282 49.4827 202.24 50 202.24 50.416C202.24 50.672 202.293 50.9067 202.4 51.12C202.517 51.3227 202.714 51.424 202.992 51.424C203.461 51.424 203.93 51.072 204.4 50.368C204.869 49.6533 205.253 48.7787 205.552 47.744C205.861 46.7093 206.016 45.744 206.016 44.848C206.016 44.6453 206.005 44.3627 205.984 44H207.328C207.338 44.096 207.344 44.2347 207.344 44.416C207.344 44.672 207.317 45.0667 207.264 45.6C207.21 46.1333 207.13 46.8267 207.024 47.68L206.864 49.008C206.853 49.1467 206.826 49.4027 206.784 49.776C206.741 50.1493 206.72 50.4427 206.72 50.656C206.72 51.1253 206.864 51.36 207.152 51.36C207.354 51.36 207.562 51.2373 207.776 50.992C207.989 50.736 208.17 50.3467 208.32 49.824L208.768 49.92C208.714 50.2187 208.597 50.544 208.416 50.896C208.245 51.248 208.01 51.552 207.712 51.808C207.424 52.0533 207.082 52.176 206.688 52.176C206.272 52.176 205.962 52.048 205.76 51.792C205.557 51.536 205.456 51.184 205.456 50.736C205.456 50.2667 205.552 49.552 205.744 48.592H205.696C205.184 49.968 204.693 50.912 204.224 51.424C203.754 51.9253 203.237 52.176 202.672 52.176C202.074 52.176 201.632 51.984 201.344 51.6C201.066 51.2053 200.928 50.704 200.928 50.096C200.928 49.6373 200.954 49.1733 201.008 48.704C201.061 48.2347 201.141 47.6693 201.248 47.008C201.269 46.8907 201.306 46.6453 201.36 46.272C201.413 45.888 201.44 45.5893 201.44 45.376C201.44 45.1307 201.408 44.944 201.344 44.816C201.29 44.688 201.178 44.624 201.008 44.624C200.816 44.624 200.618 44.752 200.416 45.008C200.213 45.2533 200.037 45.6427 199.888 46.176L199.44 46.08C199.536 45.5573 199.754 45.0507 200.096 44.56C200.448 44.0693 200.906 43.824 201.472 43.824ZM213.404 43.824C213.98 43.824 214.497 43.9627 214.956 44.24C215.425 44.5173 215.788 44.9227 216.044 45.456C216.311 45.9787 216.444 46.6027 216.444 47.328C216.444 48.2027 216.284 49.008 215.964 49.744C215.655 50.48 215.201 51.072 214.604 51.52C214.017 51.9573 213.324 52.176 212.524 52.176C211.511 52.176 210.743 51.8453 210.22 51.184C209.708 50.512 209.452 49.648 209.452 48.592C209.452 47.7173 209.612 46.9173 209.932 46.192C210.252 45.4667 210.711 44.8907 211.308 44.464C211.905 44.0373 212.604 43.824 213.404 43.824ZM213.148 44.416C212.679 44.416 212.268 44.5867 211.916 44.928C211.575 45.2587 211.313 45.7173 211.132 46.304C210.951 46.88 210.86 47.5253 210.86 48.24C210.86 49.1253 211.004 49.904 211.292 50.576C211.58 51.2373 212.049 51.568 212.7 51.568C213.244 51.568 213.687 51.36 214.028 50.944C214.38 50.528 214.636 50.016 214.796 49.408C214.956 48.8 215.036 48.208 215.036 47.632C215.036 46.736 214.892 45.9787 214.604 45.36C214.327 44.7307 213.841 44.416 213.148 44.416ZM223.428 43.824C224.132 43.824 224.665 44.1173 225.028 44.704C225.401 45.2907 225.588 46.032 225.588 46.928C225.588 47.9733 225.407 48.8907 225.044 49.68C224.681 50.4693 224.143 51.0827 223.428 51.52C222.724 51.9573 221.871 52.176 220.868 52.176C220.612 52.176 220.361 52.16 220.116 52.128L219.988 54.144C219.977 54.2187 219.972 54.336 219.972 54.496C219.951 54.912 219.913 55.2373 219.86 55.472L220.868 55.424V56.08H217.844V55.6C218.1 55.6 218.292 55.52 218.42 55.36C218.548 55.2 218.633 54.992 218.676 54.736C218.729 54.4907 218.772 54.1387 218.804 53.68C218.804 53.5413 218.809 53.4347 218.82 53.36C218.916 52.2293 219.06 50.6133 219.252 48.512C219.423 46.752 219.508 45.7387 219.508 45.472C219.508 45.1947 219.481 44.9867 219.428 44.848C219.375 44.6987 219.257 44.624 219.076 44.624C218.873 44.624 218.665 44.752 218.452 45.008C218.249 45.264 218.073 45.6533 217.924 46.176L217.46 46.08C217.513 45.7813 217.625 45.456 217.796 45.104C217.977 44.752 218.212 44.4533 218.5 44.208C218.799 43.952 219.145 43.824 219.54 43.824C220.351 43.824 220.756 44.384 220.756 45.504C220.756 45.9733 220.681 46.5813 220.532 47.328H220.58C220.985 45.984 221.423 45.0667 221.892 44.576C222.361 44.0747 222.873 43.824 223.428 43.824ZM223.092 44.576C222.719 44.576 222.345 44.8373 221.972 45.36C221.599 45.872 221.268 46.544 220.98 47.376C220.692 48.1973 220.479 49.0453 220.34 49.92C220.276 50.2933 220.217 50.8 220.164 51.44C220.548 51.568 220.873 51.632 221.14 51.632C221.844 51.632 222.425 51.4133 222.884 50.976C223.353 50.528 223.689 49.968 223.892 49.296C224.105 48.6133 224.212 47.92 224.212 47.216C224.212 46.3947 224.127 45.7493 223.956 45.28C223.785 44.8107 223.497 44.576 223.092 44.576ZM230.825 43.824C231.465 43.824 231.998 43.9733 232.425 44.272C232.851 44.5707 233.065 45.0347 233.065 45.664C233.065 46.4533 232.59 47.0667 231.641 47.504C230.691 47.9413 229.593 48.2293 228.345 48.368C228.345 49.3707 228.494 50.1227 228.793 50.624C229.091 51.1253 229.55 51.376 230.169 51.376C230.659 51.376 231.134 51.216 231.593 50.896C232.051 50.5653 232.451 50.08 232.793 49.44L233.321 49.744C232.873 50.5867 232.371 51.2053 231.817 51.6C231.262 51.984 230.622 52.176 229.897 52.176C228.915 52.176 228.174 51.872 227.673 51.264C227.182 50.6453 226.937 49.7973 226.937 48.72C226.937 47.856 227.081 47.056 227.368 46.32C227.667 45.5733 228.11 44.9707 228.697 44.512C229.283 44.0533 229.993 43.824 230.825 43.824ZM230.601 44.368C229.918 44.368 229.39 44.6987 229.017 45.36C228.643 46.0213 228.425 46.832 228.361 47.792C229.289 47.664 230.083 47.408 230.745 47.024C231.406 46.64 231.737 46.16 231.737 45.584C231.737 45.232 231.635 44.944 231.433 44.72C231.241 44.4853 230.963 44.368 230.601 44.368ZM238.722 47.552C239.426 47.5093 239.938 47.664 240.258 48.016C240.588 48.368 240.754 48.8107 240.754 49.344C240.754 49.8667 240.61 50.3467 240.322 50.784C240.044 51.2107 239.655 51.552 239.154 51.808C238.652 52.0533 238.092 52.176 237.474 52.176C236.514 52.176 235.788 51.872 235.298 51.264C234.807 50.6453 234.562 49.7973 234.562 48.72C234.562 47.8667 234.706 47.0667 234.993 46.32C235.282 45.5733 235.703 44.9707 236.258 44.512C236.823 44.0533 237.495 43.824 238.274 43.824C238.86 43.824 239.356 43.9573 239.762 44.224C240.167 44.48 240.37 44.8693 240.37 45.392C240.37 45.7973 240.231 46.192 239.954 46.576C239.687 46.9493 239.276 47.2747 238.722 47.552ZM238.114 44.368C237.516 44.368 237.026 44.7147 236.642 45.408C236.258 46.1013 236.034 46.9653 235.97 48C237.079 47.744 237.858 47.424 238.306 47.04C238.754 46.6453 238.978 46.1333 238.978 45.504C238.978 44.7467 238.69 44.368 238.114 44.368ZM237.842 51.568C238.322 51.568 238.7 51.4027 238.978 51.072C239.255 50.7413 239.394 50.2987 239.394 49.744C239.394 49.264 239.276 48.8747 239.042 48.576C238.818 48.2773 238.487 48.128 238.049 48.128C237.858 48.128 237.65 48.16 237.426 48.224L235.954 48.608C235.986 49.536 236.151 50.2613 236.45 50.784C236.759 51.3067 237.223 51.568 237.842 51.568ZM243.534 43.824C243.961 43.824 244.281 43.9573 244.494 44.224C244.718 44.4907 244.83 44.8747 244.83 45.376C244.83 45.76 244.745 46.56 244.574 47.776C244.564 47.872 244.516 48.2347 244.43 48.864C244.345 49.4827 244.302 50 244.302 50.416C244.302 50.672 244.356 50.9067 244.462 51.12C244.58 51.3227 244.777 51.424 245.054 51.424C245.524 51.424 245.993 51.072 246.462 50.368C246.932 49.6533 247.316 48.7787 247.614 47.744C247.924 46.7093 248.078 45.744 248.078 44.848C248.078 44.6453 248.068 44.3627 248.046 44H249.39C249.401 44.096 249.406 44.2347 249.406 44.416C249.406 44.672 249.38 45.0667 249.326 45.6C249.273 46.1333 249.193 46.8267 249.086 47.68L248.926 49.008C248.916 49.1467 248.889 49.4027 248.846 49.776C248.804 50.1493 248.782 50.4427 248.782 50.656C248.782 51.1253 248.926 51.36 249.214 51.36C249.417 51.36 249.625 51.2373 249.838 50.992C250.052 50.736 250.233 50.3467 250.382 49.824L250.83 49.92C250.777 50.2187 250.66 50.544 250.478 50.896C250.308 51.248 250.073 51.552 249.774 51.808C249.486 52.0533 249.145 52.176 248.75 52.176C248.334 52.176 248.025 52.048 247.822 51.792C247.62 51.536 247.518 51.184 247.518 50.736C247.518 50.2667 247.614 49.552 247.806 48.592H247.758C247.246 49.968 246.756 50.912 246.286 51.424C245.817 51.9253 245.3 52.176 244.734 52.176C244.137 52.176 243.694 51.984 243.406 51.6C243.129 51.2053 242.99 50.704 242.99 50.096C242.99 49.6373 243.017 49.1733 243.07 48.704C243.124 48.2347 243.204 47.6693 243.31 47.008C243.332 46.8907 243.369 46.6453 243.422 46.272C243.476 45.888 243.502 45.5893 243.502 45.376C243.502 45.1307 243.47 44.944 243.406 44.816C243.353 44.688 243.241 44.624 243.07 44.624C242.878 44.624 242.681 44.752 242.478 45.008C242.276 45.2533 242.1 45.6427 241.95 46.176L241.502 46.08C241.598 45.5573 241.817 45.0507 242.158 44.56C242.51 44.0693 242.969 43.824 243.534 43.824ZM261.499 43.824C262.096 43.824 262.523 44.016 262.779 44.4C263.045 44.784 263.179 45.2853 263.179 45.904C263.179 46.352 263.152 46.8053 263.099 47.264C263.045 47.712 262.965 48.2827 262.859 48.976C262.72 49.8293 262.651 50.384 262.651 50.64C262.651 50.8747 262.677 51.056 262.731 51.184C262.795 51.312 262.912 51.376 263.083 51.376C263.285 51.376 263.493 51.2533 263.707 51.008C263.931 50.752 264.117 50.3573 264.267 49.824L264.715 49.936C264.661 50.2347 264.544 50.56 264.363 50.912C264.192 51.2533 263.957 51.552 263.659 51.808C263.36 52.0533 263.013 52.176 262.619 52.176C262.139 52.176 261.803 52.0533 261.611 51.808C261.429 51.552 261.339 51.1627 261.339 50.64C261.339 50.2027 261.424 49.4987 261.595 48.528C261.605 48.432 261.643 48.1707 261.707 47.744C261.771 47.3067 261.819 46.9067 261.851 46.544C261.893 46.1707 261.915 45.84 261.915 45.552C261.915 45.3067 261.856 45.0827 261.739 44.88C261.621 44.6773 261.424 44.576 261.147 44.576C260.667 44.576 260.197 44.928 259.739 45.632C259.291 46.336 258.923 47.2053 258.635 48.24C258.357 49.2747 258.219 50.2453 258.219 51.152C258.219 51.3547 258.229 51.6373 258.251 52H256.907C256.896 51.904 256.891 51.7653 256.891 51.584C256.891 51.232 256.923 50.7627 256.987 50.176C257.051 49.5893 257.12 49.008 257.195 48.432C257.376 47.0453 257.467 46.1013 257.467 45.6C257.467 44.9173 257.211 44.576 256.699 44.576C256.229 44.576 255.765 44.928 255.307 45.632C254.859 46.336 254.491 47.2107 254.203 48.256C253.915 49.2907 253.771 50.256 253.771 51.152C253.771 51.3547 253.781 51.6373 253.803 52H252.459C252.448 51.904 252.443 51.7653 252.443 51.584C252.443 51.3173 252.464 50.9333 252.507 50.432C252.56 49.92 252.64 49.2373 252.747 48.384L252.939 46.72C252.981 46.3467 253.013 46.064 253.035 45.872C253.056 45.6693 253.067 45.4933 253.067 45.344C253.067 45.12 253.035 44.944 252.971 44.816C252.917 44.688 252.805 44.624 252.635 44.624C252.432 44.624 252.224 44.752 252.011 45.008C251.797 45.264 251.616 45.6533 251.467 46.176L251.019 46.08C251.072 45.7813 251.184 45.456 251.355 45.104C251.536 44.752 251.771 44.4533 252.059 44.208C252.357 43.952 252.704 43.824 253.099 43.824C253.899 43.824 254.299 44.3573 254.299 45.424C254.299 45.7227 254.267 46.0533 254.203 46.416C254.149 46.7787 254.096 47.104 254.043 47.392H254.091C254.549 46.0587 255.024 45.1307 255.515 44.608C256.005 44.0853 256.507 43.824 257.019 43.824C257.605 43.824 258.037 44.0107 258.315 44.384C258.592 44.7573 258.731 45.1787 258.731 45.648C258.731 45.9253 258.715 46.16 258.683 46.352C258.651 46.5333 258.576 46.864 258.459 47.344H258.507C258.987 46.0107 259.477 45.0933 259.979 44.592C260.48 44.08 260.987 43.824 261.499 43.824ZM270.17 43.824C270.896 43.824 271.61 43.9147 272.314 44.096C271.845 47.5733 271.61 49.7067 271.61 50.496C271.61 50.7733 271.637 50.992 271.69 51.152C271.744 51.3013 271.866 51.376 272.058 51.376C272.261 51.376 272.469 51.248 272.682 50.992C272.896 50.736 273.077 50.3467 273.226 49.824L273.674 49.92C273.621 50.2187 273.504 50.544 273.322 50.896C273.152 51.248 272.917 51.552 272.618 51.808C272.33 52.0533 271.989 52.176 271.594 52.176C270.805 52.176 270.41 51.696 270.41 50.736C270.41 50.2667 270.506 49.552 270.698 48.592H270.65C270.202 50 269.712 50.9493 269.178 51.44C268.645 51.9307 268.096 52.176 267.53 52.176C266.912 52.176 266.416 51.952 266.042 51.504C265.68 51.056 265.498 50.352 265.498 49.392C265.498 48.368 265.674 47.4347 266.026 46.592C266.378 45.7493 266.906 45.0773 267.61 44.576C268.314 44.0747 269.168 43.824 270.17 43.824ZM269.674 44.4C269.056 44.4 268.533 44.624 268.106 45.072C267.68 45.5093 267.36 46.0907 267.146 46.816C266.944 47.5307 266.842 48.2987 266.842 49.12C266.842 50.688 267.189 51.472 267.882 51.472C268.352 51.472 268.821 51.104 269.29 50.368C269.76 49.632 270.149 48.7253 270.458 47.648C270.768 46.56 270.922 45.5413 270.922 44.592C270.602 44.464 270.186 44.4 269.674 44.4ZM282.808 49.92C282.755 50.2187 282.643 50.544 282.472 50.896C282.301 51.2373 282.067 51.536 281.768 51.792C281.469 52.048 281.123 52.176 280.728 52.176C280.312 52.176 280.003 52.048 279.8 51.792C279.597 51.536 279.496 51.184 279.496 50.736C279.496 50.3413 279.571 49.6213 279.72 48.576C279.944 46.9227 280.056 45.7067 280.056 44.928V44.608L278.968 44.624H279.384C279.117 44.624 278.947 44.7947 278.872 45.136C278.445 47.28 277.896 48.9867 277.224 50.256C276.552 51.5253 275.693 52.16 274.648 52.16C274.349 52.16 274.099 52.0747 273.896 51.904C273.704 51.7333 273.608 51.5307 273.608 51.296C273.608 51.0933 273.677 50.9173 273.816 50.768C273.955 50.608 274.131 50.528 274.344 50.528C274.525 50.528 274.685 50.5867 274.824 50.704C274.963 50.8213 275.032 50.9707 275.032 51.152C275.032 51.2267 275.021 51.3067 275 51.392C275.448 51.4453 275.88 51.1413 276.296 50.48C276.723 49.808 277.091 48.944 277.4 47.888C277.72 46.8213 277.96 45.7333 278.12 44.624L276.648 44.64L276.696 44H281.368C281.379 44.096 281.384 44.2347 281.384 44.416C281.384 44.6933 281.347 45.1627 281.272 45.824C281.208 46.4747 281.133 47.136 281.048 47.808C280.856 49.4293 280.76 50.3787 280.76 50.656C280.76 51.1253 280.904 51.36 281.192 51.36C281.395 51.36 281.603 51.2373 281.816 50.992C282.029 50.736 282.211 50.3467 282.36 49.824L282.808 49.92ZM278.824 45.28V45.328V45.28ZM285.112 43.824C285.539 43.824 285.859 43.9573 286.072 44.224C286.296 44.4907 286.408 44.8747 286.408 45.376C286.408 45.76 286.323 46.56 286.152 47.776C286.142 47.872 286.094 48.2347 286.008 48.864C285.923 49.4827 285.88 50 285.88 50.416C285.88 50.672 285.934 50.9067 286.04 51.12C286.158 51.3227 286.355 51.424 286.632 51.424C287.102 51.424 287.571 51.072 288.04 50.368C288.51 49.6533 288.894 48.7787 289.192 47.744C289.502 46.7093 289.656 45.744 289.656 44.848C289.656 44.6453 289.646 44.3627 289.624 44H290.968C290.979 44.096 290.984 44.2347 290.984 44.416C290.984 44.672 290.958 45.0667 290.904 45.6C290.851 46.1333 290.771 46.8267 290.664 47.68L290.504 49.008C290.494 49.1467 290.467 49.4027 290.424 49.776C290.382 50.1493 290.36 50.4427 290.36 50.656C290.36 51.1253 290.504 51.36 290.792 51.36C290.995 51.36 291.203 51.2373 291.416 50.992C291.63 50.736 291.811 50.3467 291.96 49.824L292.408 49.92C292.355 50.2187 292.238 50.544 292.056 50.896C291.886 51.248 291.651 51.552 291.352 51.808C291.064 52.0533 290.723 52.176 290.328 52.176C289.912 52.176 289.603 52.048 289.4 51.792C289.198 51.536 289.096 51.184 289.096 50.736C289.096 50.2667 289.192 49.552 289.384 48.592H289.336C288.824 49.968 288.334 50.912 287.864 51.424C287.395 51.9253 286.878 52.176 286.312 52.176C285.715 52.176 285.272 51.984 284.984 51.6C284.707 51.2053 284.568 50.704 284.568 50.096C284.568 49.6373 284.595 49.1733 284.648 48.704C284.702 48.2347 284.782 47.6693 284.888 47.008C284.91 46.8907 284.947 46.6453 285 46.272C285.054 45.888 285.08 45.5893 285.08 45.376C285.08 45.1307 285.048 44.944 284.984 44.816C284.931 44.688 284.819 44.624 284.648 44.624C284.456 44.624 284.259 44.752 284.056 45.008C283.854 45.2533 283.678 45.6427 283.528 46.176L283.08 46.08C283.176 45.5573 283.395 45.0507 283.736 44.56C284.088 44.0693 284.547 43.824 285.112 43.824ZM295.605 52.176C294.794 52.176 294.143 52 293.653 51.648C293.173 51.296 292.933 50.848 292.933 50.304C292.933 50.0587 292.997 49.8667 293.125 49.728C293.253 49.5893 293.423 49.52 293.637 49.52C293.85 49.52 294.01 49.5893 294.117 49.728C294.234 49.8667 294.293 50.0107 294.293 50.16C294.293 50.416 294.223 50.6187 294.085 50.768C294.138 51.056 294.287 51.2747 294.533 51.424C294.778 51.5627 295.093 51.632 295.477 51.632C296.159 51.632 296.682 51.4613 297.045 51.12C297.418 50.768 297.605 50.304 297.605 49.728C297.605 49.2373 297.482 48.848 297.237 48.56C296.991 48.2613 296.623 48.112 296.133 48.112C295.866 48.112 295.567 48.16 295.237 48.256L295.061 47.696C295.861 47.4507 296.437 47.1627 296.789 46.832C297.141 46.4907 297.317 46.0747 297.317 45.584C297.317 45.1787 297.21 44.8747 296.997 44.672C296.783 44.4693 296.453 44.368 296.005 44.368C295.621 44.368 295.285 44.4427 294.997 44.592C294.709 44.7413 294.49 44.944 294.341 45.2C294.543 45.232 294.682 45.3013 294.757 45.408C294.842 45.5147 294.885 45.664 294.885 45.856C294.885 46.0373 294.821 46.1867 294.693 46.304C294.575 46.4213 294.421 46.48 294.229 46.48C294.037 46.48 293.871 46.416 293.733 46.288C293.605 46.1493 293.541 45.9733 293.541 45.76C293.519 45.408 293.631 45.0827 293.877 44.784C294.133 44.4853 294.474 44.2507 294.901 44.08C295.338 43.9093 295.802 43.824 296.293 43.824C296.986 43.824 297.541 43.9573 297.957 44.224C298.373 44.48 298.581 44.864 298.581 45.376C298.581 45.8027 298.426 46.2027 298.117 46.576C297.807 46.9493 297.343 47.2747 296.725 47.552V47.584C297.375 47.6267 297.882 47.8347 298.245 48.208C298.618 48.5707 298.805 49.0133 298.805 49.536C298.805 50.0267 298.671 50.4747 298.405 50.88C298.149 51.2853 297.775 51.6053 297.285 51.84C296.805 52.064 296.245 52.176 295.605 52.176ZM304.748 43.824C305.474 43.824 306.188 43.9147 306.892 44.096C306.423 47.5733 306.188 49.7067 306.188 50.496C306.188 50.7733 306.215 50.992 306.268 51.152C306.322 51.3013 306.444 51.376 306.636 51.376C306.839 51.376 307.047 51.248 307.26 50.992C307.474 50.736 307.655 50.3467 307.804 49.824L308.252 49.92C308.199 50.2187 308.082 50.544 307.9 50.896C307.73 51.248 307.495 51.552 307.196 51.808C306.908 52.0533 306.567 52.176 306.172 52.176C305.383 52.176 304.988 51.696 304.988 50.736C304.988 50.2667 305.084 49.552 305.276 48.592H305.228C304.78 50 304.29 50.9493 303.756 51.44C303.223 51.9307 302.674 52.176 302.108 52.176C301.49 52.176 300.994 51.952 300.62 51.504C300.258 51.056 300.076 50.352 300.076 49.392C300.076 48.368 300.252 47.4347 300.604 46.592C300.956 45.7493 301.484 45.0773 302.188 44.576C302.892 44.0747 303.746 43.824 304.748 43.824ZM304.252 44.4C303.634 44.4 303.111 44.624 302.684 45.072C302.258 45.5093 301.938 46.0907 301.724 46.816C301.522 47.5307 301.42 48.2987 301.42 49.12C301.42 50.688 301.767 51.472 302.46 51.472C302.93 51.472 303.399 51.104 303.868 50.368C304.338 49.632 304.727 48.7253 305.036 47.648C305.346 46.56 305.5 45.5413 305.5 44.592C305.18 44.464 304.764 44.4 304.252 44.4ZM317.098 52.208C317.269 52.4853 317.354 52.784 317.354 53.104C317.354 53.8507 316.895 54.6133 315.978 55.392L315.61 55.024C316.058 54.4693 316.282 54.016 316.282 53.664C316.282 53.5573 316.25 53.4187 316.186 53.248C316.122 53.1093 316.09 52.9653 316.09 52.816C316.09 52.56 316.181 52.2827 316.362 51.984L316.218 51.904C316.026 52.0853 315.738 52.176 315.354 52.176C315.045 52.176 314.799 52.048 314.618 51.792C314.447 51.5253 314.362 51.1733 314.362 50.736C314.362 50.2667 314.458 49.552 314.65 48.592H314.602C314.09 49.968 313.599 50.912 313.13 51.424C312.661 51.9253 312.143 52.176 311.578 52.176C310.981 52.176 310.538 51.984 310.25 51.6C309.973 51.2053 309.834 50.704 309.834 50.096C309.834 49.6373 309.861 49.1733 309.914 48.704C309.967 48.2347 310.047 47.6693 310.154 47.008C310.175 46.8907 310.213 46.6453 310.266 46.272C310.319 45.888 310.346 45.5893 310.346 45.376C310.346 45.1307 310.314 44.944 310.25 44.816C310.197 44.688 310.085 44.624 309.914 44.624C309.722 44.624 309.525 44.752 309.322 45.008C309.119 45.2533 308.943 45.6427 308.794 46.176L308.346 46.08C308.442 45.5573 308.661 45.0507 309.002 44.56C309.354 44.0693 309.813 43.824 310.378 43.824C310.805 43.824 311.125 43.9573 311.338 44.224C311.562 44.4907 311.674 44.8747 311.674 45.376C311.674 45.76 311.589 46.56 311.418 47.776C311.407 47.872 311.359 48.2347 311.274 48.864C311.189 49.4827 311.146 50 311.146 50.416C311.146 50.672 311.199 50.9067 311.306 51.12C311.423 51.3227 311.621 51.424 311.898 51.424C312.367 51.424 312.837 51.072 313.306 50.368C313.775 49.6533 314.159 48.7787 314.458 47.744C314.767 46.7093 314.922 45.744 314.922 44.848C314.922 44.6453 314.911 44.3627 314.89 44H316.234C316.245 44.096 316.25 44.2347 316.25 44.416C316.25 44.672 316.223 45.0667 316.17 45.6C316.117 46.1333 316.037 46.8267 315.93 47.68L315.77 49.008C315.759 49.1467 315.733 49.4027 315.69 49.776C315.647 50.1493 315.626 50.4427 315.626 50.656C315.626 50.8693 315.653 51.04 315.706 51.168C315.77 51.296 315.861 51.36 315.978 51.36C316.063 51.36 316.138 51.328 316.202 51.264C316.277 51.1893 316.357 51.072 316.442 50.912L316.922 49.824L317.354 49.952L317.21 50.384L317.146 50.56L317.018 50.928C316.943 51.152 316.906 51.3547 316.906 51.536C316.906 51.7813 316.97 52.0053 317.098 52.208ZM320.222 43.824C320.648 43.824 320.968 43.9573 321.182 44.224C321.406 44.4907 321.518 44.8747 321.518 45.376C321.518 45.76 321.432 46.56 321.262 47.776C321.251 47.872 321.203 48.2347 321.118 48.864C321.032 49.4827 320.99 50 320.99 50.416C320.99 50.672 321.043 50.9067 321.15 51.12C321.267 51.3227 321.464 51.424 321.742 51.424C322.211 51.424 322.68 51.072 323.15 50.368C323.619 49.6533 324.003 48.7787 324.302 47.744C324.611 46.7093 324.766 45.744 324.766 44.848C324.766 44.6453 324.755 44.3627 324.734 44H326.078C326.088 44.096 326.094 44.2347 326.094 44.416C326.094 44.672 326.067 45.0667 326.014 45.6C325.96 46.1333 325.88 46.8267 325.774 47.68L325.614 49.008C325.603 49.1467 325.576 49.4027 325.534 49.776C325.491 50.1493 325.47 50.4427 325.47 50.656C325.47 51.1253 325.614 51.36 325.902 51.36C326.104 51.36 326.312 51.2373 326.526 50.992C326.739 50.736 326.92 50.3467 327.07 49.824L327.518 49.92C327.464 50.2187 327.347 50.544 327.166 50.896C326.995 51.248 326.76 51.552 326.462 51.808C326.174 52.0533 325.832 52.176 325.438 52.176C325.022 52.176 324.712 52.048 324.51 51.792C324.307 51.536 324.206 51.184 324.206 50.736C324.206 50.2667 324.302 49.552 324.494 48.592H324.446C323.934 49.968 323.443 50.912 322.974 51.424C322.504 51.9253 321.987 52.176 321.422 52.176C320.824 52.176 320.382 51.984 320.094 51.6C319.816 51.2053 319.678 50.704 319.678 50.096C319.678 49.6373 319.704 49.1733 319.758 48.704C319.811 48.2347 319.891 47.6693 319.998 47.008C320.019 46.8907 320.056 46.6453 320.11 46.272C320.163 45.888 320.19 45.5893 320.19 45.376C320.19 45.1307 320.158 44.944 320.094 44.816C320.04 44.688 319.928 44.624 319.758 44.624C319.566 44.624 319.368 44.752 319.166 45.008C318.963 45.2533 318.787 45.6427 318.638 46.176L318.19 46.08C318.286 45.5573 318.504 45.0507 318.846 44.56C319.198 44.0693 319.656 43.824 320.222 43.824ZM329.706 43.824C330.133 43.824 330.453 43.9573 330.666 44.224C330.89 44.4907 331.002 44.8747 331.002 45.376C331.002 45.76 330.917 46.56 330.746 47.776C330.735 47.872 330.687 48.2347 330.602 48.864C330.517 49.4827 330.474 50 330.474 50.416C330.474 50.672 330.527 50.9067 330.634 51.12C330.751 51.3227 330.949 51.424 331.226 51.424C331.695 51.424 332.165 51.072 332.634 50.368C333.103 49.6533 333.487 48.7787 333.786 47.744C334.095 46.7093 334.25 45.744 334.25 44.848C334.25 44.6453 334.239 44.3627 334.218 44H335.562C335.573 44.096 335.578 44.2347 335.578 44.416C335.578 44.672 335.551 45.0667 335.498 45.6C335.445 46.1333 335.365 46.8267 335.258 47.68L335.098 49.008C335.087 49.1467 335.061 49.4027 335.018 49.776C334.975 50.1493 334.954 50.4427 334.954 50.656C334.954 51.1253 335.098 51.36 335.386 51.36C335.589 51.36 335.797 51.2373 336.01 50.992C336.223 50.736 336.405 50.3467 336.554 49.824L337.002 49.92C336.949 50.2187 336.831 50.544 336.65 50.896C336.479 51.248 336.245 51.552 335.946 51.808C335.658 52.0533 335.317 52.176 334.922 52.176C334.506 52.176 334.197 52.048 333.994 51.792C333.791 51.536 333.69 51.184 333.69 50.736C333.69 50.2667 333.786 49.552 333.978 48.592H333.93C333.418 49.968 332.927 50.912 332.458 51.424C331.989 51.9253 331.471 52.176 330.906 52.176C330.309 52.176 329.866 51.984 329.578 51.6C329.301 51.2053 329.162 50.704 329.162 50.096C329.162 49.6373 329.189 49.1733 329.242 48.704C329.295 48.2347 329.375 47.6693 329.482 47.008C329.503 46.8907 329.541 46.6453 329.594 46.272C329.647 45.888 329.674 45.5893 329.674 45.376C329.674 45.1307 329.642 44.944 329.578 44.816C329.525 44.688 329.413 44.624 329.242 44.624C329.05 44.624 328.853 44.752 328.65 45.008C328.447 45.2533 328.271 45.6427 328.122 46.176L327.674 46.08C327.77 45.5573 327.989 45.0507 328.33 44.56C328.682 44.0693 329.141 43.824 329.706 43.824ZM352.546 47.344L342.274 47.408L342.322 46.352H352.594L352.546 47.344ZM195.576 64.824C196.152 64.824 196.669 64.9627 197.128 65.24C197.597 65.5173 197.96 65.9227 198.216 66.456C198.483 66.9787 198.616 67.6027 198.616 68.328C198.616 69.2027 198.456 70.008 198.136 70.744C197.827 71.48 197.373 72.072 196.776 72.52C196.189 72.9573 195.496 73.176 194.696 73.176C193.683 73.176 192.915 72.8453 192.392 72.184C191.88 71.512 191.624 70.648 191.624 69.592C191.624 68.7173 191.784 67.9173 192.104 67.192C192.424 66.4667 192.883 65.8907 193.48 65.464C194.077 65.0373 194.776 64.824 195.576 64.824ZM195.32 65.416C194.851 65.416 194.44 65.5867 194.088 65.928C193.747 66.2587 193.485 66.7173 193.304 67.304C193.123 67.88 193.032 68.5253 193.032 69.24C193.032 70.1253 193.176 70.904 193.464 71.576C193.752 72.2373 194.221 72.568 194.872 72.568C195.416 72.568 195.859 72.36 196.2 71.944C196.552 71.528 196.808 71.016 196.968 70.408C197.128 69.8 197.208 69.208 197.208 68.632C197.208 67.736 197.064 66.9787 196.776 66.36C196.499 65.7307 196.013 65.416 195.32 65.416ZM205.68 64.824C206.277 64.824 206.714 65.016 206.992 65.4C207.28 65.784 207.424 66.2853 207.424 66.904C207.424 67.6187 207.322 68.6427 207.12 69.976C207.002 70.8187 206.944 71.3733 206.944 71.64C206.944 71.8747 206.97 72.056 207.024 72.184C207.088 72.312 207.205 72.376 207.376 72.376C207.578 72.376 207.786 72.2533 208 72.008C208.213 71.752 208.394 71.3573 208.544 70.824L208.992 70.936C208.938 71.2347 208.821 71.56 208.64 71.912C208.469 72.2533 208.234 72.552 207.936 72.808C207.648 73.0533 207.306 73.176 206.912 73.176C206.432 73.176 206.096 73.0533 205.904 72.808C205.712 72.552 205.616 72.1627 205.616 71.64C205.616 71.2453 205.685 70.5413 205.824 69.528C206.016 68.2267 206.112 67.2347 206.112 66.552C206.112 66.3067 206.053 66.0827 205.936 65.88C205.829 65.6773 205.637 65.576 205.36 65.576C204.89 65.576 204.41 65.9333 203.92 66.648C203.429 67.352 203.018 68.2267 202.688 69.272C202.368 70.3067 202.208 71.2667 202.208 72.152C202.208 72.3547 202.218 72.6373 202.24 73H200.896C200.885 72.904 200.88 72.7653 200.88 72.584C200.88 72.328 200.901 71.9707 200.944 71.512C200.997 71.0533 201.072 70.4507 201.168 69.704C201.168 69.64 201.178 69.5333 201.2 69.384C201.21 69.2453 201.226 69.1013 201.248 68.952C201.269 68.8027 201.285 68.6533 201.296 68.504C201.37 67.8533 201.424 67.3787 201.456 67.08C201.488 66.7813 201.504 66.536 201.504 66.344C201.504 66.12 201.472 65.944 201.408 65.816C201.354 65.688 201.242 65.624 201.072 65.624C200.869 65.624 200.661 65.752 200.448 66.008C200.234 66.264 200.053 66.6533 199.904 67.176L199.456 67.08C199.509 66.7813 199.621 66.456 199.792 66.104C199.973 65.752 200.208 65.4533 200.496 65.208C200.794 64.952 201.141 64.824 201.536 64.824C202.336 64.824 202.736 65.3733 202.736 66.472C202.736 66.7813 202.704 67.1227 202.64 67.496C202.586 67.8587 202.533 68.184 202.48 68.472H202.528C203.04 67.1067 203.546 66.1573 204.048 65.624C204.56 65.0907 205.104 64.824 205.68 64.824ZM219.796 64.824C220.393 64.824 220.82 65.016 221.076 65.4C221.342 65.784 221.476 66.2853 221.476 66.904C221.476 67.352 221.449 67.8053 221.396 68.264C221.342 68.712 221.262 69.2827 221.156 69.976C221.017 70.8293 220.948 71.384 220.948 71.64C220.948 71.8747 220.974 72.056 221.028 72.184C221.092 72.312 221.209 72.376 221.38 72.376C221.582 72.376 221.79 72.2533 222.004 72.008C222.228 71.752 222.414 71.3573 222.564 70.824L223.012 70.936C222.958 71.2347 222.841 71.56 222.66 71.912C222.489 72.2533 222.254 72.552 221.956 72.808C221.657 73.0533 221.31 73.176 220.916 73.176C220.436 73.176 220.1 73.0533 219.908 72.808C219.726 72.552 219.636 72.1627 219.636 71.64C219.636 71.2027 219.721 70.4987 219.892 69.528C219.902 69.432 219.94 69.1707 220.004 68.744C220.068 68.3067 220.116 67.9067 220.148 67.544C220.19 67.1707 220.212 66.84 220.212 66.552C220.212 66.3067 220.153 66.0827 220.036 65.88C219.918 65.6773 219.721 65.576 219.444 65.576C218.964 65.576 218.494 65.928 218.036 66.632C217.588 67.336 217.22 68.2053 216.932 69.24C216.654 70.2747 216.516 71.2453 216.516 72.152C216.516 72.3547 216.526 72.6373 216.548 73H215.204C215.193 72.904 215.188 72.7653 215.188 72.584C215.188 72.232 215.22 71.7627 215.284 71.176C215.348 70.5893 215.417 70.008 215.492 69.432C215.673 68.0453 215.764 67.1013 215.764 66.6C215.764 65.9173 215.508 65.576 214.996 65.576C214.526 65.576 214.062 65.928 213.604 66.632C213.156 67.336 212.788 68.2107 212.5 69.256C212.212 70.2907 212.068 71.256 212.068 72.152C212.068 72.3547 212.078 72.6373 212.1 73H210.756C210.745 72.904 210.74 72.7653 210.74 72.584C210.74 72.3173 210.761 71.9333 210.804 71.432C210.857 70.92 210.937 70.2373 211.044 69.384L211.236 67.72C211.278 67.3467 211.31 67.064 211.332 66.872C211.353 66.6693 211.364 66.4933 211.364 66.344C211.364 66.12 211.332 65.944 211.268 65.816C211.214 65.688 211.102 65.624 210.932 65.624C210.729 65.624 210.521 65.752 210.308 66.008C210.094 66.264 209.913 66.6533 209.764 67.176L209.316 67.08C209.369 66.7813 209.481 66.456 209.652 66.104C209.833 65.752 210.068 65.4533 210.356 65.208C210.654 64.952 211.001 64.824 211.396 64.824C212.196 64.824 212.596 65.3573 212.596 66.424C212.596 66.7227 212.564 67.0533 212.5 67.416C212.446 67.7787 212.393 68.104 212.34 68.392H212.388C212.846 67.0587 213.321 66.1307 213.812 65.608C214.302 65.0853 214.804 64.824 215.316 64.824C215.902 64.824 216.334 65.0107 216.612 65.384C216.889 65.7573 217.028 66.1787 217.028 66.648C217.028 66.9253 217.012 67.16 216.98 67.352C216.948 67.5333 216.873 67.864 216.756 68.344H216.804C217.284 67.0107 217.774 66.0933 218.276 65.592C218.777 65.08 219.284 64.824 219.796 64.824ZM225.331 64.824C225.758 64.824 226.078 64.9573 226.291 65.224C226.515 65.4907 226.627 65.8747 226.627 66.376C226.627 66.76 226.542 67.56 226.371 68.776C226.36 68.872 226.312 69.2347 226.227 69.864C226.142 70.4827 226.099 71 226.099 71.416C226.099 71.672 226.152 71.9067 226.259 72.12C226.376 72.3227 226.574 72.424 226.851 72.424C227.32 72.424 227.79 72.072 228.259 71.368C228.728 70.6533 229.112 69.7787 229.411 68.744C229.72 67.7093 229.875 66.744 229.875 65.848C229.875 65.6453 229.864 65.3627 229.843 65H231.187C231.198 65.096 231.203 65.2347 231.203 65.416C231.203 65.672 231.176 66.0667 231.123 66.6C231.07 67.1333 230.99 67.8267 230.883 68.68L230.723 70.008C230.712 70.1467 230.686 70.4027 230.643 70.776C230.6 71.1493 230.579 71.4427 230.579 71.656C230.579 72.1253 230.723 72.36 231.011 72.36C231.214 72.36 231.422 72.2373 231.635 71.992C231.848 71.736 232.03 71.3467 232.179 70.824L232.627 70.92C232.574 71.2187 232.456 71.544 232.275 71.896C232.104 72.248 231.87 72.552 231.571 72.808C231.283 73.0533 230.942 73.176 230.547 73.176C230.131 73.176 229.822 73.048 229.619 72.792C229.416 72.536 229.315 72.184 229.315 71.736C229.315 71.2667 229.411 70.552 229.603 69.592H229.555C229.043 70.968 228.552 71.912 228.083 72.424C227.614 72.9253 227.096 73.176 226.531 73.176C225.934 73.176 225.491 72.984 225.203 72.6C224.926 72.2053 224.787 71.704 224.787 71.096C224.787 70.6373 224.814 70.1733 224.867 69.704C224.92 69.2347 225 68.6693 225.107 68.008C225.128 67.8907 225.166 67.6453 225.219 67.272C225.272 66.888 225.299 66.5893 225.299 66.376C225.299 66.1307 225.267 65.944 225.203 65.816C225.15 65.688 225.038 65.624 224.867 65.624C224.675 65.624 224.478 65.752 224.275 66.008C224.072 66.2533 223.896 66.6427 223.747 67.176L223.299 67.08C223.395 66.5573 223.614 66.0507 223.955 65.56C224.307 65.0693 224.766 64.824 225.331 64.824ZM245.008 70.92C244.954 71.2187 244.837 71.544 244.656 71.896C244.485 72.248 244.245 72.552 243.936 72.808C243.637 73.0533 243.285 73.176 242.88 73.176C242.474 73.176 242.176 73.048 241.984 72.792C241.792 72.536 241.696 72.184 241.696 71.736C241.696 71.448 241.733 71.0693 241.808 70.6C241.882 70.12 241.994 69.4533 242.144 68.6C242.314 67.6507 242.448 66.8347 242.544 66.152H242.448C241.754 68.0933 241.205 69.544 240.8 70.504C240.394 71.4533 240.01 72.136 239.648 72.552C239.296 72.968 238.901 73.176 238.464 73.176C238.08 73.176 237.808 73.032 237.648 72.744C237.498 72.456 237.424 71.96 237.424 71.256C237.424 68.5573 237.482 66.856 237.6 66.152H237.472C236.906 68.136 236.469 69.5653 236.16 70.44C235.861 71.3147 235.514 71.9867 235.12 72.456C234.736 72.9253 234.25 73.16 233.664 73.16C233.365 73.16 233.114 73.0747 232.912 72.904C232.72 72.7333 232.623 72.5307 232.623 72.296C232.623 72.0933 232.693 71.9173 232.832 71.768C232.97 71.608 233.146 71.528 233.36 71.528C233.541 71.528 233.701 71.5867 233.84 71.704C233.978 71.8213 234.048 71.9707 234.048 72.152C234.048 72.2267 234.037 72.3067 234.016 72.392C234.389 72.4133 234.805 71.8907 235.264 70.824C235.722 69.7573 236.256 68.024 236.864 65.624L235.424 65.64L235.488 65H238.656C238.688 65.1707 238.704 65.352 238.704 65.544C238.704 66.024 238.693 66.7227 238.672 67.64L238.656 69.688C238.656 70.0613 238.666 70.632 238.688 71.4C238.709 71.784 238.73 72.0347 238.752 72.152C238.784 72.2693 238.848 72.328 238.944 72.328C239.157 72.328 239.53 71.736 240.064 70.552C240.608 69.368 241.312 67.5173 242.176 65H243.648C243.658 65.096 243.664 65.2347 243.664 65.416C243.664 65.8853 243.536 67.016 243.28 68.808C243.205 69.4053 243.13 69.9813 243.056 70.536C242.992 71.08 242.96 71.4533 242.96 71.656C242.96 72.1253 243.093 72.36 243.36 72.36C243.573 72.36 243.786 72.2373 244 71.992C244.224 71.736 244.41 71.3467 244.56 70.824L245.008 70.92ZM250.452 64.824C251.177 64.824 251.892 64.9147 252.596 65.096C252.126 68.5733 251.892 70.7067 251.892 71.496C251.892 71.7733 251.918 71.992 251.972 72.152C252.025 72.3013 252.148 72.376 252.34 72.376C252.542 72.376 252.75 72.248 252.964 71.992C253.177 71.736 253.358 71.3467 253.508 70.824L253.956 70.92C253.902 71.2187 253.785 71.544 253.604 71.896C253.433 72.248 253.198 72.552 252.9 72.808C252.612 73.0533 252.27 73.176 251.876 73.176C251.086 73.176 250.692 72.696 250.692 71.736C250.692 71.2667 250.788 70.552 250.98 69.592H250.932C250.484 71 249.993 71.9493 249.46 72.44C248.926 72.9307 248.377 73.176 247.812 73.176C247.193 73.176 246.697 72.952 246.324 72.504C245.961 72.056 245.78 71.352 245.78 70.392C245.78 69.368 245.956 68.4347 246.308 67.592C246.66 66.7493 247.188 66.0773 247.892 65.576C248.596 65.0747 249.449 64.824 250.452 64.824ZM249.956 65.4C249.337 65.4 248.814 65.624 248.388 66.072C247.961 66.5093 247.641 67.0907 247.428 67.816C247.225 68.5307 247.124 69.2987 247.124 70.12C247.124 71.688 247.47 72.472 248.164 72.472C248.633 72.472 249.102 72.104 249.572 71.368C250.041 70.632 250.43 69.7253 250.74 68.648C251.049 67.56 251.204 66.5413 251.204 65.592C250.884 65.464 250.468 65.4 249.956 65.4ZM263.089 70.92C263.036 71.2187 262.924 71.544 262.753 71.896C262.582 72.2373 262.348 72.536 262.049 72.792C261.75 73.048 261.404 73.176 261.009 73.176C260.593 73.176 260.284 73.048 260.081 72.792C259.878 72.536 259.777 72.184 259.777 71.736C259.777 71.3413 259.852 70.6213 260.001 69.576C260.225 67.9227 260.337 66.7067 260.337 65.928V65.608L259.249 65.624H259.665C259.398 65.624 259.228 65.7947 259.153 66.136C258.726 68.28 258.177 69.9867 257.505 71.256C256.833 72.5253 255.974 73.16 254.929 73.16C254.63 73.16 254.38 73.0747 254.177 72.904C253.985 72.7333 253.889 72.5307 253.889 72.296C253.889 72.0933 253.958 71.9173 254.097 71.768C254.236 71.608 254.412 71.528 254.625 71.528C254.806 71.528 254.966 71.5867 255.105 71.704C255.244 71.8213 255.313 71.9707 255.313 72.152C255.313 72.2267 255.302 72.3067 255.281 72.392C255.729 72.4453 256.161 72.1413 256.577 71.48C257.004 70.808 257.372 69.944 257.681 68.888C258.001 67.8213 258.241 66.7333 258.401 65.624L256.929 65.64L256.977 65H261.649C261.66 65.096 261.665 65.2347 261.665 65.416C261.665 65.6933 261.628 66.1627 261.553 66.824C261.489 67.4747 261.414 68.136 261.329 68.808C261.137 70.4293 261.041 71.3787 261.041 71.656C261.041 72.1253 261.185 72.36 261.473 72.36C261.676 72.36 261.884 72.2373 262.097 71.992C262.31 71.736 262.492 71.3467 262.641 70.824L263.089 70.92ZM259.105 66.28V66.328V66.28ZM268.194 67.816C268.887 67.816 269.447 68.0133 269.874 68.408C270.3 68.792 270.514 69.3307 270.514 70.024C270.514 70.6107 270.364 71.144 270.066 71.624C269.767 72.104 269.351 72.4827 268.818 72.76C268.295 73.0373 267.703 73.176 267.042 73.176C266.338 73.176 265.804 72.9947 265.442 72.632C265.09 72.2587 264.914 71.7573 264.914 71.128C264.914 71.032 264.924 70.8773 264.946 70.664C265.234 68.872 265.41 67.7307 265.474 67.24C265.548 66.7493 265.586 66.4133 265.586 66.232C265.586 66.04 265.559 65.8907 265.506 65.784C265.452 65.6773 265.346 65.624 265.186 65.624C264.983 65.624 264.77 65.752 264.546 66.008C264.322 66.264 264.124 66.6533 263.954 67.176L263.506 67.08C263.58 66.7813 263.708 66.456 263.89 66.104C264.071 65.752 264.311 65.4533 264.61 65.208C264.919 64.952 265.271 64.824 265.666 64.824C266.082 64.824 266.375 64.9573 266.546 65.224C266.727 65.48 266.818 65.8373 266.818 66.296C266.818 66.552 266.791 66.856 266.738 67.208L266.562 68.312C267.17 67.9813 267.714 67.816 268.194 67.816ZM269.186 70.376C269.207 69.736 269.127 69.2507 268.946 68.92C268.775 68.5787 268.46 68.408 268.002 68.408C267.511 68.408 266.994 68.6213 266.45 69.048L266.162 70.808C266.14 70.9573 266.13 71.0693 266.13 71.144C266.13 71.592 266.258 71.944 266.514 72.2C266.77 72.4453 267.095 72.568 267.49 72.568C268.012 72.568 268.423 72.376 268.722 71.992C269.02 71.608 269.175 71.0693 269.186 70.376ZM280.422 70.92C280.369 71.2187 280.251 71.544 280.07 71.896C279.899 72.248 279.665 72.552 279.366 72.808C279.078 73.0533 278.737 73.176 278.342 73.176C277.926 73.176 277.617 73.048 277.414 72.792C277.211 72.536 277.11 72.184 277.11 71.736C277.11 71.448 277.169 70.856 277.286 69.96L277.334 69.512L274.246 69.544L273.958 71.992C273.937 72.2053 273.926 72.36 273.926 72.456C273.926 72.6373 273.942 72.8187 273.974 73H272.63C272.619 72.904 272.614 72.7653 272.614 72.584C272.625 72.1893 272.721 71.3733 272.902 70.136L272.998 69.384L273.094 68.696C273.19 67.9813 273.254 67.464 273.286 67.144C273.329 66.8133 273.35 66.5467 273.35 66.344C273.371 65.864 273.233 65.624 272.934 65.624C272.731 65.624 272.518 65.752 272.294 66.008C272.081 66.264 271.894 66.6533 271.734 67.176L271.286 67.08C271.35 66.7813 271.473 66.456 271.654 66.104C271.835 65.752 272.075 65.4533 272.374 65.208C272.673 64.952 273.019 64.824 273.414 64.824C274.193 64.824 274.582 65.3413 274.582 66.376C274.582 66.5467 274.561 66.824 274.518 67.208L274.326 68.904H277.414C277.585 67.56 277.67 66.568 277.67 65.928C277.67 65.736 277.659 65.4267 277.638 65H278.982C278.993 65.096 278.998 65.2347 278.998 65.416C278.998 65.6933 278.961 66.1627 278.886 66.824C278.822 67.4747 278.747 68.136 278.662 68.808C278.47 70.4293 278.374 71.3787 278.374 71.656C278.374 72.1253 278.518 72.36 278.806 72.36C279.009 72.36 279.217 72.2373 279.43 71.992C279.643 71.736 279.825 71.3467 279.974 70.824L280.422 70.92ZM285.858 64.824C286.583 64.824 287.298 64.9147 288.002 65.096C287.532 68.5733 287.298 70.7067 287.298 71.496C287.298 71.7733 287.324 71.992 287.378 72.152C287.431 72.3013 287.554 72.376 287.746 72.376C287.948 72.376 288.156 72.248 288.37 71.992C288.583 71.736 288.764 71.3467 288.914 70.824L289.362 70.92C289.308 71.2187 289.191 71.544 289.01 71.896C288.839 72.248 288.604 72.552 288.306 72.808C288.018 73.0533 287.676 73.176 287.282 73.176C286.492 73.176 286.098 72.696 286.098 71.736C286.098 71.2667 286.194 70.552 286.386 69.592H286.338C285.89 71 285.399 71.9493 284.866 72.44C284.332 72.9307 283.783 73.176 283.218 73.176C282.599 73.176 282.103 72.952 281.73 72.504C281.367 72.056 281.186 71.352 281.186 70.392C281.186 69.368 281.362 68.4347 281.714 67.592C282.066 66.7493 282.594 66.0773 283.298 65.576C284.002 65.0747 284.855 64.824 285.858 64.824ZM285.362 65.4C284.743 65.4 284.22 65.624 283.794 66.072C283.367 66.5093 283.047 67.0907 282.834 67.816C282.631 68.5307 282.53 69.2987 282.53 70.12C282.53 71.688 282.876 72.472 283.57 72.472C284.039 72.472 284.508 72.104 284.978 71.368C285.447 70.632 285.836 69.7253 286.146 68.648C286.455 67.56 286.61 66.5413 286.61 65.592C286.29 65.464 285.874 65.4 285.362 65.4ZM298.159 70.92C297.999 71.5707 297.743 72.1093 297.391 72.536C297.05 72.9627 296.586 73.176 295.999 73.176C295.573 73.176 295.269 73.0693 295.087 72.856C294.917 72.632 294.831 72.296 294.831 71.848C294.831 71.528 294.863 71.1707 294.927 70.776L295.087 69.816C294.693 69.88 294.245 69.9227 293.743 69.944C293.509 69.944 293.317 70.0507 293.167 70.264C293.018 70.4667 292.858 70.8507 292.687 71.416C292.527 71.9067 292.367 72.28 292.207 72.536C292.047 72.7813 291.871 72.9467 291.679 73.032C291.487 73.128 291.247 73.176 290.959 73.176C290.501 73.176 290.143 73 289.887 72.648C289.631 72.296 289.477 71.8693 289.423 71.368L289.871 71.272C289.925 71.6453 290.031 71.912 290.191 72.072C290.362 72.232 290.538 72.296 290.719 72.264C290.869 72.2427 290.997 72.152 291.103 71.992C291.221 71.8213 291.397 71.4533 291.631 70.888C291.791 70.4933 291.962 70.1947 292.143 69.992C292.335 69.7893 292.607 69.672 292.959 69.64C292.501 69.4907 292.133 69.24 291.855 68.888C291.578 68.5253 291.439 68.0773 291.439 67.544C291.439 66.9467 291.594 66.4507 291.903 66.056C292.213 65.6507 292.618 65.352 293.119 65.16C293.621 64.968 294.159 64.872 294.735 64.872C295.439 64.872 296.165 64.9307 296.911 65.048L296.079 71.656C296.069 71.7093 296.063 71.7787 296.063 71.864C296.063 72.1947 296.202 72.36 296.479 72.36C296.682 72.36 296.895 72.2373 297.119 71.992C297.343 71.736 297.541 71.3467 297.711 70.824L298.159 70.92ZM295.183 69.208C295.461 67.4693 295.621 66.3173 295.663 65.752C295.29 65.624 294.943 65.56 294.623 65.56C294.058 65.56 293.599 65.7413 293.247 66.104C292.906 66.4667 292.735 66.984 292.735 67.656C292.735 68.168 292.853 68.5787 293.087 68.888C293.322 69.1973 293.669 69.352 294.127 69.352C294.458 69.352 294.81 69.304 295.183 69.208ZM305.955 73.176C305.123 73.176 304.446 72.8827 303.923 72.296C303.411 71.7093 303.155 70.872 303.155 69.784C303.155 68.888 303.321 68.088 303.651 67.384C303.982 66.6693 304.43 66.1147 304.995 65.72C305.571 65.3253 306.206 65.128 306.899 65.128C307.614 65.128 308.126 65.336 308.435 65.752C308.307 64.376 308.019 63.32 307.571 62.584C307.134 61.8373 306.601 61.464 305.971 61.464C305.342 61.464 304.771 61.7147 304.259 62.216L303.955 61.848C304.35 61.5067 304.713 61.2613 305.043 61.112C305.385 60.952 305.747 60.872 306.131 60.872C307.358 60.872 308.27 61.464 308.867 62.648C309.465 63.8213 309.763 65.32 309.763 67.144C309.763 68.5733 309.582 69.7413 309.219 70.648C308.867 71.544 308.403 72.1893 307.827 72.584C307.262 72.9787 306.638 73.176 305.955 73.176ZM306.259 72.568C306.953 72.568 307.47 72.1307 307.811 71.256C308.163 70.3813 308.371 69.3413 308.435 68.136C308.478 67.432 308.355 66.856 308.067 66.408C307.779 65.9493 307.395 65.72 306.915 65.72C306.531 65.72 306.153 65.88 305.779 66.2C305.406 66.5093 305.097 66.9627 304.851 67.56C304.617 68.1467 304.499 68.8293 304.499 69.608C304.499 70.472 304.654 71.1813 304.963 71.736C305.283 72.2907 305.715 72.568 306.259 72.568ZM319.605 70.92C319.551 71.2187 319.439 71.544 319.269 71.896C319.098 72.2373 318.863 72.536 318.565 72.792C318.266 73.048 317.919 73.176 317.525 73.176C317.109 73.176 316.799 73.048 316.597 72.792C316.394 72.536 316.293 72.184 316.293 71.736C316.293 71.3413 316.367 70.6213 316.517 69.576C316.741 67.9227 316.853 66.7067 316.853 65.928V65.608L315.765 65.624H316.181C315.914 65.624 315.743 65.7947 315.669 66.136C315.242 68.28 314.693 69.9867 314.021 71.256C313.349 72.5253 312.49 73.16 311.445 73.16C311.146 73.16 310.895 73.0747 310.693 72.904C310.501 72.7333 310.405 72.5307 310.405 72.296C310.405 72.0933 310.474 71.9173 310.613 71.768C310.751 71.608 310.927 71.528 311.141 71.528C311.322 71.528 311.482 71.5867 311.621 71.704C311.759 71.8213 311.829 71.9707 311.829 72.152C311.829 72.2267 311.818 72.3067 311.797 72.392C312.245 72.4453 312.677 72.1413 313.093 71.48C313.519 70.808 313.887 69.944 314.197 68.888C314.517 67.8213 314.757 66.7333 314.917 65.624L313.445 65.64L313.493 65H318.165C318.175 65.096 318.181 65.2347 318.181 65.416C318.181 65.6933 318.143 66.1627 318.069 66.824C318.005 67.4747 317.93 68.136 317.845 68.808C317.653 70.4293 317.557 71.3787 317.557 71.656C317.557 72.1253 317.701 72.36 317.989 72.36C318.191 72.36 318.399 72.2373 318.613 71.992C318.826 71.736 319.007 71.3467 319.157 70.824L319.605 70.92ZM315.621 66.28V66.328V66.28ZM321.909 64.824C322.336 64.824 322.656 64.9573 322.869 65.224C323.093 65.4907 323.205 65.8747 323.205 66.376C323.205 66.76 323.12 67.56 322.949 68.776C322.939 68.872 322.891 69.2347 322.805 69.864C322.72 70.4827 322.677 71 322.677 71.416C322.677 71.672 322.731 71.9067 322.837 72.12C322.955 72.3227 323.152 72.424 323.429 72.424C323.899 72.424 324.368 72.072 324.837 71.368C325.307 70.6533 325.691 69.7787 325.989 68.744C326.299 67.7093 326.453 66.744 326.453 65.848C326.453 65.6453 326.443 65.3627 326.421 65H327.765C327.776 65.096 327.781 65.2347 327.781 65.416C327.781 65.672 327.755 66.0667 327.701 66.6C327.648 67.1333 327.568 67.8267 327.461 68.68L327.301 70.008C327.291 70.1467 327.264 70.4027 327.221 70.776C327.179 71.1493 327.157 71.4427 327.157 71.656C327.157 72.1253 327.301 72.36 327.589 72.36C327.792 72.36 328 72.2373 328.213 71.992C328.427 71.736 328.608 71.3467 328.757 70.824L329.205 70.92C329.152 71.2187 329.035 71.544 328.853 71.896C328.683 72.248 328.448 72.552 328.149 72.808C327.861 73.0533 327.52 73.176 327.125 73.176C326.709 73.176 326.4 73.048 326.197 72.792C325.995 72.536 325.893 72.184 325.893 71.736C325.893 71.2667 325.989 70.552 326.181 69.592H326.133C325.621 70.968 325.131 71.912 324.661 72.424C324.192 72.9253 323.675 73.176 323.109 73.176C322.512 73.176 322.069 72.984 321.781 72.6C321.504 72.2053 321.365 71.704 321.365 71.096C321.365 70.6373 321.392 70.1733 321.445 69.704C321.499 69.2347 321.579 68.6693 321.685 68.008C321.707 67.8907 321.744 67.6453 321.797 67.272C321.851 66.888 321.877 66.5893 321.877 66.376C321.877 66.1307 321.845 65.944 321.781 65.816C321.728 65.688 321.616 65.624 321.445 65.624C321.253 65.624 321.056 65.752 320.853 66.008C320.651 66.2533 320.475 66.6427 320.325 67.176L319.877 67.08C319.973 66.5573 320.192 66.0507 320.533 65.56C320.885 65.0693 321.344 64.824 321.909 64.824ZM338.61 70.92C338.556 71.2187 338.439 71.544 338.258 71.896C338.087 72.248 337.852 72.552 337.554 72.808C337.266 73.0533 336.924 73.176 336.53 73.176C336.114 73.176 335.804 73.048 335.602 72.792C335.399 72.536 335.298 72.184 335.298 71.736C335.298 71.448 335.356 70.856 335.474 69.96L335.522 69.512L332.434 69.544L332.146 71.992C332.124 72.2053 332.114 72.36 332.114 72.456C332.114 72.6373 332.13 72.8187 332.162 73H330.818C330.807 72.904 330.802 72.7653 330.802 72.584C330.812 72.1893 330.908 71.3733 331.09 70.136L331.186 69.384L331.282 68.696C331.378 67.9813 331.442 67.464 331.474 67.144C331.516 66.8133 331.538 66.5467 331.538 66.344C331.559 65.864 331.42 65.624 331.122 65.624C330.919 65.624 330.706 65.752 330.482 66.008C330.268 66.264 330.082 66.6533 329.922 67.176L329.474 67.08C329.538 66.7813 329.66 66.456 329.842 66.104C330.023 65.752 330.263 65.4533 330.562 65.208C330.86 64.952 331.207 64.824 331.602 64.824C332.38 64.824 332.77 65.3413 332.77 66.376C332.77 66.5467 332.748 66.824 332.706 67.208L332.514 68.904H335.602C335.772 67.56 335.858 66.568 335.858 65.928C335.858 65.736 335.847 65.4267 335.826 65H337.17C337.18 65.096 337.186 65.2347 337.186 65.416C337.186 65.6933 337.148 66.1627 337.074 66.824C337.01 67.4747 336.935 68.136 336.85 68.808C336.658 70.4293 336.562 71.3787 336.562 71.656C336.562 72.1253 336.706 72.36 336.994 72.36C337.196 72.36 337.404 72.2373 337.618 71.992C337.831 71.736 338.012 71.3467 338.162 70.824L338.61 70.92ZM344.045 64.824C344.771 64.824 345.485 64.9147 346.189 65.096C345.72 68.5733 345.485 70.7067 345.485 71.496C345.485 71.7733 345.512 71.992 345.565 72.152C345.619 72.3013 345.741 72.376 345.933 72.376C346.136 72.376 346.344 72.248 346.557 71.992C346.771 71.736 346.952 71.3467 347.101 70.824L347.549 70.92C347.496 71.2187 347.379 71.544 347.197 71.896C347.027 72.248 346.792 72.552 346.493 72.808C346.205 73.0533 345.864 73.176 345.469 73.176C344.68 73.176 344.285 72.696 344.285 71.736C344.285 71.2667 344.381 70.552 344.573 69.592H344.525C344.077 71 343.587 71.9493 343.053 72.44C342.52 72.9307 341.971 73.176 341.405 73.176C340.787 73.176 340.291 72.952 339.917 72.504C339.555 72.056 339.373 71.352 339.373 70.392C339.373 69.368 339.549 68.4347 339.901 67.592C340.253 66.7493 340.781 66.0773 341.485 65.576C342.189 65.0747 343.043 64.824 344.045 64.824ZM343.549 65.4C342.931 65.4 342.408 65.624 341.981 66.072C341.555 66.5093 341.235 67.0907 341.021 67.816C340.819 68.5307 340.717 69.2987 340.717 70.12C340.717 71.688 341.064 72.472 341.757 72.472C342.227 72.472 342.696 72.104 343.165 71.368C343.635 70.632 344.024 69.7253 344.333 68.648C344.643 67.56 344.797 66.5413 344.797 65.592C344.477 65.464 344.061 65.4 343.549 65.4ZM360.566 71.368C360.459 71.88 360.257 72.312 359.958 72.664C359.659 73.0053 359.259 73.176 358.758 73.176C358.363 73.176 358.059 73.0267 357.846 72.728C357.643 72.4293 357.51 71.88 357.446 71.08C357.382 70.3333 357.259 69.816 357.078 69.528C356.897 69.24 356.614 69.096 356.23 69.096L354.902 69.112C354.721 70.52 354.641 71.5227 354.662 72.12C354.662 72.28 354.673 72.5733 354.694 73H353.366L353.35 72.808L353.366 72.584C353.366 71.9973 353.467 70.904 353.67 69.304C353.766 68.4827 353.851 67.8427 353.926 67.384C353.99 66.8613 354.022 66.504 354.022 66.312C354.022 66.0987 353.995 65.9333 353.942 65.816C353.889 65.688 353.777 65.624 353.606 65.624C353.403 65.624 353.19 65.752 352.966 66.008C352.753 66.264 352.566 66.6533 352.406 67.176L351.958 67.08C352.022 66.7813 352.145 66.456 352.326 66.104C352.507 65.752 352.747 65.4533 353.046 65.208C353.345 64.952 353.691 64.824 354.086 64.824C354.502 64.824 354.795 64.9413 354.966 65.176C355.147 65.4107 355.238 65.768 355.238 66.248C355.238 66.5147 355.201 66.92 355.126 67.464L354.966 68.648H355.478C355.947 68.648 356.315 68.52 356.582 68.264C356.859 68.008 357.121 67.56 357.366 66.92C357.643 66.152 357.937 65.6133 358.246 65.304C358.566 64.984 358.971 64.824 359.462 64.824C359.739 64.824 359.958 64.904 360.118 65.064C360.278 65.224 360.358 65.4373 360.358 65.704C360.358 65.928 360.289 66.12 360.15 66.28C360.022 66.44 359.841 66.52 359.606 66.52C359.339 66.52 359.131 66.4613 358.982 66.344C358.833 66.2267 358.747 66.0613 358.726 65.848C358.577 65.944 358.443 66.088 358.326 66.28C358.209 66.472 358.075 66.776 357.926 67.192C357.787 67.576 357.617 67.9067 357.414 68.184C357.211 68.4613 356.987 68.664 356.742 68.792C357.894 68.824 358.534 69.4533 358.662 70.68C358.726 71.3093 358.801 71.736 358.886 71.96C358.982 72.1733 359.153 72.28 359.398 72.28C359.558 72.28 359.697 72.2053 359.814 72.056C359.931 71.896 360.033 71.64 360.118 71.288L360.566 71.368ZM367.114 64.824C367.562 64.824 367.887 65.0213 368.09 65.416C368.292 65.8107 368.394 66.296 368.394 66.872C368.394 67.8427 368.202 68.8613 367.818 69.928C367.434 70.984 366.916 72.0987 366.266 73.272C365.498 74.68 364.767 75.7093 364.074 76.36C363.38 77.0107 362.703 77.336 362.042 77.336C361.658 77.336 361.343 77.24 361.098 77.048C360.863 76.856 360.745 76.616 360.745 76.328C360.745 76.104 360.815 75.9227 360.954 75.784C361.092 75.656 361.242 75.592 361.402 75.592C361.626 75.592 361.796 75.6613 361.914 75.8C362.042 75.9493 362.1 76.1573 362.09 76.424C362.239 76.4987 362.356 76.536 362.442 76.536C362.847 76.5573 363.279 76.3013 363.738 75.768C364.207 75.2347 364.591 74.712 364.89 74.2C364.698 72.888 364.431 71.5653 364.09 70.232C363.748 68.8987 363.364 67.7147 362.938 66.68C362.81 66.4027 362.698 66.2 362.602 66.072C362.506 65.9333 362.372 65.864 362.202 65.864C362.02 65.864 361.871 65.976 361.754 66.2C361.647 66.424 361.594 66.728 361.594 67.112C361.594 67.2933 361.599 67.432 361.61 67.528L361.098 67.592C361.087 67.4853 361.082 67.3253 361.082 67.112C361.082 66.4827 361.194 65.944 361.418 65.496C361.652 65.048 362.031 64.824 362.554 64.824C363.034 64.824 363.407 64.9947 363.674 65.336C363.94 65.6667 364.17 66.0987 364.362 66.632C364.575 67.208 364.767 67.832 364.938 68.504C365.108 69.1653 365.311 70.0187 365.546 71.064C365.61 71.3733 365.69 71.9173 365.786 72.696H365.818C366.33 71.8 366.762 70.8613 367.114 69.88C367.466 68.888 367.642 67.992 367.642 67.192C367.642 66.936 367.615 66.7067 367.562 66.504C367.519 66.3013 367.466 66.152 367.402 66.056C367.306 66.12 367.172 66.152 367.002 66.152C366.81 66.152 366.655 66.0933 366.538 65.976C366.42 65.848 366.362 65.6987 366.362 65.528C366.362 65.304 366.436 65.1333 366.586 65.016C366.735 64.888 366.911 64.824 367.114 64.824ZM375.412 64.824C376.116 64.824 376.65 65.1173 377.012 65.704C377.386 66.2907 377.572 67.032 377.572 67.928C377.572 68.9733 377.391 69.8907 377.028 70.68C376.666 71.4693 376.127 72.0827 375.412 72.52C374.708 72.9573 373.855 73.176 372.852 73.176C372.596 73.176 372.346 73.16 372.1 73.128L371.972 75.144C371.962 75.2187 371.956 75.336 371.956 75.496C371.935 75.912 371.898 76.2373 371.844 76.472L372.852 76.424V77.08H369.828V76.6C370.084 76.6 370.276 76.52 370.404 76.36C370.532 76.2 370.618 75.992 370.66 75.736C370.714 75.4907 370.756 75.1387 370.788 74.68C370.788 74.5413 370.794 74.4347 370.804 74.36C370.9 73.2293 371.044 71.6133 371.236 69.512C371.407 67.752 371.492 66.7387 371.492 66.472C371.492 66.1947 371.466 65.9867 371.412 65.848C371.359 65.6987 371.242 65.624 371.06 65.624C370.858 65.624 370.65 65.752 370.436 66.008C370.234 66.264 370.058 66.6533 369.908 67.176L369.444 67.08C369.498 66.7813 369.61 66.456 369.78 66.104C369.962 65.752 370.196 65.4533 370.484 65.208C370.783 64.952 371.13 64.824 371.524 64.824C372.335 64.824 372.74 65.384 372.74 66.504C372.74 66.9733 372.666 67.5813 372.516 68.328H372.564C372.97 66.984 373.407 66.0667 373.876 65.576C374.346 65.0747 374.858 64.824 375.412 64.824ZM375.076 65.576C374.703 65.576 374.33 65.8373 373.956 66.36C373.583 66.872 373.252 67.544 372.964 68.376C372.676 69.1973 372.463 70.0453 372.324 70.92C372.26 71.2933 372.202 71.8 372.148 72.44C372.532 72.568 372.858 72.632 373.124 72.632C373.828 72.632 374.41 72.4133 374.868 71.976C375.338 71.528 375.674 70.968 375.876 70.296C376.09 69.6133 376.196 68.92 376.196 68.216C376.196 67.3947 376.111 66.7493 375.94 66.28C375.77 65.8107 375.482 65.576 375.076 65.576ZM382.745 64.824C383.193 64.824 383.598 64.9093 383.961 65.08C384.334 65.24 384.622 65.464 384.825 65.752C385.038 66.0293 385.145 66.344 385.145 66.696C385.145 66.9413 385.081 67.1333 384.953 67.272C384.825 67.4107 384.654 67.48 384.441 67.48C384.228 67.48 384.062 67.4107 383.945 67.272C383.838 67.1333 383.785 66.9893 383.785 66.84C383.785 66.584 383.854 66.3813 383.993 66.232C383.94 65.944 383.796 65.7307 383.561 65.592C383.337 65.4533 383.06 65.384 382.729 65.384C381.886 65.384 381.273 65.7787 380.889 66.568C380.516 67.3573 380.329 68.2693 380.329 69.304C380.329 70.3707 380.5 71.1547 380.841 71.656C381.193 72.1467 381.673 72.392 382.281 72.392C382.75 72.392 383.204 72.2373 383.641 71.928C384.078 71.608 384.441 71.0907 384.729 70.376L385.289 70.648C384.905 71.5333 384.43 72.1787 383.865 72.584C383.3 72.9787 382.681 73.176 382.009 73.176C381.038 73.176 380.281 72.888 379.737 72.312C379.193 71.7253 378.921 70.8453 378.921 69.672C378.921 68.9253 379.06 68.1787 379.337 67.432C379.625 66.6853 380.057 66.0667 380.633 65.576C381.209 65.0747 381.913 64.824 382.745 64.824ZM391.123 64.824C391.849 64.824 392.563 64.9147 393.267 65.096C392.798 68.5733 392.563 70.7067 392.563 71.496C392.563 71.7733 392.59 71.992 392.643 72.152C392.697 72.3013 392.819 72.376 393.011 72.376C393.214 72.376 393.422 72.248 393.635 71.992C393.849 71.736 394.03 71.3467 394.179 70.824L394.627 70.92C394.574 71.2187 394.457 71.544 394.275 71.896C394.105 72.248 393.87 72.552 393.571 72.808C393.283 73.0533 392.942 73.176 392.547 73.176C391.758 73.176 391.363 72.696 391.363 71.736C391.363 71.2667 391.459 70.552 391.651 69.592H391.603C391.155 71 390.665 71.9493 390.131 72.44C389.598 72.9307 389.049 73.176 388.483 73.176C387.865 73.176 387.369 72.952 386.995 72.504C386.633 72.056 386.451 71.352 386.451 70.392C386.451 69.368 386.627 68.4347 386.979 67.592C387.331 66.7493 387.859 66.0773 388.563 65.576C389.267 65.0747 390.121 64.824 391.123 64.824ZM390.627 65.4C390.009 65.4 389.486 65.624 389.059 66.072C388.633 66.5093 388.313 67.0907 388.099 67.816C387.897 68.5307 387.795 69.2987 387.795 70.12C387.795 71.688 388.142 72.472 388.835 72.472C389.305 72.472 389.774 72.104 390.243 71.368C390.713 70.632 391.102 69.7253 391.411 68.648C391.721 67.56 391.875 66.5413 391.875 65.592C391.555 65.464 391.139 65.4 390.627 65.4Z" fill="#A7A7A7"/>
<path d="M155.768 28.208L132.08 28.712L131.144 44.624C134.12 43.376 137.408 42.752 141.008 42.752C146.24 42.752 150.08 44.24 152.528 47.216C155.024 50.144 156.272 53.72 156.272 57.944C156.272 61.592 155.432 64.712 153.752 67.304C152.12 69.896 149.912 71.864 147.128 73.208C144.344 74.504 141.296 75.152 137.984 75.152C135.152 75.152 132.728 74.696 130.712 73.784C128.696 72.824 127.16 71.6 126.104 70.112C125.096 68.624 124.592 67.064 124.592 65.432C124.592 64.184 124.928 63.176 125.6 62.408C126.272 61.64 127.112 61.256 128.12 61.256C129.08 61.256 129.848 61.568 130.424 62.192C131.048 62.816 131.36 63.56 131.36 64.424C131.36 65.576 131.024 66.56 130.352 67.376C130.4 68.96 131.192 70.184 132.728 71.048C134.312 71.912 136.064 72.344 137.984 72.344C141.44 72.344 144.128 71.168 146.048 68.816C148.016 66.464 149.048 63.608 149.144 60.248L149.216 58.448C149.216 54.992 148.448 52.064 146.912 49.664C145.424 47.216 142.64 45.992 138.56 45.992C137.216 45.992 135.776 46.208 134.24 46.64C132.704 47.024 131.264 47.624 129.92 48.44L127.976 46.64L129.128 23.6H147.416C150.056 23.6 151.952 23.24 153.104 22.52C154.256 21.752 154.88 20.552 154.976 18.92H156.848L155.768 28.208Z" fill="#A8A8A8"/>
<circle cx="115.5" cy="61.5" r="31" stroke="#3688DF" stroke-opacity="0.14"/>
<g filter="url(#filter0_d)">
<circle cx="84.5" cy="88.5" r="4.5" fill="#36DFB6" style="mix-blend-mode:multiply"/>
</g>
<defs>
<filter id="filter0_d" x="0" y="84" width="169" height="189" filterUnits="userSpaceOnUse" color-interpolation-filters="sRGB">
<feFlood flood-opacity="0" result="BackgroundImageFix"/>
<feColorMatrix in="SourceAlpha" type="matrix" values="0 0 0 0 0 0 0 0 0 0 0 0 0 0 0 0 0 0 127 0"/>
<feOffset dy="100"/>
<feGaussianBlur stdDeviation="40"/>
<feColorMatrix type="matrix" values="0 0 0 0 0.807929 0 0 0 0 0.797289 0 0 0 0 0.797289 0 0 0 0.2 0"/>
<feBlend mode="normal" in2="BackgroundImageFix" result="effect1_dropShadow"/>
<feBlend mode="normal" in="SourceGraphic" in2="effect1_dropShadow" result="shape"/>
</filter>
</defs>
</svg>
