<svg width="372" height="265" viewBox="0 0 372 265" fill="none" xmlns="http://www.w3.org/2000/svg">
<path d="M227.32 52.92C227.267 53.2187 227.149 53.544 226.968 53.896C226.797 54.248 226.557 54.552 226.248 54.808C225.949 55.0533 225.597 55.176 225.192 55.176C224.787 55.176 224.488 55.048 224.296 54.792C224.104 54.536 224.008 54.184 224.008 53.736C224.008 53.448 224.045 53.0693 224.12 52.6C224.195 52.12 224.307 51.4533 224.456 50.6C224.627 49.6507 224.76 48.8347 224.856 48.152H224.76C224.067 50.0933 223.517 51.544 223.112 52.504C222.707 53.4533 222.323 54.136 221.96 54.552C221.608 54.968 221.213 55.176 220.776 55.176C220.392 55.176 220.12 55.032 219.96 54.744C219.811 54.456 219.736 53.96 219.736 53.256C219.736 50.5573 219.795 48.856 219.912 48.152H219.784C219.219 50.136 218.781 51.5653 218.472 52.44C218.173 53.3147 217.827 53.9867 217.432 54.456C217.048 54.9253 216.563 55.16 215.976 55.16C215.677 55.16 215.427 55.0747 215.224 54.904C215.032 54.7333 214.936 54.5307 214.936 54.296C214.936 54.0933 215.005 53.9173 215.144 53.768C215.283 53.608 215.459 53.528 215.672 53.528C215.853 53.528 216.013 53.5867 216.152 53.704C216.291 53.8213 216.36 53.9707 216.36 54.152C216.36 54.2267 216.349 54.3067 216.328 54.392C216.701 54.4133 217.117 53.8907 217.576 52.824C218.035 51.7573 218.568 50.024 219.176 47.624L217.736 47.64L217.8 47H220.968C221 47.1707 221.016 47.352 221.016 47.544C221.016 48.024 221.005 48.7227 220.984 49.64L220.968 51.688C220.968 52.0613 220.979 52.632 221 53.4C221.021 53.784 221.043 54.0347 221.064 54.152C221.096 54.2693 221.16 54.328 221.256 54.328C221.469 54.328 221.843 53.736 222.376 52.552C222.92 51.368 223.624 49.5173 224.488 47H225.96C225.971 47.096 225.976 47.2347 225.976 47.416C225.976 47.8853 225.848 49.016 225.592 50.808C225.517 51.4053 225.443 51.9813 225.368 52.536C225.304 53.08 225.272 53.4533 225.272 53.656C225.272 54.1253 225.405 54.36 225.672 54.36C225.885 54.36 226.099 54.2373 226.312 53.992C226.536 53.736 226.723 53.3467 226.872 52.824L227.32 52.92ZM239.82 52.92C239.767 53.2187 239.649 53.544 239.468 53.896C239.297 54.248 239.057 54.552 238.748 54.808C238.449 55.0533 238.097 55.176 237.692 55.176C237.287 55.176 236.988 55.048 236.796 54.792C236.604 54.536 236.508 54.184 236.508 53.736C236.508 53.448 236.545 53.0693 236.62 52.6C236.695 52.12 236.807 51.4533 236.956 50.6C237.127 49.6507 237.26 48.8347 237.356 48.152H237.26C236.567 50.0933 236.017 51.544 235.612 52.504C235.207 53.4533 234.823 54.136 234.46 54.552C234.108 54.968 233.713 55.176 233.276 55.176C232.892 55.176 232.62 55.032 232.46 54.744C232.311 54.456 232.236 53.96 232.236 53.256C232.236 50.5573 232.295 48.856 232.412 48.152H232.284C231.719 50.136 231.281 51.5653 230.972 52.44C230.673 53.3147 230.327 53.9867 229.932 54.456C229.548 54.9253 229.063 55.16 228.476 55.16C228.177 55.16 227.927 55.0747 227.724 54.904C227.532 54.7333 227.436 54.5307 227.436 54.296C227.436 54.0933 227.505 53.9173 227.644 53.768C227.783 53.608 227.959 53.528 228.172 53.528C228.353 53.528 228.513 53.5867 228.652 53.704C228.791 53.8213 228.86 53.9707 228.86 54.152C228.86 54.2267 228.849 54.3067 228.828 54.392C229.201 54.4133 229.617 53.8907 230.076 52.824C230.535 51.7573 231.068 50.024 231.676 47.624L230.236 47.64L230.3 47H233.468C233.5 47.1707 233.516 47.352 233.516 47.544C233.516 48.024 233.505 48.7227 233.484 49.64L233.468 51.688C233.468 52.0613 233.479 52.632 233.5 53.4C233.521 53.784 233.543 54.0347 233.564 54.152C233.596 54.2693 233.66 54.328 233.756 54.328C233.969 54.328 234.343 53.736 234.876 52.552C235.42 51.368 236.124 49.5173 236.988 47H238.46C238.471 47.096 238.476 47.2347 238.476 47.416C238.476 47.8853 238.348 49.016 238.092 50.808C238.017 51.4053 237.943 51.9813 237.868 52.536C237.804 53.08 237.772 53.4533 237.772 53.656C237.772 54.1253 237.905 54.36 238.172 54.36C238.385 54.36 238.599 54.2373 238.812 53.992C239.036 53.736 239.223 53.3467 239.372 52.824L239.82 52.92ZM254.811 46.824C255.408 46.824 255.835 47.016 256.091 47.4C256.358 47.784 256.491 48.2853 256.491 48.904C256.491 49.352 256.464 49.8053 256.411 50.264C256.358 50.712 256.278 51.2827 256.171 51.976C256.032 52.8293 255.963 53.384 255.963 53.64C255.963 53.8747 255.99 54.056 256.043 54.184C256.107 54.312 256.224 54.376 256.395 54.376C256.598 54.376 256.806 54.2533 257.019 54.008C257.243 53.752 257.43 53.3573 257.579 52.824L258.027 52.936C257.974 53.2347 257.856 53.56 257.675 53.912C257.504 54.2533 257.27 54.552 256.971 54.808C256.672 55.0533 256.326 55.176 255.931 55.176C255.451 55.176 255.115 55.0533 254.923 54.808C254.742 54.552 254.651 54.1627 254.651 53.64C254.651 53.2027 254.736 52.4987 254.907 51.528C254.918 51.432 254.955 51.1707 255.019 50.744C255.083 50.3067 255.131 49.9067 255.163 49.544C255.206 49.1707 255.227 48.84 255.227 48.552C255.227 48.3067 255.168 48.0827 255.051 47.88C254.934 47.6773 254.736 47.576 254.459 47.576C253.979 47.576 253.51 47.928 253.051 48.632C252.603 49.336 252.235 50.2053 251.947 51.24C251.67 52.2747 251.531 53.2453 251.531 54.152C251.531 54.3547 251.542 54.6373 251.563 55H250.219C250.208 54.904 250.203 54.7653 250.203 54.584C250.203 54.232 250.235 53.7627 250.299 53.176C250.363 52.5893 250.432 52.008 250.507 51.432C250.688 50.0453 250.779 49.1013 250.779 48.6C250.779 47.9173 250.523 47.576 250.011 47.576C249.542 47.576 249.078 47.928 248.619 48.632C248.171 49.336 247.803 50.2107 247.515 51.256C247.227 52.2907 247.083 53.256 247.083 54.152C247.083 54.3547 247.094 54.6373 247.115 55H245.771C245.76 54.904 245.755 54.7653 245.755 54.584C245.755 54.3173 245.776 53.9333 245.819 53.432C245.872 52.92 245.952 52.2373 246.059 51.384L246.251 49.72C246.294 49.3467 246.326 49.064 246.347 48.872C246.368 48.6693 246.379 48.4933 246.379 48.344C246.379 48.12 246.347 47.944 246.283 47.816C246.23 47.688 246.118 47.624 245.947 47.624C245.744 47.624 245.536 47.752 245.323 48.008C245.11 48.264 244.928 48.6533 244.779 49.176L244.331 49.08C244.384 48.7813 244.496 48.456 244.667 48.104C244.848 47.752 245.083 47.4533 245.371 47.208C245.67 46.952 246.016 46.824 246.411 46.824C247.211 46.824 247.611 47.3573 247.611 48.424C247.611 48.7227 247.579 49.0533 247.515 49.416C247.462 49.7787 247.408 50.104 247.355 50.392H247.403C247.862 49.0587 248.336 48.1307 248.827 47.608C249.318 47.0853 249.819 46.824 250.331 46.824C250.918 46.824 251.35 47.0107 251.627 47.384C251.904 47.7573 252.043 48.1787 252.043 48.648C252.043 48.9253 252.027 49.16 251.995 49.352C251.963 49.5333 251.888 49.864 251.771 50.344H251.819C252.299 49.0107 252.79 48.0933 253.291 47.592C253.792 47.08 254.299 46.824 254.811 46.824ZM262.795 46.824C263.371 46.824 263.888 46.9627 264.347 47.24C264.816 47.5173 265.179 47.9227 265.435 48.456C265.701 48.9787 265.835 49.6027 265.835 50.328C265.835 51.2027 265.675 52.008 265.355 52.744C265.045 53.48 264.592 54.072 263.995 54.52C263.408 54.9573 262.715 55.176 261.915 55.176C260.901 55.176 260.133 54.8453 259.611 54.184C259.099 53.512 258.843 52.648 258.843 51.592C258.843 50.7173 259.003 49.9173 259.323 49.192C259.643 48.4667 260.101 47.8907 260.699 47.464C261.296 47.0373 261.995 46.824 262.795 46.824ZM262.539 47.416C262.069 47.416 261.659 47.5867 261.307 47.928C260.965 48.2587 260.704 48.7173 260.523 49.304C260.341 49.88 260.251 50.5253 260.251 51.24C260.251 52.1253 260.395 52.904 260.683 53.576C260.971 54.2373 261.44 54.568 262.091 54.568C262.635 54.568 263.077 54.36 263.419 53.944C263.771 53.528 264.027 53.016 264.187 52.408C264.347 51.8 264.427 51.208 264.427 50.632C264.427 49.736 264.283 48.9787 263.995 48.36C263.717 47.7307 263.232 47.416 262.539 47.416ZM275.699 52.92C275.645 53.2187 275.533 53.544 275.363 53.896C275.192 54.2373 274.957 54.536 274.659 54.792C274.36 55.048 274.013 55.176 273.619 55.176C273.203 55.176 272.893 55.048 272.691 54.792C272.488 54.536 272.387 54.184 272.387 53.736C272.387 53.3413 272.461 52.6213 272.611 51.576C272.835 49.9227 272.947 48.7067 272.947 47.928V47.608L271.859 47.624H272.275C272.008 47.624 271.837 47.7947 271.763 48.136C271.336 50.28 270.787 51.9867 270.115 53.256C269.443 54.5253 268.584 55.16 267.539 55.16C267.24 55.16 266.989 55.0747 266.787 54.904C266.595 54.7333 266.498 54.5307 266.498 54.296C266.498 54.0933 266.568 53.9173 266.707 53.768C266.845 53.608 267.021 53.528 267.235 53.528C267.416 53.528 267.576 53.5867 267.715 53.704C267.853 53.8213 267.923 53.9707 267.923 54.152C267.923 54.2267 267.912 54.3067 267.891 54.392C268.339 54.4453 268.771 54.1413 269.187 53.48C269.613 52.808 269.981 51.944 270.291 50.888C270.611 49.8213 270.851 48.7333 271.011 47.624L269.539 47.64L269.587 47H274.259C274.269 47.096 274.275 47.2347 274.275 47.416C274.275 47.6933 274.237 48.1627 274.163 48.824C274.099 49.4747 274.024 50.136 273.939 50.808C273.747 52.4293 273.651 53.3787 273.651 53.656C273.651 54.1253 273.795 54.36 274.083 54.36C274.285 54.36 274.493 54.2373 274.707 53.992C274.92 53.736 275.101 53.3467 275.251 52.824L275.699 52.92ZM271.715 48.28V48.328V48.28ZM289.523 55.208C289.694 55.4853 289.779 55.784 289.779 56.104C289.779 56.8507 289.32 57.6133 288.403 58.392L288.035 58.024C288.472 57.48 288.691 57.032 288.691 56.68C288.691 56.52 288.659 56.376 288.595 56.248C288.542 56.1307 288.515 55.9867 288.515 55.816C288.515 55.5493 288.606 55.272 288.787 54.984L288.595 54.888C288.318 55.08 288.014 55.176 287.683 55.176C286.883 55.176 286.483 54.6427 286.483 53.576C286.483 53.2773 286.51 52.9467 286.563 52.584C286.627 52.2213 286.686 51.896 286.739 51.608H286.691C286.232 52.9413 285.758 53.8693 285.267 54.392C284.776 54.9147 284.275 55.176 283.763 55.176C283.176 55.176 282.744 54.9893 282.467 54.616C282.19 54.2427 282.051 53.8213 282.051 53.352C282.051 53.0747 282.067 52.8453 282.099 52.664C282.131 52.472 282.206 52.136 282.323 51.656H282.275C281.795 52.9893 281.304 53.912 280.803 54.424C280.302 54.9253 279.795 55.176 279.283 55.176C278.686 55.176 278.254 54.984 277.987 54.6C277.731 54.216 277.603 53.7147 277.603 53.096C277.603 52.648 277.63 52.2 277.683 51.752C277.736 51.2933 277.816 50.7173 277.923 50.024C278.062 49.1707 278.131 48.616 278.131 48.36C278.131 48.1253 278.099 47.944 278.035 47.816C277.982 47.688 277.87 47.624 277.699 47.624C277.496 47.624 277.283 47.752 277.059 48.008C276.846 48.2533 276.664 48.6427 276.515 49.176L276.067 49.064C276.12 48.7653 276.232 48.4453 276.403 48.104C276.584 47.752 276.824 47.4533 277.123 47.208C277.422 46.952 277.768 46.824 278.163 46.824C278.643 46.824 278.974 46.952 279.155 47.208C279.347 47.4533 279.443 47.8373 279.443 48.36C279.443 48.7973 279.358 49.5013 279.187 50.472C279.176 50.568 279.139 50.8347 279.075 51.272C279.011 51.6987 278.958 52.0987 278.915 52.472C278.883 52.8347 278.867 53.16 278.867 53.448C278.867 53.6933 278.926 53.9173 279.043 54.12C279.16 54.3227 279.358 54.424 279.635 54.424C280.115 54.424 280.579 54.072 281.027 53.368C281.486 52.664 281.854 51.7947 282.131 50.76C282.419 49.7253 282.563 48.7547 282.563 47.848C282.563 47.6453 282.552 47.3627 282.531 47H283.875C283.886 47.096 283.891 47.2347 283.891 47.416C283.891 47.768 283.859 48.2373 283.795 48.824C283.731 49.4107 283.662 49.992 283.587 50.568C283.406 51.9547 283.315 52.8987 283.315 53.4C283.315 54.0827 283.571 54.424 284.083 54.424C284.552 54.424 285.011 54.072 285.459 53.368C285.918 52.664 286.291 51.7947 286.579 50.76C286.867 49.7147 287.011 48.744 287.011 47.848C287.011 47.6453 287 47.3627 286.979 47H288.323C288.334 47.096 288.339 47.2347 288.339 47.416C288.339 47.6827 288.312 48.072 288.259 48.584C288.216 49.0853 288.142 49.7627 288.035 50.616L287.843 52.28C287.8 52.6533 287.768 52.9413 287.747 53.144C287.726 53.336 287.715 53.5067 287.715 53.656C287.715 53.88 287.742 54.056 287.795 54.184C287.859 54.312 287.976 54.376 288.147 54.376C288.254 54.376 288.366 54.3387 288.483 54.264C288.611 54.1893 288.734 54.0827 288.851 53.944L289.331 52.824L289.779 52.952L289.427 53.928C289.352 54.152 289.315 54.3493 289.315 54.52C289.315 54.7653 289.384 54.9947 289.523 55.208ZM292.628 46.824C293.055 46.824 293.375 46.9573 293.588 47.224C293.812 47.4907 293.924 47.8747 293.924 48.376C293.924 48.76 293.839 49.56 293.668 50.776C293.657 50.872 293.609 51.2347 293.524 51.864C293.439 52.4827 293.396 53 293.396 53.416C293.396 53.672 293.449 53.9067 293.556 54.12C293.673 54.3227 293.871 54.424 294.148 54.424C294.617 54.424 295.087 54.072 295.556 53.368C296.025 52.6533 296.409 51.7787 296.708 50.744C297.017 49.7093 297.172 48.744 297.172 47.848C297.172 47.6453 297.161 47.3627 297.14 47H298.484C298.495 47.096 298.5 47.2347 298.5 47.416C298.5 47.672 298.473 48.0667 298.42 48.6C298.367 49.1333 298.287 49.8267 298.18 50.68L298.02 52.008C298.009 52.1467 297.983 52.4027 297.94 52.776C297.897 53.1493 297.876 53.4427 297.876 53.656C297.876 54.1253 298.02 54.36 298.308 54.36C298.511 54.36 298.719 54.2373 298.932 53.992C299.145 53.736 299.327 53.3467 299.476 52.824L299.924 52.92C299.871 53.2187 299.753 53.544 299.572 53.896C299.401 54.248 299.167 54.552 298.868 54.808C298.58 55.0533 298.239 55.176 297.844 55.176C297.428 55.176 297.119 55.048 296.916 54.792C296.713 54.536 296.612 54.184 296.612 53.736C296.612 53.2667 296.708 52.552 296.9 51.592H296.852C296.34 52.968 295.849 53.912 295.38 54.424C294.911 54.9253 294.393 55.176 293.828 55.176C293.231 55.176 292.788 54.984 292.5 54.6C292.223 54.2053 292.084 53.704 292.084 53.096C292.084 52.6373 292.111 52.1733 292.164 51.704C292.217 51.2347 292.297 50.6693 292.404 50.008C292.425 49.8907 292.463 49.6453 292.516 49.272C292.569 48.888 292.596 48.5893 292.596 48.376C292.596 48.1307 292.564 47.944 292.5 47.816C292.447 47.688 292.335 47.624 292.164 47.624C291.972 47.624 291.775 47.752 291.572 48.008C291.369 48.2533 291.193 48.6427 291.044 49.176L290.596 49.08C290.692 48.5573 290.911 48.0507 291.252 47.56C291.604 47.0693 292.063 46.824 292.628 46.824ZM309.328 52.92C309.275 53.2187 309.158 53.544 308.976 53.896C308.806 54.248 308.571 54.552 308.272 54.808C307.984 55.0533 307.643 55.176 307.248 55.176C306.832 55.176 306.523 55.048 306.32 54.792C306.118 54.536 306.016 54.184 306.016 53.736C306.016 53.448 306.075 52.856 306.192 51.96L306.24 51.512L303.152 51.544L302.864 53.992C302.843 54.2053 302.832 54.36 302.832 54.456C302.832 54.6373 302.848 54.8187 302.88 55H301.536C301.526 54.904 301.52 54.7653 301.52 54.584C301.531 54.1893 301.627 53.3733 301.808 52.136L301.904 51.384L302 50.696C302.096 49.9813 302.16 49.464 302.192 49.144C302.235 48.8133 302.256 48.5467 302.256 48.344C302.278 47.864 302.139 47.624 301.84 47.624C301.638 47.624 301.424 47.752 301.2 48.008C300.987 48.264 300.8 48.6533 300.64 49.176L300.192 49.08C300.256 48.7813 300.379 48.456 300.56 48.104C300.742 47.752 300.982 47.4533 301.28 47.208C301.579 46.952 301.926 46.824 302.32 46.824C303.099 46.824 303.488 47.3413 303.488 48.376C303.488 48.5467 303.467 48.824 303.424 49.208L303.232 50.904H306.32C306.491 49.56 306.576 48.568 306.576 47.928C306.576 47.736 306.566 47.4267 306.544 47H307.888C307.899 47.096 307.904 47.2347 307.904 47.416C307.904 47.6933 307.867 48.1627 307.792 48.824C307.728 49.4747 307.654 50.136 307.568 50.808C307.376 52.4293 307.28 53.3787 307.28 53.656C307.28 54.1253 307.424 54.36 307.712 54.36C307.915 54.36 308.123 54.2373 308.336 53.992C308.55 53.736 308.731 53.3467 308.88 52.824L309.328 52.92ZM314.764 46.824C315.489 46.824 316.204 46.9147 316.908 47.096C316.439 50.5733 316.204 52.7067 316.204 53.496C316.204 53.7733 316.231 53.992 316.284 54.152C316.337 54.3013 316.46 54.376 316.652 54.376C316.855 54.376 317.063 54.248 317.276 53.992C317.489 53.736 317.671 53.3467 317.82 52.824L318.268 52.92C318.215 53.2187 318.097 53.544 317.916 53.896C317.745 54.248 317.511 54.552 317.212 54.808C316.924 55.0533 316.583 55.176 316.188 55.176C315.399 55.176 315.004 54.696 315.004 53.736C315.004 53.2667 315.1 52.552 315.292 51.592H315.244C314.796 53 314.305 53.9493 313.772 54.44C313.239 54.9307 312.689 55.176 312.124 55.176C311.505 55.176 311.009 54.952 310.636 54.504C310.273 54.056 310.092 53.352 310.092 52.392C310.092 51.368 310.268 50.4347 310.62 49.592C310.972 48.7493 311.5 48.0773 312.204 47.576C312.908 47.0747 313.761 46.824 314.764 46.824ZM314.268 47.4C313.649 47.4 313.127 47.624 312.7 48.072C312.273 48.5093 311.953 49.0907 311.74 49.816C311.537 50.5307 311.436 51.2987 311.436 52.12C311.436 53.688 311.783 54.472 312.476 54.472C312.945 54.472 313.415 54.104 313.884 53.368C314.353 52.632 314.743 51.7253 315.052 50.648C315.361 49.56 315.516 48.5413 315.516 47.592C315.196 47.464 314.78 47.4 314.268 47.4ZM331.285 53.368C331.178 53.88 330.975 54.312 330.677 54.664C330.378 55.0053 329.978 55.176 329.477 55.176C329.082 55.176 328.778 55.0267 328.565 54.728C328.362 54.4293 328.229 53.88 328.165 53.08C328.101 52.3333 327.978 51.816 327.797 51.528C327.615 51.24 327.333 51.096 326.949 51.096L325.621 51.112C325.439 52.52 325.359 53.5227 325.381 54.12C325.381 54.28 325.391 54.5733 325.413 55H324.085L324.069 54.808L324.085 54.584C324.085 53.9973 324.186 52.904 324.389 51.304C324.485 50.4827 324.57 49.8427 324.645 49.384C324.709 48.8613 324.741 48.504 324.741 48.312C324.741 48.0987 324.714 47.9333 324.661 47.816C324.607 47.688 324.495 47.624 324.325 47.624C324.122 47.624 323.909 47.752 323.685 48.008C323.471 48.264 323.285 48.6533 323.125 49.176L322.677 49.08C322.741 48.7813 322.863 48.456 323.045 48.104C323.226 47.752 323.466 47.4533 323.765 47.208C324.063 46.952 324.41 46.824 324.805 46.824C325.221 46.824 325.514 46.9413 325.685 47.176C325.866 47.4107 325.957 47.768 325.957 48.248C325.957 48.5147 325.919 48.92 325.845 49.464L325.685 50.648H326.197C326.666 50.648 327.034 50.52 327.301 50.264C327.578 50.008 327.839 49.56 328.085 48.92C328.362 48.152 328.655 47.6133 328.965 47.304C329.285 46.984 329.69 46.824 330.181 46.824C330.458 46.824 330.677 46.904 330.837 47.064C330.997 47.224 331.077 47.4373 331.077 47.704C331.077 47.928 331.007 48.12 330.869 48.28C330.741 48.44 330.559 48.52 330.325 48.52C330.058 48.52 329.85 48.4613 329.701 48.344C329.551 48.2267 329.466 48.0613 329.445 47.848C329.295 47.944 329.162 48.088 329.045 48.28C328.927 48.472 328.794 48.776 328.645 49.192C328.506 49.576 328.335 49.9067 328.133 50.184C327.93 50.4613 327.706 50.664 327.461 50.792C328.613 50.824 329.253 51.4533 329.381 52.68C329.445 53.3093 329.519 53.736 329.605 53.96C329.701 54.1733 329.871 54.28 330.117 54.28C330.277 54.28 330.415 54.2053 330.533 54.056C330.65 53.896 330.751 53.64 330.837 53.288L331.285 53.368ZM336.232 46.824C336.808 46.824 337.326 46.9627 337.784 47.24C338.254 47.5173 338.616 47.9227 338.872 48.456C339.139 48.9787 339.272 49.6027 339.272 50.328C339.272 51.2027 339.112 52.008 338.792 52.744C338.483 53.48 338.03 54.072 337.432 54.52C336.846 54.9573 336.152 55.176 335.352 55.176C334.339 55.176 333.571 54.8453 333.048 54.184C332.536 53.512 332.28 52.648 332.28 51.592C332.28 50.7173 332.44 49.9173 332.76 49.192C333.08 48.4667 333.539 47.8907 334.136 47.464C334.734 47.0373 335.432 46.824 336.232 46.824ZM335.976 47.416C335.507 47.416 335.096 47.5867 334.744 47.928C334.403 48.2587 334.142 48.7173 333.96 49.304C333.779 49.88 333.688 50.5253 333.688 51.24C333.688 52.1253 333.832 52.904 334.12 53.576C334.408 54.2373 334.878 54.568 335.528 54.568C336.072 54.568 336.515 54.36 336.856 53.944C337.208 53.528 337.464 53.016 337.624 52.408C337.784 51.8 337.864 51.208 337.864 50.632C337.864 49.736 337.72 48.9787 337.432 48.36C337.155 47.7307 336.67 47.416 335.976 47.416ZM352.976 52.648C352.603 53.576 352.229 54.232 351.856 54.616C351.493 54.9893 351.061 55.176 350.56 55.176C349.845 55.176 349.296 54.872 348.912 54.264C348.539 53.656 348.363 52.792 348.384 51.672C348.384 51.544 348.395 51.352 348.416 51.096H347.344C347.195 52.4507 347.125 53.4587 347.136 54.12C347.136 54.3867 347.152 54.68 347.184 55H345.856C345.845 54.904 345.84 54.7653 345.84 54.584C345.84 53.9333 345.925 52.84 346.096 51.304L346.112 51.112H345.04C344.891 52.296 344.549 53.272 344.016 54.04C343.493 54.7973 342.843 55.176 342.064 55.176C341.776 55.176 341.499 55.096 341.232 54.936C340.965 54.776 340.752 54.5627 340.592 54.296C340.432 54.0187 340.352 53.7147 340.352 53.384C340.352 53.1067 340.421 52.888 340.56 52.728C340.699 52.568 340.875 52.488 341.088 52.488C341.301 52.488 341.461 52.552 341.568 52.68C341.685 52.7973 341.739 52.9413 341.728 53.112C341.728 53.368 341.632 53.5867 341.44 53.768C341.483 54.056 341.563 54.264 341.68 54.392C341.797 54.5093 341.963 54.568 342.176 54.568C342.667 54.568 343.056 54.1733 343.344 53.384C343.643 52.584 343.819 51.688 343.872 50.696C343.883 50.5573 343.888 50.3547 343.888 50.088C343.888 49.2347 343.792 48.6107 343.6 48.216C343.408 47.8107 343.152 47.608 342.832 47.608C342.512 47.608 342.224 47.736 341.968 47.992C341.723 48.248 341.472 48.7013 341.216 49.352L340.736 49.08C341.12 48.216 341.493 47.624 341.856 47.304C342.219 46.984 342.64 46.824 343.12 46.824C343.536 46.824 343.899 46.9627 344.208 47.24C344.517 47.5067 344.752 47.9067 344.912 48.44C345.072 48.9627 345.136 49.592 345.104 50.328L345.088 50.648H346.176C346.261 49.9547 346.32 49.4 346.352 48.984C346.395 48.568 346.411 48.136 346.4 47.688C346.4 47.432 346.384 47.144 346.352 46.824H347.648C347.659 46.92 347.664 47.0587 347.664 47.24C347.664 47.5813 347.637 48.0133 347.584 48.536C347.541 49.0587 347.493 49.5867 347.44 50.12L347.392 50.648H348.448C348.587 49.5173 348.896 48.6 349.376 47.896C349.856 47.1813 350.464 46.824 351.2 46.824C351.723 46.824 352.144 46.9947 352.464 47.336C352.795 47.6773 352.96 48.1093 352.96 48.632C352.96 48.9093 352.891 49.128 352.752 49.288C352.624 49.4373 352.459 49.512 352.256 49.512C352.043 49.512 351.883 49.4533 351.776 49.336C351.669 49.208 351.616 49.0587 351.616 48.888C351.616 48.6107 351.696 48.392 351.856 48.232C351.856 47.9867 351.797 47.7893 351.68 47.64C351.573 47.4907 351.408 47.416 351.184 47.416C350.843 47.416 350.549 47.6293 350.304 48.056C350.069 48.472 349.893 49 349.776 49.64C349.669 50.2693 349.616 50.8933 349.616 51.512C349.616 52.5573 349.717 53.3307 349.92 53.832C350.133 54.3227 350.411 54.568 350.752 54.568C351.083 54.568 351.376 54.3973 351.632 54.056C351.888 53.7147 352.155 53.1547 352.432 52.376L352.976 52.648ZM355.675 46.824C356.102 46.824 356.422 46.9573 356.635 47.224C356.859 47.4907 356.971 47.8747 356.971 48.376C356.971 48.76 356.886 49.56 356.715 50.776C356.704 50.872 356.656 51.2347 356.571 51.864C356.486 52.4827 356.443 53 356.443 53.416C356.443 53.672 356.496 53.9067 356.603 54.12C356.72 54.3227 356.918 54.424 357.195 54.424C357.664 54.424 358.134 54.072 358.603 53.368C359.072 52.6533 359.456 51.7787 359.755 50.744C360.064 49.7093 360.219 48.744 360.219 47.848C360.219 47.6453 360.208 47.3627 360.187 47H361.531C361.542 47.096 361.547 47.2347 361.547 47.416C361.547 47.672 361.52 48.0667 361.467 48.6C361.414 49.1333 361.334 49.8267 361.227 50.68L361.067 52.008C361.056 52.1467 361.03 52.4027 360.987 52.776C360.944 53.1493 360.923 53.4427 360.923 53.656C360.923 54.1253 361.067 54.36 361.355 54.36C361.558 54.36 361.766 54.2373 361.979 53.992C362.192 53.736 362.374 53.3467 362.523 52.824L362.971 52.92C362.918 53.2187 362.8 53.544 362.619 53.896C362.448 54.248 362.214 54.552 361.915 54.808C361.627 55.0533 361.286 55.176 360.891 55.176C360.475 55.176 360.166 55.048 359.963 54.792C359.76 54.536 359.659 54.184 359.659 53.736C359.659 53.2667 359.755 52.552 359.947 51.592H359.899C359.387 52.968 358.896 53.912 358.427 54.424C357.958 54.9253 357.44 55.176 356.875 55.176C356.278 55.176 355.835 54.984 355.547 54.6C355.27 54.2053 355.131 53.704 355.131 53.096C355.131 52.6373 355.158 52.1733 355.211 51.704C355.264 51.2347 355.344 50.6693 355.451 50.008C355.472 49.8907 355.51 49.6453 355.563 49.272C355.616 48.888 355.643 48.5893 355.643 48.376C355.643 48.1307 355.611 47.944 355.547 47.816C355.494 47.688 355.382 47.624 355.211 47.624C355.019 47.624 354.822 47.752 354.619 48.008C354.416 48.2533 354.24 48.6427 354.091 49.176L353.643 49.08C353.739 48.5573 353.958 48.0507 354.299 47.56C354.651 47.0693 355.11 46.824 355.675 46.824ZM224.344 72.92C224.291 73.2187 224.173 73.544 223.992 73.896C223.821 74.248 223.587 74.552 223.288 74.808C223 75.0533 222.659 75.176 222.264 75.176C221.848 75.176 221.539 75.048 221.336 74.792C221.133 74.536 221.032 74.184 221.032 73.736C221.032 73.448 221.091 72.856 221.208 71.96L221.256 71.512L218.168 71.544L217.88 73.992C217.859 74.2053 217.848 74.36 217.848 74.456C217.848 74.6373 217.864 74.8187 217.896 75H216.552C216.541 74.904 216.536 74.7653 216.536 74.584C216.547 74.1893 216.643 73.3733 216.824 72.136L216.92 71.384L217.016 70.696C217.112 69.9813 217.176 69.464 217.208 69.144C217.251 68.8133 217.272 68.5467 217.272 68.344C217.293 67.864 217.155 67.624 216.856 67.624C216.653 67.624 216.44 67.752 216.216 68.008C216.003 68.264 215.816 68.6533 215.656 69.176L215.208 69.08C215.272 68.7813 215.395 68.456 215.576 68.104C215.757 67.752 215.997 67.4533 216.296 67.208C216.595 66.952 216.941 66.824 217.336 66.824C218.115 66.824 218.504 67.3413 218.504 68.376C218.504 68.5467 218.483 68.824 218.44 69.208L218.248 70.904H221.336C221.507 69.56 221.592 68.568 221.592 67.928C221.592 67.736 221.581 67.4267 221.56 67H222.904C222.915 67.096 222.92 67.2347 222.92 67.416C222.92 67.6933 222.883 68.1627 222.808 68.824C222.744 69.4747 222.669 70.136 222.584 70.808C222.392 72.4293 222.296 73.3787 222.296 73.656C222.296 74.1253 222.44 74.36 222.728 74.36C222.931 74.36 223.139 74.2373 223.352 73.992C223.565 73.736 223.747 73.3467 223.896 72.824L224.344 72.92ZM229.78 66.824C230.505 66.824 231.22 66.9147 231.924 67.096C231.454 70.5733 231.22 72.7067 231.22 73.496C231.22 73.7733 231.246 73.992 231.3 74.152C231.353 74.3013 231.476 74.376 231.668 74.376C231.87 74.376 232.078 74.248 232.292 73.992C232.505 73.736 232.686 73.3467 232.836 72.824L233.284 72.92C233.23 73.2187 233.113 73.544 232.932 73.896C232.761 74.248 232.526 74.552 232.228 74.808C231.94 75.0533 231.598 75.176 231.204 75.176C230.414 75.176 230.02 74.696 230.02 73.736C230.02 73.2667 230.116 72.552 230.308 71.592H230.26C229.812 73 229.321 73.9493 228.788 74.44C228.254 74.9307 227.705 75.176 227.14 75.176C226.521 75.176 226.025 74.952 225.652 74.504C225.289 74.056 225.108 73.352 225.108 72.392C225.108 71.368 225.284 70.4347 225.636 69.592C225.988 68.7493 226.516 68.0773 227.22 67.576C227.924 67.0747 228.777 66.824 229.78 66.824ZM229.284 67.4C228.665 67.4 228.142 67.624 227.716 68.072C227.289 68.5093 226.969 69.0907 226.756 69.816C226.553 70.5307 226.452 71.2987 226.452 72.12C226.452 73.688 226.798 74.472 227.492 74.472C227.961 74.472 228.43 74.104 228.9 73.368C229.369 72.632 229.758 71.7253 230.068 70.648C230.377 69.56 230.532 68.5413 230.532 67.592C230.212 67.464 229.796 67.4 229.284 67.4ZM242.268 70.552C242.972 70.5093 243.484 70.664 243.804 71.016C244.135 71.368 244.3 71.8107 244.3 72.344C244.3 72.8667 244.156 73.3467 243.868 73.784C243.591 74.2107 243.202 74.552 242.7 74.808C242.199 75.0533 241.639 75.176 241.02 75.176C240.06 75.176 239.335 74.872 238.844 74.264C238.354 73.6453 238.108 72.7973 238.108 71.72C238.108 70.8667 238.252 70.0667 238.54 69.32C238.828 68.5733 239.25 67.9707 239.804 67.512C240.37 67.0533 241.042 66.824 241.82 66.824C242.407 66.824 242.903 66.9573 243.308 67.224C243.714 67.48 243.916 67.8693 243.916 68.392C243.916 68.7973 243.778 69.192 243.5 69.576C243.234 69.9493 242.823 70.2747 242.268 70.552ZM241.66 67.368C241.063 67.368 240.572 67.7147 240.188 68.408C239.804 69.1013 239.58 69.9653 239.516 71C240.626 70.744 241.404 70.424 241.852 70.04C242.3 69.6453 242.524 69.1333 242.524 68.504C242.524 67.7467 242.236 67.368 241.66 67.368ZM241.388 74.568C241.868 74.568 242.247 74.4027 242.524 74.072C242.802 73.7413 242.94 73.2987 242.94 72.744C242.94 72.264 242.823 71.8747 242.588 71.576C242.364 71.2773 242.034 71.128 241.596 71.128C241.404 71.128 241.196 71.16 240.972 71.224L239.5 71.608C239.532 72.536 239.698 73.2613 239.996 73.784C240.306 74.3067 240.77 74.568 241.388 74.568ZM249.465 66.824C250.105 66.824 250.638 66.9733 251.065 67.272C251.492 67.5707 251.705 68.0347 251.705 68.664C251.705 69.4533 251.23 70.0667 250.281 70.504C249.332 70.9413 248.233 71.2293 246.985 71.368C246.985 72.3707 247.134 73.1227 247.433 73.624C247.732 74.1253 248.19 74.376 248.809 74.376C249.3 74.376 249.774 74.216 250.233 73.896C250.692 73.5653 251.092 73.08 251.433 72.44L251.961 72.744C251.513 73.5867 251.012 74.2053 250.457 74.6C249.902 74.984 249.262 75.176 248.537 75.176C247.556 75.176 246.814 74.872 246.313 74.264C245.822 73.6453 245.577 72.7973 245.577 71.72C245.577 70.856 245.721 70.056 246.009 69.32C246.308 68.5733 246.75 67.9707 247.337 67.512C247.924 67.0533 248.633 66.824 249.465 66.824ZM249.241 67.368C248.558 67.368 248.03 67.6987 247.657 68.36C247.284 69.0213 247.065 69.832 247.001 70.792C247.929 70.664 248.724 70.408 249.385 70.024C250.046 69.64 250.377 69.16 250.377 68.584C250.377 68.232 250.276 67.944 250.073 67.72C249.881 67.4853 249.604 67.368 249.241 67.368ZM261.394 73.368C261.287 73.88 261.085 74.312 260.786 74.664C260.487 75.0053 260.087 75.176 259.586 75.176C259.191 75.176 258.887 75.0267 258.674 74.728C258.471 74.4293 258.338 73.88 258.274 73.08C258.21 72.3333 258.087 71.816 257.906 71.528C257.725 71.24 257.442 71.096 257.058 71.096L255.73 71.112C255.549 72.52 255.469 73.5227 255.49 74.12C255.49 74.28 255.501 74.5733 255.522 75H254.194L254.178 74.808L254.194 74.584C254.194 73.9973 254.295 72.904 254.498 71.304C254.594 70.4827 254.679 69.8427 254.754 69.384C254.818 68.8613 254.85 68.504 254.85 68.312C254.85 68.0987 254.823 67.9333 254.77 67.816C254.717 67.688 254.605 67.624 254.434 67.624C254.231 67.624 254.018 67.752 253.794 68.008C253.581 68.264 253.394 68.6533 253.234 69.176L252.786 69.08C252.85 68.7813 252.973 68.456 253.154 68.104C253.335 67.752 253.575 67.4533 253.874 67.208C254.173 66.952 254.519 66.824 254.914 66.824C255.33 66.824 255.623 66.9413 255.794 67.176C255.975 67.4107 256.066 67.768 256.066 68.248C256.066 68.5147 256.029 68.92 255.954 69.464L255.794 70.648H256.306C256.775 70.648 257.143 70.52 257.41 70.264C257.687 70.008 257.949 69.56 258.194 68.92C258.471 68.152 258.765 67.6133 259.074 67.304C259.394 66.984 259.799 66.824 260.29 66.824C260.567 66.824 260.786 66.904 260.946 67.064C261.106 67.224 261.186 67.4373 261.186 67.704C261.186 67.928 261.117 68.12 260.978 68.28C260.85 68.44 260.669 68.52 260.434 68.52C260.167 68.52 259.959 68.4613 259.81 68.344C259.661 68.2267 259.575 68.0613 259.554 67.848C259.405 67.944 259.271 68.088 259.154 68.28C259.037 68.472 258.903 68.776 258.754 69.192C258.615 69.576 258.445 69.9067 258.242 70.184C258.039 70.4613 257.815 70.664 257.57 70.792C258.722 70.824 259.362 71.4533 259.49 72.68C259.554 73.3093 259.629 73.736 259.714 73.96C259.81 74.1733 259.981 74.28 260.226 74.28C260.386 74.28 260.525 74.2053 260.642 74.056C260.759 73.896 260.861 73.64 260.946 73.288L261.394 73.368ZM267.03 66.824C267.755 66.824 268.47 66.9147 269.174 67.096C268.704 70.5733 268.47 72.7067 268.47 73.496C268.47 73.7733 268.496 73.992 268.55 74.152C268.603 74.3013 268.726 74.376 268.918 74.376C269.12 74.376 269.328 74.248 269.542 73.992C269.755 73.736 269.936 73.3467 270.086 72.824L270.534 72.92C270.48 73.2187 270.363 73.544 270.182 73.896C270.011 74.248 269.776 74.552 269.478 74.808C269.19 75.0533 268.848 75.176 268.454 75.176C267.664 75.176 267.27 74.696 267.27 73.736C267.27 73.2667 267.366 72.552 267.558 71.592H267.51C267.062 73 266.571 73.9493 266.038 74.44C265.504 74.9307 264.955 75.176 264.39 75.176C263.771 75.176 263.275 74.952 262.902 74.504C262.539 74.056 262.358 73.352 262.358 72.392C262.358 71.368 262.534 70.4347 262.886 69.592C263.238 68.7493 263.766 68.0773 264.47 67.576C265.174 67.0747 266.027 66.824 267.03 66.824ZM266.534 67.4C265.915 67.4 265.392 67.624 264.966 68.072C264.539 68.5093 264.219 69.0907 264.006 69.816C263.803 70.5307 263.702 71.2987 263.702 72.12C263.702 73.688 264.048 74.472 264.742 74.472C265.211 74.472 265.68 74.104 266.15 73.368C266.619 72.632 267.008 71.7253 267.318 70.648C267.627 69.56 267.782 68.5413 267.782 67.592C267.462 67.464 267.046 67.4 266.534 67.4ZM277.907 66.824C278.185 66.824 278.398 66.8987 278.547 67.048C278.697 67.1867 278.771 67.3733 278.771 67.608C278.771 67.7893 278.707 67.9493 278.579 68.088C278.451 68.2267 278.297 68.296 278.115 68.296C277.913 68.296 277.763 68.2533 277.667 68.168C277.582 68.0827 277.486 67.9653 277.379 67.816C276.793 67.9013 276.121 68.8827 275.363 70.76L275.475 71.048C275.913 72.1787 276.275 72.9893 276.563 73.48C276.851 73.96 277.123 74.2 277.379 74.2C277.763 74.2 278.035 73.7787 278.195 72.936L278.643 73C278.451 74.4507 277.918 75.176 277.043 75.176C276.681 75.176 276.387 75.096 276.163 74.936C275.939 74.7653 275.71 74.456 275.475 74.008C275.251 73.5493 274.937 72.8027 274.531 71.768H274.515C274.185 72.7493 273.859 73.4907 273.539 73.992C273.219 74.4827 272.921 74.8027 272.643 74.952C272.377 75.1013 272.083 75.176 271.763 75.176C271.465 75.176 271.225 75.1013 271.043 74.952C270.862 74.8027 270.771 74.6053 270.771 74.36C270.771 74.1467 270.835 73.9707 270.963 73.832C271.091 73.6933 271.246 73.624 271.427 73.624C271.801 73.624 272.003 73.8427 272.035 74.28C272.686 74.4187 273.411 73.3147 274.211 70.968C273.998 70.392 273.859 70.008 273.795 69.816C273.497 69.0053 273.273 68.4667 273.123 68.2C272.985 67.9333 272.809 67.8 272.595 67.8C272.105 67.8 271.833 68.3227 271.779 69.368L271.315 69.384C271.315 68.7653 271.438 68.184 271.683 67.64C271.939 67.096 272.382 66.824 273.011 66.824C273.331 66.824 273.587 66.9093 273.779 67.08C273.982 67.2507 274.147 67.4853 274.275 67.784C274.403 68.072 274.574 68.5253 274.787 69.144C274.851 69.368 274.947 69.6453 275.075 69.976H275.091C275.582 68.7493 276.067 67.9173 276.547 67.48C277.038 67.0427 277.491 66.824 277.907 66.824Z" fill="#A7A7A7"/>
<path d="M147.6 42.62C152.037 42.62 155.263 44.3983 157.28 47.955C159.297 51.5117 160.305 55.82 160.305 60.88C160.305 61.7233 160.287 62.3467 160.25 62.75C160.067 66.0867 159.443 69.295 158.38 72.375C157.317 75.4183 155.722 77.93 153.595 79.91C151.505 81.89 148.902 82.88 145.785 82.88C141.165 82.88 137.865 81.175 135.885 77.765C133.942 74.3183 132.97 70.065 132.97 65.005C132.97 64.015 132.988 63.2633 133.025 62.75C133.172 59.4133 133.777 56.2233 134.84 53.18C135.94 50.1 137.553 47.57 139.68 45.59C141.843 43.61 144.483 42.62 147.6 42.62ZM147.71 44.71C144.813 44.71 142.577 46.3783 141 49.715C139.46 53.0517 138.562 57.0667 138.305 61.76C138.268 62.3467 138.25 63.2817 138.25 64.565C138.25 69.0383 138.837 72.8517 140.01 76.005C141.183 79.1583 143.182 80.735 146.005 80.735C148.865 80.735 150.992 79.1033 152.385 75.84C153.815 72.5767 154.658 68.5617 154.915 63.795C154.988 62.3283 155.025 61.2467 155.025 60.55C155.025 55.9667 154.457 52.19 153.32 49.22C152.22 46.2133 150.35 44.71 147.71 44.71ZM168.262 76.61C169.326 76.61 170.169 77.0133 170.792 77.82C171.452 78.6267 171.782 79.6533 171.782 80.9C171.782 82.44 171.379 84.255 170.572 86.345C169.802 88.435 168.702 90.2683 167.272 91.845L165.897 90.745C166.631 89.865 167.327 88.6183 167.987 87.005C168.647 85.4283 168.977 83.9067 168.977 82.44V82H168.867C168.464 82.1467 168.042 82.22 167.602 82.22C166.942 82.22 166.374 81.9633 165.897 81.45C165.421 80.9367 165.182 80.35 165.182 79.69C165.182 78.7367 165.476 77.985 166.062 77.435C166.649 76.885 167.382 76.61 168.262 76.61ZM201.664 47.02L183.569 47.405L182.854 59.56C185.127 58.6067 187.639 58.13 190.389 58.13C194.386 58.13 197.319 59.2667 199.189 61.54C201.096 63.7767 202.049 66.5083 202.049 69.735C202.049 72.5217 201.407 74.905 200.124 76.885C198.877 78.865 197.191 80.3683 195.064 81.395C192.937 82.385 190.609 82.88 188.079 82.88C185.916 82.88 184.064 82.5317 182.524 81.835C180.984 81.1017 179.811 80.1667 179.004 79.03C178.234 77.8933 177.849 76.7017 177.849 75.455C177.849 74.5017 178.106 73.7317 178.619 73.145C179.132 72.5583 179.774 72.265 180.544 72.265C181.277 72.265 181.864 72.5033 182.304 72.98C182.781 73.4567 183.019 74.025 183.019 74.685C183.019 75.565 182.762 76.3167 182.249 76.94C182.286 78.15 182.891 79.085 184.064 79.745C185.274 80.405 186.612 80.735 188.079 80.735C190.719 80.735 192.772 79.8367 194.239 78.04C195.742 76.2433 196.531 74.0617 196.604 71.495L196.659 70.12C196.659 67.48 196.072 65.2433 194.899 63.41C193.762 61.54 191.636 60.605 188.519 60.605C187.492 60.605 186.392 60.77 185.219 61.1C184.046 61.3933 182.946 61.8517 181.919 62.475L180.434 61.1L181.314 43.5H195.284C197.301 43.5 198.749 43.225 199.629 42.675C200.509 42.0883 200.986 41.1717 201.059 39.925H202.489L201.664 47.02Z" fill="#A7A7A7"/>
<circle cx="131.5" cy="62.5" r="62" stroke="#3688DF" stroke-opacity="0.14"/>
<g filter="url(#filter0_d)">
<circle r="3.5" transform="matrix(1 0 0 -1 83.5 81.5)" fill="#36DFB6" style="mix-blend-mode:multiply"/>
</g>
<defs>
<filter id="filter0_d" x="0" y="78" width="167" height="187" filterUnits="userSpaceOnUse" color-interpolation-filters="sRGB">
<feFlood flood-opacity="0" result="BackgroundImageFix"/>
<feColorMatrix in="SourceAlpha" type="matrix" values="0 0 0 0 0 0 0 0 0 0 0 0 0 0 0 0 0 0 127 0"/>
<feOffset dy="100"/>
<feGaussianBlur stdDeviation="40"/>
<feColorMatrix type="matrix" values="0 0 0 0 0.807929 0 0 0 0 0.797289 0 0 0 0 0.797289 0 0 0 0.2 0"/>
<feBlend mode="normal" in2="BackgroundImageFix" result="effect1_dropShadow"/>
<feBlend mode="normal" in="SourceGraphic" in2="effect1_dropShadow" result="shape"/>
</filter>
</defs>
</svg>
