<svg width="349" height="251" viewBox="0 0 349 251" fill="none" xmlns="http://www.w3.org/2000/svg">
<g filter="url(#filter0_d)">
<path d="M90 66C90 63.2386 87.7614 61 85 61C82.2386 61 80 63.2386 80 66C80 68.7614 82.2386 71 85 71C87.7614 71 90 68.7614 90 66Z" fill="#36DFB6" style="mix-blend-mode:multiply"/>
</g>
<path d="M197.424 40.176C196.592 40.176 195.915 39.8826 195.392 39.296C194.88 38.7093 194.624 37.872 194.624 36.784C194.624 35.888 194.789 35.088 195.12 34.384C195.451 33.6693 195.899 33.1146 196.464 32.72C197.04 32.3253 197.675 32.128 198.368 32.128C199.083 32.128 199.595 32.336 199.904 32.752C199.776 31.376 199.488 30.32 199.04 29.584C198.603 28.8373 198.069 28.464 197.44 28.464C196.811 28.464 196.24 28.7146 195.728 29.216L195.424 28.848C195.819 28.5066 196.181 28.2613 196.512 28.112C196.853 27.952 197.216 27.872 197.6 27.872C198.827 27.872 199.739 28.464 200.336 29.648C200.933 30.8213 201.232 32.32 201.232 34.144C201.232 35.5733 201.051 36.7413 200.688 37.648C200.336 38.544 199.872 39.1893 199.296 39.584C198.731 39.9786 198.107 40.176 197.424 40.176ZM197.728 39.568C198.421 39.568 198.939 39.1306 199.28 38.256C199.632 37.3813 199.84 36.3413 199.904 35.136C199.947 34.432 199.824 33.856 199.536 33.408C199.248 32.9493 198.864 32.72 198.384 32.72C198 32.72 197.621 32.88 197.248 33.2C196.875 33.5093 196.565 33.9626 196.32 34.56C196.085 35.1466 195.968 35.8293 195.968 36.608C195.968 37.472 196.123 38.1813 196.432 38.736C196.752 39.2906 197.184 39.568 197.728 39.568Z" fill="#A7A7A7"/>
<path d="M211.282 37.92C211.228 38.2186 211.111 38.544 210.93 38.896C210.759 39.248 210.524 39.552 210.226 39.808C209.938 40.0533 209.596 40.176 209.202 40.176C208.786 40.176 208.476 40.048 208.274 39.792C208.071 39.536 207.97 39.184 207.97 38.736C207.97 38.448 208.028 37.856 208.146 36.96L208.194 36.512L205.106 36.544L204.818 38.992C204.796 39.2053 204.786 39.36 204.786 39.456C204.786 39.6373 204.802 39.8186 204.834 40H203.49C203.479 39.904 203.474 39.7653 203.474 39.584C203.484 39.1893 203.58 38.3733 203.762 37.136L203.858 36.384L203.954 35.696C204.05 34.9813 204.114 34.464 204.146 34.144C204.188 33.8133 204.21 33.5466 204.21 33.344C204.231 32.864 204.092 32.624 203.794 32.624C203.591 32.624 203.378 32.752 203.154 33.008C202.94 33.264 202.754 33.6533 202.594 34.176L202.146 34.08C202.21 33.7813 202.332 33.456 202.514 33.104C202.695 32.752 202.935 32.4533 203.234 32.208C203.532 31.952 203.879 31.824 204.274 31.824C205.052 31.824 205.442 32.3413 205.442 33.376C205.442 33.5466 205.42 33.824 205.378 34.208L205.186 35.904H208.274C208.444 34.56 208.53 33.568 208.53 32.928C208.53 32.736 208.519 32.4266 208.498 32H209.842C209.852 32.096 209.858 32.2346 209.858 32.416C209.858 32.6933 209.82 33.1626 209.746 33.824C209.682 34.4746 209.607 35.136 209.522 35.808C209.33 37.4293 209.234 38.3786 209.234 38.656C209.234 39.1253 209.378 39.36 209.666 39.36C209.868 39.36 210.076 39.2373 210.29 38.992C210.503 38.736 210.684 38.3466 210.834 37.824L211.282 37.92Z" fill="#A7A7A7"/>
<path d="M215.965 31.824C216.605 31.824 217.138 31.9733 217.565 32.272C217.992 32.5706 218.205 33.0346 218.205 33.664C218.205 34.4533 217.73 35.0666 216.781 35.504C215.832 35.9413 214.733 36.2293 213.485 36.368C213.485 37.3706 213.634 38.1226 213.933 38.624C214.232 39.1253 214.69 39.376 215.309 39.376C215.8 39.376 216.274 39.216 216.733 38.896C217.192 38.5653 217.592 38.08 217.933 37.44L218.461 37.744C218.013 38.5866 217.512 39.2053 216.957 39.6C216.402 39.984 215.762 40.176 215.037 40.176C214.056 40.176 213.314 39.872 212.813 39.264C212.322 38.6453 212.077 37.7973 212.077 36.72C212.077 35.856 212.221 35.056 212.509 34.32C212.808 33.5733 213.25 32.9706 213.837 32.512C214.424 32.0533 215.133 31.824 215.965 31.824ZM215.741 32.368C215.058 32.368 214.53 32.6986 214.157 33.36C213.784 34.0213 213.565 34.832 213.501 35.792C214.429 35.664 215.224 35.408 215.885 35.024C216.546 34.64 216.877 34.16 216.877 33.584C216.877 33.232 216.776 32.944 216.573 32.72C216.381 32.4853 216.104 32.368 215.741 32.368Z" fill="#A7A7A7"/>
<path d="M221.206 31.824C221.633 31.824 221.953 31.9573 222.166 32.224C222.39 32.4906 222.502 32.8746 222.502 33.376C222.502 33.76 222.417 34.56 222.246 35.776C222.235 35.872 222.187 36.2346 222.102 36.864C222.017 37.4826 221.974 38 221.974 38.416C221.974 38.672 222.027 38.9066 222.134 39.12C222.251 39.3226 222.449 39.424 222.726 39.424C223.195 39.424 223.665 39.072 224.134 38.368C224.603 37.6533 224.987 36.7786 225.286 35.744C225.595 34.7093 225.75 33.744 225.75 32.848C225.75 32.6453 225.739 32.3626 225.718 32H227.062C227.073 32.096 227.078 32.2346 227.078 32.416C227.078 32.672 227.051 33.0666 226.998 33.6C226.945 34.1333 226.865 34.8266 226.758 35.68L226.598 37.008C226.587 37.1466 226.561 37.4026 226.518 37.776C226.475 38.1493 226.454 38.4426 226.454 38.656C226.454 39.1253 226.598 39.36 226.886 39.36C227.089 39.36 227.297 39.2373 227.51 38.992C227.723 38.736 227.905 38.3466 228.054 37.824L228.502 37.92C228.449 38.2186 228.331 38.544 228.15 38.896C227.979 39.248 227.745 39.552 227.446 39.808C227.158 40.0533 226.817 40.176 226.422 40.176C226.006 40.176 225.697 40.048 225.494 39.792C225.291 39.536 225.19 39.184 225.19 38.736C225.19 38.2666 225.286 37.552 225.478 36.592H225.43C224.918 37.968 224.427 38.912 223.958 39.424C223.489 39.9253 222.971 40.176 222.406 40.176C221.809 40.176 221.366 39.984 221.078 39.6C220.801 39.2053 220.662 38.704 220.662 38.096C220.662 37.6373 220.689 37.1733 220.742 36.704C220.795 36.2346 220.875 35.6693 220.982 35.008C221.003 34.8906 221.041 34.6453 221.094 34.272C221.147 33.888 221.174 33.5893 221.174 33.376C221.174 33.1306 221.142 32.944 221.078 32.816C221.025 32.688 220.913 32.624 220.742 32.624C220.55 32.624 220.353 32.752 220.15 33.008C219.947 33.2533 219.771 33.6426 219.622 34.176L219.174 34.08C219.27 33.5573 219.489 33.0506 219.83 32.56C220.182 32.0693 220.641 31.824 221.206 31.824ZM223.926 30.32C223.35 30.32 222.865 30.208 222.47 29.984C222.075 29.7493 221.878 29.424 221.878 29.008C221.878 28.6986 221.963 28.4693 222.134 28.32C222.305 28.1706 222.513 28.096 222.758 28.096C223.003 28.096 223.179 28.1706 223.286 28.32C223.403 28.4586 223.462 28.6186 223.462 28.8C223.441 29.0133 223.355 29.2053 223.206 29.376C223.334 29.4933 223.467 29.5786 223.606 29.632C223.755 29.6853 223.942 29.712 224.166 29.712C224.678 29.712 225.105 29.5786 225.446 29.312C225.553 29.2266 225.659 29.104 225.766 28.944C225.883 28.7733 225.99 28.608 226.086 28.448L226.566 28.88C226.193 29.36 225.777 29.7226 225.318 29.968C224.87 30.2026 224.406 30.32 223.926 30.32Z" fill="#A7A7A7"/>
<path d="M243.374 31.824C243.971 31.824 244.398 32.016 244.654 32.4C244.92 32.784 245.054 33.2853 245.054 33.904C245.054 34.352 245.027 34.8053 244.974 35.264C244.92 35.712 244.84 36.2826 244.734 36.976C244.595 37.8293 244.526 38.384 244.526 38.64C244.526 38.8746 244.552 39.056 244.606 39.184C244.67 39.312 244.787 39.376 244.958 39.376C245.16 39.376 245.368 39.2533 245.582 39.008C245.806 38.752 245.992 38.3573 246.142 37.824L246.59 37.936C246.536 38.2346 246.419 38.56 246.238 38.912C246.067 39.2533 245.832 39.552 245.534 39.808C245.235 40.0533 244.888 40.176 244.494 40.176C244.014 40.176 243.678 40.0533 243.486 39.808C243.304 39.552 243.214 39.1626 243.214 38.64C243.214 38.2026 243.299 37.4986 243.47 36.528C243.48 36.432 243.518 36.1706 243.582 35.744C243.646 35.3066 243.694 34.9066 243.726 34.544C243.768 34.1706 243.79 33.84 243.79 33.552C243.79 33.3066 243.731 33.0826 243.614 32.88C243.496 32.6773 243.299 32.576 243.022 32.576C242.542 32.576 242.072 32.928 241.614 33.632C241.166 34.336 240.798 35.2053 240.51 36.24C240.232 37.2746 240.094 38.2453 240.094 39.152C240.094 39.3546 240.104 39.6373 240.126 40H238.782C238.771 39.904 238.766 39.7653 238.766 39.584C238.766 39.232 238.798 38.7626 238.862 38.176C238.926 37.5893 238.995 37.008 239.07 36.432C239.251 35.0453 239.342 34.1013 239.342 33.6C239.342 32.9173 239.086 32.576 238.574 32.576C238.104 32.576 237.64 32.928 237.182 33.632C236.734 34.336 236.366 35.2106 236.078 36.256C235.79 37.2906 235.646 38.256 235.646 39.152C235.646 39.3546 235.656 39.6373 235.678 40H234.334C234.323 39.904 234.318 39.7653 234.318 39.584C234.318 39.3173 234.339 38.9333 234.382 38.432C234.435 37.92 234.515 37.2373 234.622 36.384L234.814 34.72C234.856 34.3466 234.888 34.064 234.91 33.872C234.931 33.6693 234.942 33.4933 234.942 33.344C234.942 33.12 234.91 32.944 234.846 32.816C234.792 32.688 234.68 32.624 234.51 32.624C234.307 32.624 234.099 32.752 233.886 33.008C233.672 33.264 233.491 33.6533 233.342 34.176L232.894 34.08C232.947 33.7813 233.059 33.456 233.23 33.104C233.411 32.752 233.646 32.4533 233.934 32.208C234.232 31.952 234.579 31.824 234.974 31.824C235.774 31.824 236.174 32.3573 236.174 33.424C236.174 33.7226 236.142 34.0533 236.078 34.416C236.024 34.7786 235.971 35.104 235.918 35.392H235.966C236.424 34.0586 236.899 33.1306 237.39 32.608C237.88 32.0853 238.382 31.824 238.894 31.824C239.48 31.824 239.912 32.0106 240.19 32.384C240.467 32.7573 240.606 33.1786 240.606 33.648C240.606 33.9253 240.59 34.16 240.558 34.352C240.526 34.5333 240.451 34.864 240.334 35.344H240.382C240.862 34.0106 241.352 33.0933 241.854 32.592C242.355 32.08 242.862 31.824 243.374 31.824Z" fill="#A7A7A7"/>
<path d="M253.037 31.824C253.741 31.824 254.275 32.1173 254.637 32.704C255.011 33.2906 255.197 34.032 255.197 34.928C255.197 35.9733 255.016 36.8906 254.653 37.68C254.291 38.4693 253.752 39.0826 253.037 39.52C252.333 39.9573 251.48 40.176 250.477 40.176C250.221 40.176 249.971 40.16 249.725 40.128L249.597 42.144C249.587 42.2186 249.581 42.336 249.581 42.496C249.56 42.912 249.523 43.2373 249.469 43.472L250.477 43.424V44.08H247.453V43.6C247.709 43.6 247.901 43.52 248.029 43.36C248.157 43.2 248.243 42.992 248.285 42.736C248.339 42.4906 248.381 42.1386 248.413 41.68C248.413 41.5413 248.419 41.4346 248.429 41.36C248.525 40.2293 248.669 38.6133 248.861 36.512C249.032 34.752 249.117 33.7386 249.117 33.472C249.117 33.1946 249.091 32.9866 249.037 32.848C248.984 32.6986 248.867 32.624 248.685 32.624C248.483 32.624 248.275 32.752 248.061 33.008C247.859 33.264 247.683 33.6533 247.533 34.176L247.069 34.08C247.123 33.7813 247.235 33.456 247.405 33.104C247.587 32.752 247.821 32.4533 248.109 32.208C248.408 31.952 248.755 31.824 249.149 31.824C249.96 31.824 250.365 32.384 250.365 33.504C250.365 33.9733 250.291 34.5813 250.141 35.328H250.189C250.595 33.984 251.032 33.0666 251.501 32.576C251.971 32.0746 252.483 31.824 253.037 31.824ZM252.701 32.576C252.328 32.576 251.955 32.8373 251.581 33.36C251.208 33.872 250.877 34.544 250.589 35.376C250.301 36.1973 250.088 37.0453 249.949 37.92C249.885 38.2933 249.827 38.8 249.773 39.44C250.157 39.568 250.483 39.632 250.749 39.632C251.453 39.632 252.035 39.4133 252.493 38.976C252.963 38.528 253.299 37.968 253.501 37.296C253.715 36.6133 253.821 35.92 253.821 35.216C253.821 34.3946 253.736 33.7493 253.565 33.28C253.395 32.8106 253.107 32.576 252.701 32.576Z" fill="#A7A7A7"/>
<path d="M260.434 31.824C261.074 31.824 261.607 31.9733 262.034 32.272C262.461 32.5706 262.674 33.0346 262.674 33.664C262.674 34.4533 262.199 35.0666 261.25 35.504C260.301 35.9413 259.202 36.2293 257.954 36.368C257.954 37.3706 258.103 38.1226 258.402 38.624C258.701 39.1253 259.159 39.376 259.778 39.376C260.269 39.376 260.743 39.216 261.202 38.896C261.661 38.5653 262.061 38.08 262.402 37.44L262.93 37.744C262.482 38.5866 261.981 39.2053 261.426 39.6C260.871 39.984 260.231 40.176 259.506 40.176C258.525 40.176 257.783 39.872 257.282 39.264C256.791 38.6453 256.546 37.7973 256.546 36.72C256.546 35.856 256.69 35.056 256.978 34.32C257.277 33.5733 257.719 32.9706 258.306 32.512C258.893 32.0533 259.602 31.824 260.434 31.824ZM260.21 32.368C259.527 32.368 258.999 32.6986 258.626 33.36C258.253 34.0213 258.034 34.832 257.97 35.792C258.898 35.664 259.693 35.408 260.354 35.024C261.015 34.64 261.346 34.16 261.346 33.584C261.346 33.232 261.245 32.944 261.042 32.72C260.85 32.4853 260.573 32.368 260.21 32.368Z" fill="#A7A7A7"/>
<path d="M267.451 40.16C266.48 40.16 265.686 39.8026 265.067 39.088C264.459 38.3626 264.155 37.3013 264.155 35.904C264.155 35.7653 264.166 35.536 264.187 35.216C264.283 33.712 264.598 32.4213 265.131 31.344C265.664 30.256 266.432 29.5253 267.435 29.152C267.67 29.056 267.91 28.9866 268.155 28.944C268.4 28.9013 268.72 28.8586 269.115 28.816C269.488 28.784 269.798 28.736 270.043 28.672C270.448 28.576 270.747 28.48 270.939 28.384C271.142 28.288 271.307 28.112 271.435 27.856L271.899 28.016C271.579 29.0186 270.939 29.68 269.979 30C269.787 30.0746 269.563 30.1333 269.307 30.176C269.062 30.2186 268.822 30.256 268.587 30.288C268.118 30.352 267.782 30.4106 267.579 30.464C266.704 30.72 266.054 31.1626 265.627 31.792C265.211 32.4213 264.923 33.28 264.763 34.368H264.875C265.515 32.992 266.587 32.304 268.091 32.304C268.614 32.304 269.104 32.4373 269.563 32.704C270.032 32.9706 270.406 33.3653 270.683 33.888C270.971 34.4 271.115 35.0133 271.115 35.728C271.115 36.5813 270.944 37.344 270.603 38.016C270.262 38.688 269.808 39.216 269.243 39.6C268.688 39.9733 268.091 40.16 267.451 40.16ZM267.387 39.552C268.144 39.552 268.72 39.2 269.115 38.496C269.52 37.7813 269.723 36.8586 269.723 35.728C269.723 34.928 269.563 34.256 269.243 33.712C268.923 33.1573 268.459 32.88 267.851 32.88C267.104 32.88 266.534 33.2266 266.139 33.92C265.744 34.6026 265.547 35.424 265.547 36.384C265.547 37.344 265.712 38.112 266.043 38.688C266.374 39.264 266.822 39.552 267.387 39.552Z" fill="#A7A7A7"/>
<path d="M278.067 31.824C278.515 31.824 278.84 32.0213 279.043 32.416C279.245 32.8106 279.347 33.296 279.347 33.872C279.347 34.8426 279.155 35.8613 278.771 36.928C278.387 37.984 277.869 39.0986 277.219 40.272C276.451 41.68 275.72 42.7093 275.027 43.36C274.333 44.0106 273.656 44.336 272.995 44.336C272.611 44.336 272.296 44.24 272.051 44.048C271.816 43.856 271.699 43.616 271.699 43.328C271.699 43.104 271.768 42.9226 271.907 42.784C272.045 42.656 272.195 42.592 272.355 42.592C272.579 42.592 272.749 42.6613 272.867 42.8C272.995 42.9493 273.053 43.1573 273.043 43.424C273.192 43.4986 273.309 43.536 273.395 43.536C273.8 43.5573 274.232 43.3013 274.691 42.768C275.16 42.2346 275.544 41.712 275.843 41.2C275.651 39.888 275.384 38.5653 275.043 37.232C274.701 35.8986 274.317 34.7146 273.891 33.68C273.763 33.4026 273.651 33.2 273.555 33.072C273.459 32.9333 273.325 32.864 273.155 32.864C272.973 32.864 272.824 32.976 272.707 33.2C272.6 33.424 272.547 33.728 272.547 34.112C272.547 34.2933 272.552 34.432 272.563 34.528L272.051 34.592C272.04 34.4853 272.035 34.3253 272.035 34.112C272.035 33.4826 272.147 32.944 272.371 32.496C272.605 32.048 272.984 31.824 273.507 31.824C273.987 31.824 274.36 31.9946 274.627 32.336C274.893 32.6666 275.123 33.0986 275.315 33.632C275.528 34.208 275.72 34.832 275.891 35.504C276.061 36.1653 276.264 37.0186 276.499 38.064C276.563 38.3733 276.643 38.9173 276.739 39.696H276.771C277.283 38.8 277.715 37.8613 278.067 36.88C278.419 35.888 278.595 34.992 278.595 34.192C278.595 33.936 278.568 33.7066 278.515 33.504C278.472 33.3013 278.419 33.152 278.355 33.056C278.259 33.12 278.125 33.152 277.955 33.152C277.763 33.152 277.608 33.0933 277.491 32.976C277.373 32.848 277.315 32.6986 277.315 32.528C277.315 32.304 277.389 32.1333 277.539 32.016C277.688 31.888 277.864 31.824 278.067 31.824Z" fill="#A7A7A7"/>
<path d="M284.621 31.824C285.261 31.824 285.795 31.9733 286.221 32.272C286.648 32.5706 286.861 33.0346 286.861 33.664C286.861 34.4533 286.387 35.0666 285.437 35.504C284.488 35.9413 283.389 36.2293 282.141 36.368C282.141 37.3706 282.291 38.1226 282.589 38.624C282.888 39.1253 283.347 39.376 283.965 39.376C284.456 39.376 284.931 39.216 285.389 38.896C285.848 38.5653 286.248 38.08 286.589 37.44L287.117 37.744C286.669 38.5866 286.168 39.2053 285.613 39.6C285.059 39.984 284.419 40.176 283.693 40.176C282.712 40.176 281.971 39.872 281.469 39.264C280.979 38.6453 280.733 37.7973 280.733 36.72C280.733 35.856 280.877 35.056 281.165 34.32C281.464 33.5733 281.907 32.9706 282.493 32.512C283.08 32.0533 283.789 31.824 284.621 31.824ZM284.397 32.368C283.715 32.368 283.187 32.6986 282.813 33.36C282.44 34.0213 282.221 34.832 282.157 35.792C283.085 35.664 283.88 35.408 284.541 35.024C285.203 34.64 285.533 34.16 285.533 33.584C285.533 33.232 285.432 32.944 285.229 32.72C285.037 32.4853 284.76 32.368 284.397 32.368Z" fill="#A7A7A7"/>
<path d="M298.342 31.824C298.94 31.824 299.366 32.016 299.622 32.4C299.889 32.784 300.022 33.2853 300.022 33.904C300.022 34.352 299.996 34.8053 299.942 35.264C299.889 35.712 299.809 36.2826 299.702 36.976C299.564 37.8293 299.494 38.384 299.494 38.64C299.494 38.8746 299.521 39.056 299.574 39.184C299.638 39.312 299.756 39.376 299.926 39.376C300.129 39.376 300.337 39.2533 300.55 39.008C300.774 38.752 300.961 38.3573 301.11 37.824L301.558 37.936C301.505 38.2346 301.388 38.56 301.206 38.912C301.036 39.2533 300.801 39.552 300.502 39.808C300.204 40.0533 299.857 40.176 299.462 40.176C298.982 40.176 298.646 40.0533 298.454 39.808C298.273 39.552 298.182 39.1626 298.182 38.64C298.182 38.2026 298.268 37.4986 298.438 36.528C298.449 36.432 298.486 36.1706 298.55 35.744C298.614 35.3066 298.662 34.9066 298.694 34.544C298.737 34.1706 298.758 33.84 298.758 33.552C298.758 33.3066 298.7 33.0826 298.582 32.88C298.465 32.6773 298.268 32.576 297.99 32.576C297.51 32.576 297.041 32.928 296.582 33.632C296.134 34.336 295.766 35.2053 295.478 36.24C295.201 37.2746 295.062 38.2453 295.062 39.152C295.062 39.3546 295.073 39.6373 295.094 40H293.75C293.74 39.904 293.734 39.7653 293.734 39.584C293.734 39.232 293.766 38.7626 293.83 38.176C293.894 37.5893 293.964 37.008 294.038 36.432C294.22 35.0453 294.31 34.1013 294.31 33.6C294.31 32.9173 294.054 32.576 293.542 32.576C293.073 32.576 292.609 32.928 292.15 33.632C291.702 34.336 291.334 35.2106 291.046 36.256C290.758 37.2906 290.614 38.256 290.614 39.152C290.614 39.3546 290.625 39.6373 290.646 40H289.302C289.292 39.904 289.286 39.7653 289.286 39.584C289.286 39.3173 289.308 38.9333 289.35 38.432C289.404 37.92 289.484 37.2373 289.59 36.384L289.782 34.72C289.825 34.3466 289.857 34.064 289.878 33.872C289.9 33.6693 289.91 33.4933 289.91 33.344C289.91 33.12 289.878 32.944 289.814 32.816C289.761 32.688 289.649 32.624 289.478 32.624C289.276 32.624 289.068 32.752 288.854 33.008C288.641 33.264 288.46 33.6533 288.31 34.176L287.862 34.08C287.916 33.7813 288.028 33.456 288.198 33.104C288.38 32.752 288.614 32.4533 288.902 32.208C289.201 31.952 289.548 31.824 289.942 31.824C290.742 31.824 291.142 32.3573 291.142 33.424C291.142 33.7226 291.11 34.0533 291.046 34.416C290.993 34.7786 290.94 35.104 290.886 35.392H290.934C291.393 34.0586 291.868 33.1306 292.358 32.608C292.849 32.0853 293.35 31.824 293.862 31.824C294.449 31.824 294.881 32.0106 295.158 32.384C295.436 32.7573 295.574 33.1786 295.574 33.648C295.574 33.9253 295.558 34.16 295.526 34.352C295.494 34.5333 295.42 34.864 295.302 35.344H295.35C295.83 34.0106 296.321 33.0933 296.822 32.592C297.324 32.08 297.83 31.824 298.342 31.824Z" fill="#A7A7A7"/>
<path d="M306.198 31.824C306.646 31.824 307.051 31.9093 307.414 32.08C307.787 32.24 308.075 32.464 308.278 32.752C308.491 33.0293 308.598 33.344 308.598 33.696C308.598 33.9413 308.534 34.1333 308.406 34.272C308.278 34.4106 308.107 34.48 307.894 34.48C307.681 34.48 307.515 34.4106 307.398 34.272C307.291 34.1333 307.238 33.9893 307.238 33.84C307.238 33.584 307.307 33.3813 307.446 33.232C307.393 32.944 307.249 32.7306 307.014 32.592C306.79 32.4533 306.513 32.384 306.182 32.384C305.339 32.384 304.726 32.7786 304.342 33.568C303.969 34.3573 303.782 35.2693 303.782 36.304C303.782 37.3706 303.953 38.1546 304.294 38.656C304.646 39.1466 305.126 39.392 305.734 39.392C306.203 39.392 306.657 39.2373 307.094 38.928C307.531 38.608 307.894 38.0906 308.182 37.376L308.742 37.648C308.358 38.5333 307.883 39.1786 307.318 39.584C306.753 39.9786 306.134 40.176 305.462 40.176C304.491 40.176 303.734 39.888 303.19 39.312C302.646 38.7253 302.374 37.8453 302.374 36.672C302.374 35.9253 302.513 35.1786 302.79 34.432C303.078 33.6853 303.51 33.0666 304.086 32.576C304.662 32.0746 305.366 31.824 306.198 31.824Z" fill="#A7A7A7"/>
<path d="M318.113 37.92C317.953 38.5706 317.697 39.1093 317.345 39.536C317.003 39.9626 316.539 40.176 315.953 40.176C315.526 40.176 315.222 40.0693 315.041 39.856C314.87 39.632 314.785 39.296 314.785 38.848C314.785 38.528 314.817 38.1706 314.881 37.776L315.041 36.816C314.646 36.88 314.198 36.9226 313.697 36.944C313.462 36.944 313.27 37.0506 313.121 37.264C312.971 37.4666 312.811 37.8506 312.641 38.416C312.481 38.9066 312.321 39.28 312.161 39.536C312.001 39.7813 311.825 39.9466 311.633 40.032C311.441 40.128 311.201 40.176 310.913 40.176C310.454 40.176 310.097 40 309.841 39.648C309.585 39.296 309.43 38.8693 309.377 38.368L309.825 38.272C309.878 38.6453 309.985 38.912 310.145 39.072C310.315 39.232 310.491 39.296 310.673 39.264C310.822 39.2426 310.95 39.152 311.057 38.992C311.174 38.8213 311.35 38.4533 311.585 37.888C311.745 37.4933 311.915 37.1946 312.097 36.992C312.289 36.7893 312.561 36.672 312.913 36.64C312.454 36.4906 312.086 36.24 311.809 35.888C311.531 35.5253 311.393 35.0773 311.393 34.544C311.393 33.9466 311.547 33.4506 311.857 33.056C312.166 32.6506 312.571 32.352 313.073 32.16C313.574 31.968 314.113 31.872 314.689 31.872C315.393 31.872 316.118 31.9306 316.865 32.048L316.033 38.656C316.022 38.7093 316.017 38.7786 316.017 38.864C316.017 39.1946 316.155 39.36 316.433 39.36C316.635 39.36 316.849 39.2373 317.073 38.992C317.297 38.736 317.494 38.3466 317.665 37.824L318.113 37.92ZM315.137 36.208C315.414 34.4693 315.574 33.3173 315.617 32.752C315.243 32.624 314.897 32.56 314.577 32.56C314.011 32.56 313.553 32.7413 313.201 33.104C312.859 33.4666 312.689 33.984 312.689 34.656C312.689 35.168 312.806 35.5786 313.041 35.888C313.275 36.1973 313.622 36.352 314.081 36.352C314.411 36.352 314.763 36.304 315.137 36.208Z" fill="#A7A7A7"/>
<path d="M325.908 40.176C325.076 40.176 324.399 39.8826 323.876 39.296C323.364 38.7093 323.108 37.872 323.108 36.784C323.108 35.888 323.274 35.088 323.604 34.384C323.935 33.6693 324.383 33.1146 324.948 32.72C325.524 32.3253 326.159 32.128 326.852 32.128C327.567 32.128 328.079 32.336 328.388 32.752C328.26 31.376 327.972 30.32 327.524 29.584C327.087 28.8373 326.554 28.464 325.924 28.464C325.295 28.464 324.724 28.7146 324.212 29.216L323.908 28.848C324.303 28.5066 324.666 28.2613 324.996 28.112C325.338 27.952 325.7 27.872 326.084 27.872C327.311 27.872 328.223 28.464 328.82 29.648C329.418 30.8213 329.716 32.32 329.716 34.144C329.716 35.5733 329.535 36.7413 329.172 37.648C328.82 38.544 328.356 39.1893 327.78 39.584C327.215 39.9786 326.591 40.176 325.908 40.176ZM326.212 39.568C326.906 39.568 327.423 39.1306 327.764 38.256C328.116 37.3813 328.324 36.3413 328.388 35.136C328.431 34.432 328.308 33.856 328.02 33.408C327.732 32.9493 327.348 32.72 326.868 32.72C326.484 32.72 326.106 32.88 325.732 33.2C325.359 33.5093 325.05 33.9626 324.804 34.56C324.57 35.1466 324.452 35.8293 324.452 36.608C324.452 37.472 324.607 38.1813 324.916 38.736C325.236 39.2906 325.668 39.568 326.212 39.568Z" fill="#A7A7A7"/>
<path d="M339.558 37.92C339.505 38.2186 339.393 38.544 339.222 38.896C339.051 39.2373 338.817 39.536 338.518 39.792C338.219 40.048 337.873 40.176 337.478 40.176C337.062 40.176 336.753 40.048 336.55 39.792C336.347 39.536 336.246 39.184 336.246 38.736C336.246 38.3413 336.321 37.6213 336.47 36.576C336.694 34.9226 336.806 33.7066 336.806 32.928V32.608L335.718 32.624H336.134C335.867 32.624 335.697 32.7946 335.622 33.136C335.195 35.28 334.646 36.9866 333.974 38.256C333.302 39.5253 332.443 40.16 331.398 40.16C331.099 40.16 330.849 40.0746 330.646 39.904C330.454 39.7333 330.358 39.5306 330.358 39.296C330.358 39.0933 330.427 38.9173 330.566 38.768C330.705 38.608 330.881 38.528 331.094 38.528C331.275 38.528 331.435 38.5866 331.574 38.704C331.713 38.8213 331.782 38.9706 331.782 39.152C331.782 39.2266 331.771 39.3066 331.75 39.392C332.198 39.4453 332.63 39.1413 333.046 38.48C333.473 37.808 333.841 36.944 334.15 35.888C334.47 34.8213 334.71 33.7333 334.87 32.624L333.398 32.64L333.446 32H338.118C338.129 32.096 338.134 32.2346 338.134 32.416C338.134 32.6933 338.097 33.1626 338.022 33.824C337.958 34.4746 337.883 35.136 337.798 35.808C337.606 37.4293 337.51 38.3786 337.51 38.656C337.51 39.1253 337.654 39.36 337.942 39.36C338.145 39.36 338.353 39.2373 338.566 38.992C338.779 38.736 338.961 38.3466 339.11 37.824L339.558 37.92ZM335.574 33.28V33.328V33.28Z" fill="#A7A7A7"/>
<path d="M348.534 37.92C348.374 38.5706 348.118 39.1093 347.766 39.536C347.425 39.9626 346.961 40.176 346.374 40.176C345.948 40.176 345.644 40.0693 345.462 39.856C345.292 39.632 345.206 39.296 345.206 38.848C345.206 38.528 345.238 38.1706 345.302 37.776L345.462 36.816C345.068 36.88 344.62 36.9226 344.118 36.944C343.884 36.944 343.692 37.0506 343.542 37.264C343.393 37.4666 343.233 37.8506 343.062 38.416C342.902 38.9066 342.742 39.28 342.582 39.536C342.422 39.7813 342.246 39.9466 342.054 40.032C341.862 40.128 341.622 40.176 341.334 40.176C340.876 40.176 340.518 40 340.262 39.648C340.006 39.296 339.852 38.8693 339.798 38.368L340.246 38.272C340.3 38.6453 340.406 38.912 340.566 39.072C340.737 39.232 340.913 39.296 341.094 39.264C341.244 39.2426 341.372 39.152 341.478 38.992C341.596 38.8213 341.772 38.4533 342.006 37.888C342.166 37.4933 342.337 37.1946 342.518 36.992C342.71 36.7893 342.982 36.672 343.334 36.64C342.876 36.4906 342.508 36.24 342.23 35.888C341.953 35.5253 341.814 35.0773 341.814 34.544C341.814 33.9466 341.969 33.4506 342.278 33.056C342.588 32.6506 342.993 32.352 343.494 32.16C343.996 31.968 344.534 31.872 345.11 31.872C345.814 31.872 346.54 31.9306 347.286 32.048L346.454 38.656C346.444 38.7093 346.438 38.7786 346.438 38.864C346.438 39.1946 346.577 39.36 346.854 39.36C347.057 39.36 347.27 39.2373 347.494 38.992C347.718 38.736 347.916 38.3466 348.086 37.824L348.534 37.92ZM345.558 36.208C345.836 34.4693 345.996 33.3173 346.038 32.752C345.665 32.624 345.318 32.56 344.998 32.56C344.433 32.56 343.974 32.7413 343.622 33.104C343.281 33.4666 343.11 33.984 343.11 34.656C343.11 35.168 343.228 35.5786 343.462 35.888C343.697 36.1973 344.044 36.352 344.502 36.352C344.833 36.352 345.185 36.304 345.558 36.208Z" fill="#A7A7A7"/>
<path d="M198.576 51.824C199.152 51.824 199.669 51.9626 200.128 52.24C200.597 52.5173 200.96 52.9226 201.216 53.456C201.483 53.9786 201.616 54.6026 201.616 55.328C201.616 56.2026 201.456 57.008 201.136 57.744C200.827 58.48 200.373 59.072 199.776 59.52C199.189 59.9573 198.496 60.176 197.696 60.176C196.683 60.176 195.915 59.8453 195.392 59.184C194.88 58.512 194.624 57.648 194.624 56.592C194.624 55.7173 194.784 54.9173 195.104 54.192C195.424 53.4666 195.883 52.8906 196.48 52.464C197.077 52.0373 197.776 51.824 198.576 51.824ZM198.32 52.416C197.851 52.416 197.44 52.5866 197.088 52.928C196.747 53.2586 196.485 53.7173 196.304 54.304C196.123 54.88 196.032 55.5253 196.032 56.24C196.032 57.1253 196.176 57.904 196.464 58.576C196.752 59.2373 197.221 59.568 197.872 59.568C198.416 59.568 198.859 59.36 199.2 58.944C199.552 58.528 199.808 58.016 199.968 57.408C200.128 56.8 200.208 56.208 200.208 55.632C200.208 54.736 200.064 53.9786 199.776 53.36C199.499 52.7306 199.013 52.416 198.32 52.416Z" fill="#A7A7A7"/>
<path d="M206.248 60.16C205.277 60.16 204.482 59.8026 203.864 59.088C203.256 58.3626 202.952 57.3013 202.952 55.904C202.952 55.7653 202.962 55.536 202.984 55.216C203.08 53.712 203.394 52.4213 203.928 51.344C204.461 50.256 205.229 49.5253 206.232 49.152C206.466 49.056 206.706 48.9866 206.952 48.944C207.197 48.9013 207.517 48.8586 207.912 48.816C208.285 48.784 208.594 48.736 208.84 48.672C209.245 48.576 209.544 48.48 209.736 48.384C209.938 48.288 210.104 48.112 210.232 47.856L210.696 48.016C210.376 49.0186 209.736 49.68 208.776 50C208.584 50.0746 208.36 50.1333 208.104 50.176C207.858 50.2186 207.618 50.256 207.384 50.288C206.914 50.352 206.578 50.4106 206.376 50.464C205.501 50.72 204.85 51.1626 204.424 51.792C204.008 52.4213 203.72 53.28 203.56 54.368H203.672C204.312 52.992 205.384 52.304 206.888 52.304C207.41 52.304 207.901 52.4373 208.36 52.704C208.829 52.9706 209.202 53.3653 209.48 53.888C209.768 54.4 209.912 55.0133 209.912 55.728C209.912 56.5813 209.741 57.344 209.4 58.016C209.058 58.688 208.605 59.216 208.04 59.6C207.485 59.9733 206.888 60.16 206.248 60.16ZM206.184 59.552C206.941 59.552 207.517 59.2 207.912 58.496C208.317 57.7813 208.52 56.8586 208.52 55.728C208.52 54.928 208.36 54.256 208.04 53.712C207.72 53.1573 207.256 52.88 206.648 52.88C205.901 52.88 205.33 53.2266 204.936 53.92C204.541 54.6026 204.344 55.424 204.344 56.384C204.344 57.344 204.509 58.112 204.84 58.688C205.17 59.264 205.618 59.552 206.184 59.552Z" fill="#A7A7A7"/>
<path d="M220.032 57.92C219.978 58.2186 219.861 58.544 219.68 58.896C219.509 59.248 219.274 59.552 218.976 59.808C218.688 60.0533 218.346 60.176 217.952 60.176C217.536 60.176 217.226 60.048 217.024 59.792C216.821 59.536 216.72 59.184 216.72 58.736C216.72 58.448 216.778 57.856 216.896 56.96L216.944 56.512L213.856 56.544L213.568 58.992C213.546 59.2053 213.536 59.36 213.536 59.456C213.536 59.6373 213.552 59.8186 213.584 60H212.24C212.229 59.904 212.224 59.7653 212.224 59.584C212.234 59.1893 212.33 58.3733 212.512 57.136L212.608 56.384L212.704 55.696C212.8 54.9813 212.864 54.464 212.896 54.144C212.938 53.8133 212.96 53.5466 212.96 53.344C212.981 52.864 212.842 52.624 212.544 52.624C212.341 52.624 212.128 52.752 211.904 53.008C211.69 53.264 211.504 53.6533 211.344 54.176L210.896 54.08C210.96 53.7813 211.082 53.456 211.264 53.104C211.445 52.752 211.685 52.4533 211.984 52.208C212.282 51.952 212.629 51.824 213.024 51.824C213.802 51.824 214.192 52.3413 214.192 53.376C214.192 53.5466 214.17 53.824 214.128 54.208L213.936 55.904H217.024C217.194 54.56 217.28 53.568 217.28 52.928C217.28 52.736 217.269 52.4266 217.248 52H218.592C218.602 52.096 218.608 52.2346 218.608 52.416C218.608 52.6933 218.57 53.1626 218.496 53.824C218.432 54.4746 218.357 55.136 218.272 55.808C218.08 57.4293 217.984 58.3786 217.984 58.656C217.984 59.1253 218.128 59.36 218.416 59.36C218.618 59.36 218.826 59.2373 219.04 58.992C219.253 58.736 219.434 58.3466 219.584 57.824L220.032 57.92Z" fill="#A7A7A7"/>
<path d="M224.779 51.824C225.355 51.824 225.872 51.9626 226.331 52.24C226.8 52.5173 227.163 52.9226 227.419 53.456C227.686 53.9786 227.819 54.6026 227.819 55.328C227.819 56.2026 227.659 57.008 227.339 57.744C227.03 58.48 226.576 59.072 225.979 59.52C225.392 59.9573 224.699 60.176 223.899 60.176C222.886 60.176 222.118 59.8453 221.595 59.184C221.083 58.512 220.827 57.648 220.827 56.592C220.827 55.7173 220.987 54.9173 221.307 54.192C221.627 53.4666 222.086 52.8906 222.683 52.464C223.28 52.0373 223.979 51.824 224.779 51.824ZM224.523 52.416C224.054 52.416 223.643 52.5866 223.291 52.928C222.95 53.2586 222.688 53.7173 222.507 54.304C222.326 54.88 222.235 55.5253 222.235 56.24C222.235 57.1253 222.379 57.904 222.667 58.576C222.955 59.2373 223.424 59.568 224.075 59.568C224.619 59.568 225.062 59.36 225.403 58.944C225.755 58.528 226.011 58.016 226.171 57.408C226.331 56.8 226.411 56.208 226.411 55.632C226.411 54.736 226.267 53.9786 225.979 53.36C225.702 52.7306 225.216 52.416 224.523 52.416Z" fill="#A7A7A7"/>
<path d="M233.331 55.552C234.035 55.5093 234.547 55.664 234.867 56.016C235.198 56.368 235.363 56.8106 235.363 57.344C235.363 57.8666 235.219 58.3466 234.931 58.784C234.654 59.2106 234.264 59.552 233.763 59.808C233.262 60.0533 232.702 60.176 232.083 60.176C231.123 60.176 230.398 59.872 229.907 59.264C229.416 58.6453 229.171 57.7973 229.171 56.72C229.171 55.8666 229.315 55.0666 229.603 54.32C229.891 53.5733 230.312 52.9706 230.867 52.512C231.432 52.0533 232.104 51.824 232.883 51.824C233.47 51.824 233.966 51.9573 234.371 52.224C234.776 52.48 234.979 52.8693 234.979 53.392C234.979 53.7973 234.84 54.192 234.563 54.576C234.296 54.9493 233.886 55.2746 233.331 55.552ZM232.723 52.368C232.126 52.368 231.635 52.7146 231.251 53.408C230.867 54.1013 230.643 54.9653 230.579 56C231.688 55.744 232.467 55.424 232.915 55.04C233.363 54.6453 233.587 54.1333 233.587 53.504C233.587 52.7466 233.299 52.368 232.723 52.368ZM232.451 59.568C232.931 59.568 233.31 59.4026 233.587 59.072C233.864 58.7413 234.003 58.2986 234.003 57.744C234.003 57.264 233.886 56.8746 233.651 56.576C233.427 56.2773 233.096 56.128 232.659 56.128C232.467 56.128 232.259 56.16 232.035 56.224L230.563 56.608C230.595 57.536 230.76 58.2613 231.059 58.784C231.368 59.3066 231.832 59.568 232.451 59.568Z" fill="#A7A7A7"/>
<path d="M245.152 57.92C245.098 58.2186 244.986 58.544 244.816 58.896C244.645 59.2373 244.41 59.536 244.112 59.792C243.813 60.048 243.466 60.176 243.072 60.176C242.656 60.176 242.346 60.048 242.144 59.792C241.941 59.536 241.84 59.184 241.84 58.736C241.84 58.3413 241.914 57.6213 242.064 56.576C242.288 54.9226 242.4 53.7066 242.4 52.928V52.608L241.312 52.624H241.728C241.461 52.624 241.29 52.7946 241.216 53.136C240.789 55.28 240.24 56.9866 239.568 58.256C238.896 59.5253 238.037 60.16 236.992 60.16C236.693 60.16 236.442 60.0746 236.24 59.904C236.048 59.7333 235.952 59.5306 235.952 59.296C235.952 59.0933 236.021 58.9173 236.16 58.768C236.298 58.608 236.474 58.528 236.688 58.528C236.869 58.528 237.029 58.5866 237.168 58.704C237.306 58.8213 237.376 58.9706 237.376 59.152C237.376 59.2266 237.365 59.3066 237.344 59.392C237.792 59.4453 238.224 59.1413 238.64 58.48C239.066 57.808 239.434 56.944 239.744 55.888C240.064 54.8213 240.304 53.7333 240.464 52.624L238.992 52.64L239.04 52H243.712C243.722 52.096 243.728 52.2346 243.728 52.416C243.728 52.6933 243.69 53.1626 243.616 53.824C243.552 54.4746 243.477 55.136 243.392 55.808C243.2 57.4293 243.104 58.3786 243.104 58.656C243.104 59.1253 243.248 59.36 243.536 59.36C243.738 59.36 243.946 59.2373 244.16 58.992C244.373 58.736 244.554 58.3466 244.704 57.824L245.152 57.92ZM241.168 53.28V53.328V53.28Z" fill="#A7A7A7"/>
<path d="M249.84 51.824C250.48 51.824 251.013 51.9733 251.44 52.272C251.867 52.5706 252.08 53.0346 252.08 53.664C252.08 54.4533 251.605 55.0666 250.656 55.504C249.707 55.9413 248.608 56.2293 247.36 56.368C247.36 57.3706 247.509 58.1226 247.808 58.624C248.107 59.1253 248.565 59.376 249.184 59.376C249.675 59.376 250.149 59.216 250.608 58.896C251.067 58.5653 251.467 58.08 251.808 57.44L252.336 57.744C251.888 58.5866 251.387 59.2053 250.832 59.6C250.277 59.984 249.637 60.176 248.912 60.176C247.931 60.176 247.189 59.872 246.688 59.264C246.197 58.6453 245.952 57.7973 245.952 56.72C245.952 55.856 246.096 55.056 246.384 54.32C246.683 53.5733 247.125 52.9706 247.712 52.512C248.299 52.0533 249.008 51.824 249.84 51.824ZM249.616 52.368C248.933 52.368 248.405 52.6986 248.032 53.36C247.659 54.0213 247.44 54.832 247.376 55.792C248.304 55.664 249.099 55.408 249.76 55.024C250.421 54.64 250.752 54.16 250.752 53.584C250.752 53.232 250.651 52.944 250.448 52.72C250.256 52.4853 249.979 52.368 249.616 52.368Z" fill="#A7A7A7"/>
<path d="M262.297 57.92C262.244 58.2186 262.126 58.544 261.945 58.896C261.774 59.248 261.54 59.552 261.241 59.808C260.953 60.0533 260.612 60.176 260.217 60.176C259.801 60.176 259.492 60.048 259.289 59.792C259.086 59.536 258.985 59.184 258.985 58.736C258.985 58.448 259.044 57.856 259.161 56.96L259.209 56.512L256.121 56.544L255.833 58.992C255.812 59.2053 255.801 59.36 255.801 59.456C255.801 59.6373 255.817 59.8186 255.849 60H254.505C254.494 59.904 254.489 59.7653 254.489 59.584C254.5 59.1893 254.596 58.3733 254.777 57.136L254.873 56.384L254.969 55.696C255.065 54.9813 255.129 54.464 255.161 54.144C255.204 53.8133 255.225 53.5466 255.225 53.344C255.246 52.864 255.108 52.624 254.809 52.624C254.606 52.624 254.393 52.752 254.169 53.008C253.956 53.264 253.769 53.6533 253.609 54.176L253.161 54.08C253.225 53.7813 253.348 53.456 253.529 53.104C253.71 52.752 253.95 52.4533 254.249 52.208C254.548 51.952 254.894 51.824 255.289 51.824C256.068 51.824 256.457 52.3413 256.457 53.376C256.457 53.5466 256.436 53.824 256.393 54.208L256.201 55.904H259.289C259.46 54.56 259.545 53.568 259.545 52.928C259.545 52.736 259.534 52.4266 259.513 52H260.857C260.868 52.096 260.873 52.2346 260.873 52.416C260.873 52.6933 260.836 53.1626 260.761 53.824C260.697 54.4746 260.622 55.136 260.537 55.808C260.345 57.4293 260.249 58.3786 260.249 58.656C260.249 59.1253 260.393 59.36 260.681 59.36C260.884 59.36 261.092 59.2373 261.305 58.992C261.518 58.736 261.7 58.3466 261.849 57.824L262.297 57.92Z" fill="#A7A7A7"/>
<path d="M264.597 51.824C265.023 51.824 265.343 51.9573 265.557 52.224C265.781 52.4906 265.893 52.8746 265.893 53.376C265.893 53.76 265.807 54.56 265.637 55.776C265.626 55.872 265.578 56.2346 265.493 56.864C265.407 57.4826 265.365 58 265.365 58.416C265.365 58.672 265.418 58.9066 265.525 59.12C265.642 59.3226 265.839 59.424 266.117 59.424C266.586 59.424 267.055 59.072 267.525 58.368C267.994 57.6533 268.378 56.7786 268.677 55.744C268.986 54.7093 269.141 53.744 269.141 52.848C269.141 52.6453 269.13 52.3626 269.109 52H270.453C270.463 52.096 270.469 52.2346 270.469 52.416C270.469 52.672 270.442 53.0666 270.389 53.6C270.335 54.1333 270.255 54.8266 270.149 55.68L269.989 57.008C269.978 57.1466 269.951 57.4026 269.909 57.776C269.866 58.1493 269.845 58.4426 269.845 58.656C269.845 59.1253 269.989 59.36 270.277 59.36C270.479 59.36 270.687 59.2373 270.901 58.992C271.114 58.736 271.295 58.3466 271.445 57.824L271.893 57.92C271.839 58.2186 271.722 58.544 271.541 58.896C271.37 59.248 271.135 59.552 270.837 59.808C270.549 60.0533 270.207 60.176 269.813 60.176C269.397 60.176 269.087 60.048 268.885 59.792C268.682 59.536 268.581 59.184 268.581 58.736C268.581 58.2666 268.677 57.552 268.869 56.592H268.821C268.309 57.968 267.818 58.912 267.349 59.424C266.879 59.9253 266.362 60.176 265.797 60.176C265.199 60.176 264.757 59.984 264.469 59.6C264.191 59.2053 264.053 58.704 264.053 58.096C264.053 57.6373 264.079 57.1733 264.133 56.704C264.186 56.2346 264.266 55.6693 264.373 55.008C264.394 54.8906 264.431 54.6453 264.485 54.272C264.538 53.888 264.565 53.5893 264.565 53.376C264.565 53.1306 264.533 52.944 264.469 52.816C264.415 52.688 264.303 52.624 264.133 52.624C263.941 52.624 263.743 52.752 263.541 53.008C263.338 53.2533 263.162 53.6426 263.013 54.176L262.565 54.08C262.661 53.5573 262.879 53.0506 263.221 52.56C263.573 52.0693 264.031 51.824 264.597 51.824Z" fill="#A7A7A7"/>
<path d="M280.753 57.92C280.593 58.5706 280.337 59.1093 279.985 59.536C279.644 59.9626 279.18 60.176 278.593 60.176C278.166 60.176 277.862 60.0693 277.681 59.856C277.51 59.632 277.425 59.296 277.425 58.848C277.425 58.528 277.457 58.1706 277.521 57.776L277.681 56.816C277.286 56.88 276.838 56.9226 276.337 56.944C276.102 56.944 275.91 57.0506 275.761 57.264C275.612 57.4666 275.452 57.8506 275.281 58.416C275.121 58.9066 274.961 59.28 274.801 59.536C274.641 59.7813 274.465 59.9466 274.273 60.032C274.081 60.128 273.841 60.176 273.553 60.176C273.094 60.176 272.737 60 272.481 59.648C272.225 59.296 272.07 58.8693 272.017 58.368L272.465 58.272C272.518 58.6453 272.625 58.912 272.785 59.072C272.956 59.232 273.132 59.296 273.313 59.264C273.462 59.2426 273.59 59.152 273.697 58.992C273.814 58.8213 273.99 58.4533 274.225 57.888C274.385 57.4933 274.556 57.1946 274.737 56.992C274.929 56.7893 275.201 56.672 275.553 56.64C275.094 56.4906 274.726 56.24 274.449 55.888C274.172 55.5253 274.033 55.0773 274.033 54.544C274.033 53.9466 274.188 53.4506 274.497 53.056C274.806 52.6506 275.212 52.352 275.713 52.16C276.214 51.968 276.753 51.872 277.329 51.872C278.033 51.872 278.758 51.9306 279.505 52.048L278.673 58.656C278.662 58.7093 278.657 58.7786 278.657 58.864C278.657 59.1946 278.796 59.36 279.073 59.36C279.276 59.36 279.489 59.2373 279.713 58.992C279.937 58.736 280.134 58.3466 280.305 57.824L280.753 57.92ZM277.777 56.208C278.054 54.4693 278.214 53.3173 278.257 52.752C277.884 52.624 277.537 52.56 277.217 52.56C276.652 52.56 276.193 52.7413 275.841 53.104C275.5 53.4666 275.329 53.984 275.329 54.656C275.329 55.168 275.446 55.5786 275.681 55.888C275.916 56.1973 276.262 56.352 276.721 56.352C277.052 56.352 277.404 56.304 277.777 56.208Z" fill="#A7A7A7"/>
<path d="M293.941 58.368C293.834 58.88 293.632 59.312 293.333 59.664C293.034 60.0053 292.634 60.176 292.133 60.176C291.738 60.176 291.434 60.0266 291.221 59.728C291.018 59.4293 290.885 58.88 290.821 58.08C290.757 57.3333 290.634 56.816 290.453 56.528C290.272 56.24 289.989 56.096 289.605 56.096L288.277 56.112C288.096 57.52 288.016 58.5226 288.037 59.12C288.037 59.28 288.048 59.5733 288.069 60H286.741L286.725 59.808L286.741 59.584C286.741 58.9973 286.842 57.904 287.045 56.304C287.141 55.4826 287.226 54.8426 287.301 54.384C287.365 53.8613 287.397 53.504 287.397 53.312C287.397 53.0986 287.37 52.9333 287.317 52.816C287.264 52.688 287.152 52.624 286.981 52.624C286.778 52.624 286.565 52.752 286.341 53.008C286.128 53.264 285.941 53.6533 285.781 54.176L285.333 54.08C285.397 53.7813 285.52 53.456 285.701 53.104C285.882 52.752 286.122 52.4533 286.421 52.208C286.72 51.952 287.066 51.824 287.461 51.824C287.877 51.824 288.17 51.9413 288.341 52.176C288.522 52.4106 288.613 52.768 288.613 53.248C288.613 53.5146 288.576 53.92 288.501 54.464L288.341 55.648H288.853C289.322 55.648 289.69 55.52 289.957 55.264C290.234 55.008 290.496 54.56 290.741 53.92C291.018 53.152 291.312 52.6133 291.621 52.304C291.941 51.984 292.346 51.824 292.837 51.824C293.114 51.824 293.333 51.904 293.493 52.064C293.653 52.224 293.733 52.4373 293.733 52.704C293.733 52.928 293.664 53.12 293.525 53.28C293.397 53.44 293.216 53.52 292.981 53.52C292.714 53.52 292.506 53.4613 292.357 53.344C292.208 53.2266 292.122 53.0613 292.101 52.848C291.952 52.944 291.818 53.088 291.701 53.28C291.584 53.472 291.45 53.776 291.301 54.192C291.162 54.576 290.992 54.9066 290.789 55.184C290.586 55.4613 290.362 55.664 290.117 55.792C291.269 55.824 291.909 56.4533 292.037 57.68C292.101 58.3093 292.176 58.736 292.261 58.96C292.357 59.1733 292.528 59.28 292.773 59.28C292.933 59.28 293.072 59.2053 293.189 59.056C293.306 58.896 293.408 58.64 293.493 58.288L293.941 58.368Z" fill="#A7A7A7"/>
<path d="M298.889 51.824C299.465 51.824 299.982 51.9626 300.441 52.24C300.91 52.5173 301.273 52.9226 301.529 53.456C301.795 53.9786 301.929 54.6026 301.929 55.328C301.929 56.2026 301.769 57.008 301.449 57.744C301.139 58.48 300.686 59.072 300.089 59.52C299.502 59.9573 298.809 60.176 298.009 60.176C296.995 60.176 296.227 59.8453 295.705 59.184C295.193 58.512 294.937 57.648 294.937 56.592C294.937 55.7173 295.097 54.9173 295.417 54.192C295.737 53.4666 296.195 52.8906 296.793 52.464C297.39 52.0373 298.089 51.824 298.889 51.824ZM298.633 52.416C298.163 52.416 297.753 52.5866 297.401 52.928C297.059 53.2586 296.798 53.7173 296.617 54.304C296.435 54.88 296.345 55.5253 296.345 56.24C296.345 57.1253 296.489 57.904 296.777 58.576C297.065 59.2373 297.534 59.568 298.185 59.568C298.729 59.568 299.171 59.36 299.513 58.944C299.865 58.528 300.121 58.016 300.281 57.408C300.441 56.8 300.521 56.208 300.521 55.632C300.521 54.736 300.377 53.9786 300.089 53.36C299.811 52.7306 299.326 52.416 298.633 52.416Z" fill="#A7A7A7"/>
<path d="M315.632 57.648C315.259 58.576 314.886 59.232 314.512 59.616C314.15 59.9893 313.718 60.176 313.216 60.176C312.502 60.176 311.952 59.872 311.568 59.264C311.195 58.656 311.019 57.792 311.04 56.672C311.04 56.544 311.051 56.352 311.072 56.096H310C309.851 57.4506 309.782 58.4586 309.792 59.12C309.792 59.3866 309.808 59.68 309.84 60H308.512C308.502 59.904 308.496 59.7653 308.496 59.584C308.496 58.9333 308.582 57.84 308.752 56.304L308.768 56.112H307.696C307.547 57.296 307.206 58.272 306.672 59.04C306.15 59.7973 305.499 60.176 304.72 60.176C304.432 60.176 304.155 60.096 303.888 59.936C303.622 59.776 303.408 59.5626 303.248 59.296C303.088 59.0186 303.008 58.7146 303.008 58.384C303.008 58.1066 303.078 57.888 303.216 57.728C303.355 57.568 303.531 57.488 303.744 57.488C303.958 57.488 304.118 57.552 304.224 57.68C304.342 57.7973 304.395 57.9413 304.384 58.112C304.384 58.368 304.288 58.5866 304.096 58.768C304.139 59.056 304.219 59.264 304.336 59.392C304.454 59.5093 304.619 59.568 304.832 59.568C305.323 59.568 305.712 59.1733 306 58.384C306.299 57.584 306.475 56.688 306.528 55.696C306.539 55.5573 306.544 55.3546 306.544 55.088C306.544 54.2346 306.448 53.6106 306.256 53.216C306.064 52.8106 305.808 52.608 305.488 52.608C305.168 52.608 304.88 52.736 304.624 52.992C304.379 53.248 304.128 53.7013 303.872 54.352L303.392 54.08C303.776 53.216 304.15 52.624 304.512 52.304C304.875 51.984 305.296 51.824 305.776 51.824C306.192 51.824 306.555 51.9626 306.864 52.24C307.174 52.5066 307.408 52.9066 307.568 53.44C307.728 53.9626 307.792 54.592 307.76 55.328L307.744 55.648H308.832C308.918 54.9546 308.976 54.4 309.008 53.984C309.051 53.568 309.067 53.136 309.056 52.688C309.056 52.432 309.04 52.144 309.008 51.824H310.304C310.315 51.92 310.32 52.0586 310.32 52.24C310.32 52.5813 310.294 53.0133 310.24 53.536C310.198 54.0586 310.15 54.5866 310.096 55.12L310.048 55.648H311.104C311.243 54.5173 311.552 53.6 312.032 52.896C312.512 52.1813 313.12 51.824 313.856 51.824C314.379 51.824 314.8 51.9946 315.12 52.336C315.451 52.6773 315.616 53.1093 315.616 53.632C315.616 53.9093 315.547 54.128 315.408 54.288C315.28 54.4373 315.115 54.512 314.912 54.512C314.699 54.512 314.539 54.4533 314.432 54.336C314.326 54.208 314.272 54.0586 314.272 53.888C314.272 53.6106 314.352 53.392 314.512 53.232C314.512 52.9866 314.454 52.7893 314.336 52.64C314.23 52.4906 314.064 52.416 313.84 52.416C313.499 52.416 313.206 52.6293 312.96 53.056C312.726 53.472 312.55 54 312.432 54.64C312.326 55.2693 312.272 55.8933 312.272 56.512C312.272 57.5573 312.374 58.3306 312.576 58.832C312.79 59.3226 313.067 59.568 313.408 59.568C313.739 59.568 314.032 59.3973 314.288 59.056C314.544 58.7146 314.811 58.1546 315.088 57.376L315.632 57.648Z" fill="#A7A7A7"/>
<path d="M318.331 51.824C318.758 51.824 319.078 51.9573 319.291 52.224C319.515 52.4906 319.627 52.8746 319.627 53.376C319.627 53.76 319.542 54.56 319.371 55.776C319.36 55.872 319.312 56.2346 319.227 56.864C319.142 57.4826 319.099 58 319.099 58.416C319.099 58.672 319.152 58.9066 319.259 59.12C319.376 59.3226 319.574 59.424 319.851 59.424C320.32 59.424 320.79 59.072 321.259 58.368C321.728 57.6533 322.112 56.7786 322.411 55.744C322.72 54.7093 322.875 53.744 322.875 52.848C322.875 52.6453 322.864 52.3626 322.843 52H324.187C324.198 52.096 324.203 52.2346 324.203 52.416C324.203 52.672 324.176 53.0666 324.123 53.6C324.07 54.1333 323.99 54.8266 323.883 55.68L323.723 57.008C323.712 57.1466 323.686 57.4026 323.643 57.776C323.6 58.1493 323.579 58.4426 323.579 58.656C323.579 59.1253 323.723 59.36 324.011 59.36C324.214 59.36 324.422 59.2373 324.635 58.992C324.848 58.736 325.03 58.3466 325.179 57.824L325.627 57.92C325.574 58.2186 325.456 58.544 325.275 58.896C325.104 59.248 324.87 59.552 324.571 59.808C324.283 60.0533 323.942 60.176 323.547 60.176C323.131 60.176 322.822 60.048 322.619 59.792C322.416 59.536 322.315 59.184 322.315 58.736C322.315 58.2666 322.411 57.552 322.603 56.592H322.555C322.043 57.968 321.552 58.912 321.083 59.424C320.614 59.9253 320.096 60.176 319.531 60.176C318.934 60.176 318.491 59.984 318.203 59.6C317.926 59.2053 317.787 58.704 317.787 58.096C317.787 57.6373 317.814 57.1733 317.867 56.704C317.92 56.2346 318 55.6693 318.107 55.008C318.128 54.8906 318.166 54.6453 318.219 54.272C318.272 53.888 318.299 53.5893 318.299 53.376C318.299 53.1306 318.267 52.944 318.203 52.816C318.15 52.688 318.038 52.624 317.867 52.624C317.675 52.624 317.478 52.752 317.275 53.008C317.072 53.2533 316.896 53.6426 316.747 54.176L316.299 54.08C316.395 53.5573 316.614 53.0506 316.955 52.56C317.307 52.0693 317.766 51.824 318.331 51.824Z" fill="#A7A7A7"/>
<path d="M127.005 21.46C130.862 21.46 134.003 22.4133 136.43 24.32C138.9 26.1833 140.027 29.1516 139.81 33.225C139.507 38.2083 135.043 44.0366 126.42 50.71C123.17 53.18 120.613 55.4333 118.75 57.47C116.887 59.4633 115.738 61.37 115.305 63.19L126.615 63.515C127.568 63.5583 128.89 63.58 130.58 63.58C132.963 63.58 134.718 63.2766 135.845 62.67C137.015 62.0633 137.643 60.85 137.73 59.03H139.745L138.835 68H110.755C110.885 65.4433 111.448 63.1683 112.445 61.175C113.485 59.1383 114.742 57.3616 116.215 55.845C117.688 54.285 119.725 52.3783 122.325 50.125L124.6 48.175C127.2 45.7916 129.302 43.365 130.905 40.895C132.552 38.3816 133.418 36.1066 133.505 34.07C133.635 31.08 133.093 28.6533 131.88 26.79C130.71 24.9266 128.695 23.995 125.835 23.995C124.102 23.995 122.498 24.4283 121.025 25.295C119.595 26.1616 118.598 27.2666 118.035 28.61C118.685 29.3033 119.01 30.235 119.01 31.405C119.01 32.2283 118.728 32.9433 118.165 33.55C117.602 34.1566 116.865 34.46 115.955 34.46C115.088 34.46 114.352 34.1566 113.745 33.55C113.182 32.9433 112.9 32.1633 112.9 31.21C112.9 29.7366 113.463 28.2416 114.59 26.725C115.76 25.2083 117.407 23.9516 119.53 22.955C121.697 21.9583 124.188 21.46 127.005 21.46Z" fill="#A7A7A7"/>
<path d="M162.91 21.46C165.077 21.46 167.092 21.85 168.955 22.63C170.862 23.3666 172.379 24.4716 173.505 25.945C174.675 27.4183 175.26 29.195 175.26 31.275C175.26 33.7016 174.35 35.9983 172.53 38.165C170.754 40.3316 168.565 42.0866 165.965 43.43C168.999 45.25 171.425 47.33 173.245 49.67C175.065 52.01 175.91 54.5016 175.78 57.145C175.607 61.045 174.09 64.0133 171.23 66.05C168.37 68.0433 164.882 69.04 160.765 69.04C156.779 69.04 153.464 68.2166 150.82 66.57C148.177 64.9233 146.855 62.3233 146.855 58.77C146.855 55.9966 147.809 53.3966 149.715 50.97C151.665 48.5 154.157 46.355 157.19 44.535C154.33 42.8016 152.185 40.9816 150.755 39.075C149.325 37.125 148.654 35.1966 148.74 33.29C148.87 30.69 149.629 28.5016 151.015 26.725C152.445 24.9483 154.2 23.6266 156.28 22.76C158.404 21.8933 160.614 21.46 162.91 21.46ZM162.91 23.995C161.22 23.995 159.725 24.385 158.425 25.165C157.169 25.945 156.194 26.985 155.5 28.285C154.807 29.5416 154.46 30.885 154.46 32.315C154.46 34.265 155.219 36.085 156.735 37.775C158.295 39.465 160.592 40.9383 163.625 42.195C165.619 40.895 167.2 39.3566 168.37 37.58C169.584 35.76 170.234 34.07 170.32 32.51C170.494 29.8233 169.887 27.7433 168.5 26.27C167.157 24.7533 165.294 23.995 162.91 23.995ZM159.4 45.77C156.887 47.46 155.067 49.4316 153.94 51.685C152.814 53.9383 152.25 56.04 152.25 57.99C152.25 60.72 153.009 62.8216 154.525 64.295C156.042 65.725 158.209 66.44 161.025 66.44C163.582 66.44 165.684 65.6166 167.33 63.97C168.977 62.28 169.8 60.1783 169.8 57.665C169.8 55.325 168.999 53.2233 167.395 51.36C165.792 49.4533 163.56 47.8066 160.7 46.42C160.094 46.16 159.66 45.9433 159.4 45.77Z" fill="#A7A7A7"/>
<path fill-rule="evenodd" clip-rule="evenodd" d="M136 91C160.853 91 181 70.8528 181 46C181 21.1472 160.853 1 136 1C111.147 1 91 21.1472 91 46C91 70.8528 111.147 91 136 91ZM136 92C161.405 92 182 71.4051 182 46C182 20.5949 161.405 0 136 0C110.595 0 90 20.5949 90 46C90 71.4051 110.595 92 136 92Z" fill="#3688DF" fill-opacity="0.14"/>
<defs>
<filter id="filter0_d" x="0" y="61" width="170" height="190" filterUnits="userSpaceOnUse" color-interpolation-filters="sRGB">
<feFlood flood-opacity="0" result="BackgroundImageFix"/>
<feColorMatrix in="SourceAlpha" type="matrix" values="0 0 0 0 0 0 0 0 0 0 0 0 0 0 0 0 0 0 127 0"/>
<feOffset dy="100"/>
<feGaussianBlur stdDeviation="40"/>
<feColorMatrix type="matrix" values="0 0 0 0 0.807929 0 0 0 0 0.797289 0 0 0 0 0.797289 0 0 0 0.2 0"/>
<feBlend mode="normal" in2="BackgroundImageFix" result="effect1_dropShadow"/>
<feBlend mode="normal" in="SourceGraphic" in2="effect1_dropShadow" result="shape"/>
</filter>
</defs>
</svg>
