<svg width="373" height="199" viewBox="0 0 373 199" fill="none" xmlns="http://www.w3.org/2000/svg">
<g filter="url(#filter0_d)">
<circle r="3.5" transform="matrix(1 0 0 -1 83.5 15.5)" fill="#36DFB6" style="mix-blend-mode:multiply"/>
</g>
<circle cx="127" cy="46" r="45.5" stroke="#3688DF" stroke-opacity="0.14"/>
<path d="M184.576 20.824C185.152 20.824 185.669 20.9627 186.128 21.24C186.597 21.5173 186.96 21.9227 187.216 22.456C187.483 22.9787 187.616 23.6027 187.616 24.328C187.616 25.2027 187.456 26.008 187.136 26.744C186.827 27.48 186.373 28.072 185.776 28.52C185.189 28.9573 184.496 29.176 183.696 29.176C182.683 29.176 181.915 28.8453 181.392 28.184C180.88 27.512 180.624 26.648 180.624 25.592C180.624 24.7173 180.784 23.9173 181.104 23.192C181.424 22.4667 181.883 21.8907 182.48 21.464C183.077 21.0373 183.776 20.824 184.576 20.824ZM184.32 21.416C183.851 21.416 183.44 21.5867 183.088 21.928C182.747 22.2587 182.485 22.7173 182.304 23.304C182.123 23.88 182.032 24.5253 182.032 25.24C182.032 26.1253 182.176 26.904 182.464 27.576C182.752 28.2373 183.221 28.568 183.872 28.568C184.416 28.568 184.859 28.36 185.2 27.944C185.552 27.528 185.808 27.016 185.968 26.408C186.128 25.8 186.208 25.208 186.208 24.632C186.208 23.736 186.064 22.9787 185.776 22.36C185.499 21.7307 185.013 21.416 184.32 21.416ZM192.792 20.824C193.24 20.824 193.645 20.9093 194.008 21.08C194.381 21.24 194.669 21.464 194.872 21.752C195.085 22.0293 195.192 22.344 195.192 22.696C195.192 22.9413 195.128 23.1333 195 23.272C194.872 23.4107 194.701 23.48 194.488 23.48C194.274 23.48 194.109 23.4107 193.992 23.272C193.885 23.1333 193.832 22.9893 193.832 22.84C193.832 22.584 193.901 22.3813 194.04 22.232C193.986 21.944 193.842 21.7307 193.608 21.592C193.384 21.4533 193.106 21.384 192.776 21.384C191.933 21.384 191.32 21.7787 190.936 22.568C190.562 23.3573 190.376 24.2693 190.376 25.304C190.376 26.3707 190.546 27.1547 190.888 27.656C191.24 28.1467 191.72 28.392 192.328 28.392C192.797 28.392 193.25 28.2373 193.688 27.928C194.125 27.608 194.488 27.0907 194.776 26.376L195.336 26.648C194.952 27.5333 194.477 28.1787 193.912 28.584C193.346 28.9787 192.728 29.176 192.056 29.176C191.085 29.176 190.328 28.888 189.784 28.312C189.24 27.7253 188.968 26.8453 188.968 25.672C188.968 24.9253 189.106 24.1787 189.384 23.432C189.672 22.6853 190.104 22.0667 190.68 21.576C191.256 21.0747 191.96 20.824 192.792 20.824ZM205.25 26.92C205.197 27.2187 205.08 27.544 204.898 27.896C204.728 28.248 204.493 28.552 204.194 28.808C203.906 29.0533 203.565 29.176 203.17 29.176C202.754 29.176 202.445 29.048 202.242 28.792C202.04 28.536 201.938 28.184 201.938 27.736C201.938 27.448 201.997 26.856 202.114 25.96L202.162 25.512L199.074 25.544L198.786 27.992C198.765 28.2053 198.754 28.36 198.754 28.456C198.754 28.6373 198.77 28.8187 198.802 29H197.458C197.448 28.904 197.442 28.7653 197.442 28.584C197.453 28.1893 197.549 27.3733 197.73 26.136L197.826 25.384L197.922 24.696C198.018 23.9813 198.082 23.464 198.114 23.144C198.157 22.8133 198.178 22.5467 198.178 22.344C198.2 21.864 198.061 21.624 197.762 21.624C197.56 21.624 197.346 21.752 197.122 22.008C196.909 22.264 196.722 22.6533 196.562 23.176L196.114 23.08C196.178 22.7813 196.301 22.456 196.482 22.104C196.664 21.752 196.904 21.4533 197.202 21.208C197.501 20.952 197.848 20.824 198.242 20.824C199.021 20.824 199.41 21.3413 199.41 22.376C199.41 22.5467 199.389 22.824 199.346 23.208L199.154 24.904H202.242C202.413 23.56 202.498 22.568 202.498 21.928C202.498 21.736 202.488 21.4267 202.466 21H203.81C203.821 21.096 203.826 21.2347 203.826 21.416C203.826 21.6933 203.789 22.1627 203.714 22.824C203.65 23.4747 203.576 24.136 203.49 24.808C203.298 26.4293 203.202 27.3787 203.202 27.656C203.202 28.1253 203.346 28.36 203.634 28.36C203.837 28.36 204.045 28.2373 204.258 27.992C204.472 27.736 204.653 27.3467 204.802 26.824L205.25 26.92ZM209.998 20.824C210.574 20.824 211.091 20.9627 211.55 21.24C212.019 21.5173 212.382 21.9227 212.638 22.456C212.905 22.9787 213.038 23.6027 213.038 24.328C213.038 25.2027 212.878 26.008 212.558 26.744C212.249 27.48 211.795 28.072 211.198 28.52C210.611 28.9573 209.918 29.176 209.118 29.176C208.105 29.176 207.337 28.8453 206.814 28.184C206.302 27.512 206.046 26.648 206.046 25.592C206.046 24.7173 206.206 23.9173 206.526 23.192C206.846 22.4667 207.305 21.8907 207.902 21.464C208.499 21.0373 209.198 20.824 209.998 20.824ZM209.742 21.416C209.273 21.416 208.862 21.5867 208.51 21.928C208.169 22.2587 207.907 22.7173 207.726 23.304C207.545 23.88 207.454 24.5253 207.454 25.24C207.454 26.1253 207.598 26.904 207.886 27.576C208.174 28.2373 208.643 28.568 209.294 28.568C209.838 28.568 210.281 28.36 210.622 27.944C210.974 27.528 211.23 27.016 211.39 26.408C211.55 25.8 211.63 25.208 211.63 24.632C211.63 23.736 211.486 22.9787 211.198 22.36C210.921 21.7307 210.435 21.416 209.742 21.416ZM218.55 24.552C219.254 24.5093 219.766 24.664 220.086 25.016C220.416 25.368 220.582 25.8107 220.582 26.344C220.582 26.8667 220.438 27.3467 220.15 27.784C219.872 28.2107 219.483 28.552 218.982 28.808C218.48 29.0533 217.92 29.176 217.302 29.176C216.342 29.176 215.616 28.872 215.126 28.264C214.635 27.6453 214.39 26.7973 214.39 25.72C214.39 24.8667 214.534 24.0667 214.822 23.32C215.11 22.5733 215.531 21.9707 216.086 21.512C216.651 21.0533 217.323 20.824 218.102 20.824C218.688 20.824 219.184 20.9573 219.59 21.224C219.995 21.48 220.198 21.8693 220.198 22.392C220.198 22.7973 220.059 23.192 219.782 23.576C219.515 23.9493 219.104 24.2747 218.55 24.552ZM217.942 21.368C217.344 21.368 216.854 21.7147 216.47 22.408C216.086 23.1013 215.862 23.9653 215.798 25C216.907 24.744 217.686 24.424 218.134 24.04C218.582 23.6453 218.806 23.1333 218.806 22.504C218.806 21.7467 218.518 21.368 217.942 21.368ZM217.67 28.568C218.15 28.568 218.528 28.4027 218.806 28.072C219.083 27.7413 219.222 27.2987 219.222 26.744C219.222 26.264 219.104 25.8747 218.87 25.576C218.646 25.2773 218.315 25.128 217.878 25.128C217.686 25.128 217.478 25.16 217.254 25.224L215.782 25.608C215.814 26.536 215.979 27.2613 216.278 27.784C216.587 28.3067 217.051 28.568 217.67 28.568ZM230.578 26.92C230.525 27.2187 230.408 27.544 230.226 27.896C230.056 28.248 229.821 28.552 229.522 28.808C229.234 29.0533 228.893 29.176 228.498 29.176C228.082 29.176 227.773 29.048 227.57 28.792C227.368 28.536 227.266 28.184 227.266 27.736C227.266 27.448 227.325 26.856 227.442 25.96L227.49 25.512L224.402 25.544L224.114 27.992C224.093 28.2053 224.082 28.36 224.082 28.456C224.082 28.6373 224.098 28.8187 224.13 29H222.786C222.776 28.904 222.77 28.7653 222.77 28.584C222.781 28.1893 222.877 27.3733 223.058 26.136L223.154 25.384L223.25 24.696C223.346 23.9813 223.41 23.464 223.442 23.144C223.485 22.8133 223.506 22.5467 223.506 22.344C223.528 21.864 223.389 21.624 223.09 21.624C222.888 21.624 222.674 21.752 222.45 22.008C222.237 22.264 222.05 22.6533 221.89 23.176L221.442 23.08C221.506 22.7813 221.629 22.456 221.81 22.104C221.992 21.752 222.232 21.4533 222.53 21.208C222.829 20.952 223.176 20.824 223.57 20.824C224.349 20.824 224.738 21.3413 224.738 22.376C224.738 22.5467 224.717 22.824 224.674 23.208L224.482 24.904H227.57C227.741 23.56 227.826 22.568 227.826 21.928C227.826 21.736 227.816 21.4267 227.794 21H229.138C229.149 21.096 229.154 21.2347 229.154 21.416C229.154 21.6933 229.117 22.1627 229.042 22.824C228.978 23.4747 228.904 24.136 228.818 24.808C228.626 26.4293 228.53 27.3787 228.53 27.656C228.53 28.1253 228.674 28.36 228.962 28.36C229.165 28.36 229.373 28.2373 229.586 27.992C229.8 27.736 229.981 27.3467 230.13 26.824L230.578 26.92ZM235.678 23.816C236.371 23.816 236.931 24.0133 237.358 24.408C237.785 24.792 237.998 25.3307 237.998 26.024C237.998 26.6107 237.849 27.144 237.55 27.624C237.251 28.104 236.835 28.4827 236.302 28.76C235.779 29.0373 235.187 29.176 234.526 29.176C233.822 29.176 233.289 28.9947 232.926 28.632C232.574 28.2587 232.398 27.7573 232.398 27.128C232.398 27.032 232.409 26.8773 232.43 26.664C232.718 24.872 232.894 23.7307 232.958 23.24C233.033 22.7493 233.07 22.4133 233.07 22.232C233.07 22.04 233.043 21.8907 232.99 21.784C232.937 21.6773 232.83 21.624 232.67 21.624C232.467 21.624 232.254 21.752 232.03 22.008C231.806 22.264 231.609 22.6533 231.438 23.176L230.99 23.08C231.065 22.7813 231.193 22.456 231.374 22.104C231.555 21.752 231.795 21.4533 232.094 21.208C232.403 20.952 232.755 20.824 233.15 20.824C233.566 20.824 233.859 20.9573 234.03 21.224C234.211 21.48 234.302 21.8373 234.302 22.296C234.302 22.552 234.275 22.856 234.222 23.208L234.046 24.312C234.654 23.9813 235.198 23.816 235.678 23.816ZM242.03 26.92C241.977 27.2187 241.859 27.544 241.678 27.896C241.507 28.248 241.273 28.552 240.974 28.808C240.686 29.0533 240.345 29.176 239.95 29.176C239.534 29.176 239.225 29.048 239.022 28.792C238.819 28.536 238.718 28.184 238.718 27.736C238.718 27.3413 238.793 26.6213 238.942 25.576C239.166 23.9227 239.278 22.7067 239.278 21.928C239.278 21.736 239.267 21.4267 239.246 21H240.59C240.601 21.096 240.606 21.2347 240.606 21.416C240.606 21.6933 240.569 22.1627 240.494 22.824C240.43 23.4747 240.355 24.136 240.27 24.808C240.078 26.4293 239.982 27.3787 239.982 27.656C239.982 28.1253 240.126 28.36 240.414 28.36C240.606 28.36 240.809 28.2373 241.022 27.992C241.246 27.736 241.433 27.3467 241.582 26.824L242.03 26.92ZM236.67 26.376C236.691 25.736 236.611 25.2507 236.43 24.92C236.259 24.5787 235.945 24.408 235.486 24.408C234.995 24.408 234.478 24.6213 233.934 25.048L233.646 26.808C233.625 26.9573 233.614 27.0693 233.614 27.144C233.614 27.592 233.742 27.944 233.998 28.2C234.254 28.4453 234.579 28.568 234.974 28.568C235.497 28.568 235.907 28.376 236.206 27.992C236.505 27.608 236.659 27.0693 236.67 26.376ZM249.579 20.824C249.856 20.824 250.07 20.8987 250.219 21.048C250.368 21.1867 250.443 21.3733 250.443 21.608C250.443 21.7893 250.379 21.9493 250.251 22.088C250.123 22.2267 249.968 22.296 249.787 22.296C249.584 22.296 249.435 22.2533 249.339 22.168C249.254 22.0827 249.158 21.9653 249.051 21.816C248.464 21.9013 247.792 22.8827 247.035 24.76L247.147 25.048C247.584 26.1787 247.947 26.9893 248.235 27.48C248.523 27.96 248.795 28.2 249.051 28.2C249.435 28.2 249.707 27.7787 249.867 26.936L250.315 27C250.123 28.4507 249.59 29.176 248.715 29.176C248.352 29.176 248.059 29.096 247.835 28.936C247.611 28.7653 247.382 28.456 247.147 28.008C246.923 27.5493 246.608 26.8027 246.203 25.768H246.187C245.856 26.7493 245.531 27.4907 245.211 27.992C244.891 28.4827 244.592 28.8027 244.315 28.952C244.048 29.1013 243.755 29.176 243.435 29.176C243.136 29.176 242.896 29.1013 242.715 28.952C242.534 28.8027 242.443 28.6053 242.443 28.36C242.443 28.1467 242.507 27.9707 242.635 27.832C242.763 27.6933 242.918 27.624 243.099 27.624C243.472 27.624 243.675 27.8427 243.707 28.28C244.358 28.4187 245.083 27.3147 245.883 24.968C245.67 24.392 245.531 24.008 245.467 23.816C245.168 23.0053 244.944 22.4667 244.795 22.2C244.656 21.9333 244.48 21.8 244.267 21.8C243.776 21.8 243.504 22.3227 243.451 23.368L242.987 23.384C242.987 22.7653 243.11 22.184 243.355 21.64C243.611 21.096 244.054 20.824 244.683 20.824C245.003 20.824 245.259 20.9093 245.451 21.08C245.654 21.2507 245.819 21.4853 245.947 21.784C246.075 22.072 246.246 22.5253 246.459 23.144C246.523 23.368 246.619 23.6453 246.747 23.976H246.763C247.254 22.7493 247.739 21.9173 248.219 21.48C248.71 21.0427 249.163 20.824 249.579 20.824ZM265.733 20.824C266.33 20.824 266.757 21.016 267.013 21.4C267.28 21.784 267.413 22.2853 267.413 22.904C267.413 23.352 267.386 23.8053 267.333 24.264C267.28 24.712 267.2 25.2827 267.093 25.976C266.954 26.8293 266.885 27.384 266.885 27.64C266.885 27.8747 266.912 28.056 266.965 28.184C267.029 28.312 267.146 28.376 267.317 28.376C267.52 28.376 267.728 28.2533 267.941 28.008C268.165 27.752 268.352 27.3573 268.501 26.824L268.949 26.936C268.896 27.2347 268.778 27.56 268.597 27.912C268.426 28.2533 268.192 28.552 267.893 28.808C267.594 29.0533 267.248 29.176 266.853 29.176C266.373 29.176 266.037 29.0533 265.845 28.808C265.664 28.552 265.573 28.1627 265.573 27.64C265.573 27.2027 265.658 26.4987 265.829 25.528C265.84 25.432 265.877 25.1707 265.941 24.744C266.005 24.3067 266.053 23.9067 266.085 23.544C266.128 23.1707 266.149 22.84 266.149 22.552C266.149 22.3067 266.09 22.0827 265.973 21.88C265.856 21.6773 265.658 21.576 265.381 21.576C264.901 21.576 264.432 21.928 263.973 22.632C263.525 23.336 263.157 24.2053 262.869 25.24C262.592 26.2747 262.453 27.2453 262.453 28.152C262.453 28.3547 262.464 28.6373 262.485 29H261.141C261.13 28.904 261.125 28.7653 261.125 28.584C261.125 28.232 261.157 27.7627 261.221 27.176C261.285 26.5893 261.354 26.008 261.429 25.432C261.61 24.0453 261.701 23.1013 261.701 22.6C261.701 21.9173 261.445 21.576 260.933 21.576C260.464 21.576 260 21.928 259.541 22.632C259.093 23.336 258.725 24.2107 258.437 25.256C258.149 26.2907 258.005 27.256 258.005 28.152C258.005 28.3547 258.016 28.6373 258.037 29H256.693C256.682 28.904 256.677 28.7653 256.677 28.584C256.677 28.3173 256.698 27.9333 256.741 27.432C256.794 26.92 256.874 26.2373 256.981 25.384L257.173 23.72C257.216 23.3467 257.248 23.064 257.269 22.872C257.29 22.6693 257.301 22.4933 257.301 22.344C257.301 22.12 257.269 21.944 257.205 21.816C257.152 21.688 257.04 21.624 256.869 21.624C256.666 21.624 256.458 21.752 256.245 22.008C256.032 22.264 255.85 22.6533 255.701 23.176L255.253 23.08C255.306 22.7813 255.418 22.456 255.589 22.104C255.77 21.752 256.005 21.4533 256.293 21.208C256.592 20.952 256.938 20.824 257.333 20.824C258.133 20.824 258.533 21.3573 258.533 22.424C258.533 22.7227 258.501 23.0533 258.437 23.416C258.384 23.7787 258.33 24.104 258.277 24.392H258.325C258.784 23.0587 259.258 22.1307 259.749 21.608C260.24 21.0853 260.741 20.824 261.253 20.824C261.84 20.824 262.272 21.0107 262.549 21.384C262.826 21.7573 262.965 22.1787 262.965 22.648C262.965 22.9253 262.949 23.16 262.917 23.352C262.885 23.5333 262.81 23.864 262.693 24.344H262.741C263.221 23.0107 263.712 22.0933 264.213 21.592C264.714 21.08 265.221 20.824 265.733 20.824ZM271.269 20.824C271.695 20.824 272.015 20.9573 272.229 21.224C272.453 21.4907 272.565 21.8747 272.565 22.376C272.565 22.76 272.479 23.56 272.309 24.776C272.298 24.872 272.25 25.2347 272.165 25.864C272.079 26.4827 272.037 27 272.037 27.416C272.037 27.672 272.09 27.9067 272.197 28.12C272.314 28.3227 272.511 28.424 272.789 28.424C273.258 28.424 273.727 28.072 274.197 27.368C274.666 26.6533 275.05 25.7787 275.349 24.744C275.658 23.7093 275.813 22.744 275.813 21.848C275.813 21.6453 275.802 21.3627 275.781 21H277.125C277.135 21.096 277.141 21.2347 277.141 21.416C277.141 21.672 277.114 22.0667 277.061 22.6C277.007 23.1333 276.927 23.8267 276.821 24.68L276.661 26.008C276.65 26.1467 276.623 26.4027 276.581 26.776C276.538 27.1493 276.517 27.4427 276.517 27.656C276.517 28.1253 276.661 28.36 276.949 28.36C277.151 28.36 277.359 28.2373 277.573 27.992C277.786 27.736 277.967 27.3467 278.117 26.824L278.565 26.92C278.511 27.2187 278.394 27.544 278.213 27.896C278.042 28.248 277.807 28.552 277.509 28.808C277.221 29.0533 276.879 29.176 276.485 29.176C276.069 29.176 275.759 29.048 275.557 28.792C275.354 28.536 275.253 28.184 275.253 27.736C275.253 27.2667 275.349 26.552 275.541 25.592H275.493C274.981 26.968 274.49 27.912 274.021 28.424C273.551 28.9253 273.034 29.176 272.469 29.176C271.871 29.176 271.429 28.984 271.141 28.6C270.863 28.2053 270.725 27.704 270.725 27.096C270.725 26.6373 270.751 26.1733 270.805 25.704C270.858 25.2347 270.938 24.6693 271.045 24.008C271.066 23.8907 271.103 23.6453 271.157 23.272C271.21 22.888 271.237 22.5893 271.237 22.376C271.237 22.1307 271.205 21.944 271.141 21.816C271.087 21.688 270.975 21.624 270.805 21.624C270.613 21.624 270.415 21.752 270.213 22.008C270.01 22.2533 269.834 22.6427 269.685 23.176L269.237 23.08C269.333 22.5573 269.551 22.0507 269.893 21.56C270.245 21.0693 270.703 20.824 271.269 20.824ZM284.961 20.824C285.558 20.824 285.996 21.016 286.273 21.4C286.561 21.784 286.705 22.2853 286.705 22.904C286.705 23.6187 286.604 24.6427 286.401 25.976C286.284 26.8187 286.225 27.3733 286.225 27.64C286.225 27.8747 286.252 28.056 286.305 28.184C286.369 28.312 286.486 28.376 286.657 28.376C286.86 28.376 287.068 28.2533 287.281 28.008C287.494 27.752 287.676 27.3573 287.825 26.824L288.273 26.936C288.22 27.2347 288.102 27.56 287.921 27.912C287.75 28.2533 287.516 28.552 287.217 28.808C286.929 29.0533 286.588 29.176 286.193 29.176C285.713 29.176 285.377 29.0533 285.185 28.808C284.993 28.552 284.897 28.1627 284.897 27.64C284.897 27.2453 284.966 26.5413 285.105 25.528C285.297 24.2267 285.393 23.2347 285.393 22.552C285.393 22.3067 285.334 22.0827 285.217 21.88C285.11 21.6773 284.918 21.576 284.641 21.576C284.172 21.576 283.692 21.9333 283.201 22.648C282.71 23.352 282.3 24.2267 281.969 25.272C281.649 26.3067 281.489 27.2667 281.489 28.152C281.489 28.3547 281.5 28.6373 281.521 29H280.177C280.166 28.904 280.161 28.7653 280.161 28.584C280.161 28.328 280.182 27.9707 280.225 27.512C280.278 27.0533 280.353 26.4507 280.449 25.704C280.449 25.64 280.46 25.5333 280.481 25.384C280.492 25.2453 280.508 25.1013 280.529 24.952C280.55 24.8027 280.566 24.6533 280.577 24.504C280.652 23.8533 280.705 23.3787 280.737 23.08C280.769 22.7813 280.785 22.536 280.785 22.344C280.785 22.12 280.753 21.944 280.689 21.816C280.636 21.688 280.524 21.624 280.353 21.624C280.15 21.624 279.942 21.752 279.729 22.008C279.516 22.264 279.334 22.6533 279.185 23.176L278.737 23.08C278.79 22.7813 278.902 22.456 279.073 22.104C279.254 21.752 279.489 21.4533 279.777 21.208C280.076 20.952 280.422 20.824 280.817 20.824C281.617 20.824 282.017 21.3733 282.017 22.472C282.017 22.7813 281.985 23.1227 281.921 23.496C281.868 23.8587 281.814 24.184 281.761 24.472H281.809C282.321 23.1067 282.828 22.1573 283.329 21.624C283.841 21.0907 284.385 20.824 284.961 20.824ZM293.045 20.824C293.621 20.824 294.138 20.9627 294.597 21.24C295.066 21.5173 295.429 21.9227 295.685 22.456C295.951 22.9787 296.085 23.6027 296.085 24.328C296.085 25.2027 295.925 26.008 295.605 26.744C295.295 27.48 294.842 28.072 294.245 28.52C293.658 28.9573 292.965 29.176 292.165 29.176C291.151 29.176 290.383 28.8453 289.861 28.184C289.349 27.512 289.093 26.648 289.093 25.592C289.093 24.7173 289.253 23.9173 289.573 23.192C289.893 22.4667 290.351 21.8907 290.949 21.464C291.546 21.0373 292.245 20.824 293.045 20.824ZM292.789 21.416C292.319 21.416 291.909 21.5867 291.557 21.928C291.215 22.2587 290.954 22.7173 290.773 23.304C290.591 23.88 290.501 24.5253 290.501 25.24C290.501 26.1253 290.645 26.904 290.933 27.576C291.221 28.2373 291.69 28.568 292.341 28.568C292.885 28.568 293.327 28.36 293.669 27.944C294.021 27.528 294.277 27.016 294.437 26.408C294.597 25.8 294.677 25.208 294.677 24.632C294.677 23.736 294.533 22.9787 294.245 22.36C293.967 21.7307 293.482 21.416 292.789 21.416ZM301.597 24.552C302.301 24.5093 302.813 24.664 303.133 25.016C303.463 25.368 303.629 25.8107 303.629 26.344C303.629 26.8667 303.485 27.3467 303.197 27.784C302.919 28.2107 302.53 28.552 302.029 28.808C301.527 29.0533 300.967 29.176 300.349 29.176C299.389 29.176 298.663 28.872 298.173 28.264C297.682 27.6453 297.437 26.7973 297.437 25.72C297.437 24.8667 297.581 24.0667 297.868 23.32C298.157 22.5733 298.578 21.9707 299.133 21.512C299.698 21.0533 300.37 20.824 301.149 20.824C301.735 20.824 302.231 20.9573 302.637 21.224C303.042 21.48 303.245 21.8693 303.245 22.392C303.245 22.7973 303.106 23.192 302.829 23.576C302.562 23.9493 302.151 24.2747 301.597 24.552ZM300.989 21.368C300.391 21.368 299.901 21.7147 299.517 22.408C299.133 23.1013 298.909 23.9653 298.845 25C299.954 24.744 300.733 24.424 301.181 24.04C301.629 23.6453 301.853 23.1333 301.853 22.504C301.853 21.7467 301.565 21.368 300.989 21.368ZM300.717 28.568C301.197 28.568 301.575 28.4027 301.853 28.072C302.13 27.7413 302.269 27.2987 302.269 26.744C302.269 26.264 302.151 25.8747 301.917 25.576C301.693 25.2773 301.362 25.128 300.924 25.128C300.733 25.128 300.525 25.16 300.301 25.224L298.829 25.608C298.861 26.536 299.026 27.2613 299.325 27.784C299.634 28.3067 300.098 28.568 300.717 28.568ZM317.332 29.208C317.503 29.4853 317.588 29.784 317.588 30.104C317.588 30.8507 317.13 31.6133 316.212 32.392L315.844 32.024C316.292 31.4693 316.516 31.016 316.516 30.664C316.516 30.5573 316.484 30.4187 316.42 30.248C316.356 30.1093 316.324 29.9653 316.324 29.816C316.324 29.56 316.415 29.2827 316.596 28.984L316.452 28.904C316.26 29.0853 315.972 29.176 315.588 29.176C315.279 29.176 315.034 29.048 314.852 28.792C314.682 28.5253 314.596 28.1733 314.596 27.736C314.596 27.2667 314.692 26.552 314.884 25.592H314.836C314.324 26.968 313.834 27.912 313.364 28.424C312.895 28.9253 312.378 29.176 311.812 29.176C311.215 29.176 310.772 28.984 310.484 28.6C310.207 28.2053 310.068 27.704 310.068 27.096C310.068 26.6373 310.095 26.1733 310.148 25.704C310.202 25.2347 310.282 24.6693 310.388 24.008C310.41 23.8907 310.447 23.6453 310.5 23.272C310.554 22.888 310.58 22.5893 310.58 22.376C310.58 22.1307 310.548 21.944 310.484 21.816C310.431 21.688 310.319 21.624 310.148 21.624C309.956 21.624 309.759 21.752 309.556 22.008C309.354 22.2533 309.178 22.6427 309.028 23.176L308.58 23.08C308.676 22.5573 308.895 22.0507 309.236 21.56C309.588 21.0693 310.047 20.824 310.612 20.824C311.039 20.824 311.359 20.9573 311.572 21.224C311.796 21.4907 311.908 21.8747 311.908 22.376C311.908 22.76 311.823 23.56 311.652 24.776C311.642 24.872 311.594 25.2347 311.508 25.864C311.423 26.4827 311.38 27 311.38 27.416C311.38 27.672 311.434 27.9067 311.54 28.12C311.658 28.3227 311.855 28.424 312.132 28.424C312.602 28.424 313.071 28.072 313.54 27.368C314.01 26.6533 314.394 25.7787 314.692 24.744C315.002 23.7093 315.156 22.744 315.156 21.848C315.156 21.6453 315.146 21.3627 315.124 21H316.468C316.479 21.096 316.484 21.2347 316.484 21.416C316.484 21.672 316.458 22.0667 316.404 22.6C316.351 23.1333 316.271 23.8267 316.164 24.68L316.004 26.008C315.994 26.1467 315.967 26.4027 315.924 26.776C315.882 27.1493 315.86 27.4427 315.86 27.656C315.86 27.8693 315.887 28.04 315.94 28.168C316.004 28.296 316.095 28.36 316.212 28.36C316.298 28.36 316.372 28.328 316.436 28.264C316.511 28.1893 316.591 28.072 316.676 27.912L317.156 26.824L317.588 26.952L317.444 27.384L317.38 27.56L317.252 27.928C317.178 28.152 317.14 28.3547 317.14 28.536C317.14 28.7813 317.204 29.0053 317.332 29.208ZM323.112 24.552C323.816 24.5093 324.328 24.664 324.648 25.016C324.979 25.368 325.144 25.8107 325.144 26.344C325.144 26.8667 325 27.3467 324.712 27.784C324.435 28.2107 324.045 28.552 323.544 28.808C323.043 29.0533 322.483 29.176 321.864 29.176C320.904 29.176 320.179 28.872 319.688 28.264C319.197 27.6453 318.952 26.7973 318.952 25.72C318.952 24.8667 319.096 24.0667 319.384 23.32C319.672 22.5733 320.093 21.9707 320.648 21.512C321.213 21.0533 321.885 20.824 322.664 20.824C323.251 20.824 323.747 20.9573 324.152 21.224C324.557 21.48 324.76 21.8693 324.76 22.392C324.76 22.7973 324.621 23.192 324.344 23.576C324.077 23.9493 323.667 24.2747 323.112 24.552ZM322.504 21.368C321.907 21.368 321.416 21.7147 321.032 22.408C320.648 23.1013 320.424 23.9653 320.36 25C321.469 24.744 322.248 24.424 322.696 24.04C323.144 23.6453 323.368 23.1333 323.368 22.504C323.368 21.7467 323.08 21.368 322.504 21.368ZM322.232 28.568C322.712 28.568 323.091 28.4027 323.368 28.072C323.645 27.7413 323.784 27.2987 323.784 26.744C323.784 26.264 323.667 25.8747 323.432 25.576C323.208 25.2773 322.877 25.128 322.44 25.128C322.248 25.128 322.04 25.16 321.816 25.224L320.344 25.608C320.376 26.536 320.541 27.2613 320.84 27.784C321.149 28.3067 321.613 28.568 322.232 28.568ZM330.309 20.824C330.949 20.824 331.482 20.9733 331.909 21.272C332.336 21.5707 332.549 22.0347 332.549 22.664C332.549 23.4533 332.074 24.0667 331.125 24.504C330.176 24.9413 329.077 25.2293 327.829 25.368C327.829 26.3707 327.978 27.1227 328.277 27.624C328.576 28.1253 329.034 28.376 329.653 28.376C330.144 28.376 330.618 28.216 331.077 27.896C331.536 27.5653 331.936 27.08 332.277 26.44L332.805 26.744C332.357 27.5867 331.856 28.2053 331.301 28.6C330.746 28.984 330.106 29.176 329.381 29.176C328.4 29.176 327.658 28.872 327.157 28.264C326.666 27.6453 326.421 26.7973 326.421 25.72C326.421 24.856 326.565 24.056 326.853 23.32C327.152 22.5733 327.594 21.9707 328.181 21.512C328.768 21.0533 329.477 20.824 330.309 20.824ZM330.085 21.368C329.402 21.368 328.874 21.6987 328.501 22.36C328.128 23.0213 327.909 23.832 327.845 24.792C328.773 24.664 329.568 24.408 330.229 24.024C330.89 23.64 331.221 23.16 331.221 22.584C331.221 22.232 331.12 21.944 330.917 21.72C330.725 21.4853 330.448 21.368 330.085 21.368ZM344.03 20.824C344.627 20.824 345.054 21.016 345.31 21.4C345.577 21.784 345.71 22.2853 345.71 22.904C345.71 23.352 345.683 23.8053 345.63 24.264C345.577 24.712 345.497 25.2827 345.39 25.976C345.251 26.8293 345.182 27.384 345.182 27.64C345.182 27.8747 345.209 28.056 345.262 28.184C345.326 28.312 345.443 28.376 345.614 28.376C345.817 28.376 346.025 28.2533 346.238 28.008C346.462 27.752 346.649 27.3573 346.798 26.824L347.246 26.936C347.193 27.2347 347.075 27.56 346.894 27.912C346.723 28.2533 346.489 28.552 346.19 28.808C345.891 29.0533 345.545 29.176 345.15 29.176C344.67 29.176 344.334 29.0533 344.142 28.808C343.961 28.552 343.87 28.1627 343.87 27.64C343.87 27.2027 343.955 26.4987 344.126 25.528C344.137 25.432 344.174 25.1707 344.238 24.744C344.302 24.3067 344.35 23.9067 344.382 23.544C344.425 23.1707 344.446 22.84 344.446 22.552C344.446 22.3067 344.387 22.0827 344.27 21.88C344.153 21.6773 343.955 21.576 343.678 21.576C343.198 21.576 342.729 21.928 342.27 22.632C341.822 23.336 341.454 24.2053 341.166 25.24C340.889 26.2747 340.75 27.2453 340.75 28.152C340.75 28.3547 340.761 28.6373 340.782 29H339.438C339.427 28.904 339.422 28.7653 339.422 28.584C339.422 28.232 339.454 27.7627 339.518 27.176C339.582 26.5893 339.651 26.008 339.726 25.432C339.907 24.0453 339.998 23.1013 339.998 22.6C339.998 21.9173 339.742 21.576 339.23 21.576C338.761 21.576 338.297 21.928 337.838 22.632C337.39 23.336 337.022 24.2107 336.734 25.256C336.446 26.2907 336.302 27.256 336.302 28.152C336.302 28.3547 336.313 28.6373 336.334 29H334.99C334.979 28.904 334.974 28.7653 334.974 28.584C334.974 28.3173 334.995 27.9333 335.038 27.432C335.091 26.92 335.171 26.2373 335.278 25.384L335.47 23.72C335.513 23.3467 335.545 23.064 335.566 22.872C335.587 22.6693 335.598 22.4933 335.598 22.344C335.598 22.12 335.566 21.944 335.502 21.816C335.449 21.688 335.337 21.624 335.166 21.624C334.963 21.624 334.755 21.752 334.542 22.008C334.329 22.264 334.147 22.6533 333.998 23.176L333.55 23.08C333.603 22.7813 333.715 22.456 333.886 22.104C334.067 21.752 334.302 21.4533 334.59 21.208C334.889 20.952 335.235 20.824 335.63 20.824C336.43 20.824 336.83 21.3573 336.83 22.424C336.83 22.7227 336.798 23.0533 336.734 23.416C336.681 23.7787 336.627 24.104 336.574 24.392H336.622C337.081 23.0587 337.555 22.1307 338.046 21.608C338.537 21.0853 339.038 20.824 339.55 20.824C340.137 20.824 340.569 21.0107 340.846 21.384C341.123 21.7573 341.262 22.1787 341.262 22.648C341.262 22.9253 341.246 23.16 341.214 23.352C341.182 23.5333 341.107 23.864 340.99 24.344H341.038C341.518 23.0107 342.009 22.0933 342.51 21.592C343.011 21.08 343.518 20.824 344.03 20.824ZM352.702 20.824C353.427 20.824 354.142 20.9147 354.846 21.096C354.376 24.5733 354.142 26.7067 354.142 27.496C354.142 27.7733 354.168 27.992 354.222 28.152C354.275 28.3013 354.398 28.376 354.59 28.376C354.792 28.376 355 28.248 355.214 27.992C355.427 27.736 355.608 27.3467 355.758 26.824L356.206 26.92C356.152 27.2187 356.035 27.544 355.854 27.896C355.683 28.248 355.448 28.552 355.15 28.808C354.862 29.0533 354.52 29.176 354.126 29.176C353.336 29.176 352.942 28.696 352.942 27.736C352.942 27.2667 353.038 26.552 353.23 25.592H353.182C352.734 27 352.243 27.9493 351.71 28.44C351.176 28.9307 350.627 29.176 350.062 29.176C349.443 29.176 348.947 28.952 348.574 28.504C348.211 28.056 348.03 27.352 348.03 26.392C348.03 25.368 348.206 24.4347 348.558 23.592C348.91 22.7493 349.438 22.0773 350.142 21.576C350.846 21.0747 351.699 20.824 352.702 20.824ZM352.206 21.4C351.587 21.4 351.064 21.624 350.638 22.072C350.211 22.5093 349.891 23.0907 349.678 23.816C349.475 24.5307 349.374 25.2987 349.374 26.12C349.374 27.688 349.72 28.472 350.414 28.472C350.883 28.472 351.352 28.104 351.822 27.368C352.291 26.632 352.68 25.7253 352.99 24.648C353.299 23.56 353.454 22.5413 353.454 21.592C353.134 21.464 352.718 21.4 352.206 21.4ZM188.816 47.368C188.709 47.88 188.507 48.312 188.208 48.664C187.909 49.0053 187.509 49.176 187.008 49.176C186.613 49.176 186.309 49.0267 186.096 48.728C185.893 48.4293 185.76 47.88 185.696 47.08C185.632 46.3333 185.509 45.816 185.328 45.528C185.147 45.24 184.864 45.096 184.48 45.096L183.152 45.112C182.971 46.52 182.891 47.5227 182.912 48.12C182.912 48.28 182.923 48.5733 182.944 49H181.616L181.6 48.808L181.616 48.584C181.616 47.9973 181.717 46.904 181.92 45.304C182.016 44.4827 182.101 43.8427 182.176 43.384C182.24 42.8613 182.272 42.504 182.272 42.312C182.272 42.0987 182.245 41.9333 182.192 41.816C182.139 41.688 182.027 41.624 181.856 41.624C181.653 41.624 181.44 41.752 181.216 42.008C181.003 42.264 180.816 42.6533 180.656 43.176L180.208 43.08C180.272 42.7813 180.395 42.456 180.576 42.104C180.757 41.752 180.997 41.4533 181.296 41.208C181.595 40.952 181.941 40.824 182.336 40.824C182.752 40.824 183.045 40.9413 183.216 41.176C183.397 41.4107 183.488 41.768 183.488 42.248C183.488 42.5147 183.451 42.92 183.376 43.464L183.216 44.648H183.728C184.197 44.648 184.565 44.52 184.832 44.264C185.109 44.008 185.371 43.56 185.616 42.92C185.893 42.152 186.187 41.6133 186.496 41.304C186.816 40.984 187.221 40.824 187.712 40.824C187.989 40.824 188.208 40.904 188.368 41.064C188.528 41.224 188.608 41.4373 188.608 41.704C188.608 41.928 188.539 42.12 188.4 42.28C188.272 42.44 188.091 42.52 187.856 42.52C187.589 42.52 187.381 42.4613 187.232 42.344C187.083 42.2267 186.997 42.0613 186.976 41.848C186.827 41.944 186.693 42.088 186.576 42.28C186.459 42.472 186.325 42.776 186.176 43.192C186.037 43.576 185.867 43.9067 185.664 44.184C185.461 44.4613 185.237 44.664 184.992 44.792C186.144 44.824 186.784 45.4533 186.912 46.68C186.976 47.3093 187.051 47.736 187.136 47.96C187.232 48.1733 187.403 48.28 187.648 48.28C187.808 48.28 187.947 48.2053 188.064 48.056C188.181 47.896 188.283 47.64 188.368 47.288L188.816 47.368ZM193.764 40.824C194.34 40.824 194.857 40.9627 195.316 41.24C195.785 41.5173 196.148 41.9227 196.404 42.456C196.67 42.9787 196.804 43.6027 196.804 44.328C196.804 45.2027 196.644 46.008 196.324 46.744C196.014 47.48 195.561 48.072 194.964 48.52C194.377 48.9573 193.684 49.176 192.884 49.176C191.87 49.176 191.102 48.8453 190.58 48.184C190.068 47.512 189.812 46.648 189.812 45.592C189.812 44.7173 189.972 43.9173 190.292 43.192C190.612 42.4667 191.07 41.8907 191.668 41.464C192.265 41.0373 192.964 40.824 193.764 40.824ZM193.508 41.416C193.038 41.416 192.628 41.5867 192.276 41.928C191.934 42.2587 191.673 42.7173 191.492 43.304C191.31 43.88 191.22 44.5253 191.22 45.24C191.22 46.1253 191.364 46.904 191.652 47.576C191.94 48.2373 192.409 48.568 193.06 48.568C193.604 48.568 194.046 48.36 194.388 47.944C194.74 47.528 194.996 47.016 195.156 46.408C195.316 45.8 195.396 45.208 195.396 44.632C195.396 43.736 195.252 42.9787 194.964 42.36C194.686 41.7307 194.201 41.416 193.508 41.416ZM210.507 46.648C210.134 47.576 209.761 48.232 209.387 48.616C209.025 48.9893 208.593 49.176 208.091 49.176C207.377 49.176 206.827 48.872 206.443 48.264C206.07 47.656 205.894 46.792 205.915 45.672C205.915 45.544 205.926 45.352 205.947 45.096H204.875C204.726 46.4507 204.657 47.4587 204.667 48.12C204.667 48.3867 204.683 48.68 204.715 49H203.387C203.377 48.904 203.371 48.7653 203.371 48.584C203.371 47.9333 203.457 46.84 203.627 45.304L203.643 45.112H202.571C202.422 46.296 202.081 47.272 201.547 48.04C201.025 48.7973 200.374 49.176 199.595 49.176C199.307 49.176 199.03 49.096 198.763 48.936C198.497 48.776 198.283 48.5627 198.123 48.296C197.963 48.0187 197.883 47.7147 197.883 47.384C197.883 47.1067 197.953 46.888 198.091 46.728C198.23 46.568 198.406 46.488 198.619 46.488C198.833 46.488 198.993 46.552 199.099 46.68C199.217 46.7973 199.27 46.9413 199.259 47.112C199.259 47.368 199.163 47.5867 198.971 47.768C199.014 48.056 199.094 48.264 199.211 48.392C199.329 48.5093 199.494 48.568 199.707 48.568C200.198 48.568 200.587 48.1733 200.875 47.384C201.174 46.584 201.35 45.688 201.403 44.696C201.414 44.5573 201.419 44.3547 201.419 44.088C201.419 43.2347 201.323 42.6107 201.131 42.216C200.939 41.8107 200.683 41.608 200.363 41.608C200.043 41.608 199.755 41.736 199.499 41.992C199.254 42.248 199.003 42.7013 198.747 43.352L198.267 43.08C198.651 42.216 199.025 41.624 199.387 41.304C199.75 40.984 200.171 40.824 200.651 40.824C201.067 40.824 201.43 40.9627 201.739 41.24C202.049 41.5067 202.283 41.9067 202.443 42.44C202.603 42.9627 202.667 43.592 202.635 44.328L202.619 44.648H203.707C203.793 43.9547 203.851 43.4 203.883 42.984C203.926 42.568 203.942 42.136 203.931 41.688C203.931 41.432 203.915 41.144 203.883 40.824H205.179C205.19 40.92 205.195 41.0587 205.195 41.24C205.195 41.5813 205.169 42.0133 205.115 42.536C205.073 43.0587 205.025 43.5867 204.971 44.12L204.923 44.648H205.979C206.118 43.5173 206.427 42.6 206.907 41.896C207.387 41.1813 207.995 40.824 208.731 40.824C209.254 40.824 209.675 40.9947 209.995 41.336C210.326 41.6773 210.491 42.1093 210.491 42.632C210.491 42.9093 210.422 43.128 210.283 43.288C210.155 43.4373 209.99 43.512 209.787 43.512C209.574 43.512 209.414 43.4533 209.307 43.336C209.201 43.208 209.147 43.0587 209.147 42.888C209.147 42.6107 209.227 42.392 209.387 42.232C209.387 41.9867 209.329 41.7893 209.211 41.64C209.105 41.4907 208.939 41.416 208.715 41.416C208.374 41.416 208.081 41.6293 207.835 42.056C207.601 42.472 207.425 43 207.307 43.64C207.201 44.2693 207.147 44.8933 207.147 45.512C207.147 46.5573 207.249 47.3307 207.451 47.832C207.665 48.3227 207.942 48.568 208.283 48.568C208.614 48.568 208.907 48.3973 209.163 48.056C209.419 47.7147 209.686 47.1547 209.963 46.376L210.507 46.648ZM213.206 40.824C213.633 40.824 213.953 40.9573 214.166 41.224C214.39 41.4907 214.502 41.8747 214.502 42.376C214.502 42.76 214.417 43.56 214.246 44.776C214.235 44.872 214.187 45.2347 214.102 45.864C214.017 46.4827 213.974 47 213.974 47.416C213.974 47.672 214.027 47.9067 214.134 48.12C214.251 48.3227 214.449 48.424 214.726 48.424C215.195 48.424 215.665 48.072 216.134 47.368C216.603 46.6533 216.987 45.7787 217.286 44.744C217.595 43.7093 217.75 42.744 217.75 41.848C217.75 41.6453 217.739 41.3627 217.718 41H219.062C219.073 41.096 219.078 41.2347 219.078 41.416C219.078 41.672 219.051 42.0667 218.998 42.6C218.945 43.1333 218.865 43.8267 218.758 44.68L218.598 46.008C218.587 46.1467 218.561 46.4027 218.518 46.776C218.475 47.1493 218.454 47.4427 218.454 47.656C218.454 48.1253 218.598 48.36 218.886 48.36C219.089 48.36 219.297 48.2373 219.51 47.992C219.723 47.736 219.905 47.3467 220.054 46.824L220.502 46.92C220.449 47.2187 220.331 47.544 220.15 47.896C219.979 48.248 219.745 48.552 219.446 48.808C219.158 49.0533 218.817 49.176 218.422 49.176C218.006 49.176 217.697 49.048 217.494 48.792C217.291 48.536 217.19 48.184 217.19 47.736C217.19 47.2667 217.286 46.552 217.478 45.592H217.43C216.918 46.968 216.427 47.912 215.958 48.424C215.489 48.9253 214.971 49.176 214.406 49.176C213.809 49.176 213.366 48.984 213.078 48.6C212.801 48.2053 212.662 47.704 212.662 47.096C212.662 46.6373 212.689 46.1733 212.742 45.704C212.795 45.2347 212.875 44.6693 212.982 44.008C213.003 43.8907 213.041 43.6453 213.094 43.272C213.147 42.888 213.174 42.5893 213.174 42.376C213.174 42.1307 213.142 41.944 213.078 41.816C213.025 41.688 212.913 41.624 212.742 41.624C212.55 41.624 212.353 41.752 212.15 42.008C211.947 42.2533 211.771 42.6427 211.622 43.176L211.174 43.08C211.27 42.5573 211.489 42.0507 211.83 41.56C212.182 41.0693 212.641 40.824 213.206 40.824ZM233.87 46.92C233.816 47.2187 233.704 47.544 233.534 47.896C233.363 48.2373 233.128 48.536 232.83 48.792C232.531 49.048 232.184 49.176 231.79 49.176C231.374 49.176 231.064 49.048 230.862 48.792C230.659 48.536 230.558 48.184 230.558 47.736C230.558 47.384 230.648 46.5413 230.83 45.208C230.168 45.7733 229.464 46.056 228.718 46.056C228.131 46.056 227.688 45.8907 227.39 45.56C227.091 45.2187 226.942 44.7493 226.942 44.152C226.942 43.9813 226.974 43.6827 227.038 43.256C227.112 42.7333 227.15 42.36 227.15 42.136C227.15 41.7947 227.032 41.624 226.798 41.624C226.584 41.624 226.36 41.752 226.126 42.008C225.891 42.2533 225.683 42.6427 225.502 43.176L225.054 43.064C225.128 42.7653 225.267 42.4453 225.47 42.104C225.672 41.752 225.939 41.4533 226.27 41.208C226.611 40.952 227 40.824 227.438 40.824C227.811 40.824 228.078 40.9307 228.238 41.144C228.408 41.3573 228.494 41.6827 228.494 42.12C228.494 42.376 228.451 42.76 228.366 43.272C228.355 43.336 228.334 43.48 228.302 43.704C228.27 43.928 228.254 44.1413 228.254 44.344C228.254 44.6747 228.318 44.92 228.446 45.08C228.574 45.2293 228.792 45.304 229.102 45.304C229.379 45.304 229.672 45.2507 229.982 45.144C230.302 45.0267 230.606 44.8667 230.894 44.664C231.043 43.5653 231.118 42.6533 231.118 41.928L231.102 41H232.43C232.44 41.096 232.446 41.2347 232.446 41.416C232.446 41.6933 232.408 42.1627 232.334 42.824C232.27 43.4747 232.195 44.136 232.11 44.808C231.918 46.4293 231.822 47.3787 231.822 47.656C231.822 48.1253 231.966 48.36 232.254 48.36C232.456 48.36 232.664 48.2373 232.878 47.992C233.091 47.736 233.278 47.3467 233.438 46.824L233.87 46.92ZM238.59 40.824C239.23 40.824 239.763 40.9733 240.19 41.272C240.617 41.5707 240.83 42.0347 240.83 42.664C240.83 43.4533 240.355 44.0667 239.406 44.504C238.457 44.9413 237.358 45.2293 236.11 45.368C236.11 46.3707 236.259 47.1227 236.558 47.624C236.857 48.1253 237.315 48.376 237.934 48.376C238.425 48.376 238.899 48.216 239.358 47.896C239.817 47.5653 240.217 47.08 240.558 46.44L241.086 46.744C240.638 47.5867 240.137 48.2053 239.582 48.6C239.027 48.984 238.387 49.176 237.662 49.176C236.681 49.176 235.939 48.872 235.438 48.264C234.947 47.6453 234.702 46.7973 234.702 45.72C234.702 44.856 234.846 44.056 235.134 43.32C235.433 42.5733 235.875 41.9707 236.462 41.512C237.049 41.0533 237.758 40.824 238.59 40.824ZM238.366 41.368C237.683 41.368 237.155 41.6987 236.782 42.36C236.409 43.0213 236.19 43.832 236.126 44.792C237.054 44.664 237.849 44.408 238.51 44.024C239.171 43.64 239.502 43.16 239.502 42.584C239.502 42.232 239.401 41.944 239.198 41.72C239.006 41.4853 238.729 41.368 238.366 41.368ZM250.839 46.92C250.786 47.2187 250.674 47.544 250.503 47.896C250.332 48.2373 250.098 48.536 249.799 48.792C249.5 49.048 249.154 49.176 248.759 49.176C248.343 49.176 248.034 49.048 247.831 48.792C247.628 48.536 247.527 48.184 247.527 47.736C247.527 47.3413 247.602 46.6213 247.751 45.576C247.975 43.9227 248.087 42.7067 248.087 41.928V41.608L246.999 41.624H247.415C247.148 41.624 246.978 41.7947 246.903 42.136C246.476 44.28 245.927 45.9867 245.255 47.256C244.583 48.5253 243.724 49.16 242.679 49.16C242.38 49.16 242.13 49.0747 241.927 48.904C241.735 48.7333 241.639 48.5307 241.639 48.296C241.639 48.0933 241.708 47.9173 241.847 47.768C241.986 47.608 242.162 47.528 242.375 47.528C242.556 47.528 242.716 47.5867 242.855 47.704C242.994 47.8213 243.063 47.9707 243.063 48.152C243.063 48.2267 243.052 48.3067 243.031 48.392C243.479 48.4453 243.911 48.1413 244.327 47.48C244.754 46.808 245.122 45.944 245.431 44.888C245.751 43.8213 245.991 42.7333 246.151 41.624L244.679 41.64L244.727 41H249.399C249.41 41.096 249.415 41.2347 249.415 41.416C249.415 41.6933 249.378 42.1627 249.303 42.824C249.239 43.4747 249.164 44.136 249.079 44.808C248.887 46.4293 248.791 47.3787 248.791 47.656C248.791 48.1253 248.935 48.36 249.223 48.36C249.426 48.36 249.634 48.2373 249.847 47.992C250.06 47.736 250.242 47.3467 250.391 46.824L250.839 46.92ZM246.855 42.28V42.328V42.28ZM255.592 40.824C256.168 40.824 256.685 40.9627 257.144 41.24C257.613 41.5173 257.976 41.9227 258.232 42.456C258.498 42.9787 258.632 43.6027 258.632 44.328C258.632 45.2027 258.472 46.008 258.152 46.744C257.842 47.48 257.389 48.072 256.792 48.52C256.205 48.9573 255.512 49.176 254.712 49.176C253.698 49.176 252.93 48.8453 252.408 48.184C251.896 47.512 251.64 46.648 251.64 45.592C251.64 44.7173 251.8 43.9173 252.12 43.192C252.44 42.4667 252.898 41.8907 253.496 41.464C254.093 41.0373 254.792 40.824 255.592 40.824ZM255.336 41.416C254.866 41.416 254.456 41.5867 254.104 41.928C253.762 42.2587 253.501 42.7173 253.32 43.304C253.138 43.88 253.048 44.5253 253.048 45.24C253.048 46.1253 253.192 46.904 253.48 47.576C253.768 48.2373 254.237 48.568 254.888 48.568C255.432 48.568 255.874 48.36 256.216 47.944C256.568 47.528 256.824 47.016 256.984 46.408C257.144 45.8 257.224 45.208 257.224 44.632C257.224 43.736 257.08 42.9787 256.792 42.36C256.514 41.7307 256.029 41.416 255.336 41.416ZM264.143 44.552C264.847 44.5093 265.359 44.664 265.679 45.016C266.01 45.368 266.175 45.8107 266.175 46.344C266.175 46.8667 266.031 47.3467 265.743 47.784C265.466 48.2107 265.077 48.552 264.575 48.808C264.074 49.0533 263.514 49.176 262.895 49.176C261.935 49.176 261.21 48.872 260.719 48.264C260.229 47.6453 259.983 46.7973 259.983 45.72C259.983 44.8667 260.127 44.0667 260.415 43.32C260.703 42.5733 261.125 41.9707 261.679 41.512C262.245 41.0533 262.917 40.824 263.695 40.824C264.282 40.824 264.778 40.9573 265.183 41.224C265.589 41.48 265.791 41.8693 265.791 42.392C265.791 42.7973 265.653 43.192 265.375 43.576C265.109 43.9493 264.698 44.2747 264.143 44.552ZM263.535 41.368C262.938 41.368 262.447 41.7147 262.063 42.408C261.679 43.1013 261.455 43.9653 261.391 45C262.501 44.744 263.279 44.424 263.727 44.04C264.175 43.6453 264.399 43.1333 264.399 42.504C264.399 41.7467 264.111 41.368 263.535 41.368ZM263.263 48.568C263.743 48.568 264.122 48.4027 264.399 48.072C264.677 47.7413 264.815 47.2987 264.815 46.744C264.815 46.264 264.698 45.8747 264.463 45.576C264.239 45.2773 263.909 45.128 263.471 45.128C263.279 45.128 263.071 45.16 262.847 45.224L261.375 45.608C261.407 46.536 261.573 47.2613 261.871 47.784C262.181 48.3067 262.645 48.568 263.263 48.568ZM271.34 40.824C271.98 40.824 272.513 40.9733 272.94 41.272C273.367 41.5707 273.58 42.0347 273.58 42.664C273.58 43.4533 273.105 44.0667 272.156 44.504C271.207 44.9413 270.108 45.2293 268.86 45.368C268.86 46.3707 269.009 47.1227 269.308 47.624C269.607 48.1253 270.065 48.376 270.684 48.376C271.175 48.376 271.649 48.216 272.108 47.896C272.567 47.5653 272.967 47.08 273.308 46.44L273.836 46.744C273.388 47.5867 272.887 48.2053 272.332 48.6C271.777 48.984 271.137 49.176 270.412 49.176C269.431 49.176 268.689 48.872 268.188 48.264C267.697 47.6453 267.452 46.7973 267.452 45.72C267.452 44.856 267.596 44.056 267.884 43.32C268.183 42.5733 268.625 41.9707 269.212 41.512C269.799 41.0533 270.508 40.824 271.34 40.824ZM271.116 41.368C270.433 41.368 269.905 41.6987 269.532 42.36C269.159 43.0213 268.94 43.832 268.876 44.792C269.804 44.664 270.599 44.408 271.26 44.024C271.921 43.64 272.252 43.16 272.252 42.584C272.252 42.232 272.151 41.944 271.948 41.72C271.756 41.4853 271.479 41.368 271.116 41.368ZM283.269 47.368C283.162 47.88 282.96 48.312 282.661 48.664C282.362 49.0053 281.962 49.176 281.461 49.176C281.066 49.176 280.762 49.0267 280.549 48.728C280.346 48.4293 280.213 47.88 280.149 47.08C280.085 46.3333 279.962 45.816 279.781 45.528C279.6 45.24 279.317 45.096 278.933 45.096L277.605 45.112C277.424 46.52 277.344 47.5227 277.365 48.12C277.365 48.28 277.376 48.5733 277.397 49H276.069L276.053 48.808L276.069 48.584C276.069 47.9973 276.17 46.904 276.373 45.304C276.469 44.4827 276.554 43.8427 276.629 43.384C276.693 42.8613 276.725 42.504 276.725 42.312C276.725 42.0987 276.698 41.9333 276.645 41.816C276.592 41.688 276.48 41.624 276.309 41.624C276.106 41.624 275.893 41.752 275.669 42.008C275.456 42.264 275.269 42.6533 275.109 43.176L274.661 43.08C274.725 42.7813 274.848 42.456 275.029 42.104C275.21 41.752 275.45 41.4533 275.749 41.208C276.048 40.952 276.394 40.824 276.789 40.824C277.205 40.824 277.498 40.9413 277.669 41.176C277.85 41.4107 277.941 41.768 277.941 42.248C277.941 42.5147 277.904 42.92 277.829 43.464L277.669 44.648H278.181C278.65 44.648 279.018 44.52 279.285 44.264C279.562 44.008 279.824 43.56 280.069 42.92C280.346 42.152 280.64 41.6133 280.949 41.304C281.269 40.984 281.674 40.824 282.165 40.824C282.442 40.824 282.661 40.904 282.821 41.064C282.981 41.224 283.061 41.4373 283.061 41.704C283.061 41.928 282.992 42.12 282.853 42.28C282.725 42.44 282.544 42.52 282.309 42.52C282.042 42.52 281.834 42.4613 281.685 42.344C281.536 42.2267 281.45 42.0613 281.429 41.848C281.28 41.944 281.146 42.088 281.029 42.28C280.912 42.472 280.778 42.776 280.629 43.192C280.49 43.576 280.32 43.9067 280.117 44.184C279.914 44.4613 279.69 44.664 279.445 44.792C280.597 44.824 281.237 45.4533 281.365 46.68C281.429 47.3093 281.504 47.736 281.589 47.96C281.685 48.1733 281.856 48.28 282.101 48.28C282.261 48.28 282.4 48.2053 282.517 48.056C282.634 47.896 282.736 47.64 282.821 47.288L283.269 47.368ZM288.905 40.824C289.63 40.824 290.345 40.9147 291.049 41.096C290.579 44.5733 290.345 46.7067 290.345 47.496C290.345 47.7733 290.371 47.992 290.425 48.152C290.478 48.3013 290.601 48.376 290.793 48.376C290.995 48.376 291.203 48.248 291.417 47.992C291.63 47.736 291.811 47.3467 291.961 46.824L292.409 46.92C292.355 47.2187 292.238 47.544 292.057 47.896C291.886 48.248 291.651 48.552 291.353 48.808C291.065 49.0533 290.723 49.176 290.329 49.176C289.539 49.176 289.145 48.696 289.145 47.736C289.145 47.2667 289.241 46.552 289.433 45.592H289.385C288.937 47 288.446 47.9493 287.913 48.44C287.379 48.9307 286.83 49.176 286.265 49.176C285.646 49.176 285.15 48.952 284.777 48.504C284.414 48.056 284.233 47.352 284.233 46.392C284.233 45.368 284.409 44.4347 284.761 43.592C285.113 42.7493 285.641 42.0773 286.345 41.576C287.049 41.0747 287.902 40.824 288.905 40.824ZM288.409 41.4C287.79 41.4 287.267 41.624 286.841 42.072C286.414 42.5093 286.094 43.0907 285.881 43.816C285.678 44.5307 285.577 45.2987 285.577 46.12C285.577 47.688 285.923 48.472 286.617 48.472C287.086 48.472 287.555 48.104 288.025 47.368C288.494 46.632 288.883 45.7253 289.193 44.648C289.502 43.56 289.657 42.5413 289.657 41.592C289.337 41.464 288.921 41.4 288.409 41.4Z" fill="#A7A7A7"/>
<path d="M132.1 16.2C135.033 16.2 137.417 16.9167 139.25 18.35C141.117 19.75 141.967 21.9167 141.8 24.85C141.733 26.6167 140.967 28.2833 139.5 29.85C138.067 31.4167 136 32.5333 133.3 33.2C136.3 33.4667 138.617 34.3833 140.25 35.95C141.883 37.5167 142.7 39.45 142.7 41.75C142.7 44.0167 142.083 46 140.85 47.7C139.65 49.3667 138.05 50.6333 136.05 51.5C134.083 52.3667 132 52.8 129.8 52.8C127.6 52.8 125.717 52.4667 124.15 51.8C122.617 51.1 121.467 50.2333 120.7 49.2C119.933 48.1333 119.55 47.05 119.55 45.95C119.55 45.1167 119.767 44.45 120.2 43.95C120.667 43.4167 121.267 43.15 122 43.15C122.667 43.15 123.2 43.3833 123.6 43.85C124.033 44.2833 124.25 44.8 124.25 45.4C124.25 46.2333 124.017 46.9 123.55 47.4C123.817 48.4667 124.517 49.2833 125.65 49.85C126.783 50.3833 128.067 50.65 129.5 50.65C132.067 50.65 134.083 49.8833 135.55 48.35C137.017 46.7833 137.75 44.6667 137.75 42C137.75 40.0333 137.25 38.3 136.25 36.8C135.25 35.3 133.467 34.55 130.9 34.55C130.1 34.55 129 34.5833 127.6 34.65L127.7 32.4H129.75C131.383 32.4 132.733 32.0333 133.8 31.3C134.9 30.5333 135.7 29.6167 136.2 28.55C136.733 27.4833 137.033 26.4333 137.1 25.4C137.2 23.1333 136.817 21.3667 135.95 20.1C135.083 18.8 133.533 18.15 131.3 18.15C130.333 18.15 129.4 18.35 128.5 18.75C127.6 19.1167 126.85 19.6 126.25 20.2C125.683 20.7667 125.333 21.3333 125.2 21.9C125.6 22.4333 125.8 23.0833 125.8 23.85C125.8 24.45 125.583 24.9667 125.15 25.4C124.75 25.8 124.25 26 123.65 26C123.017 26 122.483 25.8 122.05 25.4C121.65 24.9667 121.45 24.4 121.45 23.7C121.45 22.6333 121.867 21.5167 122.7 20.35C123.567 19.1833 124.8 18.2 126.4 17.4C128.033 16.6 129.933 16.2 132.1 16.2ZM162.246 16.2C163.979 16.2 165.463 16.5167 166.696 17.15C167.929 17.75 168.846 18.5167 169.446 19.45C170.079 20.3833 170.396 21.3 170.396 22.2C170.396 22.9667 170.179 23.6 169.746 24.1C169.313 24.5667 168.763 24.8 168.096 24.8C167.429 24.8 166.896 24.6 166.496 24.2C166.096 23.7667 165.896 23.25 165.896 22.65C165.896 22.35 165.946 22.0333 166.046 21.7C166.179 21.3333 166.346 21.0167 166.546 20.75C166.379 20.0833 165.879 19.4667 165.046 18.9C164.246 18.3333 163.229 18.0667 161.996 18.1C158.696 18.1667 156.363 19.9 154.996 23.3C153.629 26.7 152.779 30.3667 152.446 34.3C153.413 33.0667 154.596 32.0667 155.996 31.3C157.396 30.5333 158.979 30.15 160.746 30.15C163.246 30.15 165.229 30.7 166.696 31.8C168.196 32.9 169.213 34.3 169.746 36C170.313 37.7 170.546 39.4833 170.446 41.35C170.346 43.4167 169.763 45.3333 168.696 47.1C167.663 48.8333 166.246 50.2167 164.446 51.25C162.646 52.2833 160.663 52.8 158.496 52.8C154.796 52.8 152.096 51.5833 150.396 49.15C148.729 46.6833 147.896 43.15 147.896 38.55C147.896 37.9167 147.929 36.9 147.996 35.5C148.296 30.8 149.479 26.4167 151.546 22.35C153.613 18.25 157.179 16.2 162.246 16.2ZM159.846 32.35C158.313 32.35 156.796 32.9167 155.296 34.05C153.796 35.15 152.763 36.45 152.196 37.95C152.129 41.65 152.579 44.7333 153.546 47.2C154.513 49.6333 156.179 50.85 158.546 50.85C160.779 50.85 162.513 50.05 163.746 48.45C164.979 46.8167 165.646 44.8167 165.746 42.45L165.796 41.15C165.796 38.75 165.363 36.6833 164.496 34.95C163.629 33.2167 162.079 32.35 159.846 32.35Z" fill="#A7A7A7"/>
<defs>
<filter id="filter0_d" x="0" y="12" width="167" height="187" filterUnits="userSpaceOnUse" color-interpolation-filters="sRGB">
<feFlood flood-opacity="0" result="BackgroundImageFix"/>
<feColorMatrix in="SourceAlpha" type="matrix" values="0 0 0 0 0 0 0 0 0 0 0 0 0 0 0 0 0 0 127 0"/>
<feOffset dy="100"/>
<feGaussianBlur stdDeviation="40"/>
<feColorMatrix type="matrix" values="0 0 0 0 0.807929 0 0 0 0 0.797289 0 0 0 0 0.797289 0 0 0 0.2 0"/>
<feBlend mode="normal" in2="BackgroundImageFix" result="effect1_dropShadow"/>
<feBlend mode="normal" in="SourceGraphic" in2="effect1_dropShadow" result="shape"/>
</filter>
</defs>
</svg>
