<svg width="392" height="273" viewBox="0 0 392 273" fill="none" xmlns="http://www.w3.org/2000/svg">
<path d="M200.136 29.92C200.083 30.2187 199.971 30.544 199.8 30.896C199.629 31.2373 199.395 31.536 199.096 31.792C198.797 32.048 198.451 32.176 198.056 32.176C197.64 32.176 197.331 32.048 197.128 31.792C196.925 31.536 196.824 31.184 196.824 30.736C196.824 30.3413 196.899 29.6213 197.048 28.576C197.272 26.9227 197.384 25.7067 197.384 24.928V24.608L196.296 24.624H196.712C196.445 24.624 196.275 24.7947 196.2 25.136C195.773 27.28 195.224 28.9867 194.552 30.256C193.88 31.5253 193.021 32.16 191.976 32.16C191.677 32.16 191.427 32.0747 191.224 31.904C191.032 31.7333 190.936 31.5307 190.936 31.296C190.936 31.0933 191.005 30.9173 191.144 30.768C191.283 30.608 191.459 30.528 191.672 30.528C191.853 30.528 192.013 30.5867 192.152 30.704C192.291 30.8213 192.36 30.9707 192.36 31.152C192.36 31.2267 192.349 31.3067 192.328 31.392C192.776 31.4453 193.208 31.1413 193.624 30.48C194.051 29.808 194.419 28.944 194.728 27.888C195.048 26.8213 195.288 25.7333 195.448 24.624L193.976 24.64L194.024 24H198.696C198.707 24.096 198.712 24.2347 198.712 24.416C198.712 24.6933 198.675 25.1627 198.6 25.824C198.536 26.4747 198.461 27.136 198.376 27.808C198.184 29.4293 198.088 30.3787 198.088 30.656C198.088 31.1253 198.232 31.36 198.52 31.36C198.723 31.36 198.931 31.2373 199.144 30.992C199.357 30.736 199.539 30.3467 199.688 29.824L200.136 29.92ZM196.152 25.28V25.328V25.28ZM204.825 23.824C205.465 23.824 205.998 23.9733 206.425 24.272C206.851 24.5707 207.065 25.0347 207.065 25.664C207.065 26.4533 206.59 27.0667 205.641 27.504C204.691 27.9413 203.593 28.2293 202.345 28.368C202.345 29.3707 202.494 30.1227 202.793 30.624C203.091 31.1253 203.55 31.376 204.169 31.376C204.659 31.376 205.134 31.216 205.593 30.896C206.051 30.5653 206.451 30.08 206.793 29.44L207.321 29.744C206.873 30.5867 206.371 31.2053 205.817 31.6C205.262 31.984 204.622 32.176 203.897 32.176C202.915 32.176 202.174 31.872 201.673 31.264C201.182 30.6453 200.937 29.7973 200.937 28.72C200.937 27.856 201.081 27.056 201.368 26.32C201.667 25.5733 202.11 24.9707 202.697 24.512C203.283 24.0533 203.993 23.824 204.825 23.824ZM204.601 24.368C203.918 24.368 203.39 24.6987 203.017 25.36C202.643 26.0213 202.425 26.832 202.361 27.792C203.289 27.664 204.083 27.408 204.745 27.024C205.406 26.64 205.737 26.16 205.737 25.584C205.737 25.232 205.635 24.944 205.433 24.72C205.241 24.4853 204.963 24.368 204.601 24.368ZM218.546 23.824C219.143 23.824 219.57 24.016 219.826 24.4C220.092 24.784 220.226 25.2853 220.226 25.904C220.226 26.352 220.199 26.8053 220.146 27.264C220.092 27.712 220.012 28.2827 219.906 28.976C219.767 29.8293 219.698 30.384 219.698 30.64C219.698 30.8747 219.724 31.056 219.778 31.184C219.842 31.312 219.959 31.376 220.13 31.376C220.332 31.376 220.54 31.2533 220.754 31.008C220.978 30.752 221.164 30.3573 221.314 29.824L221.762 29.936C221.708 30.2347 221.591 30.56 221.41 30.912C221.239 31.2533 221.004 31.552 220.706 31.808C220.407 32.0533 220.06 32.176 219.666 32.176C219.186 32.176 218.85 32.0533 218.658 31.808C218.476 31.552 218.386 31.1627 218.386 30.64C218.386 30.2027 218.471 29.4987 218.642 28.528C218.652 28.432 218.69 28.1707 218.754 27.744C218.818 27.3067 218.866 26.9067 218.898 26.544C218.94 26.1707 218.962 25.84 218.962 25.552C218.962 25.3067 218.903 25.0827 218.786 24.88C218.668 24.6773 218.471 24.576 218.194 24.576C217.714 24.576 217.244 24.928 216.786 25.632C216.338 26.336 215.97 27.2053 215.682 28.24C215.404 29.2747 215.266 30.2453 215.266 31.152C215.266 31.3547 215.276 31.6373 215.298 32H213.954C213.943 31.904 213.938 31.7653 213.938 31.584C213.938 31.232 213.97 30.7627 214.034 30.176C214.098 29.5893 214.167 29.008 214.242 28.432C214.423 27.0453 214.514 26.1013 214.514 25.6C214.514 24.9173 214.258 24.576 213.746 24.576C213.276 24.576 212.812 24.928 212.354 25.632C211.906 26.336 211.538 27.2107 211.25 28.256C210.962 29.2907 210.818 30.256 210.818 31.152C210.818 31.3547 210.828 31.6373 210.85 32H209.506C209.495 31.904 209.49 31.7653 209.49 31.584C209.49 31.3173 209.511 30.9333 209.554 30.432C209.607 29.92 209.687 29.2373 209.794 28.384L209.986 26.72C210.028 26.3467 210.06 26.064 210.082 25.872C210.103 25.6693 210.114 25.4933 210.114 25.344C210.114 25.12 210.082 24.944 210.018 24.816C209.964 24.688 209.852 24.624 209.682 24.624C209.479 24.624 209.271 24.752 209.058 25.008C208.844 25.264 208.663 25.6533 208.514 26.176L208.066 26.08C208.119 25.7813 208.231 25.456 208.402 25.104C208.583 24.752 208.818 24.4533 209.106 24.208C209.404 23.952 209.751 23.824 210.146 23.824C210.946 23.824 211.346 24.3573 211.346 25.424C211.346 25.7227 211.314 26.0533 211.25 26.416C211.196 26.7787 211.143 27.104 211.09 27.392H211.138C211.596 26.0587 212.071 25.1307 212.562 24.608C213.052 24.0853 213.554 23.824 214.066 23.824C214.652 23.824 215.084 24.0107 215.362 24.384C215.639 24.7573 215.778 25.1787 215.778 25.648C215.778 25.9253 215.762 26.16 215.73 26.352C215.698 26.5333 215.623 26.864 215.506 27.344H215.554C216.034 26.0107 216.524 25.0933 217.026 24.592C217.527 24.08 218.034 23.824 218.546 23.824ZM232.844 27.344L227.164 27.408L227.212 26.352H232.892L232.844 27.344ZM244.35 23.824C245.054 23.824 245.587 24.1173 245.95 24.704C246.323 25.2907 246.51 26.032 246.51 26.928C246.51 27.9733 246.328 28.8907 245.966 29.68C245.603 30.4693 245.064 31.0827 244.35 31.52C243.646 31.9573 242.792 32.176 241.79 32.176C241.534 32.176 241.283 32.16 241.038 32.128L240.91 34.144C240.899 34.2187 240.894 34.336 240.894 34.496C240.872 34.912 240.835 35.2373 240.782 35.472L241.79 35.424V36.08H238.766V35.6C239.022 35.6 239.214 35.52 239.342 35.36C239.47 35.2 239.555 34.992 239.598 34.736C239.651 34.4907 239.694 34.1387 239.726 33.68C239.726 33.5413 239.731 33.4347 239.742 33.36C239.838 32.2293 239.982 30.6133 240.174 28.512C240.344 26.752 240.43 25.7387 240.43 25.472C240.43 25.1947 240.403 24.9867 240.35 24.848C240.296 24.6987 240.179 24.624 239.998 24.624C239.795 24.624 239.587 24.752 239.374 25.008C239.171 25.264 238.995 25.6533 238.846 26.176L238.382 26.08C238.435 25.7813 238.547 25.456 238.718 25.104C238.899 24.752 239.134 24.4533 239.422 24.208C239.72 23.952 240.067 23.824 240.462 23.824C241.272 23.824 241.678 24.384 241.678 25.504C241.678 25.9733 241.603 26.5813 241.454 27.328H241.502C241.907 25.984 242.344 25.0667 242.814 24.576C243.283 24.0747 243.795 23.824 244.35 23.824ZM244.014 24.576C243.64 24.576 243.267 24.8373 242.894 25.36C242.52 25.872 242.19 26.544 241.902 27.376C241.614 28.1973 241.4 29.0453 241.262 29.92C241.198 30.2933 241.139 30.8 241.086 31.44C241.47 31.568 241.795 31.632 242.062 31.632C242.766 31.632 243.347 31.4133 243.806 30.976C244.275 30.528 244.611 29.968 244.814 29.296C245.027 28.6133 245.134 27.92 245.134 27.216C245.134 26.3947 245.048 25.7493 244.878 25.28C244.707 24.8107 244.419 24.576 244.014 24.576ZM251.746 23.824C252.386 23.824 252.92 23.9733 253.346 24.272C253.773 24.5707 253.986 25.0347 253.986 25.664C253.986 26.4533 253.512 27.0667 252.562 27.504C251.613 27.9413 250.514 28.2293 249.266 28.368C249.266 29.3707 249.416 30.1227 249.714 30.624C250.013 31.1253 250.472 31.376 251.09 31.376C251.581 31.376 252.056 31.216 252.514 30.896C252.973 30.5653 253.373 30.08 253.714 29.44L254.242 29.744C253.794 30.5867 253.293 31.2053 252.738 31.6C252.184 31.984 251.544 32.176 250.818 32.176C249.837 32.176 249.096 31.872 248.594 31.264C248.104 30.6453 247.858 29.7973 247.858 28.72C247.858 27.856 248.002 27.056 248.29 26.32C248.589 25.5733 249.032 24.9707 249.618 24.512C250.205 24.0533 250.914 23.824 251.746 23.824ZM251.522 24.368C250.84 24.368 250.312 24.6987 249.938 25.36C249.565 26.0213 249.346 26.832 249.282 27.792C250.21 27.664 251.005 27.408 251.666 27.024C252.328 26.64 252.658 26.16 252.658 25.584C252.658 25.232 252.557 24.944 252.354 24.72C252.162 24.4853 251.885 24.368 251.522 24.368ZM263.675 30.368C263.569 30.88 263.366 31.312 263.067 31.664C262.769 32.0053 262.369 32.176 261.867 32.176C261.473 32.176 261.169 32.0267 260.955 31.728C260.753 31.4293 260.619 30.88 260.555 30.08C260.491 29.3333 260.369 28.816 260.187 28.528C260.006 28.24 259.723 28.096 259.339 28.096L258.011 28.112C257.83 29.52 257.75 30.5227 257.771 31.12C257.771 31.28 257.782 31.5733 257.803 32H256.475L256.459 31.808L256.475 31.584C256.475 30.9973 256.577 29.904 256.779 28.304C256.875 27.4827 256.961 26.8427 257.035 26.384C257.099 25.8613 257.131 25.504 257.131 25.312C257.131 25.0987 257.105 24.9333 257.051 24.816C256.998 24.688 256.886 24.624 256.715 24.624C256.513 24.624 256.299 24.752 256.075 25.008C255.862 25.264 255.675 25.6533 255.515 26.176L255.067 26.08C255.131 25.7813 255.254 25.456 255.435 25.104C255.617 24.752 255.857 24.4533 256.155 24.208C256.454 23.952 256.801 23.824 257.195 23.824C257.611 23.824 257.905 23.9413 258.075 24.176C258.257 24.4107 258.347 24.768 258.347 25.248C258.347 25.5147 258.31 25.92 258.235 26.464L258.075 27.648H258.587C259.057 27.648 259.425 27.52 259.691 27.264C259.969 27.008 260.23 26.56 260.475 25.92C260.753 25.152 261.046 24.6133 261.355 24.304C261.675 23.984 262.081 23.824 262.571 23.824C262.849 23.824 263.067 23.904 263.227 24.064C263.387 24.224 263.467 24.4373 263.467 24.704C263.467 24.928 263.398 25.12 263.259 25.28C263.131 25.44 262.95 25.52 262.715 25.52C262.449 25.52 262.241 25.4613 262.091 25.344C261.942 25.2267 261.857 25.0613 261.835 24.848C261.686 24.944 261.553 25.088 261.435 25.28C261.318 25.472 261.185 25.776 261.035 26.192C260.897 26.576 260.726 26.9067 260.523 27.184C260.321 27.4613 260.097 27.664 259.851 27.792C261.003 27.824 261.643 28.4533 261.771 29.68C261.835 30.3093 261.91 30.736 261.995 30.96C262.091 31.1733 262.262 31.28 262.507 31.28C262.667 31.28 262.806 31.2053 262.923 31.056C263.041 30.896 263.142 30.64 263.227 30.288L263.675 30.368ZM268.623 23.824C269.199 23.824 269.716 23.9627 270.175 24.24C270.644 24.5173 271.007 24.9227 271.263 25.456C271.53 25.9787 271.663 26.6027 271.663 27.328C271.663 28.2027 271.503 29.008 271.183 29.744C270.874 30.48 270.42 31.072 269.823 31.52C269.236 31.9573 268.543 32.176 267.743 32.176C266.73 32.176 265.962 31.8453 265.439 31.184C264.927 30.512 264.671 29.648 264.671 28.592C264.671 27.7173 264.831 26.9173 265.151 26.192C265.471 25.4667 265.93 24.8907 266.527 24.464C267.124 24.0373 267.823 23.824 268.623 23.824ZM268.367 24.416C267.898 24.416 267.487 24.5867 267.135 24.928C266.794 25.2587 266.532 25.7173 266.351 26.304C266.17 26.88 266.079 27.5253 266.079 28.24C266.079 29.1253 266.223 29.904 266.511 30.576C266.799 31.2373 267.268 31.568 267.919 31.568C268.463 31.568 268.906 31.36 269.247 30.944C269.599 30.528 269.855 30.016 270.015 29.408C270.175 28.8 270.255 28.208 270.255 27.632C270.255 26.736 270.111 25.9787 269.823 25.36C269.546 24.7307 269.06 24.416 268.367 24.416ZM284.711 29.92C284.657 30.2187 284.54 30.544 284.359 30.896C284.188 31.248 283.948 31.552 283.639 31.808C283.34 32.0533 282.988 32.176 282.583 32.176C282.177 32.176 281.879 32.048 281.687 31.792C281.495 31.536 281.399 31.184 281.399 30.736C281.399 30.448 281.436 30.0693 281.511 29.6C281.585 29.12 281.697 28.4533 281.847 27.6C282.017 26.6507 282.151 25.8347 282.247 25.152H282.151C281.457 27.0933 280.908 28.544 280.503 29.504C280.097 30.4533 279.713 31.136 279.351 31.552C278.999 31.968 278.604 32.176 278.167 32.176C277.783 32.176 277.511 32.032 277.351 31.744C277.201 31.456 277.127 30.96 277.127 30.256C277.127 27.5573 277.185 25.856 277.303 25.152H277.175C276.609 27.136 276.172 28.5653 275.863 29.44C275.564 30.3147 275.217 30.9867 274.823 31.456C274.439 31.9253 273.953 32.16 273.367 32.16C273.068 32.16 272.817 32.0747 272.615 31.904C272.423 31.7333 272.327 31.5307 272.327 31.296C272.327 31.0933 272.396 30.9173 272.535 30.768C272.673 30.608 272.849 30.528 273.063 30.528C273.244 30.528 273.404 30.5867 273.543 30.704C273.681 30.8213 273.751 30.9707 273.751 31.152C273.751 31.2267 273.74 31.3067 273.719 31.392C274.092 31.4133 274.508 30.8907 274.967 29.824C275.425 28.7573 275.959 27.024 276.567 24.624L275.127 24.64L275.191 24H278.359C278.391 24.1707 278.407 24.352 278.407 24.544C278.407 25.024 278.396 25.7227 278.375 26.64L278.359 28.688C278.359 29.0613 278.369 29.632 278.391 30.4C278.412 30.784 278.433 31.0347 278.455 31.152C278.487 31.2693 278.551 31.328 278.647 31.328C278.86 31.328 279.233 30.736 279.767 29.552C280.311 28.368 281.015 26.5173 281.879 24H283.351C283.361 24.096 283.367 24.2347 283.367 24.416C283.367 24.8853 283.239 26.016 282.983 27.808C282.908 28.4053 282.833 28.9813 282.759 29.536C282.695 30.08 282.663 30.4533 282.663 30.656C282.663 31.1253 282.796 31.36 283.063 31.36C283.276 31.36 283.489 31.2373 283.703 30.992C283.927 30.736 284.113 30.3467 284.263 29.824L284.711 29.92ZM289.403 23.824C290.043 23.824 290.576 23.9733 291.003 24.272C291.429 24.5707 291.643 25.0347 291.643 25.664C291.643 26.4533 291.168 27.0667 290.219 27.504C289.269 27.9413 288.171 28.2293 286.923 28.368C286.923 29.3707 287.072 30.1227 287.371 30.624C287.669 31.1253 288.128 31.376 288.747 31.376C289.237 31.376 289.712 31.216 290.171 30.896C290.629 30.5653 291.029 30.08 291.371 29.44L291.899 29.744C291.451 30.5867 290.949 31.2053 290.395 31.6C289.84 31.984 289.2 32.176 288.475 32.176C287.493 32.176 286.752 31.872 286.251 31.264C285.76 30.6453 285.515 29.7973 285.515 28.72C285.515 27.856 285.659 27.056 285.947 26.32C286.245 25.5733 286.688 24.9707 287.275 24.512C287.861 24.0533 288.571 23.824 289.403 23.824ZM289.179 24.368C288.496 24.368 287.968 24.6987 287.595 25.36C287.221 26.0213 287.003 26.832 286.939 27.792C287.867 27.664 288.661 27.408 289.323 27.024C289.984 26.64 290.315 26.16 290.315 25.584C290.315 25.232 290.213 24.944 290.011 24.72C289.819 24.4853 289.541 24.368 289.179 24.368ZM301.86 29.92C301.806 30.2187 301.689 30.544 301.508 30.896C301.337 31.248 301.102 31.552 300.804 31.808C300.516 32.0533 300.174 32.176 299.78 32.176C299.364 32.176 299.054 32.048 298.852 31.792C298.649 31.536 298.548 31.184 298.548 30.736C298.548 30.448 298.606 29.856 298.724 28.96L298.772 28.512L295.684 28.544L295.396 30.992C295.374 31.2053 295.364 31.36 295.364 31.456C295.364 31.6373 295.38 31.8187 295.412 32H294.068C294.057 31.904 294.052 31.7653 294.052 31.584C294.062 31.1893 294.158 30.3733 294.34 29.136L294.436 28.384L294.532 27.696C294.628 26.9813 294.692 26.464 294.724 26.144C294.766 25.8133 294.788 25.5467 294.788 25.344C294.809 24.864 294.67 24.624 294.372 24.624C294.169 24.624 293.956 24.752 293.732 25.008C293.518 25.264 293.332 25.6533 293.172 26.176L292.724 26.08C292.788 25.7813 292.91 25.456 293.092 25.104C293.273 24.752 293.513 24.4533 293.812 24.208C294.11 23.952 294.457 23.824 294.852 23.824C295.63 23.824 296.02 24.3413 296.02 25.376C296.02 25.5467 295.998 25.824 295.956 26.208L295.764 27.904H298.852C299.022 26.56 299.108 25.568 299.108 24.928C299.108 24.736 299.097 24.4267 299.076 24H300.42C300.43 24.096 300.436 24.2347 300.436 24.416C300.436 24.6933 300.398 25.1627 300.324 25.824C300.26 26.4747 300.185 27.136 300.1 27.808C299.908 29.4293 299.812 30.3787 299.812 30.656C299.812 31.1253 299.956 31.36 300.244 31.36C300.446 31.36 300.654 31.2373 300.868 30.992C301.081 30.736 301.262 30.3467 301.412 29.824L301.86 29.92ZM305.455 32.176C304.623 32.176 303.946 31.8827 303.423 31.296C302.911 30.7093 302.655 29.872 302.655 28.784C302.655 27.888 302.821 27.088 303.151 26.384C303.482 25.6693 303.93 25.1147 304.495 24.72C305.071 24.3253 305.706 24.128 306.399 24.128C307.114 24.128 307.626 24.336 307.935 24.752C307.807 23.376 307.519 22.32 307.071 21.584C306.634 20.8373 306.101 20.464 305.471 20.464C304.842 20.464 304.271 20.7147 303.759 21.216L303.455 20.848C303.85 20.5067 304.213 20.2613 304.543 20.112C304.885 19.952 305.247 19.872 305.631 19.872C306.858 19.872 307.77 20.464 308.367 21.648C308.965 22.8213 309.263 24.32 309.263 26.144C309.263 27.5733 309.082 28.7413 308.719 29.648C308.367 30.544 307.903 31.1893 307.327 31.584C306.762 31.9787 306.138 32.176 305.455 32.176ZM305.759 31.568C306.453 31.568 306.97 31.1307 307.311 30.256C307.663 29.3813 307.871 28.3413 307.935 27.136C307.978 26.432 307.855 25.856 307.567 25.408C307.279 24.9493 306.895 24.72 306.415 24.72C306.031 24.72 305.653 24.88 305.279 25.2C304.906 25.5093 304.597 25.9627 304.351 26.56C304.117 27.1467 303.999 27.8293 303.999 28.608C303.999 29.472 304.154 30.1813 304.463 30.736C304.783 31.2907 305.215 31.568 305.759 31.568ZM314.545 23.824C315.121 23.824 315.638 23.9627 316.097 24.24C316.566 24.5173 316.929 24.9227 317.185 25.456C317.451 25.9787 317.585 26.6027 317.585 27.328C317.585 28.2027 317.425 29.008 317.105 29.744C316.795 30.48 316.342 31.072 315.745 31.52C315.158 31.9573 314.465 32.176 313.665 32.176C312.651 32.176 311.883 31.8453 311.361 31.184C310.849 30.512 310.593 29.648 310.593 28.592C310.593 27.7173 310.753 26.9173 311.073 26.192C311.393 25.4667 311.851 24.8907 312.449 24.464C313.046 24.0373 313.745 23.824 314.545 23.824ZM314.289 24.416C313.819 24.416 313.409 24.5867 313.057 24.928C312.715 25.2587 312.454 25.7173 312.273 26.304C312.091 26.88 312.001 27.5253 312.001 28.24C312.001 29.1253 312.145 29.904 312.433 30.576C312.721 31.2373 313.19 31.568 313.841 31.568C314.385 31.568 314.827 31.36 315.169 30.944C315.521 30.528 315.777 30.016 315.937 29.408C316.097 28.8 316.177 28.208 316.177 27.632C316.177 26.736 316.033 25.9787 315.745 25.36C315.467 24.7307 314.982 24.416 314.289 24.416ZM323.097 27.552C323.801 27.5093 324.313 27.664 324.633 28.016C324.963 28.368 325.129 28.8107 325.129 29.344C325.129 29.8667 324.985 30.3467 324.697 30.784C324.419 31.2107 324.03 31.552 323.529 31.808C323.027 32.0533 322.467 32.176 321.849 32.176C320.889 32.176 320.163 31.872 319.673 31.264C319.182 30.6453 318.937 29.7973 318.937 28.72C318.937 27.8667 319.081 27.0667 319.368 26.32C319.657 25.5733 320.078 24.9707 320.633 24.512C321.198 24.0533 321.87 23.824 322.649 23.824C323.235 23.824 323.731 23.9573 324.137 24.224C324.542 24.48 324.745 24.8693 324.745 25.392C324.745 25.7973 324.606 26.192 324.329 26.576C324.062 26.9493 323.651 27.2747 323.097 27.552ZM322.489 24.368C321.891 24.368 321.401 24.7147 321.017 25.408C320.633 26.1013 320.409 26.9653 320.345 28C321.454 27.744 322.233 27.424 322.681 27.04C323.129 26.6453 323.353 26.1333 323.353 25.504C323.353 24.7467 323.065 24.368 322.489 24.368ZM322.217 31.568C322.697 31.568 323.075 31.4027 323.353 31.072C323.63 30.7413 323.769 30.2987 323.769 29.744C323.769 29.264 323.651 28.8747 323.417 28.576C323.193 28.2773 322.862 28.128 322.424 28.128C322.233 28.128 322.025 28.16 321.801 28.224L320.329 28.608C320.361 29.536 320.526 30.2613 320.825 30.784C321.134 31.3067 321.598 31.568 322.217 31.568ZM331.045 23.824C331.771 23.824 332.485 23.9147 333.189 24.096C332.72 27.5733 332.485 29.7067 332.485 30.496C332.485 30.7733 332.512 30.992 332.565 31.152C332.619 31.3013 332.741 31.376 332.933 31.376C333.136 31.376 333.344 31.248 333.557 30.992C333.771 30.736 333.952 30.3467 334.101 29.824L334.549 29.92C334.496 30.2187 334.379 30.544 334.197 30.896C334.027 31.248 333.792 31.552 333.493 31.808C333.205 32.0533 332.864 32.176 332.469 32.176C331.68 32.176 331.285 31.696 331.285 30.736C331.285 30.2667 331.381 29.552 331.573 28.592H331.525C331.077 30 330.587 30.9493 330.053 31.44C329.52 31.9307 328.971 32.176 328.405 32.176C327.787 32.176 327.291 31.952 326.917 31.504C326.555 31.056 326.373 30.352 326.373 29.392C326.373 28.368 326.549 27.4347 326.901 26.592C327.253 25.7493 327.781 25.0773 328.485 24.576C329.189 24.0747 330.043 23.824 331.045 23.824ZM330.549 24.4C329.931 24.4 329.408 24.624 328.981 25.072C328.555 25.5093 328.235 26.0907 328.021 26.816C327.819 27.5307 327.717 28.2987 327.717 29.12C327.717 30.688 328.064 31.472 328.757 31.472C329.227 31.472 329.696 31.104 330.165 30.368C330.635 29.632 331.024 28.7253 331.333 27.648C331.643 26.56 331.797 25.5413 331.797 24.592C331.477 24.464 331.061 24.4 330.549 24.4ZM343.891 29.92C343.838 30.2187 343.72 30.544 343.539 30.896C343.368 31.248 343.134 31.552 342.835 31.808C342.547 32.0533 342.206 32.176 341.811 32.176C341.395 32.176 341.086 32.048 340.883 31.792C340.68 31.536 340.579 31.184 340.579 30.736C340.579 30.448 340.638 29.856 340.755 28.96L340.803 28.512L337.715 28.544L337.427 30.992C337.406 31.2053 337.395 31.36 337.395 31.456C337.395 31.6373 337.411 31.8187 337.443 32H336.099C336.088 31.904 336.083 31.7653 336.083 31.584C336.094 31.1893 336.19 30.3733 336.371 29.136L336.467 28.384L336.563 27.696C336.659 26.9813 336.723 26.464 336.755 26.144C336.798 25.8133 336.819 25.5467 336.819 25.344C336.84 24.864 336.702 24.624 336.403 24.624C336.2 24.624 335.987 24.752 335.763 25.008C335.55 25.264 335.363 25.6533 335.203 26.176L334.755 26.08C334.819 25.7813 334.942 25.456 335.123 25.104C335.304 24.752 335.544 24.4533 335.843 24.208C336.142 23.952 336.488 23.824 336.883 23.824C337.662 23.824 338.051 24.3413 338.051 25.376C338.051 25.5467 338.03 25.824 337.987 26.208L337.795 27.904H340.883C341.054 26.56 341.139 25.568 341.139 24.928C341.139 24.736 341.128 24.4267 341.107 24H342.451C342.462 24.096 342.467 24.2347 342.467 24.416C342.467 24.6933 342.43 25.1627 342.355 25.824C342.291 26.4747 342.216 27.136 342.131 27.808C341.939 29.4293 341.843 30.3787 341.843 30.656C341.843 31.1253 341.987 31.36 342.275 31.36C342.478 31.36 342.686 31.2373 342.899 30.992C343.112 30.736 343.294 30.3467 343.443 29.824L343.891 29.92ZM353.407 29.92C353.353 30.2187 353.236 30.544 353.055 30.896C352.884 31.248 352.649 31.552 352.351 31.808C352.063 32.0533 351.721 32.176 351.327 32.176C350.911 32.176 350.601 32.048 350.399 31.792C350.196 31.536 350.095 31.184 350.095 30.736C350.095 30.448 350.153 29.856 350.271 28.96L350.319 28.512L347.231 28.544L346.943 30.992C346.921 31.2053 346.911 31.36 346.911 31.456C346.911 31.6373 346.927 31.8187 346.959 32H345.615C345.604 31.904 345.599 31.7653 345.599 31.584C345.609 31.1893 345.705 30.3733 345.887 29.136L345.983 28.384L346.079 27.696C346.175 26.9813 346.239 26.464 346.271 26.144C346.313 25.8133 346.335 25.5467 346.335 25.344C346.356 24.864 346.217 24.624 345.919 24.624C345.716 24.624 345.503 24.752 345.279 25.008C345.065 25.264 344.879 25.6533 344.719 26.176L344.271 26.08C344.335 25.7813 344.457 25.456 344.639 25.104C344.82 24.752 345.06 24.4533 345.359 24.208C345.657 23.952 346.004 23.824 346.399 23.824C347.177 23.824 347.567 24.3413 347.567 25.376C347.567 25.5467 347.545 25.824 347.503 26.208L347.311 27.904H350.399C350.569 26.56 350.655 25.568 350.655 24.928C350.655 24.736 350.644 24.4267 350.623 24H351.967C351.977 24.096 351.983 24.2347 351.983 24.416C351.983 24.6933 351.945 25.1627 351.871 25.824C351.807 26.4747 351.732 27.136 351.647 27.808C351.455 29.4293 351.359 30.3787 351.359 30.656C351.359 31.1253 351.503 31.36 351.791 31.36C351.993 31.36 352.201 31.2373 352.415 30.992C352.628 30.736 352.809 30.3467 352.959 29.824L353.407 29.92ZM358.506 26.816C359.199 26.816 359.759 27.0133 360.186 27.408C360.613 27.792 360.826 28.3307 360.826 29.024C360.826 29.6107 360.677 30.144 360.378 30.624C360.079 31.104 359.663 31.4827 359.13 31.76C358.607 32.0373 358.015 32.176 357.354 32.176C356.65 32.176 356.117 31.9947 355.754 31.632C355.402 31.2587 355.226 30.7573 355.226 30.128C355.226 30.032 355.237 29.8773 355.258 29.664C355.546 27.872 355.722 26.7307 355.786 26.24C355.861 25.7493 355.898 25.4133 355.898 25.232C355.898 25.04 355.871 24.8907 355.818 24.784C355.765 24.6773 355.658 24.624 355.498 24.624C355.295 24.624 355.082 24.752 354.858 25.008C354.634 25.264 354.437 25.6533 354.266 26.176L353.818 26.08C353.893 25.7813 354.021 25.456 354.202 25.104C354.383 24.752 354.623 24.4533 354.922 24.208C355.231 23.952 355.583 23.824 355.978 23.824C356.394 23.824 356.687 23.9573 356.858 24.224C357.039 24.48 357.13 24.8373 357.13 25.296C357.13 25.552 357.103 25.856 357.05 26.208L356.874 27.312C357.482 26.9813 358.026 26.816 358.506 26.816ZM364.858 29.92C364.805 30.2187 364.687 30.544 364.506 30.896C364.335 31.248 364.101 31.552 363.802 31.808C363.514 32.0533 363.173 32.176 362.778 32.176C362.362 32.176 362.053 32.048 361.85 31.792C361.647 31.536 361.546 31.184 361.546 30.736C361.546 30.3413 361.621 29.6213 361.77 28.576C361.994 26.9227 362.106 25.7067 362.106 24.928C362.106 24.736 362.095 24.4267 362.074 24H363.418C363.429 24.096 363.434 24.2347 363.434 24.416C363.434 24.6933 363.397 25.1627 363.322 25.824C363.258 26.4747 363.183 27.136 363.098 27.808C362.906 29.4293 362.81 30.3787 362.81 30.656C362.81 31.1253 362.954 31.36 363.242 31.36C363.434 31.36 363.637 31.2373 363.85 30.992C364.074 30.736 364.261 30.3467 364.41 29.824L364.858 29.92ZM359.498 29.376C359.519 28.736 359.439 28.2507 359.258 27.92C359.087 27.5787 358.773 27.408 358.314 27.408C357.823 27.408 357.306 27.6213 356.762 28.048L356.474 29.808C356.453 29.9573 356.442 30.0693 356.442 30.144C356.442 30.592 356.57 30.944 356.826 31.2C357.082 31.4453 357.407 31.568 357.802 31.568C358.325 31.568 358.735 31.376 359.034 30.992C359.333 30.608 359.487 30.0693 359.498 29.376ZM367.159 23.824C367.586 23.824 367.906 23.9573 368.119 24.224C368.343 24.4907 368.455 24.8747 368.455 25.376C368.455 25.76 368.37 26.56 368.199 27.776C368.189 27.872 368.141 28.2347 368.055 28.864C367.97 29.4827 367.927 30 367.927 30.416C367.927 30.672 367.981 30.9067 368.087 31.12C368.205 31.3227 368.402 31.424 368.679 31.424C369.149 31.424 369.618 31.072 370.087 30.368C370.557 29.6533 370.941 28.7787 371.239 27.744C371.549 26.7093 371.703 25.744 371.703 24.848C371.703 24.6453 371.693 24.3627 371.671 24H373.015C373.026 24.096 373.031 24.2347 373.031 24.416C373.031 24.672 373.005 25.0667 372.951 25.6C372.898 26.1333 372.818 26.8267 372.711 27.68L372.551 29.008C372.541 29.1467 372.514 29.4027 372.471 29.776C372.429 30.1493 372.407 30.4427 372.407 30.656C372.407 31.1253 372.551 31.36 372.839 31.36C373.042 31.36 373.25 31.2373 373.463 30.992C373.677 30.736 373.858 30.3467 374.007 29.824L374.455 29.92C374.402 30.2187 374.285 30.544 374.103 30.896C373.933 31.248 373.698 31.552 373.399 31.808C373.111 32.0533 372.77 32.176 372.375 32.176C371.959 32.176 371.65 32.048 371.447 31.792C371.245 31.536 371.143 31.184 371.143 30.736C371.143 30.2667 371.239 29.552 371.431 28.592H371.383C370.871 29.968 370.381 30.912 369.911 31.424C369.442 31.9253 368.925 32.176 368.359 32.176C367.762 32.176 367.319 31.984 367.031 31.6C366.754 31.2053 366.615 30.704 366.615 30.096C366.615 29.6373 366.642 29.1733 366.695 28.704C366.749 28.2347 366.829 27.6693 366.935 27.008C366.957 26.8907 366.994 26.6453 367.047 26.272C367.101 25.888 367.127 25.5893 367.127 25.376C367.127 25.1307 367.095 24.944 367.031 24.816C366.978 24.688 366.866 24.624 366.695 24.624C366.503 24.624 366.306 24.752 366.103 25.008C365.901 25.2533 365.725 25.6427 365.575 26.176L365.127 26.08C365.223 25.5573 365.442 25.0507 365.783 24.56C366.135 24.0693 366.594 23.824 367.159 23.824ZM369.879 22.32C369.303 22.32 368.818 22.208 368.423 21.984C368.029 21.7493 367.831 21.424 367.831 21.008C367.831 20.6987 367.917 20.4693 368.087 20.32C368.258 20.1707 368.466 20.096 368.711 20.096C368.957 20.096 369.133 20.1707 369.239 20.32C369.357 20.4587 369.415 20.6187 369.415 20.8C369.394 21.0133 369.309 21.2053 369.159 21.376C369.287 21.4933 369.421 21.5787 369.559 21.632C369.709 21.6853 369.895 21.712 370.119 21.712C370.631 21.712 371.058 21.5787 371.399 21.312C371.506 21.2267 371.613 21.104 371.719 20.944C371.837 20.7733 371.943 20.608 372.039 20.448L372.519 20.88C372.146 21.36 371.73 21.7227 371.271 21.968C370.823 22.2027 370.359 22.32 369.879 22.32ZM195.784 47.552C196.488 47.5093 197 47.664 197.32 48.016C197.651 48.368 197.816 48.8107 197.816 49.344C197.816 49.8667 197.672 50.3467 197.384 50.784C197.107 51.2107 196.717 51.552 196.216 51.808C195.715 52.0533 195.155 52.176 194.536 52.176C193.576 52.176 192.851 51.872 192.36 51.264C191.869 50.6453 191.624 49.7973 191.624 48.72C191.624 47.8667 191.768 47.0667 192.056 46.32C192.344 45.5733 192.765 44.9707 193.32 44.512C193.885 44.0533 194.557 43.824 195.336 43.824C195.923 43.824 196.419 43.9573 196.824 44.224C197.229 44.48 197.432 44.8693 197.432 45.392C197.432 45.7973 197.293 46.192 197.016 46.576C196.749 46.9493 196.339 47.2747 195.784 47.552ZM195.176 44.368C194.579 44.368 194.088 44.7147 193.704 45.408C193.32 46.1013 193.096 46.9653 193.032 48C194.141 47.744 194.92 47.424 195.368 47.04C195.816 46.6453 196.04 46.1333 196.04 45.504C196.04 44.7467 195.752 44.368 195.176 44.368ZM194.904 51.568C195.384 51.568 195.763 51.4027 196.04 51.072C196.317 50.7413 196.456 50.2987 196.456 49.744C196.456 49.264 196.339 48.8747 196.104 48.576C195.88 48.2773 195.549 48.128 195.112 48.128C194.92 48.128 194.712 48.16 194.488 48.224L193.016 48.608C193.048 49.536 193.213 50.2613 193.512 50.784C193.821 51.3067 194.285 51.568 194.904 51.568ZM203.045 43.824C203.621 43.824 204.138 43.9627 204.597 44.24C205.066 44.5173 205.429 44.9227 205.685 45.456C205.951 45.9787 206.085 46.6027 206.085 47.328C206.085 48.2027 205.925 49.008 205.605 49.744C205.295 50.48 204.842 51.072 204.245 51.52C203.658 51.9573 202.965 52.176 202.165 52.176C201.151 52.176 200.383 51.8453 199.861 51.184C199.349 50.512 199.093 49.648 199.093 48.592C199.093 47.7173 199.253 46.9173 199.573 46.192C199.893 45.4667 200.351 44.8907 200.949 44.464C201.546 44.0373 202.245 43.824 203.045 43.824ZM202.789 44.416C202.319 44.416 201.909 44.5867 201.557 44.928C201.215 45.2587 200.954 45.7173 200.773 46.304C200.591 46.88 200.501 47.5253 200.501 48.24C200.501 49.1253 200.645 49.904 200.933 50.576C201.221 51.2373 201.69 51.568 202.341 51.568C202.885 51.568 203.327 51.36 203.669 50.944C204.021 50.528 204.277 50.016 204.437 49.408C204.597 48.8 204.677 48.208 204.677 47.632C204.677 46.736 204.533 45.9787 204.245 45.36C203.967 44.7307 203.482 44.416 202.789 44.416ZM209.949 52.176C209.138 52.176 208.487 52 207.997 51.648C207.517 51.296 207.277 50.848 207.277 50.304C207.277 50.0587 207.341 49.8667 207.469 49.728C207.597 49.5893 207.767 49.52 207.981 49.52C208.194 49.52 208.354 49.5893 208.461 49.728C208.578 49.8667 208.637 50.0107 208.637 50.16C208.637 50.416 208.567 50.6187 208.429 50.768C208.482 51.056 208.631 51.2747 208.877 51.424C209.122 51.5627 209.437 51.632 209.821 51.632C210.503 51.632 211.026 51.4613 211.389 51.12C211.762 50.768 211.949 50.304 211.949 49.728C211.949 49.2373 211.826 48.848 211.581 48.56C211.335 48.2613 210.967 48.112 210.477 48.112C210.21 48.112 209.911 48.16 209.581 48.256L209.405 47.696C210.205 47.4507 210.781 47.1627 211.133 46.832C211.485 46.4907 211.661 46.0747 211.661 45.584C211.661 45.1787 211.554 44.8747 211.341 44.672C211.127 44.4693 210.797 44.368 210.349 44.368C209.965 44.368 209.629 44.4427 209.341 44.592C209.053 44.7413 208.834 44.944 208.685 45.2C208.887 45.232 209.026 45.3013 209.101 45.408C209.186 45.5147 209.229 45.664 209.229 45.856C209.229 46.0373 209.165 46.1867 209.037 46.304C208.919 46.4213 208.765 46.48 208.573 46.48C208.381 46.48 208.215 46.416 208.077 46.288C207.949 46.1493 207.885 45.9733 207.885 45.76C207.863 45.408 207.975 45.0827 208.221 44.784C208.477 44.4853 208.818 44.2507 209.245 44.08C209.682 43.9093 210.146 43.824 210.637 43.824C211.33 43.824 211.885 43.9573 212.301 44.224C212.717 44.48 212.925 44.864 212.925 45.376C212.925 45.8027 212.77 46.2027 212.461 46.576C212.151 46.9493 211.687 47.2747 211.069 47.552V47.584C211.719 47.6267 212.226 47.8347 212.589 48.208C212.962 48.5707 213.149 49.0133 213.149 49.536C213.149 50.0267 213.015 50.4747 212.749 50.88C212.493 51.2853 212.119 51.6053 211.629 51.84C211.149 52.064 210.589 52.176 209.949 52.176ZM220.084 43.824C220.788 43.824 221.321 44.1173 221.684 44.704C222.057 45.2907 222.244 46.032 222.244 46.928C222.244 47.9733 222.063 48.8907 221.7 49.68C221.337 50.4693 220.799 51.0827 220.084 51.52C219.38 51.9573 218.527 52.176 217.524 52.176C217.268 52.176 217.017 52.16 216.772 52.128L216.644 54.144C216.633 54.2187 216.628 54.336 216.628 54.496C216.607 54.912 216.569 55.2373 216.516 55.472L217.524 55.424V56.08H214.5V55.6C214.756 55.6 214.948 55.52 215.076 55.36C215.204 55.2 215.289 54.992 215.332 54.736C215.385 54.4907 215.428 54.1387 215.46 53.68C215.46 53.5413 215.465 53.4347 215.476 53.36C215.572 52.2293 215.716 50.6133 215.908 48.512C216.079 46.752 216.164 45.7387 216.164 45.472C216.164 45.1947 216.137 44.9867 216.084 44.848C216.031 44.6987 215.913 44.624 215.732 44.624C215.529 44.624 215.321 44.752 215.108 45.008C214.905 45.264 214.729 45.6533 214.58 46.176L214.116 46.08C214.169 45.7813 214.281 45.456 214.452 45.104C214.633 44.752 214.868 44.4533 215.156 44.208C215.455 43.952 215.801 43.824 216.196 43.824C217.007 43.824 217.412 44.384 217.412 45.504C217.412 45.9733 217.337 46.5813 217.188 47.328H217.236C217.641 45.984 218.079 45.0667 218.548 44.576C219.017 44.0747 219.529 43.824 220.084 43.824ZM219.748 44.576C219.375 44.576 219.001 44.8373 218.628 45.36C218.255 45.872 217.924 46.544 217.636 47.376C217.348 48.1973 217.135 49.0453 216.996 49.92C216.932 50.2933 216.873 50.8 216.82 51.44C217.204 51.568 217.529 51.632 217.796 51.632C218.5 51.632 219.081 51.4133 219.54 50.976C220.009 50.528 220.345 49.968 220.548 49.296C220.761 48.6133 220.868 47.92 220.868 47.216C220.868 46.3947 220.783 45.7493 220.612 45.28C220.441 44.8107 220.153 44.576 219.748 44.576ZM228.233 43.824C228.958 43.824 229.673 43.9147 230.377 44.096C229.907 47.5733 229.673 49.7067 229.673 50.496C229.673 50.7733 229.699 50.992 229.753 51.152C229.806 51.3013 229.929 51.376 230.121 51.376C230.323 51.376 230.531 51.248 230.745 50.992C230.958 50.736 231.139 50.3467 231.289 49.824L231.737 49.92C231.683 50.2187 231.566 50.544 231.385 50.896C231.214 51.248 230.979 51.552 230.681 51.808C230.393 52.0533 230.051 52.176 229.657 52.176C228.867 52.176 228.473 51.696 228.473 50.736C228.473 50.2667 228.569 49.552 228.761 48.592H228.713C228.265 50 227.774 50.9493 227.241 51.44C226.707 51.9307 226.158 52.176 225.593 52.176C224.974 52.176 224.478 51.952 224.105 51.504C223.742 51.056 223.561 50.352 223.561 49.392C223.561 48.368 223.737 47.4347 224.089 46.592C224.441 45.7493 224.969 45.0773 225.673 44.576C226.377 44.0747 227.23 43.824 228.233 43.824ZM227.737 44.4C227.118 44.4 226.595 44.624 226.169 45.072C225.742 45.5093 225.422 46.0907 225.209 46.816C225.006 47.5307 224.905 48.2987 224.905 49.12C224.905 50.688 225.251 51.472 225.945 51.472C226.414 51.472 226.883 51.104 227.353 50.368C227.822 49.632 228.211 48.7253 228.521 47.648C228.83 46.56 228.985 45.5413 228.985 44.592C228.665 44.464 228.249 44.4 227.737 44.4ZM236.182 43.824C236.63 43.824 237.036 43.9093 237.398 44.08C237.772 44.24 238.06 44.464 238.262 44.752C238.476 45.0293 238.582 45.344 238.582 45.696C238.582 45.9413 238.518 46.1333 238.39 46.272C238.262 46.4107 238.092 46.48 237.878 46.48C237.665 46.48 237.5 46.4107 237.382 46.272C237.276 46.1333 237.222 45.9893 237.222 45.84C237.222 45.584 237.292 45.3813 237.43 45.232C237.377 44.944 237.233 44.7307 236.998 44.592C236.774 44.4533 236.497 44.384 236.166 44.384C235.324 44.384 234.71 44.7787 234.326 45.568C233.953 46.3573 233.766 47.2693 233.766 48.304C233.766 49.3707 233.937 50.1547 234.278 50.656C234.63 51.1467 235.11 51.392 235.718 51.392C236.188 51.392 236.641 51.2373 237.078 50.928C237.516 50.608 237.878 50.0907 238.166 49.376L238.726 49.648C238.342 50.5333 237.868 51.1787 237.302 51.584C236.737 51.9787 236.118 52.176 235.446 52.176C234.476 52.176 233.718 51.888 233.174 51.312C232.63 50.7253 232.358 49.8453 232.358 48.672C232.358 47.9253 232.497 47.1787 232.774 46.432C233.062 45.6853 233.494 45.0667 234.07 44.576C234.646 44.0747 235.35 43.824 236.182 43.824ZM249.905 43.824C250.502 43.824 250.929 44.016 251.185 44.4C251.452 44.784 251.585 45.2853 251.585 45.904C251.585 46.352 251.558 46.8053 251.505 47.264C251.452 47.712 251.372 48.2827 251.265 48.976C251.126 49.8293 251.057 50.384 251.057 50.64C251.057 50.8747 251.084 51.056 251.137 51.184C251.201 51.312 251.318 51.376 251.489 51.376C251.692 51.376 251.9 51.2533 252.113 51.008C252.337 50.752 252.524 50.3573 252.673 49.824L253.121 49.936C253.068 50.2347 252.95 50.56 252.769 50.912C252.598 51.2533 252.364 51.552 252.065 51.808C251.766 52.0533 251.42 52.176 251.025 52.176C250.545 52.176 250.209 52.0533 250.017 51.808C249.836 51.552 249.745 51.1627 249.745 50.64C249.745 50.2027 249.83 49.4987 250.001 48.528C250.012 48.432 250.049 48.1707 250.113 47.744C250.177 47.3067 250.225 46.9067 250.257 46.544C250.3 46.1707 250.321 45.84 250.321 45.552C250.321 45.3067 250.262 45.0827 250.145 44.88C250.028 44.6773 249.83 44.576 249.553 44.576C249.073 44.576 248.604 44.928 248.145 45.632C247.697 46.336 247.329 47.2053 247.041 48.24C246.764 49.2747 246.625 50.2453 246.625 51.152C246.625 51.3547 246.636 51.6373 246.657 52H245.313C245.302 51.904 245.297 51.7653 245.297 51.584C245.297 51.232 245.329 50.7627 245.393 50.176C245.457 49.5893 245.526 49.008 245.601 48.432C245.782 47.0453 245.873 46.1013 245.873 45.6C245.873 44.9173 245.617 44.576 245.105 44.576C244.636 44.576 244.172 44.928 243.713 45.632C243.265 46.336 242.897 47.2107 242.609 48.256C242.321 49.2907 242.177 50.256 242.177 51.152C242.177 51.3547 242.188 51.6373 242.209 52H240.865C240.854 51.904 240.849 51.7653 240.849 51.584C240.849 51.3173 240.87 50.9333 240.913 50.432C240.966 49.92 241.046 49.2373 241.153 48.384L241.345 46.72C241.388 46.3467 241.42 46.064 241.441 45.872C241.462 45.6693 241.473 45.4933 241.473 45.344C241.473 45.12 241.441 44.944 241.377 44.816C241.324 44.688 241.212 44.624 241.041 44.624C240.838 44.624 240.63 44.752 240.417 45.008C240.204 45.264 240.022 45.6533 239.873 46.176L239.425 46.08C239.478 45.7813 239.59 45.456 239.761 45.104C239.942 44.752 240.177 44.4533 240.465 44.208C240.764 43.952 241.11 43.824 241.505 43.824C242.305 43.824 242.705 44.3573 242.705 45.424C242.705 45.7227 242.673 46.0533 242.609 46.416C242.556 46.7787 242.502 47.104 242.449 47.392H242.497C242.956 46.0587 243.43 45.1307 243.921 44.608C244.412 44.0853 244.913 43.824 245.425 43.824C246.012 43.824 246.444 44.0107 246.721 44.384C246.998 44.7573 247.137 45.1787 247.137 45.648C247.137 45.9253 247.121 46.16 247.089 46.352C247.057 46.5333 246.982 46.864 246.865 47.344H246.913C247.393 46.0107 247.884 45.0933 248.385 44.592C248.886 44.08 249.393 43.824 249.905 43.824ZM266.86 49.92C266.806 50.2187 266.689 50.544 266.508 50.896C266.337 51.248 266.102 51.552 265.804 51.808C265.516 52.0533 265.174 52.176 264.78 52.176C264.364 52.176 264.054 52.048 263.852 51.792C263.649 51.536 263.548 51.184 263.548 50.736C263.548 50.448 263.606 49.856 263.724 48.96L263.772 48.512L260.684 48.544L260.396 50.992C260.374 51.2053 260.364 51.36 260.364 51.456C260.364 51.6373 260.38 51.8187 260.412 52H259.068C259.057 51.904 259.052 51.7653 259.052 51.584C259.062 51.1893 259.158 50.3733 259.34 49.136L259.436 48.384L259.532 47.696C259.628 46.9813 259.692 46.464 259.724 46.144C259.766 45.8133 259.788 45.5467 259.788 45.344C259.809 44.864 259.67 44.624 259.372 44.624C259.169 44.624 258.956 44.752 258.732 45.008C258.518 45.264 258.332 45.6533 258.172 46.176L257.724 46.08C257.788 45.7813 257.91 45.456 258.092 45.104C258.273 44.752 258.513 44.4533 258.812 44.208C259.11 43.952 259.457 43.824 259.852 43.824C260.63 43.824 261.02 44.3413 261.02 45.376C261.02 45.5467 260.998 45.824 260.956 46.208L260.764 47.904H263.852C264.022 46.56 264.108 45.568 264.108 44.928C264.108 44.736 264.097 44.4267 264.076 44H265.42C265.43 44.096 265.436 44.2347 265.436 44.416C265.436 44.6933 265.398 45.1627 265.324 45.824C265.26 46.4747 265.185 47.136 265.1 47.808C264.908 49.4293 264.812 50.3787 264.812 50.656C264.812 51.1253 264.956 51.36 265.244 51.36C265.446 51.36 265.654 51.2373 265.868 50.992C266.081 50.736 266.262 50.3467 266.412 49.824L266.86 49.92ZM272.295 43.824C273.021 43.824 273.735 43.9147 274.439 44.096C273.97 47.5733 273.735 49.7067 273.735 50.496C273.735 50.7733 273.762 50.992 273.815 51.152C273.869 51.3013 273.991 51.376 274.183 51.376C274.386 51.376 274.594 51.248 274.807 50.992C275.021 50.736 275.202 50.3467 275.351 49.824L275.799 49.92C275.746 50.2187 275.629 50.544 275.447 50.896C275.277 51.248 275.042 51.552 274.743 51.808C274.455 52.0533 274.114 52.176 273.719 52.176C272.93 52.176 272.535 51.696 272.535 50.736C272.535 50.2667 272.631 49.552 272.823 48.592H272.775C272.327 50 271.837 50.9493 271.303 51.44C270.77 51.9307 270.221 52.176 269.655 52.176C269.037 52.176 268.541 51.952 268.167 51.504C267.805 51.056 267.623 50.352 267.623 49.392C267.623 48.368 267.799 47.4347 268.151 46.592C268.503 45.7493 269.031 45.0773 269.735 44.576C270.439 44.0747 271.293 43.824 272.295 43.824ZM271.799 44.4C271.181 44.4 270.658 44.624 270.231 45.072C269.805 45.5093 269.485 46.0907 269.271 46.816C269.069 47.5307 268.967 48.2987 268.967 49.12C268.967 50.688 269.314 51.472 270.007 51.472C270.477 51.472 270.946 51.104 271.415 50.368C271.885 49.632 272.274 48.7253 272.583 47.648C272.893 46.56 273.047 45.5413 273.047 44.592C272.727 44.464 272.311 44.4 271.799 44.4ZM284.901 49.92C284.848 50.2187 284.736 50.544 284.565 50.896C284.394 51.2373 284.16 51.536 283.861 51.792C283.562 52.048 283.216 52.176 282.821 52.176C282.405 52.176 282.096 52.048 281.893 51.792C281.69 51.536 281.589 51.184 281.589 50.736C281.589 50.384 281.68 49.5413 281.861 48.208C281.2 48.7733 280.496 49.056 279.749 49.056C279.162 49.056 278.72 48.8907 278.421 48.56C278.122 48.2187 277.973 47.7493 277.973 47.152C277.973 46.9813 278.005 46.6827 278.069 46.256C278.144 45.7333 278.181 45.36 278.181 45.136C278.181 44.7947 278.064 44.624 277.829 44.624C277.616 44.624 277.392 44.752 277.157 45.008C276.922 45.2533 276.714 45.6427 276.533 46.176L276.085 46.064C276.16 45.7653 276.298 45.4453 276.501 45.104C276.704 44.752 276.97 44.4533 277.301 44.208C277.642 43.952 278.032 43.824 278.469 43.824C278.842 43.824 279.109 43.9307 279.269 44.144C279.44 44.3573 279.525 44.6827 279.525 45.12C279.525 45.376 279.482 45.76 279.397 46.272C279.386 46.336 279.365 46.48 279.333 46.704C279.301 46.928 279.285 47.1413 279.285 47.344C279.285 47.6747 279.349 47.92 279.477 48.08C279.605 48.2293 279.824 48.304 280.133 48.304C280.41 48.304 280.704 48.2507 281.013 48.144C281.333 48.0267 281.637 47.8667 281.925 47.664C282.074 46.5653 282.149 45.6533 282.149 44.928L282.133 44H283.461C283.472 44.096 283.477 44.2347 283.477 44.416C283.477 44.6933 283.44 45.1627 283.365 45.824C283.301 46.4747 283.226 47.136 283.141 47.808C282.949 49.4293 282.853 50.3787 282.853 50.656C282.853 51.1253 282.997 51.36 283.285 51.36C283.488 51.36 283.696 51.2373 283.909 50.992C284.122 50.736 284.309 50.3467 284.469 49.824L284.901 49.92ZM290.373 43.824C291.099 43.824 291.813 43.9147 292.517 44.096C292.048 47.5733 291.813 49.7067 291.813 50.496C291.813 50.7733 291.84 50.992 291.893 51.152C291.947 51.3013 292.069 51.376 292.261 51.376C292.464 51.376 292.672 51.248 292.885 50.992C293.099 50.736 293.28 50.3467 293.429 49.824L293.877 49.92C293.824 50.2187 293.707 50.544 293.525 50.896C293.355 51.248 293.12 51.552 292.821 51.808C292.533 52.0533 292.192 52.176 291.797 52.176C291.008 52.176 290.613 51.696 290.613 50.736C290.613 50.2667 290.709 49.552 290.901 48.592H290.853C290.405 50 289.915 50.9493 289.381 51.44C288.848 51.9307 288.299 52.176 287.733 52.176C287.115 52.176 286.619 51.952 286.245 51.504C285.883 51.056 285.701 50.352 285.701 49.392C285.701 48.368 285.877 47.4347 286.229 46.592C286.581 45.7493 287.109 45.0773 287.813 44.576C288.517 44.0747 289.371 43.824 290.373 43.824ZM289.877 44.4C289.259 44.4 288.736 44.624 288.309 45.072C287.883 45.5093 287.563 46.0907 287.349 46.816C287.147 47.5307 287.045 48.2987 287.045 49.12C287.045 50.688 287.392 51.472 288.085 51.472C288.555 51.472 289.024 51.104 289.493 50.368C289.963 49.632 290.352 48.7253 290.661 47.648C290.971 46.56 291.125 45.5413 291.125 44.592C290.805 44.464 290.389 44.4 289.877 44.4ZM303.011 49.92C302.958 50.2187 302.846 50.544 302.675 50.896C302.504 51.2373 302.27 51.536 301.971 51.792C301.672 52.048 301.326 52.176 300.931 52.176C300.515 52.176 300.206 52.048 300.003 51.792C299.8 51.536 299.699 51.184 299.699 50.736C299.699 50.3413 299.774 49.6213 299.923 48.576C300.147 46.9227 300.259 45.7067 300.259 44.928V44.608L299.171 44.624H299.587C299.32 44.624 299.15 44.7947 299.075 45.136C298.648 47.28 298.099 48.9867 297.427 50.256C296.755 51.5253 295.896 52.16 294.851 52.16C294.552 52.16 294.302 52.0747 294.099 51.904C293.907 51.7333 293.811 51.5307 293.811 51.296C293.811 51.0933 293.88 50.9173 294.019 50.768C294.158 50.608 294.334 50.528 294.547 50.528C294.728 50.528 294.888 50.5867 295.027 50.704C295.166 50.8213 295.235 50.9707 295.235 51.152C295.235 51.2267 295.224 51.3067 295.203 51.392C295.651 51.4453 296.083 51.1413 296.499 50.48C296.926 49.808 297.294 48.944 297.603 47.888C297.923 46.8213 298.163 45.7333 298.323 44.624L296.851 44.64L296.899 44H301.571C301.582 44.096 301.587 44.2347 301.587 44.416C301.587 44.6933 301.55 45.1627 301.475 45.824C301.411 46.4747 301.336 47.136 301.251 47.808C301.059 49.4293 300.963 50.3787 300.963 50.656C300.963 51.1253 301.107 51.36 301.395 51.36C301.598 51.36 301.806 51.2373 302.019 50.992C302.232 50.736 302.414 50.3467 302.563 49.824L303.011 49.92ZM299.027 45.28V45.328V45.28ZM308.452 43.824C309.177 43.824 309.892 43.9147 310.596 44.096C310.126 47.5733 309.892 49.7067 309.892 50.496C309.892 50.7733 309.918 50.992 309.972 51.152C310.025 51.3013 310.148 51.376 310.34 51.376C310.542 51.376 310.75 51.248 310.964 50.992C311.177 50.736 311.358 50.3467 311.508 49.824L311.956 49.92C311.902 50.2187 311.785 50.544 311.604 50.896C311.433 51.248 311.198 51.552 310.9 51.808C310.612 52.0533 310.27 52.176 309.876 52.176C309.086 52.176 308.692 51.696 308.692 50.736C308.692 50.2667 308.788 49.552 308.98 48.592H308.932C308.484 50 307.993 50.9493 307.46 51.44C306.926 51.9307 306.377 52.176 305.812 52.176C305.193 52.176 304.697 51.952 304.324 51.504C303.961 51.056 303.78 50.352 303.78 49.392C303.78 48.368 303.956 47.4347 304.308 46.592C304.66 45.7493 305.188 45.0773 305.892 44.576C306.596 44.0747 307.449 43.824 308.452 43.824ZM307.956 44.4C307.337 44.4 306.814 44.624 306.388 45.072C305.961 45.5093 305.641 46.0907 305.428 46.816C305.225 47.5307 305.124 48.2987 305.124 49.12C305.124 50.688 305.47 51.472 306.164 51.472C306.633 51.472 307.102 51.104 307.572 50.368C308.041 49.632 308.43 48.7253 308.74 47.648C309.049 46.56 309.204 45.5413 309.204 44.592C308.884 44.464 308.468 44.4 307.956 44.4ZM322.492 43.824C323.09 43.824 323.527 44.016 323.804 44.4C324.092 44.784 324.236 45.2853 324.236 45.904C324.236 46.6187 324.135 47.6427 323.932 48.976C323.815 49.8187 323.756 50.3733 323.756 50.64C323.756 50.8747 323.783 51.056 323.836 51.184C323.9 51.312 324.018 51.376 324.188 51.376C324.391 51.376 324.599 51.2533 324.812 51.008C325.026 50.752 325.207 50.3573 325.356 49.824L325.804 49.936C325.751 50.2347 325.634 50.56 325.452 50.912C325.282 51.2533 325.047 51.552 324.748 51.808C324.46 52.0533 324.119 52.176 323.724 52.176C323.244 52.176 322.908 52.0533 322.716 51.808C322.524 51.552 322.428 51.1627 322.428 50.64C322.428 50.2453 322.498 49.5413 322.636 48.528C322.828 47.2267 322.924 46.2347 322.924 45.552C322.924 45.3067 322.866 45.0827 322.748 44.88C322.642 44.6773 322.45 44.576 322.172 44.576C321.703 44.576 321.223 44.9333 320.732 45.648C320.242 46.352 319.831 47.2267 319.5 48.272C319.18 49.3067 319.02 50.2667 319.02 51.152C319.02 51.3547 319.031 51.6373 319.052 52H317.708C317.698 51.904 317.692 51.7653 317.692 51.584C317.692 51.328 317.714 50.9707 317.756 50.512C317.81 50.0533 317.884 49.4507 317.98 48.704C317.98 48.64 317.991 48.5333 318.012 48.384C318.023 48.2453 318.039 48.1013 318.06 47.952C318.082 47.8027 318.098 47.6533 318.108 47.504C318.183 46.8533 318.236 46.3787 318.268 46.08C318.3 45.7813 318.316 45.536 318.316 45.344C318.316 45.12 318.284 44.944 318.22 44.816C318.167 44.688 318.055 44.624 317.884 44.624C317.682 44.624 317.474 44.752 317.26 45.008C317.047 45.264 316.866 45.6533 316.716 46.176L316.268 46.08C316.322 45.7813 316.434 45.456 316.604 45.104C316.786 44.752 317.02 44.4533 317.308 44.208C317.607 43.952 317.954 43.824 318.348 43.824C319.148 43.824 319.548 44.3733 319.548 45.472C319.548 45.7813 319.516 46.1227 319.452 46.496C319.399 46.8587 319.346 47.184 319.292 47.472H319.34C319.852 46.1067 320.359 45.1573 320.86 44.624C321.372 44.0907 321.916 43.824 322.492 43.824ZM332.256 43.824C332.96 43.824 333.493 44.1173 333.856 44.704C334.229 45.2907 334.416 46.032 334.416 46.928C334.416 47.9733 334.235 48.8907 333.872 49.68C333.509 50.4693 332.971 51.0827 332.256 51.52C331.552 51.9573 330.699 52.176 329.696 52.176C329.44 52.176 329.189 52.16 328.944 52.128L328.816 54.144C328.805 54.2187 328.8 54.336 328.8 54.496C328.779 54.912 328.741 55.2373 328.688 55.472L329.696 55.424V56.08H326.672V55.6C326.928 55.6 327.12 55.52 327.248 55.36C327.376 55.2 327.461 54.992 327.504 54.736C327.557 54.4907 327.6 54.1387 327.632 53.68C327.632 53.5413 327.637 53.4347 327.648 53.36C327.744 52.2293 327.888 50.6133 328.08 48.512C328.251 46.752 328.336 45.7387 328.336 45.472C328.336 45.1947 328.309 44.9867 328.256 44.848C328.203 44.6987 328.085 44.624 327.904 44.624C327.701 44.624 327.493 44.752 327.28 45.008C327.077 45.264 326.901 45.6533 326.752 46.176L326.288 46.08C326.341 45.7813 326.453 45.456 326.624 45.104C326.805 44.752 327.04 44.4533 327.328 44.208C327.627 43.952 327.973 43.824 328.368 43.824C329.179 43.824 329.584 44.384 329.584 45.504C329.584 45.9733 329.509 46.5813 329.36 47.328H329.408C329.813 45.984 330.251 45.0667 330.72 44.576C331.189 44.0747 331.701 43.824 332.256 43.824ZM331.92 44.576C331.547 44.576 331.173 44.8373 330.8 45.36C330.427 45.872 330.096 46.544 329.808 47.376C329.52 48.1973 329.307 49.0453 329.168 49.92C329.104 50.2933 329.045 50.8 328.992 51.44C329.376 51.568 329.701 51.632 329.968 51.632C330.672 51.632 331.253 51.4133 331.712 50.976C332.181 50.528 332.517 49.968 332.72 49.296C332.933 48.6133 333.04 47.92 333.04 47.216C333.04 46.3947 332.955 45.7493 332.784 45.28C332.613 44.8107 332.325 44.576 331.92 44.576ZM339.717 43.824C340.293 43.824 340.81 43.9627 341.269 44.24C341.738 44.5173 342.101 44.9227 342.357 45.456C342.623 45.9787 342.757 46.6027 342.757 47.328C342.757 48.2027 342.597 49.008 342.277 49.744C341.967 50.48 341.514 51.072 340.917 51.52C340.33 51.9573 339.637 52.176 338.837 52.176C337.823 52.176 337.055 51.8453 336.533 51.184C336.021 50.512 335.765 49.648 335.765 48.592C335.765 47.7173 335.925 46.9173 336.245 46.192C336.565 45.4667 337.023 44.8907 337.621 44.464C338.218 44.0373 338.917 43.824 339.717 43.824ZM339.461 44.416C338.991 44.416 338.581 44.5867 338.229 44.928C337.887 45.2587 337.626 45.7173 337.445 46.304C337.263 46.88 337.173 47.5253 337.173 48.24C337.173 49.1253 337.317 49.904 337.605 50.576C337.893 51.2373 338.362 51.568 339.013 51.568C339.557 51.568 339.999 51.36 340.341 50.944C340.693 50.528 340.949 50.016 341.109 49.408C341.269 48.8 341.349 48.208 341.349 47.632C341.349 46.736 341.205 45.9787 340.917 45.36C340.639 44.7307 340.154 44.416 339.461 44.416ZM352.332 52.208C352.503 52.4853 352.588 52.784 352.588 53.104C352.588 53.8507 352.13 54.6133 351.212 55.392L350.844 55.024C351.292 54.4693 351.516 54.016 351.516 53.664C351.516 53.5573 351.484 53.4187 351.42 53.248C351.356 53.1093 351.324 52.9653 351.324 52.816C351.324 52.56 351.415 52.2827 351.596 51.984L351.452 51.904C351.26 52.0853 350.972 52.176 350.588 52.176C350.279 52.176 350.034 52.048 349.852 51.792C349.682 51.5253 349.596 51.1733 349.596 50.736C349.596 50.2667 349.692 49.552 349.884 48.592H349.836C349.324 49.968 348.834 50.912 348.364 51.424C347.895 51.9253 347.378 52.176 346.812 52.176C346.215 52.176 345.772 51.984 345.484 51.6C345.207 51.2053 345.068 50.704 345.068 50.096C345.068 49.6373 345.095 49.1733 345.148 48.704C345.202 48.2347 345.282 47.6693 345.388 47.008C345.41 46.8907 345.447 46.6453 345.5 46.272C345.554 45.888 345.58 45.5893 345.58 45.376C345.58 45.1307 345.548 44.944 345.484 44.816C345.431 44.688 345.319 44.624 345.148 44.624C344.956 44.624 344.759 44.752 344.556 45.008C344.354 45.2533 344.178 45.6427 344.028 46.176L343.58 46.08C343.676 45.5573 343.895 45.0507 344.236 44.56C344.588 44.0693 345.047 43.824 345.612 43.824C346.039 43.824 346.359 43.9573 346.572 44.224C346.796 44.4907 346.908 44.8747 346.908 45.376C346.908 45.76 346.823 46.56 346.652 47.776C346.642 47.872 346.594 48.2347 346.508 48.864C346.423 49.4827 346.38 50 346.38 50.416C346.38 50.672 346.434 50.9067 346.54 51.12C346.658 51.3227 346.855 51.424 347.132 51.424C347.602 51.424 348.071 51.072 348.54 50.368C349.01 49.6533 349.394 48.7787 349.692 47.744C350.002 46.7093 350.156 45.744 350.156 44.848C350.156 44.6453 350.146 44.3627 350.124 44H351.468C351.479 44.096 351.484 44.2347 351.484 44.416C351.484 44.672 351.458 45.0667 351.404 45.6C351.351 46.1333 351.271 46.8267 351.164 47.68L351.004 49.008C350.994 49.1467 350.967 49.4027 350.924 49.776C350.882 50.1493 350.86 50.4427 350.86 50.656C350.86 50.8693 350.887 51.04 350.94 51.168C351.004 51.296 351.095 51.36 351.212 51.36C351.298 51.36 351.372 51.328 351.436 51.264C351.511 51.1893 351.591 51.072 351.676 50.912L352.156 49.824L352.588 49.952L352.444 50.384L352.38 50.56L352.252 50.928C352.178 51.152 352.14 51.3547 352.14 51.536C352.14 51.7813 352.204 52.0053 352.332 52.208ZM357.84 43.824C358.48 43.824 359.013 43.9733 359.44 44.272C359.867 44.5707 360.08 45.0347 360.08 45.664C360.08 46.4533 359.605 47.0667 358.656 47.504C357.707 47.9413 356.608 48.2293 355.36 48.368C355.36 49.3707 355.509 50.1227 355.808 50.624C356.107 51.1253 356.565 51.376 357.184 51.376C357.675 51.376 358.149 51.216 358.608 50.896C359.067 50.5653 359.467 50.08 359.808 49.44L360.336 49.744C359.888 50.5867 359.387 51.2053 358.832 51.6C358.277 51.984 357.637 52.176 356.912 52.176C355.931 52.176 355.189 51.872 354.688 51.264C354.197 50.6453 353.952 49.7973 353.952 48.72C353.952 47.856 354.096 47.056 354.384 46.32C354.683 45.5733 355.125 44.9707 355.712 44.512C356.299 44.0533 357.008 43.824 357.84 43.824ZM357.616 44.368C356.933 44.368 356.405 44.6987 356.032 45.36C355.659 46.0213 355.44 46.832 355.376 47.792C356.304 47.664 357.099 47.408 357.76 47.024C358.421 46.64 358.752 46.16 358.752 45.584C358.752 45.232 358.651 44.944 358.448 44.72C358.256 44.4853 357.979 44.368 357.616 44.368ZM364.377 52.176C363.545 52.176 362.868 51.8827 362.345 51.296C361.833 50.7093 361.577 49.872 361.577 48.784C361.577 47.888 361.742 47.088 362.073 46.384C362.404 45.6693 362.852 45.1147 363.417 44.72C363.993 44.3253 364.628 44.128 365.321 44.128C366.036 44.128 366.548 44.336 366.857 44.752C366.729 43.376 366.441 42.32 365.993 41.584C365.556 40.8373 365.022 40.464 364.393 40.464C363.764 40.464 363.193 40.7147 362.681 41.216L362.377 40.848C362.772 40.5067 363.134 40.2613 363.465 40.112C363.806 39.952 364.169 39.872 364.553 39.872C365.78 39.872 366.692 40.464 367.289 41.648C367.886 42.8213 368.185 44.32 368.185 46.144C368.185 47.5733 368.004 48.7413 367.641 49.648C367.289 50.544 366.825 51.1893 366.249 51.584C365.684 51.9787 365.06 52.176 364.377 52.176ZM364.681 51.568C365.374 51.568 365.892 51.1307 366.233 50.256C366.585 49.3813 366.793 48.3413 366.857 47.136C366.9 46.432 366.777 45.856 366.489 45.408C366.201 44.9493 365.817 44.72 365.337 44.72C364.953 44.72 364.574 44.88 364.201 45.2C363.828 45.5093 363.518 45.9627 363.273 46.56C363.038 47.1467 362.921 47.8293 362.921 48.608C362.921 49.472 363.076 50.1813 363.385 50.736C363.705 51.2907 364.137 51.568 364.681 51.568ZM375.067 43.824C375.515 43.824 375.84 44.0213 376.043 44.416C376.245 44.8107 376.347 45.296 376.347 45.872C376.347 46.8427 376.155 47.8613 375.771 48.928C375.387 49.984 374.869 51.0987 374.219 52.272C373.451 53.68 372.72 54.7093 372.027 55.36C371.333 56.0107 370.656 56.336 369.995 56.336C369.611 56.336 369.296 56.24 369.051 56.048C368.816 55.856 368.699 55.616 368.699 55.328C368.699 55.104 368.768 54.9227 368.907 54.784C369.045 54.656 369.195 54.592 369.355 54.592C369.579 54.592 369.749 54.6613 369.867 54.8C369.995 54.9493 370.053 55.1573 370.043 55.424C370.192 55.4987 370.309 55.536 370.395 55.536C370.8 55.5573 371.232 55.3013 371.691 54.768C372.16 54.2347 372.544 53.712 372.843 53.2C372.651 51.888 372.384 50.5653 372.043 49.232C371.701 47.8987 371.317 46.7147 370.891 45.68C370.763 45.4027 370.651 45.2 370.555 45.072C370.459 44.9333 370.325 44.864 370.155 44.864C369.973 44.864 369.824 44.976 369.707 45.2C369.6 45.424 369.547 45.728 369.547 46.112C369.547 46.2933 369.552 46.432 369.563 46.528L369.051 46.592C369.04 46.4853 369.035 46.3253 369.035 46.112C369.035 45.4827 369.147 44.944 369.371 44.496C369.605 44.048 369.984 43.824 370.507 43.824C370.987 43.824 371.36 43.9947 371.627 44.336C371.893 44.6667 372.123 45.0987 372.315 45.632C372.528 46.208 372.72 46.832 372.891 47.504C373.061 48.1653 373.264 49.0187 373.499 50.064C373.563 50.3733 373.643 50.9173 373.739 51.696H373.771C374.283 50.8 374.715 49.8613 375.067 48.88C375.419 47.888 375.595 46.992 375.595 46.192C375.595 45.936 375.568 45.7067 375.515 45.504C375.472 45.3013 375.419 45.152 375.355 45.056C375.259 45.12 375.125 45.152 374.955 45.152C374.763 45.152 374.608 45.0933 374.491 44.976C374.373 44.848 374.315 44.6987 374.315 44.528C374.315 44.304 374.389 44.1333 374.539 44.016C374.688 43.888 374.864 43.824 375.067 43.824ZM383.365 43.824C384.069 43.824 384.603 44.1173 384.965 44.704C385.339 45.2907 385.525 46.032 385.525 46.928C385.525 47.9733 385.344 48.8907 384.981 49.68C384.619 50.4693 384.08 51.0827 383.365 51.52C382.661 51.9573 381.808 52.176 380.805 52.176C380.549 52.176 380.299 52.16 380.053 52.128L379.925 54.144C379.915 54.2187 379.909 54.336 379.909 54.496C379.888 54.912 379.851 55.2373 379.797 55.472L380.805 55.424V56.08H377.781V55.6C378.037 55.6 378.229 55.52 378.357 55.36C378.485 55.2 378.571 54.992 378.613 54.736C378.667 54.4907 378.709 54.1387 378.741 53.68C378.741 53.5413 378.747 53.4347 378.757 53.36C378.853 52.2293 378.997 50.6133 379.189 48.512C379.36 46.752 379.445 45.7387 379.445 45.472C379.445 45.1947 379.419 44.9867 379.365 44.848C379.312 44.6987 379.195 44.624 379.013 44.624C378.811 44.624 378.603 44.752 378.389 45.008C378.187 45.264 378.011 45.6533 377.861 46.176L377.397 46.08C377.451 45.7813 377.563 45.456 377.733 45.104C377.915 44.752 378.149 44.4533 378.437 44.208C378.736 43.952 379.083 43.824 379.477 43.824C380.288 43.824 380.693 44.384 380.693 45.504C380.693 45.9733 380.619 46.5813 380.469 47.328H380.517C380.923 45.984 381.36 45.0667 381.829 44.576C382.299 44.0747 382.811 43.824 383.365 43.824ZM383.029 44.576C382.656 44.576 382.283 44.8373 381.909 45.36C381.536 45.872 381.205 46.544 380.917 47.376C380.629 48.1973 380.416 49.0453 380.277 49.92C380.213 50.2933 380.155 50.8 380.101 51.44C380.485 51.568 380.811 51.632 381.077 51.632C381.781 51.632 382.363 51.4133 382.821 50.976C383.291 50.528 383.627 49.968 383.829 49.296C384.043 48.6133 384.149 47.92 384.149 47.216C384.149 46.3947 384.064 45.7493 383.893 45.28C383.723 44.8107 383.435 44.576 383.029 44.576ZM194.904 73.16C193.933 73.16 193.139 72.8027 192.52 72.088C191.912 71.3627 191.608 70.3013 191.608 68.904C191.608 68.7653 191.619 68.536 191.64 68.216C191.736 66.712 192.051 65.4213 192.584 64.344C193.117 63.256 193.885 62.5253 194.888 62.152C195.123 62.056 195.363 61.9867 195.608 61.944C195.853 61.9013 196.173 61.8587 196.568 61.816C196.941 61.784 197.251 61.736 197.496 61.672C197.901 61.576 198.2 61.48 198.392 61.384C198.595 61.288 198.76 61.112 198.888 60.856L199.352 61.016C199.032 62.0187 198.392 62.68 197.432 63C197.24 63.0747 197.016 63.1333 196.76 63.176C196.515 63.2187 196.275 63.256 196.04 63.288C195.571 63.352 195.235 63.4107 195.032 63.464C194.157 63.72 193.507 64.1627 193.08 64.792C192.664 65.4213 192.376 66.28 192.216 67.368H192.328C192.968 65.992 194.04 65.304 195.544 65.304C196.067 65.304 196.557 65.4373 197.016 65.704C197.485 65.9707 197.859 66.3653 198.136 66.888C198.424 67.4 198.568 68.0133 198.568 68.728C198.568 69.5813 198.397 70.344 198.056 71.016C197.715 71.688 197.261 72.216 196.696 72.6C196.141 72.9733 195.544 73.16 194.904 73.16ZM194.84 72.552C195.597 72.552 196.173 72.2 196.568 71.496C196.973 70.7813 197.176 69.8587 197.176 68.728C197.176 67.928 197.016 67.256 196.696 66.712C196.376 66.1573 195.912 65.88 195.304 65.88C194.557 65.88 193.987 66.2267 193.592 66.92C193.197 67.6027 193 68.424 193 69.384C193 70.344 193.165 71.112 193.496 71.688C193.827 72.264 194.275 72.552 194.84 72.552ZM201.472 64.824C201.898 64.824 202.218 64.9573 202.432 65.224C202.656 65.4907 202.768 65.8747 202.768 66.376C202.768 66.76 202.682 67.56 202.512 68.776C202.501 68.872 202.453 69.2347 202.368 69.864C202.282 70.4827 202.24 71 202.24 71.416C202.24 71.672 202.293 71.9067 202.4 72.12C202.517 72.3227 202.714 72.424 202.992 72.424C203.461 72.424 203.93 72.072 204.4 71.368C204.869 70.6533 205.253 69.7787 205.552 68.744C205.861 67.7093 206.016 66.744 206.016 65.848C206.016 65.6453 206.005 65.3627 205.984 65H207.328C207.338 65.096 207.344 65.2347 207.344 65.416C207.344 65.672 207.317 66.0667 207.264 66.6C207.21 67.1333 207.13 67.8267 207.024 68.68L206.864 70.008C206.853 70.1467 206.826 70.4027 206.784 70.776C206.741 71.1493 206.72 71.4427 206.72 71.656C206.72 72.1253 206.864 72.36 207.152 72.36C207.354 72.36 207.562 72.2373 207.776 71.992C207.989 71.736 208.17 71.3467 208.32 70.824L208.768 70.92C208.714 71.2187 208.597 71.544 208.416 71.896C208.245 72.248 208.01 72.552 207.712 72.808C207.424 73.0533 207.082 73.176 206.688 73.176C206.272 73.176 205.962 73.048 205.76 72.792C205.557 72.536 205.456 72.184 205.456 71.736C205.456 71.2667 205.552 70.552 205.744 69.592H205.696C205.184 70.968 204.693 71.912 204.224 72.424C203.754 72.9253 203.237 73.176 202.672 73.176C202.074 73.176 201.632 72.984 201.344 72.6C201.066 72.2053 200.928 71.704 200.928 71.096C200.928 70.6373 200.954 70.1733 201.008 69.704C201.061 69.2347 201.141 68.6693 201.248 68.008C201.269 67.8907 201.306 67.6453 201.36 67.272C201.413 66.888 201.44 66.5893 201.44 66.376C201.44 66.1307 201.408 65.944 201.344 65.816C201.29 65.688 201.178 65.624 201.008 65.624C200.816 65.624 200.618 65.752 200.416 66.008C200.213 66.2533 200.037 66.6427 199.888 67.176L199.44 67.08C199.536 66.5573 199.754 66.0507 200.096 65.56C200.448 65.0693 200.906 64.824 201.472 64.824ZM213.404 64.824C213.98 64.824 214.497 64.9627 214.956 65.24C215.425 65.5173 215.788 65.9227 216.044 66.456C216.311 66.9787 216.444 67.6027 216.444 68.328C216.444 69.2027 216.284 70.008 215.964 70.744C215.655 71.48 215.201 72.072 214.604 72.52C214.017 72.9573 213.324 73.176 212.524 73.176C211.511 73.176 210.743 72.8453 210.22 72.184C209.708 71.512 209.452 70.648 209.452 69.592C209.452 68.7173 209.612 67.9173 209.932 67.192C210.252 66.4667 210.711 65.8907 211.308 65.464C211.905 65.0373 212.604 64.824 213.404 64.824ZM213.148 65.416C212.679 65.416 212.268 65.5867 211.916 65.928C211.575 66.2587 211.313 66.7173 211.132 67.304C210.951 67.88 210.86 68.5253 210.86 69.24C210.86 70.1253 211.004 70.904 211.292 71.576C211.58 72.2373 212.049 72.568 212.7 72.568C213.244 72.568 213.687 72.36 214.028 71.944C214.38 71.528 214.636 71.016 214.796 70.408C214.956 69.8 215.036 69.208 215.036 68.632C215.036 67.736 214.892 66.9787 214.604 66.36C214.327 65.7307 213.841 65.416 213.148 65.416ZM223.428 64.824C224.132 64.824 224.665 65.1173 225.028 65.704C225.401 66.2907 225.588 67.032 225.588 67.928C225.588 68.9733 225.407 69.8907 225.044 70.68C224.681 71.4693 224.143 72.0827 223.428 72.52C222.724 72.9573 221.871 73.176 220.868 73.176C220.612 73.176 220.361 73.16 220.116 73.128L219.988 75.144C219.977 75.2187 219.972 75.336 219.972 75.496C219.951 75.912 219.913 76.2373 219.86 76.472L220.868 76.424V77.08H217.844V76.6C218.1 76.6 218.292 76.52 218.42 76.36C218.548 76.2 218.633 75.992 218.676 75.736C218.729 75.4907 218.772 75.1387 218.804 74.68C218.804 74.5413 218.809 74.4347 218.82 74.36C218.916 73.2293 219.06 71.6133 219.252 69.512C219.423 67.752 219.508 66.7387 219.508 66.472C219.508 66.1947 219.481 65.9867 219.428 65.848C219.375 65.6987 219.257 65.624 219.076 65.624C218.873 65.624 218.665 65.752 218.452 66.008C218.249 66.264 218.073 66.6533 217.924 67.176L217.46 67.08C217.513 66.7813 217.625 66.456 217.796 66.104C217.977 65.752 218.212 65.4533 218.5 65.208C218.799 64.952 219.145 64.824 219.54 64.824C220.351 64.824 220.756 65.384 220.756 66.504C220.756 66.9733 220.681 67.5813 220.532 68.328H220.58C220.985 66.984 221.423 66.0667 221.892 65.576C222.361 65.0747 222.873 64.824 223.428 64.824ZM223.092 65.576C222.719 65.576 222.345 65.8373 221.972 66.36C221.599 66.872 221.268 67.544 220.98 68.376C220.692 69.1973 220.479 70.0453 220.34 70.92C220.276 71.2933 220.217 71.8 220.164 72.44C220.548 72.568 220.873 72.632 221.14 72.632C221.844 72.632 222.425 72.4133 222.884 71.976C223.353 71.528 223.689 70.968 223.892 70.296C224.105 69.6133 224.212 68.92 224.212 68.216C224.212 67.3947 224.127 66.7493 223.956 66.28C223.785 65.8107 223.497 65.576 223.092 65.576ZM230.825 64.824C231.465 64.824 231.998 64.9733 232.425 65.272C232.851 65.5707 233.065 66.0347 233.065 66.664C233.065 67.4533 232.59 68.0667 231.641 68.504C230.691 68.9413 229.593 69.2293 228.345 69.368C228.345 70.3707 228.494 71.1227 228.793 71.624C229.091 72.1253 229.55 72.376 230.169 72.376C230.659 72.376 231.134 72.216 231.593 71.896C232.051 71.5653 232.451 71.08 232.793 70.44L233.321 70.744C232.873 71.5867 232.371 72.2053 231.817 72.6C231.262 72.984 230.622 73.176 229.897 73.176C228.915 73.176 228.174 72.872 227.673 72.264C227.182 71.6453 226.937 70.7973 226.937 69.72C226.937 68.856 227.081 68.056 227.368 67.32C227.667 66.5733 228.11 65.9707 228.697 65.512C229.283 65.0533 229.993 64.824 230.825 64.824ZM230.601 65.368C229.918 65.368 229.39 65.6987 229.017 66.36C228.643 67.0213 228.425 67.832 228.361 68.792C229.289 68.664 230.083 68.408 230.745 68.024C231.406 67.64 231.737 67.16 231.737 66.584C231.737 66.232 231.635 65.944 231.433 65.72C231.241 65.4853 230.963 65.368 230.601 65.368ZM238.722 68.552C239.426 68.5093 239.938 68.664 240.258 69.016C240.588 69.368 240.754 69.8107 240.754 70.344C240.754 70.8667 240.61 71.3467 240.322 71.784C240.044 72.2107 239.655 72.552 239.154 72.808C238.652 73.0533 238.092 73.176 237.474 73.176C236.514 73.176 235.788 72.872 235.298 72.264C234.807 71.6453 234.562 70.7973 234.562 69.72C234.562 68.8667 234.706 68.0667 234.993 67.32C235.282 66.5733 235.703 65.9707 236.258 65.512C236.823 65.0533 237.495 64.824 238.274 64.824C238.86 64.824 239.356 64.9573 239.762 65.224C240.167 65.48 240.37 65.8693 240.37 66.392C240.37 66.7973 240.231 67.192 239.954 67.576C239.687 67.9493 239.276 68.2747 238.722 68.552ZM238.114 65.368C237.516 65.368 237.026 65.7147 236.642 66.408C236.258 67.1013 236.034 67.9653 235.97 69C237.079 68.744 237.858 68.424 238.306 68.04C238.754 67.6453 238.978 67.1333 238.978 66.504C238.978 65.7467 238.69 65.368 238.114 65.368ZM237.842 72.568C238.322 72.568 238.7 72.4027 238.978 72.072C239.255 71.7413 239.394 71.2987 239.394 70.744C239.394 70.264 239.276 69.8747 239.042 69.576C238.818 69.2773 238.487 69.128 238.049 69.128C237.858 69.128 237.65 69.16 237.426 69.224L235.954 69.608C235.986 70.536 236.151 71.2613 236.45 71.784C236.759 72.3067 237.223 72.568 237.842 72.568ZM243.534 64.824C243.961 64.824 244.281 64.9573 244.494 65.224C244.718 65.4907 244.83 65.8747 244.83 66.376C244.83 66.76 244.745 67.56 244.574 68.776C244.564 68.872 244.516 69.2347 244.43 69.864C244.345 70.4827 244.302 71 244.302 71.416C244.302 71.672 244.356 71.9067 244.462 72.12C244.58 72.3227 244.777 72.424 245.054 72.424C245.524 72.424 245.993 72.072 246.462 71.368C246.932 70.6533 247.316 69.7787 247.614 68.744C247.924 67.7093 248.078 66.744 248.078 65.848C248.078 65.6453 248.068 65.3627 248.046 65H249.39C249.401 65.096 249.406 65.2347 249.406 65.416C249.406 65.672 249.38 66.0667 249.326 66.6C249.273 67.1333 249.193 67.8267 249.086 68.68L248.926 70.008C248.916 70.1467 248.889 70.4027 248.846 70.776C248.804 71.1493 248.782 71.4427 248.782 71.656C248.782 72.1253 248.926 72.36 249.214 72.36C249.417 72.36 249.625 72.2373 249.838 71.992C250.052 71.736 250.233 71.3467 250.382 70.824L250.83 70.92C250.777 71.2187 250.66 71.544 250.478 71.896C250.308 72.248 250.073 72.552 249.774 72.808C249.486 73.0533 249.145 73.176 248.75 73.176C248.334 73.176 248.025 73.048 247.822 72.792C247.62 72.536 247.518 72.184 247.518 71.736C247.518 71.2667 247.614 70.552 247.806 69.592H247.758C247.246 70.968 246.756 71.912 246.286 72.424C245.817 72.9253 245.3 73.176 244.734 73.176C244.137 73.176 243.694 72.984 243.406 72.6C243.129 72.2053 242.99 71.704 242.99 71.096C242.99 70.6373 243.017 70.1733 243.07 69.704C243.124 69.2347 243.204 68.6693 243.31 68.008C243.332 67.8907 243.369 67.6453 243.422 67.272C243.476 66.888 243.502 66.5893 243.502 66.376C243.502 66.1307 243.47 65.944 243.406 65.816C243.353 65.688 243.241 65.624 243.07 65.624C242.878 65.624 242.681 65.752 242.478 66.008C242.276 66.2533 242.1 66.6427 241.95 67.176L241.502 67.08C241.598 66.5573 241.817 66.0507 242.158 65.56C242.51 65.0693 242.969 64.824 243.534 64.824ZM261.499 64.824C262.096 64.824 262.523 65.016 262.779 65.4C263.045 65.784 263.179 66.2853 263.179 66.904C263.179 67.352 263.152 67.8053 263.099 68.264C263.045 68.712 262.965 69.2827 262.859 69.976C262.72 70.8293 262.651 71.384 262.651 71.64C262.651 71.8747 262.677 72.056 262.731 72.184C262.795 72.312 262.912 72.376 263.083 72.376C263.285 72.376 263.493 72.2533 263.707 72.008C263.931 71.752 264.117 71.3573 264.267 70.824L264.715 70.936C264.661 71.2347 264.544 71.56 264.363 71.912C264.192 72.2533 263.957 72.552 263.659 72.808C263.36 73.0533 263.013 73.176 262.619 73.176C262.139 73.176 261.803 73.0533 261.611 72.808C261.429 72.552 261.339 72.1627 261.339 71.64C261.339 71.2027 261.424 70.4987 261.595 69.528C261.605 69.432 261.643 69.1707 261.707 68.744C261.771 68.3067 261.819 67.9067 261.851 67.544C261.893 67.1707 261.915 66.84 261.915 66.552C261.915 66.3067 261.856 66.0827 261.739 65.88C261.621 65.6773 261.424 65.576 261.147 65.576C260.667 65.576 260.197 65.928 259.739 66.632C259.291 67.336 258.923 68.2053 258.635 69.24C258.357 70.2747 258.219 71.2453 258.219 72.152C258.219 72.3547 258.229 72.6373 258.251 73H256.907C256.896 72.904 256.891 72.7653 256.891 72.584C256.891 72.232 256.923 71.7627 256.987 71.176C257.051 70.5893 257.12 70.008 257.195 69.432C257.376 68.0453 257.467 67.1013 257.467 66.6C257.467 65.9173 257.211 65.576 256.699 65.576C256.229 65.576 255.765 65.928 255.307 66.632C254.859 67.336 254.491 68.2107 254.203 69.256C253.915 70.2907 253.771 71.256 253.771 72.152C253.771 72.3547 253.781 72.6373 253.803 73H252.459C252.448 72.904 252.443 72.7653 252.443 72.584C252.443 72.3173 252.464 71.9333 252.507 71.432C252.56 70.92 252.64 70.2373 252.747 69.384L252.939 67.72C252.981 67.3467 253.013 67.064 253.035 66.872C253.056 66.6693 253.067 66.4933 253.067 66.344C253.067 66.12 253.035 65.944 252.971 65.816C252.917 65.688 252.805 65.624 252.635 65.624C252.432 65.624 252.224 65.752 252.011 66.008C251.797 66.264 251.616 66.6533 251.467 67.176L251.019 67.08C251.072 66.7813 251.184 66.456 251.355 66.104C251.536 65.752 251.771 65.4533 252.059 65.208C252.357 64.952 252.704 64.824 253.099 64.824C253.899 64.824 254.299 65.3573 254.299 66.424C254.299 66.7227 254.267 67.0533 254.203 67.416C254.149 67.7787 254.096 68.104 254.043 68.392H254.091C254.549 67.0587 255.024 66.1307 255.515 65.608C256.005 65.0853 256.507 64.824 257.019 64.824C257.605 64.824 258.037 65.0107 258.315 65.384C258.592 65.7573 258.731 66.1787 258.731 66.648C258.731 66.9253 258.715 67.16 258.683 67.352C258.651 67.5333 258.576 67.864 258.459 68.344H258.507C258.987 67.0107 259.477 66.0933 259.979 65.592C260.48 65.08 260.987 64.824 261.499 64.824ZM270.17 64.824C270.896 64.824 271.61 64.9147 272.314 65.096C271.845 68.5733 271.61 70.7067 271.61 71.496C271.61 71.7733 271.637 71.992 271.69 72.152C271.744 72.3013 271.866 72.376 272.058 72.376C272.261 72.376 272.469 72.248 272.682 71.992C272.896 71.736 273.077 71.3467 273.226 70.824L273.674 70.92C273.621 71.2187 273.504 71.544 273.322 71.896C273.152 72.248 272.917 72.552 272.618 72.808C272.33 73.0533 271.989 73.176 271.594 73.176C270.805 73.176 270.41 72.696 270.41 71.736C270.41 71.2667 270.506 70.552 270.698 69.592H270.65C270.202 71 269.712 71.9493 269.178 72.44C268.645 72.9307 268.096 73.176 267.53 73.176C266.912 73.176 266.416 72.952 266.042 72.504C265.68 72.056 265.498 71.352 265.498 70.392C265.498 69.368 265.674 68.4347 266.026 67.592C266.378 66.7493 266.906 66.0773 267.61 65.576C268.314 65.0747 269.168 64.824 270.17 64.824ZM269.674 65.4C269.056 65.4 268.533 65.624 268.106 66.072C267.68 66.5093 267.36 67.0907 267.146 67.816C266.944 68.5307 266.842 69.2987 266.842 70.12C266.842 71.688 267.189 72.472 267.882 72.472C268.352 72.472 268.821 72.104 269.29 71.368C269.76 70.632 270.149 69.7253 270.458 68.648C270.768 67.56 270.922 66.5413 270.922 65.592C270.602 65.464 270.186 65.4 269.674 65.4ZM282.808 70.92C282.755 71.2187 282.643 71.544 282.472 71.896C282.301 72.2373 282.067 72.536 281.768 72.792C281.469 73.048 281.123 73.176 280.728 73.176C280.312 73.176 280.003 73.048 279.8 72.792C279.597 72.536 279.496 72.184 279.496 71.736C279.496 71.3413 279.571 70.6213 279.72 69.576C279.944 67.9227 280.056 66.7067 280.056 65.928V65.608L278.968 65.624H279.384C279.117 65.624 278.947 65.7947 278.872 66.136C278.445 68.28 277.896 69.9867 277.224 71.256C276.552 72.5253 275.693 73.16 274.648 73.16C274.349 73.16 274.099 73.0747 273.896 72.904C273.704 72.7333 273.608 72.5307 273.608 72.296C273.608 72.0933 273.677 71.9173 273.816 71.768C273.955 71.608 274.131 71.528 274.344 71.528C274.525 71.528 274.685 71.5867 274.824 71.704C274.963 71.8213 275.032 71.9707 275.032 72.152C275.032 72.2267 275.021 72.3067 275 72.392C275.448 72.4453 275.88 72.1413 276.296 71.48C276.723 70.808 277.091 69.944 277.4 68.888C277.72 67.8213 277.96 66.7333 278.12 65.624L276.648 65.64L276.696 65H281.368C281.379 65.096 281.384 65.2347 281.384 65.416C281.384 65.6933 281.347 66.1627 281.272 66.824C281.208 67.4747 281.133 68.136 281.048 68.808C280.856 70.4293 280.76 71.3787 280.76 71.656C280.76 72.1253 280.904 72.36 281.192 72.36C281.395 72.36 281.603 72.2373 281.816 71.992C282.029 71.736 282.211 71.3467 282.36 70.824L282.808 70.92ZM278.824 66.28V66.328V66.28ZM285.112 64.824C285.539 64.824 285.859 64.9573 286.072 65.224C286.296 65.4907 286.408 65.8747 286.408 66.376C286.408 66.76 286.323 67.56 286.152 68.776C286.142 68.872 286.094 69.2347 286.008 69.864C285.923 70.4827 285.88 71 285.88 71.416C285.88 71.672 285.934 71.9067 286.04 72.12C286.158 72.3227 286.355 72.424 286.632 72.424C287.102 72.424 287.571 72.072 288.04 71.368C288.51 70.6533 288.894 69.7787 289.192 68.744C289.502 67.7093 289.656 66.744 289.656 65.848C289.656 65.6453 289.646 65.3627 289.624 65H290.968C290.979 65.096 290.984 65.2347 290.984 65.416C290.984 65.672 290.958 66.0667 290.904 66.6C290.851 67.1333 290.771 67.8267 290.664 68.68L290.504 70.008C290.494 70.1467 290.467 70.4027 290.424 70.776C290.382 71.1493 290.36 71.4427 290.36 71.656C290.36 72.1253 290.504 72.36 290.792 72.36C290.995 72.36 291.203 72.2373 291.416 71.992C291.63 71.736 291.811 71.3467 291.96 70.824L292.408 70.92C292.355 71.2187 292.238 71.544 292.056 71.896C291.886 72.248 291.651 72.552 291.352 72.808C291.064 73.0533 290.723 73.176 290.328 73.176C289.912 73.176 289.603 73.048 289.4 72.792C289.198 72.536 289.096 72.184 289.096 71.736C289.096 71.2667 289.192 70.552 289.384 69.592H289.336C288.824 70.968 288.334 71.912 287.864 72.424C287.395 72.9253 286.878 73.176 286.312 73.176C285.715 73.176 285.272 72.984 284.984 72.6C284.707 72.2053 284.568 71.704 284.568 71.096C284.568 70.6373 284.595 70.1733 284.648 69.704C284.702 69.2347 284.782 68.6693 284.888 68.008C284.91 67.8907 284.947 67.6453 285 67.272C285.054 66.888 285.08 66.5893 285.08 66.376C285.08 66.1307 285.048 65.944 284.984 65.816C284.931 65.688 284.819 65.624 284.648 65.624C284.456 65.624 284.259 65.752 284.056 66.008C283.854 66.2533 283.678 66.6427 283.528 67.176L283.08 67.08C283.176 66.5573 283.395 66.0507 283.736 65.56C284.088 65.0693 284.547 64.824 285.112 64.824ZM295.605 73.176C294.794 73.176 294.143 73 293.653 72.648C293.173 72.296 292.933 71.848 292.933 71.304C292.933 71.0587 292.997 70.8667 293.125 70.728C293.253 70.5893 293.423 70.52 293.637 70.52C293.85 70.52 294.01 70.5893 294.117 70.728C294.234 70.8667 294.293 71.0107 294.293 71.16C294.293 71.416 294.223 71.6187 294.085 71.768C294.138 72.056 294.287 72.2747 294.533 72.424C294.778 72.5627 295.093 72.632 295.477 72.632C296.159 72.632 296.682 72.4613 297.045 72.12C297.418 71.768 297.605 71.304 297.605 70.728C297.605 70.2373 297.482 69.848 297.237 69.56C296.991 69.2613 296.623 69.112 296.133 69.112C295.866 69.112 295.567 69.16 295.237 69.256L295.061 68.696C295.861 68.4507 296.437 68.1627 296.789 67.832C297.141 67.4907 297.317 67.0747 297.317 66.584C297.317 66.1787 297.21 65.8747 296.997 65.672C296.783 65.4693 296.453 65.368 296.005 65.368C295.621 65.368 295.285 65.4427 294.997 65.592C294.709 65.7413 294.49 65.944 294.341 66.2C294.543 66.232 294.682 66.3013 294.757 66.408C294.842 66.5147 294.885 66.664 294.885 66.856C294.885 67.0373 294.821 67.1867 294.693 67.304C294.575 67.4213 294.421 67.48 294.229 67.48C294.037 67.48 293.871 67.416 293.733 67.288C293.605 67.1493 293.541 66.9733 293.541 66.76C293.519 66.408 293.631 66.0827 293.877 65.784C294.133 65.4853 294.474 65.2507 294.901 65.08C295.338 64.9093 295.802 64.824 296.293 64.824C296.986 64.824 297.541 64.9573 297.957 65.224C298.373 65.48 298.581 65.864 298.581 66.376C298.581 66.8027 298.426 67.2027 298.117 67.576C297.807 67.9493 297.343 68.2747 296.725 68.552V68.584C297.375 68.6267 297.882 68.8347 298.245 69.208C298.618 69.5707 298.805 70.0133 298.805 70.536C298.805 71.0267 298.671 71.4747 298.405 71.88C298.149 72.2853 297.775 72.6053 297.285 72.84C296.805 73.064 296.245 73.176 295.605 73.176ZM304.748 64.824C305.474 64.824 306.188 64.9147 306.892 65.096C306.423 68.5733 306.188 70.7067 306.188 71.496C306.188 71.7733 306.215 71.992 306.268 72.152C306.322 72.3013 306.444 72.376 306.636 72.376C306.839 72.376 307.047 72.248 307.26 71.992C307.474 71.736 307.655 71.3467 307.804 70.824L308.252 70.92C308.199 71.2187 308.082 71.544 307.9 71.896C307.73 72.248 307.495 72.552 307.196 72.808C306.908 73.0533 306.567 73.176 306.172 73.176C305.383 73.176 304.988 72.696 304.988 71.736C304.988 71.2667 305.084 70.552 305.276 69.592H305.228C304.78 71 304.29 71.9493 303.756 72.44C303.223 72.9307 302.674 73.176 302.108 73.176C301.49 73.176 300.994 72.952 300.62 72.504C300.258 72.056 300.076 71.352 300.076 70.392C300.076 69.368 300.252 68.4347 300.604 67.592C300.956 66.7493 301.484 66.0773 302.188 65.576C302.892 65.0747 303.746 64.824 304.748 64.824ZM304.252 65.4C303.634 65.4 303.111 65.624 302.684 66.072C302.258 66.5093 301.938 67.0907 301.724 67.816C301.522 68.5307 301.42 69.2987 301.42 70.12C301.42 71.688 301.767 72.472 302.46 72.472C302.93 72.472 303.399 72.104 303.868 71.368C304.338 70.632 304.727 69.7253 305.036 68.648C305.346 67.56 305.5 66.5413 305.5 65.592C305.18 65.464 304.764 65.4 304.252 65.4ZM317.098 73.208C317.269 73.4853 317.354 73.784 317.354 74.104C317.354 74.8507 316.895 75.6133 315.978 76.392L315.61 76.024C316.058 75.4693 316.282 75.016 316.282 74.664C316.282 74.5573 316.25 74.4187 316.186 74.248C316.122 74.1093 316.09 73.9653 316.09 73.816C316.09 73.56 316.181 73.2827 316.362 72.984L316.218 72.904C316.026 73.0853 315.738 73.176 315.354 73.176C315.045 73.176 314.799 73.048 314.618 72.792C314.447 72.5253 314.362 72.1733 314.362 71.736C314.362 71.2667 314.458 70.552 314.65 69.592H314.602C314.09 70.968 313.599 71.912 313.13 72.424C312.661 72.9253 312.143 73.176 311.578 73.176C310.981 73.176 310.538 72.984 310.25 72.6C309.973 72.2053 309.834 71.704 309.834 71.096C309.834 70.6373 309.861 70.1733 309.914 69.704C309.967 69.2347 310.047 68.6693 310.154 68.008C310.175 67.8907 310.213 67.6453 310.266 67.272C310.319 66.888 310.346 66.5893 310.346 66.376C310.346 66.1307 310.314 65.944 310.25 65.816C310.197 65.688 310.085 65.624 309.914 65.624C309.722 65.624 309.525 65.752 309.322 66.008C309.119 66.2533 308.943 66.6427 308.794 67.176L308.346 67.08C308.442 66.5573 308.661 66.0507 309.002 65.56C309.354 65.0693 309.813 64.824 310.378 64.824C310.805 64.824 311.125 64.9573 311.338 65.224C311.562 65.4907 311.674 65.8747 311.674 66.376C311.674 66.76 311.589 67.56 311.418 68.776C311.407 68.872 311.359 69.2347 311.274 69.864C311.189 70.4827 311.146 71 311.146 71.416C311.146 71.672 311.199 71.9067 311.306 72.12C311.423 72.3227 311.621 72.424 311.898 72.424C312.367 72.424 312.837 72.072 313.306 71.368C313.775 70.6533 314.159 69.7787 314.458 68.744C314.767 67.7093 314.922 66.744 314.922 65.848C314.922 65.6453 314.911 65.3627 314.89 65H316.234C316.245 65.096 316.25 65.2347 316.25 65.416C316.25 65.672 316.223 66.0667 316.17 66.6C316.117 67.1333 316.037 67.8267 315.93 68.68L315.77 70.008C315.759 70.1467 315.733 70.4027 315.69 70.776C315.647 71.1493 315.626 71.4427 315.626 71.656C315.626 71.8693 315.653 72.04 315.706 72.168C315.77 72.296 315.861 72.36 315.978 72.36C316.063 72.36 316.138 72.328 316.202 72.264C316.277 72.1893 316.357 72.072 316.442 71.912L316.922 70.824L317.354 70.952L317.21 71.384L317.146 71.56L317.018 71.928C316.943 72.152 316.906 72.3547 316.906 72.536C316.906 72.7813 316.97 73.0053 317.098 73.208ZM320.222 64.824C320.648 64.824 320.968 64.9573 321.182 65.224C321.406 65.4907 321.518 65.8747 321.518 66.376C321.518 66.76 321.432 67.56 321.262 68.776C321.251 68.872 321.203 69.2347 321.118 69.864C321.032 70.4827 320.99 71 320.99 71.416C320.99 71.672 321.043 71.9067 321.15 72.12C321.267 72.3227 321.464 72.424 321.742 72.424C322.211 72.424 322.68 72.072 323.15 71.368C323.619 70.6533 324.003 69.7787 324.302 68.744C324.611 67.7093 324.766 66.744 324.766 65.848C324.766 65.6453 324.755 65.3627 324.734 65H326.078C326.088 65.096 326.094 65.2347 326.094 65.416C326.094 65.672 326.067 66.0667 326.014 66.6C325.96 67.1333 325.88 67.8267 325.774 68.68L325.614 70.008C325.603 70.1467 325.576 70.4027 325.534 70.776C325.491 71.1493 325.47 71.4427 325.47 71.656C325.47 72.1253 325.614 72.36 325.902 72.36C326.104 72.36 326.312 72.2373 326.526 71.992C326.739 71.736 326.92 71.3467 327.07 70.824L327.518 70.92C327.464 71.2187 327.347 71.544 327.166 71.896C326.995 72.248 326.76 72.552 326.462 72.808C326.174 73.0533 325.832 73.176 325.438 73.176C325.022 73.176 324.712 73.048 324.51 72.792C324.307 72.536 324.206 72.184 324.206 71.736C324.206 71.2667 324.302 70.552 324.494 69.592H324.446C323.934 70.968 323.443 71.912 322.974 72.424C322.504 72.9253 321.987 73.176 321.422 73.176C320.824 73.176 320.382 72.984 320.094 72.6C319.816 72.2053 319.678 71.704 319.678 71.096C319.678 70.6373 319.704 70.1733 319.758 69.704C319.811 69.2347 319.891 68.6693 319.998 68.008C320.019 67.8907 320.056 67.6453 320.11 67.272C320.163 66.888 320.19 66.5893 320.19 66.376C320.19 66.1307 320.158 65.944 320.094 65.816C320.04 65.688 319.928 65.624 319.758 65.624C319.566 65.624 319.368 65.752 319.166 66.008C318.963 66.2533 318.787 66.6427 318.638 67.176L318.19 67.08C318.286 66.5573 318.504 66.0507 318.846 65.56C319.198 65.0693 319.656 64.824 320.222 64.824ZM329.706 64.824C330.133 64.824 330.453 64.9573 330.666 65.224C330.89 65.4907 331.002 65.8747 331.002 66.376C331.002 66.76 330.917 67.56 330.746 68.776C330.735 68.872 330.687 69.2347 330.602 69.864C330.517 70.4827 330.474 71 330.474 71.416C330.474 71.672 330.527 71.9067 330.634 72.12C330.751 72.3227 330.949 72.424 331.226 72.424C331.695 72.424 332.165 72.072 332.634 71.368C333.103 70.6533 333.487 69.7787 333.786 68.744C334.095 67.7093 334.25 66.744 334.25 65.848C334.25 65.6453 334.239 65.3627 334.218 65H335.562C335.573 65.096 335.578 65.2347 335.578 65.416C335.578 65.672 335.551 66.0667 335.498 66.6C335.445 67.1333 335.365 67.8267 335.258 68.68L335.098 70.008C335.087 70.1467 335.061 70.4027 335.018 70.776C334.975 71.1493 334.954 71.4427 334.954 71.656C334.954 72.1253 335.098 72.36 335.386 72.36C335.589 72.36 335.797 72.2373 336.01 71.992C336.223 71.736 336.405 71.3467 336.554 70.824L337.002 70.92C336.949 71.2187 336.831 71.544 336.65 71.896C336.479 72.248 336.245 72.552 335.946 72.808C335.658 73.0533 335.317 73.176 334.922 73.176C334.506 73.176 334.197 73.048 333.994 72.792C333.791 72.536 333.69 72.184 333.69 71.736C333.69 71.2667 333.786 70.552 333.978 69.592H333.93C333.418 70.968 332.927 71.912 332.458 72.424C331.989 72.9253 331.471 73.176 330.906 73.176C330.309 73.176 329.866 72.984 329.578 72.6C329.301 72.2053 329.162 71.704 329.162 71.096C329.162 70.6373 329.189 70.1733 329.242 69.704C329.295 69.2347 329.375 68.6693 329.482 68.008C329.503 67.8907 329.541 67.6453 329.594 67.272C329.647 66.888 329.674 66.5893 329.674 66.376C329.674 66.1307 329.642 65.944 329.578 65.816C329.525 65.688 329.413 65.624 329.242 65.624C329.05 65.624 328.853 65.752 328.65 66.008C328.447 66.2533 328.271 66.6427 328.122 67.176L327.674 67.08C327.77 66.5573 327.989 66.0507 328.33 65.56C328.682 65.0693 329.141 64.824 329.706 64.824Z" fill="#ABABAB"/>
<path d="M123.944 22.448C128.216 22.448 131.696 23.504 134.384 25.616C137.12 27.68 138.368 30.968 138.128 35.48C137.792 41 132.848 47.456 123.296 54.848C119.696 57.584 116.864 60.08 114.8 62.336C112.736 64.544 111.464 66.656 110.984 68.672L123.512 69.032C124.568 69.08 126.032 69.104 127.904 69.104C130.544 69.104 132.488 68.768 133.736 68.096C135.032 67.424 135.728 66.08 135.824 64.064H138.056L137.048 74H105.944C106.088 71.168 106.712 68.648 107.816 66.44C108.968 64.184 110.36 62.216 111.992 60.536C113.624 58.808 115.88 56.696 118.76 54.2L121.28 52.04C124.16 49.4 126.488 46.712 128.264 43.976C130.088 41.192 131.048 38.672 131.144 36.416C131.288 33.104 130.688 30.416 129.344 28.352C128.048 26.288 125.816 25.256 122.648 25.256C120.728 25.256 118.952 25.736 117.32 26.696C115.736 27.656 114.632 28.88 114.008 30.368C114.728 31.136 115.088 32.168 115.088 33.464C115.088 34.376 114.776 35.168 114.152 35.84C113.528 36.512 112.712 36.848 111.704 36.848C110.744 36.848 109.928 36.512 109.256 35.84C108.632 35.168 108.32 34.304 108.32 33.248C108.32 31.616 108.944 29.96 110.192 28.28C111.488 26.6 113.312 25.208 115.664 24.104C118.064 23 120.824 22.448 123.944 22.448ZM163.716 22.448C166.116 22.448 168.348 22.88 170.412 23.744C172.524 24.56 174.204 25.784 175.452 27.416C176.748 29.048 177.396 31.016 177.396 33.32C177.396 36.008 176.388 38.552 174.372 40.952C172.404 43.352 169.98 45.296 167.1 46.784C170.46 48.8 173.148 51.104 175.164 53.696C177.18 56.288 178.116 59.048 177.972 61.976C177.78 66.296 176.1 69.584 172.932 71.84C169.764 74.048 165.9 75.152 161.34 75.152C156.924 75.152 153.252 74.24 150.324 72.416C147.396 70.592 145.932 67.712 145.932 63.776C145.932 60.704 146.988 57.824 149.1 55.136C151.26 52.4 154.02 50.024 157.38 48.008C154.212 46.088 151.836 44.072 150.252 41.96C148.668 39.8 147.924 37.664 148.02 35.552C148.164 32.672 149.004 30.248 150.54 28.28C152.124 26.312 154.068 24.848 156.372 23.888C158.724 22.928 161.172 22.448 163.716 22.448ZM163.716 25.256C161.844 25.256 160.188 25.688 158.748 26.552C157.356 27.416 156.276 28.568 155.508 30.008C154.74 31.4 154.356 32.888 154.356 34.472C154.356 36.632 155.196 38.648 156.876 40.52C158.604 42.392 161.148 44.024 164.508 45.416C166.716 43.976 168.468 42.272 169.764 40.304C171.108 38.288 171.828 36.416 171.924 34.688C172.116 31.712 171.444 29.408 169.908 27.776C168.42 26.096 166.356 25.256 163.716 25.256ZM159.828 49.376C157.044 51.248 155.028 53.432 153.78 55.928C152.532 58.424 151.908 60.752 151.908 62.912C151.908 65.936 152.748 68.264 154.428 69.896C156.108 71.48 158.508 72.272 161.628 72.272C164.46 72.272 166.788 71.36 168.612 69.536C170.436 67.664 171.348 65.336 171.348 62.552C171.348 59.96 170.46 57.632 168.684 55.568C166.908 53.456 164.436 51.632 161.268 50.096C160.596 49.808 160.116 49.568 159.828 49.376Z" fill="#ABABAB"/>
<circle cx="115.5" cy="61.5" r="31" stroke="#3688DF" stroke-opacity="0.14"/>
<g filter="url(#filter0_d)">
<circle cx="84.5" cy="88.5" r="4.5" fill="#36DFB6" style="mix-blend-mode:multiply"/>
</g>
<defs>
<filter id="filter0_d" x="0" y="84" width="169" height="189" filterUnits="userSpaceOnUse" color-interpolation-filters="sRGB">
<feFlood flood-opacity="0" result="BackgroundImageFix"/>
<feColorMatrix in="SourceAlpha" type="matrix" values="0 0 0 0 0 0 0 0 0 0 0 0 0 0 0 0 0 0 127 0"/>
<feOffset dy="100"/>
<feGaussianBlur stdDeviation="40"/>
<feColorMatrix type="matrix" values="0 0 0 0 0.807929 0 0 0 0 0.797289 0 0 0 0 0.797289 0 0 0 0.2 0"/>
<feBlend mode="normal" in2="BackgroundImageFix" result="effect1_dropShadow"/>
<feBlend mode="normal" in="SourceGraphic" in2="effect1_dropShadow" result="shape"/>
</filter>
</defs>
</svg>
